<?xml version="1.0" standalone="no"?>
<!DOCTYPE svg PUBLIC "-//W3C//DTD SVG 20010904//EN"
 "http://www.w3.org/TR/2001/REC-SVG-20010904/DTD/svg10.dtd">
<svg version="1.0" xmlns="http://www.w3.org/2000/svg"
 width="500.000000pt" height="500.000000pt" viewBox="0 0 500.000000 500.000000"
 preserveAspectRatio="xMidYMid meet">
<metadata>
Created by potrace 1.11, written by Peter Selinger 2001-2013
</metadata>
<g transform="translate(0.000000,500.000000) scale(0.100000,-0.100000)"
fill="#000000" stroke="none">
<path d="M2175 4984 c-237 -32 -458 -93 -675 -186 -815 -349 -1392 -1129
-1490 -2013 -15 -138 -12 -457 5 -592 39 -293 113 -538 239 -793 72 -145 186
-332 200 -327 5 2 29 67 53 145 l44 142 -74 148 c-341 688 -310 1493 81 2150
126 211 330 448 517 599 242 196 547 351 840 427 533 140 1112 79 1591 -165
54 -27 98 -48 100 -47 1 2 16 50 34 107 17 57 34 109 36 116 7 17 -228 126
-386 178 -160 53 -320 90 -483 112 -146 19 -491 19 -632 -1z"/>
<path d="M2235 4649 c-547 -73 -1047 -343 -1387 -748 -249 -298 -412 -645
-480 -1021 -25 -144 -36 -463 -19 -606 18 -153 49 -297 96 -441 48 -145 134
-338 146 -326 4 4 170 544 369 1198 326 1073 386 1262 395 1253 7 -7 235 -762
235 -778 0 -9 -171 -579 -380 -1266 -209 -687 -379 -1255 -378 -1263 5 -22 97
-96 107 -85 5 5 170 541 367 1191 198 649 362 1176 365 1170 3 -7 59 -186 124
-400 l118 -387 -217 -718 c-120 -394 -224 -736 -231 -760 l-14 -43 32 -19 c54
-33 228 -107 343 -145 371 -123 811 -137 1194 -40 271 69 516 184 750 352 123
88 375 340 463 463 290 405 430 859 414 1345 -9 273 -57 501 -158 748 -51 126
-65 150 -73 126 -3 -8 -174 -556 -381 -1219 -348 -1118 -400 -1279 -410 -1269
-6 7 -235 764 -235 778 0 11 417 1349 765 2455 l44 139 -47 43 c-26 24 -52 43
-58 44 -10 0 -137 -397 -596 -1858 -123 -393 -185 -577 -190 -565 -4 10 -60
190 -124 400 l-116 382 150 473 c295 925 352 1107 352 1118 0 14 -225 123
-343 165 -109 39 -248 76 -382 100 -106 20 -499 29 -610 14z m-389 -610 c57
-27 108 -85 127 -145 11 -34 818 -2674 903 -2956 5 -17 -8 -18 -173 -18 -165
0 -182 2 -228 24 -63 29 -118 89 -138 152 -13 40 -869 2841 -897 2937 l-9 27
187 0 c167 0 190 -2 228 -21z m645 -7 c32 -17 65 -44 81 -67 21 -30 137 -399
473 -1500 245 -803 452 -1479 460 -1503 l14 -44 -193 4 -193 3 -49 30 c-26 17
-61 48 -76 70 -20 30 -145 425 -483 1533 -250 821 -455 1495 -455 1497 0 3 83
5 184 5 182 0 184 0 237 -28z"/>
<path d="M4509 3751 l-46 -148 44 -86 c341 -679 314 -1498 -70 -2150 -433
-734 -1265 -1173 -2097 -1107 -311 25 -592 100 -841 226 -39 19 -72 34 -74 32
-5 -6 -65 -211 -65 -225 0 -25 243 -130 423 -182 264 -77 501 -107 787 -98
206 6 328 22 500 62 918 219 1636 937 1855 1855 40 172 56 294 62 500 13 442
-74 831 -271 1218 -58 113 -143 252 -154 252 -4 0 -28 -67 -53 -149z"/>
</g>
</svg>
