<?xml version="1.0" encoding="UTF-8" standalone="no"?>
<svg width="16px" height="17px" viewBox="0 0 16 17" version="1.1" xmlns="http://www.w3.org/2000/svg" xmlns:xlink="http://www.w3.org/1999/xlink" xmlns:sketch="http://www.bohemiancoding.com/sketch/ns">
    <!-- Generator: Sketch 3.0.4 (8054) - http://www.bohemiancoding.com/sketch -->
    <title>Imported Layers</title>
    <desc>Created with Sketch.</desc>
    <defs></defs>
    <g id="Content-(Two-column)" stroke="none" stroke-width="1" fill="none" fill-rule="evenodd" sketch:type="MSPage">
        <g id="Desktop-HD" sketch:type="MSArtboardGroup" transform="translate(-434.000000, -123.000000)" fill="#5FB6D9">
            <g id="PAGE-TITLE" sketch:type="MSLayerGroup" transform="translate(0.000000, 101.000000)">
                <g id="BREADCRUMB" transform="translate(434.000000, 22.000000)" sketch:type="MSShapeGroup">
                    <path d="M6.28571429,16.7017544 L9.71428571,16.7017544 L9.71428571,9.54385965 L6.28571429,9.54385965 L6.28571429,16.7017544 Z M15.9194286,8.44303509 L15.92,8.44214035 L13.1428571,5.43612281 L13.1428571,1.78947368 C13.1428571,1.46021053 12.8868571,1.19298246 12.5714286,1.19298246 L11.4285714,1.19298246 C11.1128571,1.19298246 10.8571429,1.46021053 10.8571429,1.78947368 L10.8571429,2.96157895 L8.20571429,0.0912631579 L8.20514286,0.0921578947 C8.15285714,0.0357894737 8.08085714,0 8,0 C7.91914286,0 7.84714286,0.0357894737 7.79485714,0.0921578947 L7.79428571,0.0912631579 L0.08,8.44214035 L0.0805714286,8.44303509 C0.0311428571,8.49642105 0,8.56859649 0,8.64912281 C0,8.81405263 0.127714286,8.94736842 0.285714286,8.94736842 C0.366571429,8.94736842 0.438571429,8.91187719 0.490857143,8.85521053 L0.491428571,8.85610526 L1.71428571,7.53249123 L1.71428571,16.1052632 C1.71428571,16.4348246 1.97,16.7017544 2.28571429,16.7017544 L5.71428571,16.7017544 L5.71428571,9.54385965 C5.71428571,9.21459649 5.97,8.94736842 6.28571429,8.94736842 L9.71428571,8.94736842 C10.0297143,8.94736842 10.2857143,9.21459649 10.2857143,9.54385965 L10.2857143,16.7017544 L13.7142857,16.7017544 C14.0297143,16.7017544 14.2857143,16.4348246 14.2857143,16.1052632 L14.2857143,7.53249123 L15.5085714,8.85610526 L15.5091429,8.85521053 C15.5614286,8.91187719 15.6334286,8.94736842 15.7142857,8.94736842 C15.8722857,8.94736842 16,8.81405263 16,8.64912281 C16,8.56859649 15.9688571,8.49642105 15.9194286,8.44303509 L15.9194286,8.44303509 Z" id="Imported-Layers"></path>
                </g>
            </g>
        </g>
    </g>
</svg>