<?xml version="1.0" encoding="UTF-8" standalone="no"?>
<svg width="56px" height="54px" viewBox="0 0 56 54" version="1.1" xmlns="http://www.w3.org/2000/svg" xmlns:xlink="http://www.w3.org/1999/xlink" xmlns:sketch="http://www.bohemiancoding.com/sketch/ns">
    <!-- Generator: Sketch 3.2.2 (9983) - http://www.bohemiancoding.com/sketch -->
    <title>Fill 35</title>
    <desc>Created with Sketch.</desc>
    <defs></defs>
    <g id="Page-1" stroke="none" stroke-width="1" fill="none" fill-rule="evenodd" sketch:type="MSPage">
        <g id="Glyphish-6-Icons" sketch:type="MSLayerGroup" transform="translate(-20.000000, -405.000000)" fill="#fff">
            <g id="Group-205" transform="translate(19.000000, 30.000000)" sketch:type="MSShapeGroup">
                <path d="M47.8345,391.039 C47.9325,390.371 48.0005,389.692 48.0005,388.997 C48.0005,381.266 41.7315,374.997 34.0005,374.997 C27.8965,374.997 22.7185,378.911 20.8025,384.36 C19.5845,383.504 18.1025,382.997 16.5005,382.997 C12.7315,382.997 9.6225,385.779 9.0895,389.399 C4.4295,390.677 1.0005,394.932 1.0005,399.997 C1.0005,406.072 5.9245,410.997 12.0005,410.997 L23.0005,410.997 C23.5525,410.997 24.0005,410.55 24.0005,409.997 C24.0005,409.445 23.5525,408.997 23.0005,408.997 L12.0005,408.997 C7.0295,408.997 3.0005,404.968 3.0005,399.997 C3.0005,395.346 6.5285,391.519 11.0555,391.048 C11.0375,390.864 11.0005,390.685 11.0005,390.497 C11.0005,387.46 13.4625,384.997 16.5005,384.997 C18.6415,384.997 20.6625,386.357 21.6805,388.218 C22.2375,382.049 27.7195,376.997 34.0005,376.997 C40.6275,376.997 46.0005,382.37 46.0005,388.997 C46.0005,390.478 45.7185,391.891 45.2285,393.201 C45.7985,393.071 46.3905,392.997 47.0005,392.997 C51.4185,392.997 55.0005,396.579 55.0005,400.997 C55.0005,405.416 51.4185,408.997 47.0005,408.997 L35.0005,408.997 C34.4475,408.997 34.0005,409.445 34.0005,409.997 C34.0005,410.55 34.4475,410.997 35.0005,410.997 L47.0005,410.997 C52.5225,410.997 57.0005,406.519 57.0005,400.997 C57.0005,395.756 52.9655,391.464 47.8345,391.039 M37.0005,418.997 C36.7235,418.997 36.4735,419.109 36.2925,419.29 L30.0005,425.583 L30.0005,393.997 C30.0005,393.445 29.5525,392.997 29.0005,392.997 C28.4475,392.997 28.0005,393.445 28.0005,393.997 L28.0005,425.583 L21.7075,419.29 C21.5265,419.109 21.2765,418.997 21.0005,418.997 C20.4475,418.997 20.0005,419.445 20.0005,419.997 C20.0005,420.273 20.1115,420.523 20.2925,420.704 L28.2925,428.704 C28.4735,428.886 28.7235,428.997 29.0005,428.997 C29.2765,428.997 29.5265,428.886 29.7075,428.704 L37.7075,420.704 C37.8885,420.523 38.0005,420.273 38.0005,419.997 C38.0005,419.445 37.5525,418.997 37.0005,418.997" id="Fill-35"></path>
            </g>
        </g>
    </g>
</svg>