<?xml version="1.0" encoding="UTF-8" standalone="no"?>
<svg width="360px" height="240px" viewBox="0 0 360 240" version="1.1" xmlns="http://www.w3.org/2000/svg" xmlns:xlink="http://www.w3.org/1999/xlink" xmlns:sketch="http://www.bohemiancoding.com/sketch/ns">
    <!-- Generator: Sketch 3.0.4 (8054) - http://www.bohemiancoding.com/sketch -->
    <title>Portrait</title>
    <desc>Created with Sketch.</desc>
    <defs></defs>
    <g id="Page-1" stroke="none" stroke-width="1" fill="none" fill-rule="evenodd" sketch:type="MSPage">
        <g id="Portrait" sketch:type="MSArtboardGroup" transform="translate(-45.000000, -33.000000)">
            <g id="save" sketch:type="MSLayerGroup" transform="translate(103.000000, 66.000000)">
                <path d="M156.17935,134.767422 L159.202146,144.555468 C159.202146,144.555468 159.392522,144.995798 159.858401,144.995798 L160.892312,144.995798 L158.061439,135.477532 C158.061439,135.477532 157.764268,134.714706 157.188497,134.714706 C156.617369,134.714706 156.17935,134.767422 156.17935,134.767422" id="Fill-1" fill="#DBB71D" sketch:type="MSShapeGroup"></path>
                <path d="M158.27658,134.767422 L161.299376,144.555468 C161.299376,144.555468 161.489752,144.995798 161.952535,144.995798 L162.987994,144.995798 L160.155573,135.477532 C160.155573,135.477532 159.858401,134.714706 159.284178,134.714706 C158.711503,134.714706 158.27658,134.767422 158.27658,134.767422" id="Fill-2" fill="#DBB71D" sketch:type="MSShapeGroup"></path>
                <path d="M155.93635,135.043404 L156.755121,137.766009 L154.24928,145.975688 C154.24928,145.975688 153.243229,145.020606 153.024994,144.588028 L155.93635,135.043404" id="Fill-3" fill="#DBB71D" sketch:type="MSShapeGroup"></path>
                <path d="M156.943949,138.448211 L157.812248,141.206477 L155.93635,147.124578 C155.93635,147.124578 154.767783,146.495092 154.600624,146.250119 L156.943949,138.448211" id="Fill-4" fill="#DBB71D" sketch:type="MSShapeGroup"></path>
                <path d="M161.540828,138.970716 L162.359599,141.72433 L164.863892,133.624734 C164.863892,133.624734 164.156561,132.995248 163.449229,132.668101 L161.540828,138.970716" id="Fill-5" fill="#DBB71D" sketch:type="MSShapeGroup"></path>
                <path d="M165.190471,133.894514 L162.58093,142.429789 L163.340885,144.995798 L166.41321,135.314734 C166.41321,135.314734 165.574318,134.223211 165.190471,133.894514" id="Fill-6" fill="#DBB71D" sketch:type="MSShapeGroup"></path>
                <path d="M159.666478,147.175743 C155.645369,147.175743 152.370287,143.896523 152.370287,139.869982 C152.370287,135.837239 155.645369,132.558018 159.666478,132.558018 C163.687586,132.558018 166.964217,135.837239 166.964217,139.869982 C166.964217,143.896523 163.687586,147.175743 159.666478,147.175743 M159.666478,132.886716 C155.823363,132.886716 152.696866,136.018642 152.696866,139.869982 C152.696866,143.71667 155.823363,146.848596 159.666478,146.848596 C163.51114,146.848596 166.632994,143.71667 166.632994,139.869982 C166.632994,136.018642 163.51114,132.886716 159.666478,132.886716" id="Fill-7" fill="#DBB71D" sketch:type="MSShapeGroup"></path>
                <path d="M159.666478,148.090514 C155.140796,148.090514 151.460197,144.401972 151.460197,139.869982 C151.460197,135.33489 155.140796,131.644798 159.666478,131.644798 C164.190611,131.644798 167.872758,135.33489 167.872758,139.869982 C167.872758,144.401972 164.190611,148.090514 159.666478,148.090514 M159.666478,131.731624 C155.185682,131.731624 151.539134,135.381404 151.539134,139.869982 C151.539134,144.353908 155.185682,148.005239 159.666478,148.005239 C164.144178,148.005239 167.790726,144.353908 167.790726,139.869982 C167.790726,135.381404 164.144178,131.731624 159.666478,131.731624" id="Fill-8" fill="#DBB71D" sketch:type="MSShapeGroup"></path>
                <path d="M-0.713522293,160.639927 L58.3958408,139.35833 L186.213841,139.35833 L240.535949,160.639927 L187.014038,163.576495 L20.8500191,165.412239 L-0.713522293,160.639927" id="Fill-9" fill="#E5E5E5" sketch:type="MSShapeGroup"></path>
                <path d="M12.0664204,168.716266 L230.141121,168.716266 L240.535949,160.639927 L-0.713522293,160.639927 L12.0664204,168.716266" id="Fill-10" fill="#808080" sketch:type="MSShapeGroup"></path>
                <path d="M229.650478,168.716266 L89.4178089,168.716266 L89.4270955,168.846505 L229.650478,168.716266" id="Fill-11" fill="#E3E3E3" sketch:type="MSShapeGroup"></path>
                <path d="M168.149809,139.35833 L125.165121,139.35833 L88.7940573,160.322083 L88.8188217,160.639927 L240.535949,160.639927 L201.563083,146.059413 C201.392828,146.316789 201.112682,146.485789 200.798484,146.485789 L199.150108,146.485789 L198.286452,146.823789 L198.286452,153.593092 C198.286452,153.593092 200.170089,154.610193 197.342312,154.610193 L165.637777,154.610193 C165.117726,154.610193 164.695185,154.155908 164.695185,153.593092 L164.695185,148.324633 C164.654943,148.293624 164.616248,148.261064 164.577554,148.230055 C163.812955,147.594367 163.498758,146.896661 163.498758,146.167945 C163.498758,144.060872 166.133064,141.68867 168.149809,139.772303 L168.149809,139.380037 L168.559968,139.380037 L168.149809,139.380037 L168.149809,139.35833" id="Fill-12" fill="#CCCCCC" sketch:type="MSShapeGroup"></path>
                <path d="M240.535949,160.639927 L88.8188217,160.639927 L89.4178089,168.716266 L229.650478,168.716266 L240.535949,160.639927" id="Fill-13" fill="#727272" sketch:type="MSShapeGroup"></path>
                <path d="M62.4463567,44.5508807 C62.4463567,44.5508807 59.5164268,44.0268257 56.3574268,41.4003486 C53.2046178,38.7800734 47.1156879,35.3644128 40.8023312,38.251367 C40.8023312,38.251367 51.6274395,44.0268257 50.5022102,53.7357982 C49.3707898,63.449422 61.5471019,59.5128073 61.5471019,59.5128073 L68.3108599,52.4256606 L62.4463567,44.5508807" id="Fill-14" fill="#E57368" sketch:type="MSShapeGroup"></path>
                <path d="M22.9967771,89.4351101 C23.8650764,95.522211 25.1512739,90.8444771 25.2364013,90.5173303 C25.2302102,90.658422 25.5072611,91.354578 30.2093885,93.6368532 C35.6188471,96.255578 26.5984395,94.6834128 26.5984395,94.6834128 C26.5984395,94.6834128 31.1101911,99.4107615 41.478707,101.513183 C51.8518662,103.610954 66.2817325,107.812697 70.7888408,116.208431 C75.2990446,124.607266 79.3572994,137.209394 73.4943439,142.460798 C73.4943439,142.460798 68.5337389,145.077972 68.5337389,149.279716 C68.5337389,149.279716 67.6344841,152.952752 77.105293,152.952752 C77.105293,152.952752 82.0612548,152.952752 84.3179045,149.803771 C86.5761019,146.654789 88.8281083,144.032963 87.9273057,140.882431 C87.0249554,137.73655 87.0249554,134.582917 87.0249554,131.435486 C87.0249554,128.284954 92.4328662,125.134422 93.7887134,115.685927 C93.7887134,115.685927 128.957159,124.610367 151.505083,110.958578 C151.505083,110.958578 157.36649,126.182532 167.738102,126.708138 C167.738102,126.708138 171.34286,136.680688 168.632713,139.310266 C165.930306,141.930541 161.42165,145.605128 164.577554,148.230055 C167.738102,150.856532 175.853064,151.379037 179.909771,149.279716 C183.968025,147.181945 179.457822,144.029862 182.161777,141.930541 C184.868828,139.832771 183.065675,128.807459 183.065675,125.134422 C183.065675,121.456734 192.084535,122.511046 190.733331,103.085349 C190.733331,103.086899 201.101847,89.9622661 199.300242,65.2898165 C199.129987,62.9827339 198.758522,60.8477523 198.289548,58.7995963 C200.911471,58.3391101 203.096924,58.098789 204.906268,58.0135138 C207.53593,64.6649817 217.963261,63.9672752 215.530166,59.5128073 C214.115503,56.9188899 210.064987,55.7095321 206.025306,55.1544679 C205.327261,52.6055138 205.160102,50.0627615 205.160102,50.0627615 C204.534803,51.9140092 204.280968,53.5388899 204.311924,54.9560092 C201.28758,54.6691743 198.520166,54.7017339 197.117885,54.7497982 C191.112535,37.856 173.693924,30.8339725 150.152331,29.068 C122.193401,26.9640275 83.869051,24.8678073 50.5022102,53.7357982 C50.5022102,53.7357982 40.129051,47.9665413 25.7007325,52.690789 C25.7007325,52.690789 44.1842102,67.9147431 40.1275032,73.1645963 C36.0692484,78.4113486 26.5984395,76.8391835 25.2472357,75.262367 C23.8960318,73.6871009 22.0944268,83.1355963 22.9967771,89.4351101 M207.102554,57.9778532 C213.010395,58.136 213.111,60.3004404 210.122255,60.3004404 C208.797363,60.3004404 207.825363,59.3267523 207.102554,57.9778532" id="Fill-15" fill="#ED9D97" sketch:type="MSShapeGroup"></path>
                <path d="M207.102554,57.9778532 C207.825363,59.3267523 208.797363,60.3004404 210.122255,60.3004404 C211.348089,60.3004404 212.053873,59.9360826 212.053873,59.4957523 C212.052325,58.8616147 210.588134,58.0708807 207.102554,57.9778532" id="Fill-16" fill="#D4D5D5" sketch:type="MSShapeGroup"></path>
                <path d="M87.2400955,137.072954 L87.2184268,137.09311 C87.2958153,137.848183 87.4041592,138.603257 87.5558408,139.35833 L87.5651274,139.35833 C87.4180892,138.597055 87.3190318,137.83578 87.2400955,137.072954" id="Fill-17" fill="#F8D5D1" sketch:type="MSShapeGroup"></path>
                <path d="M84.2482548,149.898349 L84.246707,149.899899 L84.2482548,149.898349 M84.2838535,149.850284 C84.2823057,149.851835 84.280758,149.853385 84.2792102,149.854936 C84.280758,149.853385 84.2823057,149.851835 84.2838535,149.850284 M87.5651274,139.35833 L87.5558408,139.35833 C87.6548981,139.845174 87.7709809,140.330468 87.9087325,140.817312 C87.7709809,140.330468 87.6579936,139.845174 87.5651274,139.35833" id="Fill-18" fill="#DEBFBC" sketch:type="MSShapeGroup"></path>
                <path d="M87.2184268,137.09311 L80.8880446,142.587936 L75.667414,152.817862 L78.5772229,152.817862 C80.1930955,152.575991 82.7592994,151.882936 84.246707,149.899899 L84.2482548,149.898349 C84.2590892,149.884394 84.2699236,149.86889 84.2792102,149.854936 C84.280758,149.853385 84.2823057,149.851835 84.2838535,149.850284 C84.2946879,149.83478 84.3055223,149.819275 84.3179045,149.803771 C86.2232102,147.146284 88.1254204,144.86556 88.1300637,142.324358 C88.1316115,141.854569 88.0681529,141.375477 87.9273057,140.882431 C87.9211146,140.860725 87.9149236,140.839018 87.9087325,140.817312 C87.7709809,140.330468 87.6548981,139.845174 87.5558408,139.35833 C87.4041592,138.603257 87.2958153,137.848183 87.2184268,137.09311" id="Fill-19" fill="#E6837C" sketch:type="MSShapeGroup"></path>
                <path d="M197.083834,54.6567706 C197.094669,54.6877798 197.105503,54.718789 197.117885,54.7497982 C197.606981,54.7327431 198.263236,54.7172385 199.038669,54.7172385 C200.484287,54.7172385 202.344707,54.7699541 204.311924,54.9560092 C202.344707,54.7699541 200.484287,54.7172385 199.038669,54.7172385 C198.263236,54.7172385 197.606981,54.7327431 197.117885,54.7497982 C197.107051,54.718789 197.094669,54.6877798 197.083834,54.6567706 M197.049783,54.5606422 C197.05907,54.5854495 197.066809,54.6102569 197.076096,54.6350642 C197.066809,54.6102569 197.05907,54.5854495 197.049783,54.5606422 M197.012637,54.4583119 C197.021924,54.4862202 197.032758,54.5141284 197.042045,54.5404862 C197.032758,54.512578 197.021924,54.4862202 197.012637,54.4583119 M196.362573,52.8179266 C196.590096,53.3512844 196.805236,53.8954954 197.009541,54.4505596 C196.806783,53.8954954 196.590096,53.3512844 196.362573,52.8179266 M196.325427,52.7295505 C196.336261,52.7559083 196.347096,52.7807156 196.35793,52.8086239 C196.347096,52.7807156 196.336261,52.7559083 196.325427,52.7295505 M196.285185,52.6380734 C196.296019,52.6628807 196.306854,52.6876881 196.317688,52.710945 C196.306854,52.6876881 196.296019,52.6628807 196.285185,52.6380734 M196.201605,52.447367 C196.227917,52.5047339 196.252682,52.5621009 196.277446,52.6210183 C196.252682,52.5621009 196.227917,52.5047339 196.201605,52.447367 M196.164459,52.3620917 C196.172197,52.3791468 196.178389,52.3946514 196.186127,52.4117064 C196.178389,52.3946514 196.17065,52.3775963 196.164459,52.3620917 M196.12886,52.2830183 C196.133503,52.2938716 196.139694,52.3062752 196.144338,52.3186789 C196.139694,52.3062752 196.133503,52.2938716 196.12886,52.2830183 M196.094809,52.2070459 C196.097904,52.2147982 196.101,52.2225505 196.104096,52.2303028 C196.101,52.221 196.097904,52.2147982 196.094809,52.2070459" id="Fill-20" fill="#F8D5D1" sketch:type="MSShapeGroup"></path>
                <path d="M210.122255,60.3004404 C208.797363,60.3004404 207.825363,59.3267523 207.102554,57.9778532 C210.588134,58.0708807 212.052325,58.8616147 212.053873,59.4957523 C212.053873,59.9360826 211.348089,60.3004404 210.122255,60.3004404 M162.102669,30.5455872 C163.472446,48.7262661 163.936777,105.297853 117.418529,110.871752 L109.099261,118.093789 C112.134439,118.36667 115.474529,118.548073 118.978682,118.548073 C129.599484,118.548073 141.734006,116.875128 151.505083,110.958578 C151.505083,110.958578 157.36649,126.182532 167.738102,126.708138 C167.738102,126.708138 167.909904,127.182578 168.149809,127.950055 L168.149809,122.453679 L184.500459,122.453679 L168.149809,122.453679 L168.149809,121.777679 C168.149809,121.233468 168.550682,120.788486 169.050611,120.762128 L164.071433,120.762128 C163.546739,120.762128 163.128841,120.306294 163.128841,119.745028 L163.128841,113.654826 L187.371573,113.654826 L163.128841,113.654826 L163.128841,112.974174 C163.128841,112.416009 163.546739,111.960174 164.071433,111.960174 L190.536764,111.960174 C190.748809,110.49344 190.871083,108.815844 190.872631,106.888624 C190.872631,105.716477 190.829293,104.451303 190.733331,103.085349 C190.733331,103.086899 199.507643,91.9809633 199.509191,70.9939541 C199.510739,69.1675138 199.444185,67.2666514 199.300242,65.2898165 C199.129987,62.9827339 198.758522,60.8477523 198.289548,58.7995963 C200.911471,58.3391101 203.096924,58.098789 204.906268,58.0135138 C206.268306,61.4601835 209.724478,62.9331193 212.400573,62.9331193 C214.35386,62.9331193 215.892344,62.1470367 215.895439,60.7717798 C215.895439,60.3950183 215.782452,59.9732936 215.530166,59.5128073 C214.115503,56.9188899 210.064987,55.7095321 206.025306,55.1544679 C205.327261,52.6055138 205.160102,50.0627615 205.160102,50.0627615 C204.56421,51.8271835 204.305732,53.386945 204.308828,54.756 C204.310376,54.8226697 204.310376,54.8893394 204.311924,54.9560092 C202.344707,54.7699541 200.484287,54.7172385 199.038669,54.7172385 C198.263236,54.7172385 197.606981,54.7327431 197.117885,54.7497982 C197.105503,54.718789 197.094669,54.6877798 197.083834,54.6567706 C197.080739,54.6490183 197.079191,54.6428165 197.076096,54.6350642 C197.066809,54.6102569 197.05907,54.5854495 197.049783,54.5606422 C197.046688,54.5544404 197.04514,54.5482385 197.042045,54.5404862 C197.032758,54.5141284 197.021924,54.4862202 197.012637,54.4583119 C197.011089,54.4567615 197.009541,54.4521101 197.009541,54.4505596 C196.805236,53.8954954 196.590096,53.3512844 196.362573,52.8179266 C196.361025,52.8148257 196.359478,52.8117248 196.35793,52.8086239 C196.347096,52.7807156 196.336261,52.7559083 196.325427,52.7295505 C196.322331,52.7233486 196.319236,52.7171468 196.317688,52.710945 C196.306854,52.6876881 196.296019,52.6628807 196.285185,52.6380734 C196.283637,52.6318716 196.280541,52.6272202 196.277446,52.6210183 C196.252682,52.5621009 196.227917,52.5047339 196.201605,52.447367 C196.196962,52.4349633 196.190771,52.4225596 196.186127,52.4117064 C196.178389,52.3946514 196.172197,52.3791468 196.164459,52.3620917 C196.158268,52.3481376 196.150529,52.332633 196.144338,52.3186789 C196.139694,52.3062752 196.133503,52.2938716 196.12886,52.2830183 C196.121121,52.2644128 196.113382,52.2473578 196.104096,52.2303028 C196.101,52.2225505 196.097904,52.2147982 196.094809,52.2070459 C190.569268,39.9723761 178.425459,33.4604495 162.102669,30.5455872" id="Fill-21" fill="#E6837C" sketch:type="MSShapeGroup"></path>
                <path d="M168.57235,129.393532 C168.589376,129.449349 168.603306,129.506716 168.618783,129.562532 L169.095497,129.562532 C168.902025,129.562532 168.722484,129.500514 168.57235,129.393532" id="Fill-22" fill="#E6837C" sketch:type="MSShapeGroup"></path>
                <path d="M168.149809,139.772303 C166.133064,141.68867 163.498758,144.060872 163.498758,146.167945 C163.498758,146.896661 163.812955,147.594367 164.577554,148.230055 C164.616248,148.261064 164.654943,148.293624 164.695185,148.324633 L164.695185,147.499789 L176.323586,147.499789 L164.695185,147.499789 L164.695185,146.823789 C164.695185,146.264073 165.117726,145.809789 165.637777,145.809789 L168.202433,145.809789 C168.168382,145.702807 168.149809,145.588073 168.149809,145.468688 L168.149809,139.772303" id="Fill-23" fill="#E6837C" sketch:type="MSShapeGroup"></path>
                <path d="M164.695185,153.593092 C164.695185,154.155908 165.117726,154.610193 165.637777,154.610193 L197.342312,154.610193 C197.862363,154.610193 198.286452,154.155908 198.286452,153.593092 L198.286452,147.499789 L164.695185,147.499789 L164.695185,153.593092" id="Fill-24" fill="#FFE168" sketch:type="MSShapeGroup"></path>
                <path d="M197.342312,145.809789 L165.637777,145.809789 C165.117726,145.809789 164.695185,146.264073 164.695185,146.823789 L164.695185,147.499789 L198.286452,147.499789 L198.286452,146.823789 C198.286452,146.264073 197.862363,145.809789 197.342312,145.809789" id="Fill-25" fill="#FBCB43" sketch:type="MSShapeGroup"></path>
                <path d="M168.149809,128.545431 C168.149809,129.108248 168.573898,129.562532 169.095497,129.562532 L200.798484,129.562532 C201.315439,129.562532 201.736433,129.108248 201.736433,128.545431 L201.736433,122.453679 L168.149809,122.453679 L168.149809,128.545431" id="Fill-26" fill="#FFE168" sketch:type="MSShapeGroup"></path>
                <path d="M200.798484,120.762128 L169.095497,120.762128 C168.573898,120.762128 168.149809,121.217963 168.149809,121.777679 L168.149809,122.453679 L201.736433,122.453679 L201.736433,121.777679 C201.736433,121.217963 201.315439,120.762128 200.798484,120.762128" id="Fill-27" fill="#FBCB43" sketch:type="MSShapeGroup"></path>
                <path d="M163.128841,119.745028 C163.128841,120.306294 163.546739,120.762128 164.071433,120.762128 L195.775968,120.762128 C196.294471,120.762128 196.717013,120.306294 196.717013,119.745028 L196.717013,113.654826 L163.128841,113.654826 L163.128841,119.745028" id="Fill-28" fill="#FFE168" sketch:type="MSShapeGroup"></path>
                <path d="M195.775968,111.960174 L164.071433,111.960174 C163.546739,111.960174 163.128841,112.416009 163.128841,112.974174 L163.128841,113.654826 L196.717013,113.654826 L196.717013,112.974174 C196.717013,112.416009 196.294471,111.960174 195.775968,111.960174" id="Fill-29" fill="#FBCB43" sketch:type="MSShapeGroup"></path>
                <path d="M168.149809,145.468688 C168.149809,146.033055 168.573898,146.485789 169.093949,146.485789 L200.798484,146.485789 C201.315439,146.485789 201.736433,146.033055 201.736433,145.468688 L201.736433,139.380037 L168.149809,139.380037 L168.149809,145.468688" id="Fill-30" fill="#FFE168" sketch:type="MSShapeGroup"></path>
                <path d="M200.798484,137.686936 L169.093949,137.686936 C168.573898,137.686936 168.149809,138.13967 168.149809,138.702486 L168.149809,139.380037 L201.736433,139.380037 L201.736433,138.702486 C201.736433,138.13967 201.315439,137.686936 200.798484,137.686936" id="Fill-31" fill="#FBCB43" sketch:type="MSShapeGroup"></path>
                <path d="M166.581917,137.347385 C166.581917,137.908651 167.001363,138.359835 167.519866,138.359835 L199.227497,138.359835 C199.746,138.359835 200.170089,137.908651 200.170089,137.347385 L200.170089,131.252532 L166.581917,131.252532 L166.581917,137.347385" id="Fill-32" fill="#FFE168" sketch:type="MSShapeGroup"></path>
                <path d="M199.227497,129.562532 L167.519866,129.562532 C167.001363,129.562532 166.581917,130.015266 166.581917,130.578083 L166.581917,131.252532 L200.170089,131.252532 L200.170089,130.578083 C200.170089,130.015266 199.746,129.562532 199.227497,129.562532" id="Fill-33" fill="#FBCB43" sketch:type="MSShapeGroup"></path>
                <path d="M201.736433,120.762128 L200.841822,120.762128 C201.340204,120.788486 201.736433,121.233468 201.736433,121.777679 L201.736433,122.453679 L184.938478,122.453679 L201.736433,122.453679 L201.736433,128.545431 C201.736433,129.108248 201.315439,129.562532 200.798484,129.562532 L201.736433,129.562532 L201.736433,120.762128 M196.712369,119.831853 C196.673675,120.335752 196.291376,120.738872 195.820854,120.762128 L196.712369,120.762128 L196.712369,119.831853" id="Fill-34" fill="#E3E3E3" sketch:type="MSShapeGroup"></path>
                <path d="M201.736433,122.453679 L184.500459,122.453679 L182.178803,129.562532 L200.798484,129.562532 C201.315439,129.562532 201.736433,129.108248 201.736433,128.545431 L201.736433,122.453679" id="Fill-35" fill="#E3C85D" sketch:type="MSShapeGroup"></path>
                <path d="M196.712369,120.762128 L195.820854,120.762128 L195.775968,120.762128 L185.051465,120.762128 L184.500459,122.453679 L201.736433,122.453679 L201.736433,121.777679 C201.736433,121.233468 201.340204,120.788486 200.841822,120.762128 L196.712369,120.762128" id="Fill-36" fill="#DFB53C" sketch:type="MSShapeGroup"></path>
                <path d="M196.53128,113.654826 L187.371573,113.654826 L185.051465,120.762128 L195.775968,120.762128 L195.820854,120.762128 C196.291376,120.738872 196.673675,120.335752 196.712369,119.831853 L196.712369,115.346376 C196.712369,114.676578 196.638076,114.115312 196.53128,113.654826" id="Fill-37" fill="#E3C85D" sketch:type="MSShapeGroup"></path>
                <path d="M195.775968,111.960174 L187.925675,111.960174 L187.371573,113.654826 L196.53128,113.654826 C196.258873,112.482679 195.775968,111.960174 195.775968,111.960174" id="Fill-38" fill="#DFB53C" sketch:type="MSShapeGroup"></path>
                <path d="M201.736433,138.702486 L201.736433,139.380037 L186.268013,139.380037 L201.736433,139.380037 L201.736433,145.439229 L201.739529,145.44078 C201.784414,144.989596 202.341611,139.352128 201.736433,138.702486 M200.170089,137.347385 L200.170089,137.347385 C200.170089,137.466771 200.151516,137.579954 200.115917,137.686936 L200.612752,137.686936 C200.354274,137.479174 200.170089,137.347385 200.170089,137.347385" id="Fill-39" fill="#E3E3E3" sketch:type="MSShapeGroup"></path>
                <path d="M201.736433,145.439229 L201.736433,145.468688 C201.736433,145.468688 201.736433,145.459385 201.739529,145.44078 L201.736433,145.439229" id="Fill-40" fill="#CCCCCC" sketch:type="MSShapeGroup"></path>
                <path d="M199.150108,146.485789 L198.23228,146.485789 C198.267879,146.59122 198.286452,146.705954 198.286452,146.823789 L198.286452,147.499789 L181.606127,147.499789 L198.286452,147.499789 L198.286452,153.593092 C198.286452,154.155908 197.862363,154.610193 197.342312,154.610193 C200.170089,154.610193 198.286452,153.593092 198.286452,153.593092 L198.286452,146.823789 L199.150108,146.485789" id="Fill-41" fill="#B5B6B6" sketch:type="MSShapeGroup"></path>
                <path d="M198.286452,147.499789 L176.323586,147.499789 L174.113369,154.270642 L176.312752,154.610193 L197.342312,154.610193 C197.862363,154.610193 198.286452,154.155908 198.286452,153.593092 L198.286452,147.499789" id="Fill-42" fill="#E3C85D" sketch:type="MSShapeGroup"></path>
                <path d="M198.23228,146.485789 L176.654809,146.485789 L176.323586,147.499789 L198.286452,147.499789 L198.286452,146.823789 C198.286452,146.705954 198.267879,146.59122 198.23228,146.485789" id="Fill-43" fill="#DFB53C" sketch:type="MSShapeGroup"></path>
                <path d="M201.736433,139.380037 L178.974917,139.380037 L176.654809,146.485789 L199.150108,146.485789 L201.736433,145.468688 L201.736433,139.380037" id="Fill-44" fill="#E3C85D" sketch:type="MSShapeGroup"></path>
                <path d="M200.612752,137.686936 L200.115917,137.686936 C199.985904,138.080752 199.636108,138.359835 199.227497,138.359835 L179.307688,138.359835 L178.974917,139.380037 L201.736433,139.380037 L201.736433,138.702486 C201.386637,138.324174 200.940879,137.947413 200.612752,137.686936" id="Fill-45" fill="#DFB53C" sketch:type="MSShapeGroup"></path>
                <path d="M199.227497,131.252532 L181.627796,131.252532 L179.307688,138.359835 L199.227497,138.359835 C199.636108,138.359835 199.985904,138.080752 200.115917,137.686936 C200.151516,137.579954 200.170089,137.466771 200.170089,137.347385 L199.227497,137.347385 L199.227497,131.252532" id="Fill-46" fill="#E3C85D" sketch:type="MSShapeGroup"></path>
                <path d="M199.227497,129.562532 L182.178803,129.562532 L181.627796,131.252532 L199.227497,131.252532 L199.227497,129.562532" id="Fill-47" fill="#DFB53C" sketch:type="MSShapeGroup"></path>
                <path d="M174.028242,127.225991 C174.028242,127.225991 185.730936,137.686936 176.312752,154.610193 L168.462459,154.610193 L174.028242,127.225991" id="Fill-48" fill="#FBCB43" sketch:type="MSShapeGroup"></path>
                <path d="M107.054656,29.1098624 C106.661522,29.1377706 106.266841,29.1656789 105.872159,29.1951376 L105.77465,29.2757615 C106.201834,29.2183945 106.629019,29.162578 107.054656,29.1098624" id="Fill-49" fill="#D4D5D5" sketch:type="MSShapeGroup"></path>
                <path d="M140.26672,28.709844 C140.864159,28.8540367 141.430643,28.9470642 141.992484,28.9470642 C142.350019,28.9470642 142.706006,28.9098532 143.066637,28.824578 C142.247866,28.787367 141.309917,28.7486055 140.26672,28.709844 M127.003873,28.4648716 C120.927325,28.4648716 114.007242,28.6245688 107.054656,29.1098624 C106.629019,29.162578 106.201834,29.2183945 105.77465,29.2757615 L101.76128,32.6045963 L149.202,32.6045963 L146.830815,29.0245872 C146.830815,29.0245872 145.852624,28.9594679 144.11293,28.8741927 C144.547854,28.9455138 145.00135,29.0261376 145.363529,29.0261376 L145.408414,29.0261376 C145.159223,30.3889908 145.036949,30.9812661 144.550949,32.4526514 C141.227885,32.0603853 137.849102,31.9053394 134.439363,31.9053394 C134.125166,31.9053394 133.810968,31.9068899 133.496771,31.9099908 L134.182433,28.5377431 C131.981503,28.4943303 129.568529,28.4648716 127.003873,28.4648716" id="Fill-50" fill="#C5837E" sketch:type="MSShapeGroup"></path>
                <path d="M138.115318,9.18956881 L134.267561,28.1175688 C135.829261,28.1733853 137.375484,28.243156 138.896943,28.3237798 C138.513096,28.2074954 138.112223,28.0834587 137.689682,27.959422 C134.157669,26.9330183 135.025968,21.4381927 138.528573,21.2707431 C138.838127,21.2552385 139.147682,21.2490367 139.455688,21.2490367 C140.415306,21.2490367 141.368732,21.311055 142.325255,21.3730734 C142.353115,21.2552385 142.38407,21.145156 142.380975,20.9854587 C142.334541,18.8194679 142.018796,16.6023119 141.255745,14.5805138 C140.489599,12.5494128 139.39842,10.7880917 138.115318,9.18956881" id="Fill-51" fill="#D4D5D5" sketch:type="MSShapeGroup"></path>
                <path d="M143.274038,28.7703119 C143.204389,28.7904679 143.136287,28.8075229 143.066637,28.824578 C143.441197,28.841633 143.790994,28.8571376 144.11293,28.8741927 C143.812662,28.824578 143.520134,28.7796147 143.274038,28.7703119 M134.267561,28.1175688 L134.182433,28.5377431 C136.462299,28.5827064 138.513096,28.6447248 140.26672,28.709844 C139.830248,28.6028624 139.376752,28.4695229 138.896943,28.3237798 C137.375484,28.243156 135.829261,28.1733853 134.267561,28.1175688" id="Fill-52" fill="#C5837E" sketch:type="MSShapeGroup"></path>
                <path d="M134.182433,28.5377431 L133.496771,31.9099908 C133.810968,31.9068899 134.125166,31.9053394 134.439363,31.9053394 C137.849102,31.9053394 141.227885,32.0603853 144.550949,32.4526514 C145.036949,30.9812661 145.159223,30.3889908 145.408414,29.0261376 L145.363529,29.0261376 C145.00135,29.0261376 144.547854,28.9455138 144.11293,28.8741927 C143.790994,28.8571376 143.441197,28.841633 143.066637,28.824578 C142.706006,28.9098532 142.350019,28.9470642 141.992484,28.9470642 C141.430643,28.9470642 140.864159,28.8540367 140.26672,28.709844 C138.513096,28.6447248 136.462299,28.5827064 134.182433,28.5377431" id="Fill-53" fill="#A46D69" sketch:type="MSShapeGroup"></path>
                <path d="M110.428796,32.6511101 C110.623815,32.6712661 110.815739,32.6945229 111.00921,32.7177798 C111.357459,32.5937431 111.749045,32.5208716 112.199446,32.5317248 L112.365057,32.5410275 L138.845866,6.8313211 C135.272064,3.09626606 130.311459,0.775229358 124.819968,0.775229358 C113.954618,0.775229358 105.138516,9.8469633 105.138516,21.0366239 C105.138516,25.3980642 106.500554,29.4137523 108.78042,32.7146789 C109.267968,32.5766881 109.809688,32.522422 110.428796,32.6511101" id="Fill-54" fill="#F7EC3B" sketch:type="MSShapeGroup"></path>
                <path d="M114.75172,32.6588624 C123.553892,32.3518716 132.572752,31.5719908 141.263484,32.1596147 C143.308089,28.9687706 144.506064,25.1484404 144.506064,21.0366239 C144.506064,15.4999358 142.345376,10.4857523 138.845866,6.8313211 L112.365057,32.5410275 C113.162159,32.5689358 113.954618,32.617 114.75172,32.6588624" id="Fill-55" fill="#FDD11C" sketch:type="MSShapeGroup"></path>
                <path d="M114.703739,32.6573119 L114.75172,32.6588624 C116.485223,32.596844 118.226465,32.5177706 119.970803,32.4324954 C115.714433,30.5021743 112.727236,26.1236789 112.727236,21.0366239 C112.727236,14.175844 118.158363,8.58799083 124.819968,8.58799083 C131.49086,8.58799083 136.917344,14.175844 136.917344,21.0366239 C136.917344,25.7577706 134.35114,29.8742385 130.579223,31.9859633 C132.283318,31.9441009 133.978127,31.9332477 135.668293,31.9518532 C138.345936,29.1315688 140.005146,25.2833303 140.005146,21.0366239 C140.005146,12.4238257 133.190312,5.41265138 124.819968,5.41265138 C116.454268,5.41265138 109.640981,12.4238257 109.640981,21.0366239 C109.640981,25.650789 111.605102,29.7951651 114.703739,32.6573119" id="Fill-56" fill="#FBF7A7" sketch:type="MSShapeGroup"></path>
                <path d="M101.76128,32.6045963 C101.76128,32.6045963 143.512395,31.3254679 149.202,32.6045963 C154.894701,33.8837248 148.72993,37.7195596 148.72993,37.7195596 C148.72993,37.7195596 129.279096,41.3011193 127.853599,41.556945 C126.432745,41.8127706 101.76128,45.1369541 101.76128,45.1369541 L99.6269045,40.7910183 L101.76128,32.6045963" id="Fill-57" fill="#ED9D97" sketch:type="MSShapeGroup"></path>
                <path d="M159.448242,120.990046 C148.98686,120.990046 140.511268,129.422991 140.511268,139.82967 C140.511268,144.688807 142.374783,149.102963 145.413057,152.445752 L172.935516,126.616661 C169.501013,123.145183 164.727688,120.990046 159.448242,120.990046" id="Fill-58" fill="#F7EC3B" sketch:type="MSShapeGroup"></path>
                <path d="M159.448242,158.667743 C169.901885,158.667743 178.377478,150.234798 178.377478,139.82967 C178.377478,134.679046 176.298822,130.016817 172.935516,126.616661 L145.413057,152.445752 C148.880064,156.25833 153.868529,158.667743 159.448242,158.667743" id="Fill-59" fill="#FDD11C" sketch:type="MSShapeGroup"></path>
                <path d="M159.448242,154.360569 C151.392096,154.360569 144.840382,147.84244 144.840382,139.82967 C144.840382,131.81845 151.392096,125.301872 159.448242,125.301872 C167.49665,125.301872 174.048363,131.81845 174.048363,139.82967 C174.048363,147.84244 167.49665,154.360569 159.448242,154.360569 L159.448242,154.360569 Z M159.448242,128.257046 C153.032732,128.257046 147.810554,133.446431 147.810554,139.82967 C147.810554,146.209807 153.032732,151.403844 159.448242,151.403844 C165.859108,151.403844 171.076643,146.209807 171.076643,139.82967 C171.076643,133.446431 165.859108,128.257046 159.448242,128.257046 L159.448242,128.257046 Z" id="Fill-60" fill="#FBF7A7" sketch:type="MSShapeGroup"></path>
                <path d="M120.678134,15.2224037 L124.357185,27.1392294 C124.357185,27.1392294 124.590898,27.6725872 125.154287,27.6725872 L126.414172,27.6725872 L122.967287,16.0875596 C122.967287,16.0875596 122.603561,15.1557339 121.907064,15.1557339 C121.210567,15.1557339 120.678134,15.2224037 120.678134,15.2224037" id="Fill-61" fill="#DBB71D" sketch:type="MSShapeGroup"></path>
                <path d="M123.22886,15.2224037 L126.909459,27.1392294 C126.909459,27.1392294 127.141624,27.6725872 127.705013,27.6725872 L128.964898,27.6725872 L125.518013,16.0875596 C125.518013,16.0875596 125.154287,15.1557339 124.45779,15.1557339 C123.759745,15.1557339 123.22886,15.2224037 123.22886,15.2224037" id="Fill-62" fill="#DBB71D" sketch:type="MSShapeGroup"></path>
                <path d="M120.379414,15.5557523 L121.377726,18.8721835 L118.32707,28.8664404 C118.32707,28.8664404 117.101236,27.7051468 116.835019,27.1748899 L120.379414,15.5557523" id="Fill-63" fill="#DBB71D" sketch:type="MSShapeGroup"></path>
                <path d="M121.606796,19.7032294 L122.667019,23.0599725 L120.379414,30.2634037 C120.379414,30.2634037 118.957013,29.4974771 118.755803,29.2013394 L121.606796,19.7032294" id="Fill-64" fill="#DBB71D" sketch:type="MSShapeGroup"></path>
                <path d="M127.205083,20.337367 L128.201847,23.6894587 L131.250955,13.8300917 C131.250955,13.8300917 130.388847,13.0672661 129.526739,12.6672477 L127.205083,20.337367" id="Fill-65" fill="#DBB71D" sketch:type="MSShapeGroup"></path>
                <path d="M131.65028,14.1603394 L128.469611,24.5499633 L129.395178,27.6725872 L133.137688,15.8891009 C133.137688,15.8891009 132.111516,14.5603578 131.65028,14.1603394" id="Fill-66" fill="#DBB71D" sketch:type="MSShapeGroup"></path>
                <path d="M124.920573,30.3285229 C120.026522,30.3285229 116.041013,26.3360917 116.041013,21.4335413 C116.041013,16.5232385 120.026522,12.5339083 124.920573,12.5339083 C129.81772,12.5339083 133.804777,16.5232385 133.804777,21.4335413 C133.804777,26.3360917 129.81772,30.3285229 124.920573,30.3285229 L124.920573,30.3285229 Z M124.920573,12.9339266 C120.24321,12.9339266 116.437242,16.748055 116.437242,21.4335413 C116.437242,26.1159266 120.24321,29.930055 124.920573,29.930055 C129.601032,29.930055 133.402357,26.1159266 133.402357,21.4335413 C133.402357,16.748055 129.601032,12.9339266 124.920573,12.9339266 L124.920573,12.9339266 Z" id="Fill-67" fill="#DBB71D" sketch:type="MSShapeGroup"></path>
                <path d="M124.920573,31.4402018 C119.41051,31.4402018 114.931261,26.9516239 114.931261,21.4335413 C114.931261,15.9139083 119.41051,11.4206789 124.920573,11.4206789 C130.429089,11.4206789 134.911433,15.9139083 134.911433,21.4335413 C134.911433,26.9516239 130.429089,31.4402018 124.920573,31.4402018 L124.920573,31.4402018 Z M124.920573,11.5261101 C119.467777,11.5261101 115.028771,15.9712752 115.028771,21.4335413 C115.028771,26.8942569 119.467777,31.3378716 124.920573,31.3378716 C130.371822,31.3378716 134.813924,26.8942569 134.813924,21.4335413 C134.813924,15.9712752 130.371822,11.5261101 124.920573,11.5261101 L124.920573,11.5261101 Z" id="Fill-68" fill="#DBB71D" sketch:type="MSShapeGroup"></path>
                <path d="M155.959567,134.730211 L158.982363,144.519807 C158.982363,144.519807 159.172739,144.958587 159.638618,144.958587 L160.672529,144.958587 L157.840108,135.440321 C157.840108,135.441872 157.542936,134.677495 156.968713,134.677495 C156.397586,134.677495 155.959567,134.730211 155.959567,134.730211" id="Fill-69" fill="#DBB71D" sketch:type="MSShapeGroup"></path>
                <path d="M158.053701,134.730211 L161.076497,144.519807 C161.076497,144.519807 161.266873,144.958587 161.729656,144.958587 L162.766662,144.958587 L159.934242,135.440321 C159.934242,135.441872 159.638618,134.677495 159.062847,134.677495 C158.488624,134.677495 158.053701,134.730211 158.053701,134.730211" id="Fill-70" fill="#DBB71D" sketch:type="MSShapeGroup"></path>
                <path d="M155.713471,135.006193 L156.53379,137.730349 L154.027949,145.940028 C154.027949,145.940028 153.02035,144.984945 152.803662,144.550817 L155.713471,135.006193" id="Fill-71" fill="#DBB71D" sketch:type="MSShapeGroup"></path>
                <path d="M156.724166,138.411 L157.590917,141.170817 L155.713471,147.087367 C155.713471,147.087367 154.548,146.459431 154.377745,146.214459 L156.724166,138.411" id="Fill-72" fill="#DBB71D" sketch:type="MSShapeGroup"></path>
                <path d="M161.319497,138.933505 L162.138268,141.68867 L164.644108,133.587523 C164.644108,133.587523 163.936777,132.959587 163.22635,132.63244 L161.319497,138.933505" id="Fill-73" fill="#DBB71D" sketch:type="MSShapeGroup"></path>
                <path d="M164.970688,133.858853 L162.358051,142.394128 L163.121102,144.958587 L166.191879,135.279073 C166.191879,135.279073 165.351439,134.18755 164.970688,133.858853" id="Fill-74" fill="#DBB71D" sketch:type="MSShapeGroup"></path>
                <path d="M159.445146,147.138532 C155.424038,147.138532 152.150503,143.859312 152.150503,139.832771 C152.150503,135.801578 155.424038,132.522358 159.445146,132.522358 C163.464707,132.522358 166.741338,135.801578 166.741338,139.832771 C166.741338,143.859312 163.464707,147.138532 159.445146,147.138532 L159.445146,147.138532 Z M159.445146,132.849505 C155.602032,132.849505 152.477083,135.982982 152.477083,139.832771 C152.477083,143.681009 155.602032,146.811385 159.445146,146.811385 C163.289809,146.811385 166.41321,143.681009 166.41321,139.832771 C166.41321,135.982982 163.289809,132.849505 159.445146,132.849505 L159.445146,132.849505 Z" id="Fill-75" fill="#DBB71D" sketch:type="MSShapeGroup"></path>
                <path d="M159.445146,148.053303 C154.919465,148.053303 151.237318,144.364761 151.237318,139.832771 C151.237318,135.299229 154.919465,131.609138 159.445146,131.609138 C163.970828,131.609138 167.651427,135.299229 167.651427,139.832771 C167.651427,144.364761 163.970828,148.053303 159.445146,148.053303 L159.445146,148.053303 Z M159.445146,131.694413 C154.96435,131.694413 151.31935,135.345743 151.31935,139.832771 C151.31935,144.318248 154.96435,147.969578 159.445146,147.969578 C163.921299,147.969578 167.570943,144.318248 167.570943,139.832771 C167.570943,135.345743 163.921299,131.694413 159.445146,131.694413 L159.445146,131.694413 Z" id="Fill-76" fill="#DBB71D" sketch:type="MSShapeGroup"></path>
            </g>
        </g>
    </g>
</svg>