<?xml version="1.0" encoding="UTF-8" standalone="no"?>
<svg width="360px" height="240px" viewBox="0 0 360 240" version="1.1" xmlns="http://www.w3.org/2000/svg" xmlns:xlink="http://www.w3.org/1999/xlink" xmlns:sketch="http://www.bohemiancoding.com/sketch/ns">
    <!-- Generator: Sketch 3.0.4 (8054) - http://www.bohemiancoding.com/sketch -->
    <title>learn</title>
    <desc>Created with Sketch.</desc>
    <defs></defs>
    <g id="Page-1" stroke="none" stroke-width="1" fill="none" fill-rule="evenodd" sketch:type="MSPage">
        <g id="Portrait" sketch:type="MSArtboardGroup" transform="translate(-257.000000, -434.000000)">
            <g id="learn" sketch:type="MSLayerGroup" transform="translate(257.000000, 434.000000)">
                <rect id="Rectangle-4" fill="#F2F2F2" sketch:type="MSShapeGroup" x="0" y="0" width="360" height="240"></rect>
                <g id="Imported-Layers" transform="translate(34.000000, 4.000000)" sketch:type="MSShapeGroup">
                    <path d="M249.558706,162.069141 C249.558706,170.158672 193.640644,176.6975 124.645436,176.6975 C55.6178712,176.6975 -0.298392638,170.158672 -0.298392638,162.069141 C-0.298392638,154.001172 55.6178712,147.456953 124.645436,147.456953 C193.640644,147.456953 249.558706,154.001172 249.558706,162.069141" id="Fill-1" fill="#E5E5E5"></path>
                    <path d="M30.6247914,26.8057812 L30.6517546,153.877187 L122.033601,179.786328 L141.822785,185.054766 L141.970184,148.565625 L141.272736,1.61898437 L30.6247914,26.8057812" id="Fill-2" fill="#ECA403"></path>
                    <path d="M141.305092,10.3769531 L170.856748,15.855625 L172.499706,165.34125 L141.639436,148.892656 L141.305092,10.3769531" id="Fill-3" fill="#F8EEE4"></path>
                    <path d="M155.263037,12.7021094 L176.880325,12.0210937 L176.880325,142.344844 L171.949656,153.295 L170.856748,15.855625 L155.263037,12.7021094" id="Fill-4" fill="#BF8800"></path>
                    <path d="M31.9801411,27.6539062 L32.3558282,30.546875 L31.9064417,151.835938 L32.6434356,152.881719 L35.3020061,152.881719 L36.2978466,27.6539062 L31.9801411,27.6539062" id="Fill-5" fill="#E49307"></path>
                    <path d="M147.454497,11.2196875 L147.948822,11.2196875 L147.948822,135.4125 L147.454497,135.4125 L147.454497,11.2196875 Z" id="Fill-6" fill="#ECA403"></path>
                    <path d="M149.945896,12.2690625 L150.445613,12.2690625 L150.445613,136.460078 L149.945896,136.460078 L149.945896,12.2690625 Z" id="Fill-7" fill="#ECA403"></path>
                    <path d="M152.189233,12.2690625 L152.687153,12.2690625 L152.687153,136.460078 L152.189233,136.460078 L152.189233,12.2690625 Z" id="Fill-8" fill="#ECA403"></path>
                    <path d="M154.428975,13.0578906 L154.930491,13.0578906 L154.930491,137.247109 L154.428975,137.247109 L154.428975,13.0578906 Z" id="Fill-9" fill="#ECA403"></path>
                    <path d="M156.675908,13.0578906 L157.172031,13.0578906 L157.172031,137.247109 L156.675908,137.247109 L156.675908,13.0578906 Z" id="Fill-10" fill="#ECA403"></path>
                    <path d="M159.665227,13.5789844 L160.164945,13.5789844 L160.164945,137.77 L159.665227,137.77 L159.665227,13.5789844 Z" id="Fill-11" fill="#ECA403"></path>
                    <path d="M161.906767,13.5789844 L162.404687,13.5789844 L162.404687,137.77 L161.906767,137.77 L161.906767,13.5789844 Z" id="Fill-12" fill="#ECA403"></path>
                    <path d="M164.649822,14.8889062 L165.14954,14.8889062 L165.14954,139.079922 L164.649822,139.079922 L164.649822,14.8889062 Z" id="Fill-13" fill="#ECA403"></path>
                    <path d="M167.887202,15.2375 L168.38692,15.2375 L168.38692,139.430313 L167.887202,139.430313 L167.887202,15.2375 Z" id="Fill-14" fill="#ECA403"></path>
                    <path d="M144.294411,11.2915625 L144.794129,11.2915625 L144.794129,135.482578 L144.294411,135.482578 L144.294411,11.2915625 Z" id="Fill-15" fill="#ECA403"></path>
                    <path d="M110.567055,88.4403906 C110.567055,107.976016 99.188589,123.815469 85.1461595,123.815469 C71.1073252,123.815469 59.7252638,107.976016 59.7252638,88.4403906 C59.7252638,68.9011719 71.1073252,53.0617187 85.1461595,53.0617187 C99.188589,53.0617187 110.567055,68.9011719 110.567055,88.4403906" id="Fill-16" fill="#E49307"></path>
                    <path d="M75.3621166,68.6729688 L83.5607239,105.647266 C83.5607239,105.647266 84.0748221,107.296797 85.3313067,107.296797 L88.1390736,107.296797 L80.4617546,71.3539062 C80.4617546,71.3539062 79.6474663,68.468125 78.0943865,68.468125 C76.5431043,68.468125 75.3621166,68.6729688 75.3621166,68.6729688" id="Fill-17" fill="#FFE168"></path>
                    <path d="M81.0477546,68.6729688 L89.246362,105.647266 C89.246362,105.647266 89.7604601,107.296797 91.0187423,107.296797 L93.8229141,107.296797 L86.142,71.3539062 C86.142,71.3539062 85.3313067,68.468125 83.7818221,68.468125 C82.2269448,68.468125 81.0477546,68.6729688 81.0477546,68.6729688" id="Fill-18" fill="#FFE168"></path>
                    <path d="M74.6988221,69.704375 L76.9151963,80.0040625 L70.1222699,111.001953 C70.1222699,111.001953 67.3882025,107.399219 66.7968098,105.749687 L74.6988221,69.704375" id="Fill-19" fill="#FFE168"></path>
                    <path d="M77.4292945,82.5789844 L79.794865,92.9792969 L74.6988221,115.327031 C74.6988221,115.327031 71.5225583,112.962344 71.080362,112.033359 L77.4292945,82.5789844" id="Fill-20" fill="#FFE168"></path>
                    <path d="M89.9078589,84.5357812 L92.1278282,94.9360938 L98.9171595,64.3496875 C98.9171595,64.3478906 96.9973804,61.9814063 95.0793988,60.7433594 L89.9078589,84.5357812" id="Fill-21" fill="#FFE168"></path>
                    <path d="M99.8051472,65.3792969 L92.7138282,97.6134375 L94.7846012,107.296797 L103.127012,70.7321875 C103.127012,70.7321875 100.838736,66.61375 99.8051472,65.3792969" id="Fill-22" fill="#FFE168"></path>
                    <path d="M84.815411,115.537266 C73.9025092,115.537266 65.0244294,103.151406 65.0244294,87.9336719 C65.0244294,72.7141406 73.9025092,60.331875 84.815411,60.331875 C95.7265153,60.331875 104.604595,72.7141406 104.604595,87.9336719 C104.604595,103.151406 95.7265153,115.537266 84.815411,115.537266 M84.815411,61.5699219 C74.3914417,61.5699219 65.9106196,73.3969531 65.9106196,87.9336719 C65.9106196,102.472187 74.3914417,114.297422 84.815411,114.297422 C95.2375828,114.297422 103.716607,102.472187 103.716607,87.9336719 C103.716607,73.3969531 95.2375828,61.5699219 84.815411,61.5699219" id="Fill-23" fill="#FFE168"></path>
                    <path d="M84.815411,118.985469 C72.5417669,118.985469 62.5528037,105.0525 62.5528037,87.9336719 C62.5528037,70.81125 72.5417669,56.881875 84.815411,56.881875 C97.0908528,56.881875 107.079816,70.81125 107.079816,87.9336719 C107.079816,105.0525 97.0908528,118.985469 84.815411,118.985469 M84.815411,57.1909375 C72.6622025,57.1909375 62.7721043,70.9801562 62.7721043,87.9336719 C62.7721043,104.885391 72.6622025,118.68 84.815411,118.68 C96.9704172,118.68 106.855123,104.885391 106.855123,87.9336719 C106.855123,70.9801562 96.9704172,57.1909375 84.815411,57.1909375" id="Fill-24" fill="#FFE168"></path>
                    <path d="M168.388718,15.3560937 L168.388718,15.3974219 L170.856748,15.855625 L168.388718,15.3560937 M162.406485,14.1467969 L162.406485,14.28875 L167.887202,15.3057813 L167.887202,15.2554687 L162.406485,14.1467969 M160.164945,13.6921875 L160.164945,13.8736719 L161.906767,14.1971094 L161.906767,14.0461719 L160.164945,13.6921875 M157.172031,13.0884375 L157.172031,13.3184375 L159.665227,13.7802344 L159.665227,13.5915625 L157.172031,13.0884375 M176.355442,11.1244531 L160.837227,12.5260156 L176.355442,12.0390625 L176.355442,11.1244531 M141.308687,9.46953125 L141.31408,10.37875 L147.454497,11.5179687 L147.454497,11.2196875 L147.948822,11.2196875 L147.948822,11.6096094 L152.189233,12.3948437 L152.189233,12.2690625 L152.687153,12.2690625 L152.687153,12.4864844 L156.675908,13.2267969 L156.675908,13.0578906 L157.021037,13.0578906 L155.263037,12.7021094 L158.665791,12.5942969 L141.308687,9.46953125 M140.746055,0.720546875 L98.5774233,10.8082031 L98.4300245,11.370625 L140.710104,1.7465625 L140.746055,0.720546875" id="Fill-25" fill="#D4D5D5"></path>
                    <path d="M140.710104,1.7465625 L98.4300245,11.370625 L87.4811718,53.2090625 C100.428896,54.8496094 110.567055,69.9954687 110.567055,88.4403906 C110.567055,107.976016 99.188589,123.815469 85.1461595,123.815469 C79.7607117,123.815469 74.7653313,121.483125 70.6561411,117.508437 L59.1985828,161.283906 L114.44616,176.891563 L120.300767,171.903437 L79.5000675,157.532031 L78.8295828,154.389297 L141.601687,133.473672 L141.305092,10.3769531 L141.31408,10.37875 L141.308687,9.46953125 L140.447663,9.31320312 L140.710104,1.7465625" id="Fill-26" fill="#C58902"></path>
                    <path d="M168.388718,15.3974219 L168.388718,124.548594 L171.71238,123.441719 L170.856748,15.855625 L168.388718,15.3974219 M162.406485,14.28875 L162.406485,126.541328 L164.649822,125.793828 L164.649822,14.8889063 L165.147742,14.8889063 L165.147742,125.628516 L167.887202,124.715703 L167.887202,15.3057813 L162.406485,14.28875 M160.164945,13.8736719 L160.164945,127.288828 L161.906767,126.708437 L161.906767,14.1971094 L160.164945,13.8736719 M157.172031,13.3184375 L157.172031,128.286094 L159.665227,127.455937 L159.665227,13.7802344 L157.172031,13.3184375 M152.687153,12.4864844 L152.687153,129.781094 L154.428975,129.198906 L154.428975,13.0578906 L154.928693,13.0578906 L154.928693,129.033594 L156.675908,128.451406 L156.675908,13.2267969 L152.687153,12.4864844 M147.948822,11.6096094 L147.948822,131.35875 L149.945896,130.693906 L149.945896,12.2690625 L150.443816,12.2690625 L150.443816,130.526797 L152.189233,129.946406 L152.189233,12.3948437 L147.948822,11.6096094 M141.305092,10.3769531 L141.601687,133.473672 L144.294411,132.577031 L144.294411,11.2915625 L144.795926,11.2915625 L144.795926,132.409922 L147.454497,131.524062 L147.454497,11.5179687 L141.31408,10.37875 L141.305092,10.3769531" id="Fill-27" fill="#CEC6BE"></path>
                    <path d="M176.355442,12.0390625 L160.837227,12.5260156 L159.138546,12.6805469 L158.665791,12.5942969 L155.263037,12.7021094 L157.021037,13.0578906 L157.172031,13.0578906 L157.172031,13.0884375 L159.665227,13.5915625 L159.665227,13.5789844 L160.164945,13.5789844 L160.164945,13.6921875 L161.906767,14.0461719 L161.906767,13.5789844 L162.406485,13.5789844 L162.406485,14.1467969 L167.887202,15.2554687 L167.887202,15.2375 L168.388718,15.2375 L168.388718,15.3560937 L170.856748,15.855625 L171.71238,123.441719 L175.645411,122.13 L176.339264,24.7591406 L176.355442,12.0390625" id="Fill-28" fill="#9F7100"></path>
                    <path d="M147.948822,11.2196875 L147.454497,11.2196875 L147.454497,131.524062 L147.948822,131.35875 L147.948822,11.2196875" id="Fill-29" fill="#C58902"></path>
                    <path d="M150.443816,12.2690625 L149.945896,12.2690625 L149.945896,130.693906 L150.443816,130.526797 L150.443816,12.2690625" id="Fill-30" fill="#C58902"></path>
                    <path d="M152.687153,12.2690625 L152.189233,12.2690625 L152.189233,129.946406 L152.687153,129.781094 L152.687153,12.2690625" id="Fill-31" fill="#C58902"></path>
                    <path d="M154.928693,13.0578906 L154.428975,13.0578906 L154.428975,129.198906 L154.928693,129.033594 L154.928693,13.0578906" id="Fill-32" fill="#C58902"></path>
                    <path d="M157.172031,13.0578906 L156.675908,13.0578906 L156.675908,128.451406 L157.172031,128.286094 L157.172031,13.0578906" id="Fill-33" fill="#C58902"></path>
                    <path d="M160.164945,13.5789844 L159.665227,13.5789844 L159.665227,127.455938 L160.164945,127.288828 L160.164945,13.5789844" id="Fill-34" fill="#C58902"></path>
                    <path d="M162.406485,13.5789844 L161.906767,13.5789844 L161.906767,126.708438 L162.406485,126.541328 L162.406485,13.5789844" id="Fill-35" fill="#C58902"></path>
                    <path d="M165.147742,14.8889062 L164.649822,14.8889062 L164.649822,125.793828 L165.147742,125.628516 L165.147742,14.8889062" id="Fill-36" fill="#C58902"></path>
                    <path d="M168.388718,15.2375 L167.887202,15.2375 L167.887202,124.715703 L168.388718,124.548594 L168.388718,15.2375" id="Fill-37" fill="#C58902"></path>
                    <path d="M144.795926,11.2915625 L144.294411,11.2915625 L144.294411,132.577031 L144.795926,132.409922 L144.795926,11.2915625" id="Fill-38" fill="#C58902"></path>
                    <path d="M103.110834,70.8040625 L102.206669,74.7697656 C103.734583,78.6851562 104.604595,83.1701563 104.604595,87.9336719 C104.604595,103.151406 95.7265153,115.537266 84.815411,115.537266 C81.4126564,115.537266 78.2076319,114.333359 75.4088528,112.214844 L74.715,115.256953 C77.7420675,117.44375 81.1771779,118.68 84.815411,118.68 C96.9704172,118.68 106.855123,104.885391 106.855123,87.9336719 C106.855123,81.5978906 105.474607,75.7023437 103.110834,70.8040625 M100.680552,66.61375 C101.37081,67.6775 102.163528,69.0377344 102.656055,69.8984375 C102.05208,68.7394531 101.390583,67.6415625 100.680552,66.61375 M98.1208466,63.4386719 C98.6115767,63.9723438 98.9171595,64.3496875 98.9171595,64.3496875 L98.1927485,67.6110156 C98.4893436,67.9901562 98.7769509,68.3836719 99.0555706,68.7861719 L99.7997546,65.40625 C99.2640859,64.7126562 98.7050491,64.0567969 98.1208466,63.4386719 M85.2917607,61.5771094 L83.4870245,68.4699219 C83.584092,68.468125 83.6829571,68.468125 83.7818221,68.468125 C85.3313067,68.468125 86.142,71.3539062 86.142,71.3539062 L93.8229141,107.296797 L91.0187423,107.296797 C89.7604601,107.296797 89.246362,105.647266 89.246362,105.647266 L82.1424601,73.6107812 L81.4827607,76.1335938 L88.1390736,107.296797 L85.3313067,107.296797 C84.0748221,107.296797 83.5607239,105.647266 83.5607239,105.647266 L79.0650613,85.3713281 L78.5293926,87.4161719 L79.794865,92.9792969 L75.6820798,111.012734 C78.3909816,113.106094 81.5061288,114.297422 84.815411,114.297422 C95.2375828,114.297422 103.716607,102.472187 103.716607,87.9336719 C103.716607,83.8170312 103.037135,79.9160156 101.823791,76.4408594 L94.7846012,107.296797 L92.7138282,97.6134375 L98.7571779,70.1482031 C98.4803558,69.7277344 98.1963436,69.3216406 97.901546,68.9263281 L92.1278282,94.9360937 L89.9078589,84.5357812 L94.151865,65.0163281 C91.5238528,62.9265625 88.505773,61.6885156 85.2917607,61.5771094 M86.4188221,57.2717969 L85.6117239,60.3534375 C88.7951779,60.5313281 91.788092,61.7621875 94.4143067,63.8034375 L95.0793988,60.7433594 C95.1207423,60.7685156 95.1620859,60.7972656 95.205227,60.8242187 C92.5520491,58.8386719 89.5771104,57.5898437 86.4188221,57.2717969 M87.4811718,53.2090625 L86.4961166,56.9699219 C97.9896258,58.1720312 107.079816,71.6000781 107.079816,87.9336719 C107.079816,105.0525 97.0908528,118.985469 84.815411,118.985469 C79.9620368,118.985469 75.4663742,116.807656 71.804773,113.115078 L70.6561411,117.508437 C74.7653313,121.483125 79.7607117,123.815469 85.1461595,123.815469 C99.188589,123.815469 110.567055,107.976016 110.567055,88.4403906 C110.567055,69.9954687 100.428896,54.8496094 87.4811718,53.2090625" id="Fill-39" fill="#BE7B06"></path>
                    <path d="M81.4827607,76.1335937 L79.0650613,85.3713281 L83.5607239,105.647266 C83.5607239,105.647266 84.0748221,107.296797 85.3313067,107.296797 L88.1390736,107.296797 L81.4827607,76.1335937" id="Fill-40" fill="#D4BC57"></path>
                    <path d="M83.7818221,68.468125 C83.6829571,68.468125 83.584092,68.468125 83.4870245,68.4699219 L82.1424601,73.6107812 L89.246362,105.647266 C89.246362,105.647266 89.7604601,107.296797 91.0187423,107.296797 L93.8229141,107.296797 L86.142,71.3539062 C86.142,71.3539062 85.3313067,68.468125 83.7818221,68.468125" id="Fill-41" fill="#D4BC57"></path>
                    <path d="M72.6891656,109.735156 L71.8820675,112.818594 C72.7790429,113.726016 73.7245521,114.541797 74.715,115.256953 L75.4088528,112.214844 C74.4507607,111.490703 73.543,110.660547 72.6891656,109.735156 M78.5293926,87.4161719 L73.0091288,108.511484 C73.8449877,109.445859 74.7383681,110.283203 75.6820798,111.012734 L79.794865,92.9792969 L78.5293926,87.4161719" id="Fill-42" fill="#D4BC57"></path>
                    <path d="M94.151865,65.0163281 L89.9078589,84.5357812 L92.1278282,94.9360938 L97.901546,68.9263281 C96.7762822,67.41875 95.5162025,66.1016406 94.151865,65.0163281 M95.0793988,60.7433594 L94.4143067,63.8034375 C95.7822393,64.8635938 97.0495092,66.1447656 98.1927485,67.6110156 L98.9171595,64.3496875 C98.9171595,64.3478906 98.6115767,63.9723438 98.1208466,63.4386719 C97.2023006,62.4665625 96.2280307,61.5896875 95.205227,60.8242187 C95.1620859,60.7972656 95.1207423,60.7685156 95.0793988,60.7433594" id="Fill-43" fill="#D4BC57"></path>
                    <path d="M98.7571779,70.1482031 L92.7138282,97.6134375 L94.7846012,107.296797 L101.823791,76.4408594 C101.022086,74.1372656 99.9831043,72.01875 98.7571779,70.1482031 M99.7997546,65.40625 L99.0555706,68.7861719 C100.288687,70.5686719 101.349239,72.579375 102.206669,74.7697656 L103.110834,70.8040625 C102.961638,70.4985937 102.810644,70.1967188 102.656055,69.8984375 C102.163528,69.0377344 101.37081,67.6775 100.680552,66.61375 C100.394742,66.1986719 100.101742,65.7979687 99.7997546,65.40625" id="Fill-44" fill="#D4BC57"></path>
                    <path d="M85.6117239,60.3534375 L85.2917607,61.5771094 C88.505773,61.6885156 91.5238528,62.9265625 94.151865,65.0163281 C95.5162025,66.1016406 96.7762822,67.41875 97.901546,68.9263281 C98.1963436,69.3216406 98.4803558,69.7277344 98.7571779,70.1482031 C99.9831043,72.01875 101.022086,74.1372656 101.823791,76.4408594 C103.037135,79.9160156 103.716607,83.8170312 103.716607,87.9336719 C103.716607,102.472187 95.2375828,114.297422 84.815411,114.297422 C81.5061288,114.297422 78.3909816,113.106094 75.6820798,111.012734 C74.7383681,110.283203 73.8449877,109.445859 73.0091288,108.511484 L72.6891656,109.735156 C73.543,110.660547 74.4507607,111.490703 75.4088528,112.214844 C78.2076319,114.333359 81.4126564,115.537266 84.815411,115.537266 C95.7265153,115.537266 104.604595,103.151406 104.604595,87.9336719 C104.604595,83.1701562 103.734583,78.6851562 102.206669,74.7697656 C101.349239,72.579375 100.288687,70.5686719 99.0555706,68.7861719 C98.7769509,68.3836719 98.4893436,67.9901562 98.1927485,67.6110156 C97.0495092,66.1447656 95.7822393,64.8635937 94.4143067,63.8034375 C91.788092,61.7621875 88.7951779,60.5313281 85.6117239,60.3534375" id="Fill-45" fill="#D4BC57"></path>
                    <path d="M86.4961166,56.9699219 L86.4188221,57.2717969 C89.5771104,57.5898438 92.5520491,58.8386719 95.205227,60.8242188 C96.2280307,61.5896875 97.2023006,62.4665625 98.1208466,63.4386719 C98.7050491,64.0567969 99.2640859,64.7126562 99.7997546,65.40625 C100.101742,65.7979687 100.394742,66.1986719 100.680552,66.61375 C101.390583,67.6415625 102.05208,68.7394531 102.656055,69.8984375 C102.810644,70.1967188 102.961638,70.4985937 103.110834,70.8040625 C105.474607,75.7023437 106.855123,81.5978906 106.855123,87.9336719 C106.855123,104.885391 96.9704172,118.68 84.815411,118.68 C81.1771779,118.68 77.7420675,117.44375 74.715,115.256953 C73.7245521,114.541797 72.7790429,113.726016 71.8820675,112.818594 L71.804773,113.115078 C75.4663742,116.807656 79.9620368,118.985469 84.815411,118.985469 C97.0908528,118.985469 107.079816,105.0525 107.079816,87.9336719 C107.079816,71.6000781 97.9896258,58.1720312 86.4961166,56.9699219" id="Fill-46" fill="#D4BC57"></path>
                    <path d="M122.414681,170.101172 L91.7269755,196.252891 C91.7269755,196.252891 162.656344,189.712266 209.442871,228.93625 C209.442871,228.93625 217.995595,195.244844 258.745963,194.743516 L228.556178,169.094922 L122.414681,170.101172" id="Fill-47" fill="#4374E0"></path>
                    <path d="M209.442871,228.93625 L200.225055,185.627969 L181.917049,193.255703 L121.18516,171.903438 L91.7269755,196.252891 C91.7269755,196.252891 159.149331,190.793984 209.442871,228.93625" id="Fill-48" fill="#4285F4"></path>
                    <path d="M78.8295828,154.389297 L79.5000675,157.532031 L184.172969,194.402109 L276.881405,149.225078 L278.215184,146.725625 L240.330104,150.892578 C240.330104,150.892578 204.438503,164.511094 203.44446,164.838125 C202.44862,165.172344 177.525644,169.492031 177.525644,169.492031 C177.525644,169.492031 147.619871,162.848984 145.293847,161.851719 C142.967822,160.854453 122.366147,154.87625 122.366147,154.87625 L78.8295828,154.389297" id="Fill-49" fill="#1B3E51"></path>
                    <path d="M78.8295828,154.389297 L180.714491,120.440938 L278.215184,146.725625 L183.99681,191.624141 L78.8295828,154.389297" id="Fill-50" fill="#4285F4"></path>
                    <path d="M175.237368,151.654453 C176.880325,152.200703 258.497902,156.033437 258.497902,156.033437 C258.497902,156.033437 257.397804,181.768281 290.265933,187.243359 L284.790607,191.076094 C284.790607,191.076094 255.754847,190.529844 253.017184,158.770078 L175.237368,151.654453" id="Fill-51" fill="#F3B500"></path>
                    <path d="M183.511472,152.220469 C183.511472,153.665156 181.728307,154.834922 179.52092,154.834922 C177.317129,154.834922 175.533963,153.665156 175.533963,152.220469 C175.533963,150.772188 177.317129,149.600625 179.52092,149.600625 C181.728307,149.600625 183.511472,150.772188 183.511472,152.220469" id="Fill-52" fill="#1B3E51"></path>
                    <path d="M200.936883,222.986797 C203.507374,224.73875 206.016748,226.612891 208.430853,228.618203 C208.430853,228.618203 208.614202,229.078203 208.885632,229.078203 C208.995282,229.078203 209.119313,229.002734 209.250534,228.790703 C206.525454,226.733281 203.748245,224.798047 200.936883,222.986797" id="Fill-53" fill="#D4D5D5"></path>
                    <path d="M231.094313,171.536875 L200.408405,186.492266 L209.365577,228.575078 C209.493202,228.298359 209.626221,227.885078 209.759239,227.286719 C210.424331,224.302109 233.021282,173.145078 233.021282,173.145078 L231.094313,171.536875" id="Fill-54" fill="#3861BB"></path>
                    <path d="M145.541908,180.794375 C145.987699,186.188594 146.275307,199.056016 138.871215,199.056016 C138.797515,199.056016 138.723816,199.056016 138.648319,199.052422 C138.28162,199.039844 137.997607,199.032656 137.792687,199.032656 C133.043571,199.032656 171.162331,202.71625 200.936883,222.986797 C203.748245,224.798047 206.525454,226.733281 209.250534,228.790703 C209.288282,228.731406 209.327828,228.659531 209.365577,228.575078 L200.408405,186.492266 L184.172969,194.402109 L145.541908,180.794375" id="Fill-55" fill="#376FCC"></path>
                    <path d="M252.950675,158.764688 L183.99681,191.624141 L145.789969,178.095469 L145.293847,178.458438 C145.293847,178.458438 145.42327,179.365859 145.541908,180.794375 L184.172969,194.402109 L231.094313,171.536875 L231.029601,171.484766 L253.220307,160.710703 C253.141215,160.076406 253.074706,159.431328 253.017184,158.770078 L252.950675,158.764688 M278.215184,146.725625 L258.494307,156.123281 C258.490712,156.362266 258.487117,157.064844 258.580589,158.108828 L276.881405,149.225078 L278.215184,146.725625" id="Fill-56" fill="#163444"></path>
                    <path d="M183.500687,152.409141 C183.353288,153.765781 181.629442,154.834922 179.52092,154.834922 C178.933123,154.834922 178.374086,154.750469 177.870773,154.601328 L145.789969,178.095469 L183.99681,191.624141 L252.950675,158.764687 L183.500687,152.409141 M212.421405,129.297734 L182.952436,150.88 C183.306552,151.271719 183.511472,151.729922 183.511472,152.220469 C183.511472,152.233047 183.511472,152.247422 183.509675,152.26 C204.584104,153.501641 258.497902,156.033437 258.497902,156.033437 C258.497902,156.033437 258.496104,156.063984 258.494307,156.123281 L278.215184,146.725625 L212.421405,129.297734" id="Fill-57" fill="#376FCC"></path>
                    <path d="M183.509675,152.26 C183.509675,152.310312 183.50608,152.360625 183.500687,152.409141 L252.950675,158.764688 L253.017184,158.770078 C253.074706,159.431328 253.141215,160.076406 253.220307,160.710703 L258.580589,158.108828 C258.487117,157.064844 258.490712,156.362266 258.494307,156.123281 C258.496104,156.063984 258.497902,156.033437 258.497902,156.033437 C258.497902,156.033437 204.584104,153.501641 183.509675,152.26" id="Fill-58" fill="#CB9700"></path>
                    <path d="M182.952436,150.88 L177.870773,154.601328 C178.374086,154.750469 178.933123,154.834922 179.52092,154.834922 C181.629442,154.834922 183.353288,153.765781 183.500687,152.409141 C183.50608,152.360625 183.509675,152.310312 183.509675,152.26 C183.511472,152.247422 183.511472,152.233047 183.511472,152.220469 C183.511472,151.729922 183.306552,151.271719 182.952436,150.88" id="Fill-59" fill="#163444"></path>
                </g>
            </g>
        </g>
    </g>
</svg>