<?xml version="1.0" encoding="UTF-8" standalone="no"?>
<svg width="360px" height="240px" viewBox="0 0 360 240" version="1.1" xmlns="http://www.w3.org/2000/svg" xmlns:xlink="http://www.w3.org/1999/xlink" xmlns:sketch="http://www.bohemiancoding.com/sketch/ns">
    <!-- Generator: Sketch 3.0.4 (8054) - http://www.bohemiancoding.com/sketch -->
    <title>Portrait</title>
    <desc>Created with Sketch.</desc>
    <defs></defs>
    <g id="Page-1" stroke="none" stroke-width="1" fill="none" fill-rule="evenodd" sketch:type="MSPage">
        <g id="Portrait" sketch:type="MSArtboardGroup" transform="translate(-45.000000, -33.000000)">
            <g id="trade" sketch:type="MSLayerGroup" transform="translate(75.000000, 68.000000)">
                <path d="M299.949603,132.141477 C299.949603,135.314955 277.99367,137.881009 250.902119,137.881009 C223.799706,137.881009 201.843773,135.314955 201.843773,132.141477 C201.843773,128.977297 223.799706,126.409694 250.902119,126.409694 C277.99367,126.409694 299.949603,128.977297 299.949603,132.141477" id="Fill-1" fill="#E5E5E5" sketch:type="MSShapeGroup"></path>
                <path d="M227.690985,127.849225 C227.690985,128.055315 227.521866,128.221117 227.318613,128.221117 L214.741778,128.221117 C214.538526,128.221117 214.367856,128.055315 214.367856,127.849225 L214.367856,125.611676 L227.690985,125.611676 L227.690985,127.849225" id="Fill-2" fill="#FFE168" sketch:type="MSShapeGroup"></path>
                <path d="M214.741778,124.990306 L227.318613,124.990306 C227.521866,124.990306 227.690985,125.157658 227.690985,125.362198 L227.690985,125.611676 L214.367856,125.611676 L214.367856,125.362198 C214.367856,125.157658 214.538526,124.990306 214.741778,124.990306" id="Fill-3" fill="#FBCB43" sketch:type="MSShapeGroup"></path>
                <path d="M226.322521,118.64955 C226.322521,118.85564 226.153402,119.024541 225.945495,119.024541 L213.373314,119.024541 C213.16851,119.024541 213.000943,118.85564 213.000943,118.64955 L213.000943,116.41045 L226.322521,116.41045 L226.322521,118.64955" id="Fill-4" fill="#FFE168" sketch:type="MSShapeGroup"></path>
                <path d="M213.373314,115.79218 L225.945495,115.79218 C226.153402,115.79218 226.322521,115.957982 226.322521,116.162523 L226.322521,116.41045 L213.000943,116.41045 L213.000943,116.162523 C213.000943,115.957982 213.16851,115.79218 213.373314,115.79218" id="Fill-5" fill="#FBCB43" sketch:type="MSShapeGroup"></path>
                <path d="M228.311603,115.417189 C228.311603,115.623279 228.147139,115.79218 227.93768,115.79218 L215.367052,115.79218 C215.159144,115.79218 214.993129,115.623279 214.993129,115.417189 L214.993129,113.17964 L228.311603,113.17964 L228.311603,115.417189" id="Fill-6" fill="#FFE168" sketch:type="MSShapeGroup"></path>
                <path d="M215.367052,112.55827 L227.93768,112.55827 C228.147139,112.55827 228.311603,112.725622 228.311603,112.931712 L228.311603,113.17964 L214.993129,113.17964 L214.993129,112.931712 C214.993129,112.725622 215.159144,112.55827 215.367052,112.55827" id="Fill-7" fill="#FBCB43" sketch:type="MSShapeGroup"></path>
                <path d="M226.322521,124.864793 C226.322521,125.072432 226.153402,125.239784 225.945495,125.239784 L213.373314,125.239784 C213.16851,125.239784 213.000943,125.072432 213.000943,124.864793 L213.000943,122.627243 L226.322521,122.627243 L226.322521,124.864793" id="Fill-8" fill="#FFE168" sketch:type="MSShapeGroup"></path>
                <path d="M213.373314,122.007423 L225.945495,122.007423 C226.153402,122.007423 226.322521,122.173225 226.322521,122.380865 L226.322521,122.627243 L213.000943,122.627243 L213.000943,122.380865 C213.000943,122.173225 213.16851,122.007423 213.373314,122.007423" id="Fill-9" fill="#FBCB43" sketch:type="MSShapeGroup"></path>
                <path d="M226.943139,121.88191 C226.943139,122.08955 226.775572,122.255351 226.569216,122.255351 L214.000139,122.255351 C213.79068,122.255351 213.624665,122.08955 213.624665,121.88191 L213.624665,119.64436 L226.943139,119.64436 L226.943139,121.88191" id="Fill-10" fill="#FFE168" sketch:type="MSShapeGroup"></path>
                <path d="M214.000139,119.022991 L226.569216,119.022991 C226.775572,119.022991 226.943139,119.190342 226.943139,119.396432 L226.943139,119.64436 L213.624665,119.64436 L213.624665,119.396432 C213.624665,119.190342 213.79068,119.022991 214.000139,119.022991" id="Fill-11" fill="#FBCB43" sketch:type="MSShapeGroup"></path>
                <path d="M213.000943,118.64955 L213.000943,119.024541 L213.373314,119.024541 C213.16851,119.024541 213.000943,118.85564 213.000943,118.64955 M214.993129,115.417189 L214.993129,115.79218 L213.000943,115.79218 L213.000943,116.162523 C213.000943,115.957982 213.16851,115.79218 213.373314,115.79218 L219.61984,115.79218 L215.367052,115.79218 C215.159144,115.79218 214.993129,115.623279 214.993129,115.417189" id="Fill-12" fill="#E3E3E3" sketch:type="MSShapeGroup"></path>
                <path d="M219.838608,116.41045 L213.000943,116.41045 L213.000943,118.64955 C213.000943,118.85564 213.16851,119.024541 213.373314,119.024541 L213.973763,119.024541 C213.983072,119.022991 213.99083,119.022991 214.000139,119.022991 L220.758675,119.022991 L219.838608,116.41045" id="Fill-13" fill="#E3C85D" sketch:type="MSShapeGroup"></path>
                <path d="M219.61984,115.79218 L213.373314,115.79218 C213.16851,115.79218 213.000943,115.957982 213.000943,116.162523 L213.000943,116.41045 L219.838608,116.41045 L219.61984,115.79218" id="Fill-14" fill="#DFB53C" sketch:type="MSShapeGroup"></path>
                <path d="M218.698222,113.17964 L215.066052,113.17964 C215.02416,113.348541 214.993129,113.55618 214.993129,113.802559 L214.993129,115.417189 C214.993129,115.623279 215.159144,115.79218 215.367052,115.79218 L219.61984,115.79218 L218.698222,113.17964" id="Fill-15" fill="#E3C85D" sketch:type="MSShapeGroup"></path>
                <path d="M218.479454,112.55827 L215.367052,112.55827 C215.367052,112.55827 215.17466,112.750414 215.066052,113.17964 L218.698222,113.17964 L218.479454,112.55827" id="Fill-16" fill="#DFB53C" sketch:type="MSShapeGroup"></path>
                <path d="M214.367856,127.849225 C214.367856,127.849225 213.62932,128.221117 214.732469,128.221117 L214.741778,128.221117 C214.538526,128.221117 214.367856,128.055315 214.367856,127.849225 M214.389577,125.239784 L214.028067,125.239784 L214.367856,125.362198 C214.367856,125.318811 214.375613,125.278523 214.389577,125.239784 M213.000943,122.380865 L213.000943,122.380865 C212.752696,122.627243 213.000943,124.864793 213.000943,124.864793 L213.000943,122.627243 L222.02784,122.627243 L213.000943,122.627243 L213.000943,122.380865 M213.624665,121.88191 C213.624665,121.88191 213.551742,121.931495 213.447789,122.007423 L213.646387,122.007423 C213.632423,121.968685 213.624665,121.925297 213.624665,121.88191" id="Fill-17" fill="#E3E3E3" sketch:type="MSShapeGroup"></path>
                <path d="M223.079789,125.611676 L214.367856,125.611676 L214.367856,127.849225 C214.367856,128.055315 214.538526,128.221117 214.741778,128.221117 L223.082892,128.221117 L223.956412,128.097153 L223.079789,125.611676" id="Fill-18" fill="#E3C85D" sketch:type="MSShapeGroup"></path>
                <path d="M222.949459,125.239784 L214.389577,125.239784 C214.375613,125.278523 214.367856,125.318811 214.367856,125.362198 L214.367856,125.611676 L223.079789,125.611676 L222.949459,125.239784" id="Fill-19" fill="#DFB53C" sketch:type="MSShapeGroup"></path>
                <path d="M222.02784,122.627243 L213.000943,122.627243 L213.000943,124.864793 L214.028067,125.239784 L222.949459,125.239784 L222.02784,122.627243" id="Fill-20" fill="#E3C85D" sketch:type="MSShapeGroup"></path>
                <path d="M213.646387,122.007423 L213.447789,122.007423 C213.317459,122.103495 213.139031,122.241405 213.000943,122.380865 L213.000943,122.627243 L222.02784,122.627243 L221.89751,122.255351 L214.000139,122.255351 C213.835675,122.255351 213.697588,122.151532 213.646387,122.007423" id="Fill-21" fill="#DFB53C" sketch:type="MSShapeGroup"></path>
                <path d="M220.977443,119.64436 L214.000139,119.64436 L214.000139,121.88191 L213.624665,121.88191 C213.624665,121.925297 213.632423,121.968685 213.646387,122.007423 C213.697588,122.151532 213.835675,122.255351 214.000139,122.255351 L221.89751,122.255351 L220.977443,119.64436" id="Fill-22" fill="#E3C85D" sketch:type="MSShapeGroup"></path>
                <path d="M220.758675,119.022991 L214.000139,119.022991 C213.99083,119.022991 213.983072,119.022991 213.973763,119.024541 L214.000139,119.024541 L214.000139,119.64436 L220.977443,119.64436 L220.758675,119.022991" id="Fill-23" fill="#DFB53C" sketch:type="MSShapeGroup"></path>
                <path d="M224.272928,87.2618739 C224.370675,86.6126126 224.507211,85.9447568 224.687191,85.6797838 C224.687191,85.6797838 224.445149,85.606955 224.272928,87.2618739" id="Fill-24" fill="#936A5D" sketch:type="MSShapeGroup"></path>
                <path d="M251.873387,132.668324 L251.173639,130.75773 L224.091397,130.75773 L224.091397,132.733405 L269.621526,132.733405 C269.621526,132.733405 270.332134,132.823279 271.174624,132.668324 L251.873387,132.668324" id="Fill-25" fill="#AB948C" sketch:type="MSShapeGroup"></path>
                <path d="M224.092948,88.8424144 L224.092948,92.2033874 C224.092948,89.7458018 224.172077,88.2179459 224.272928,87.2618739 C224.153459,88.0614414 224.092948,88.8424144 224.092948,88.8424144" id="Fill-26" fill="#825646" sketch:type="MSShapeGroup"></path>
                <path d="M253.743,85.5046847 L256.124624,85.5046847 L254.937691,84.1643243 C254.588593,84.6245405 254.189845,85.0739099 253.743,85.5046847" id="Fill-27" fill="#95C066" sketch:type="MSShapeGroup"></path>
                <path d="M234.449521,84.9561441 L248.981304,84.0109189 C240.581232,84.0047207 233.135361,84.0217658 231.020603,84.0992432 C225.476928,84.2944865 224.687191,85.6797838 224.687191,85.6797838 L234.716387,85.6797838 L234.449521,84.9561441" id="Fill-28" fill="#5C3C33" sketch:type="MSShapeGroup"></path>
                <path d="M234.716387,85.6797838 L268.634742,85.6797838 C274.372361,85.6797838 274.570959,91.2147748 274.570959,91.2147748 C274.570959,91.2147748 273.978268,125.021297 273.978268,129.17409 C273.978268,129.810955 273.86966,130.322306 273.694335,130.75773 L274.176866,130.75773 L278.927701,130.75773 C283.678536,130.75773 283.084294,126.80173 283.084294,126.80173 L283.084294,88.8424144 C283.084294,83.9009009 278.729103,84.0992432 278.729103,84.0992432 C278.729103,84.0992432 262.600778,84.0217658 248.981304,84.0109189 L234.449521,84.9561441 L234.716387,85.6797838" id="Fill-29" fill="#AB948C" sketch:type="MSShapeGroup"></path>
                <path d="M224.091397,92.2033874 C224.091397,89.7458018 224.172077,88.2179459 224.272928,87.2618739 C224.370675,86.6126126 224.507211,85.9447568 224.687191,85.6797838 L234.716387,85.6797838 L234.823443,85.8347387 C247.33201,85.0801081 264.906376,85.6797838 268.634742,85.6797838 C274.372361,85.6797838 274.570959,91.2147748 274.570959,91.2147748 C274.570959,91.2147748 274.817655,125.032144 274.817655,129.184937 C274.817655,129.820252 273.86966,130.322306 273.694335,130.75773 C273.193186,132.008216 272.105552,132.496324 271.174624,132.668324 L251.873387,132.668324 L251.460675,131.540252 L250.35132,131.578991 L250.05032,130.75773 L224.091397,130.75773 L224.091397,92.2033874" id="Fill-30" fill="#AB948C" sketch:type="MSShapeGroup"></path>
                <path d="M237.878438,85.6797838 L234.716387,85.6797838 L234.823443,85.8347387 C235.811778,85.7743063 236.834247,85.7231712 237.878438,85.6797838 M278.78651,84.0976937 L278.718242,84.0976937 C278.726,84.0992432 278.729103,84.0992432 278.729103,84.0992432 C278.729103,84.0992432 278.750825,84.0976937 278.791165,84.0976937 L278.78651,84.0976937" id="Fill-31" fill="#E3E3E3" sketch:type="MSShapeGroup"></path>
                <path d="M251.460675,131.540252 L251.459124,131.540252 L251.873387,132.668324 L251.460675,131.540252" id="Fill-32" fill="#CCCCCC" sketch:type="MSShapeGroup"></path>
                <path d="M251.459124,131.540252 L251.446711,131.540252 L251.859423,132.668324 L251.873387,132.668324 L251.459124,131.540252" id="Fill-33" fill="#98847D" sketch:type="MSShapeGroup"></path>
                <path d="M248.059686,84.0698018 L234.435557,84.9561441 L234.700871,85.6797838 L234.716387,85.6797838 L234.449521,84.9561441 L248.059686,84.0698018" id="Fill-34" fill="#52352D" sketch:type="MSShapeGroup"></path>
                <path d="M283.07033,113.982306 C280.992809,114.31391 277.965742,114.767928 274.738526,115.156865 C274.738526,115.283928 274.740077,115.410991 274.740077,115.538054 L283.07033,115.538054 L283.07033,113.982306 M252.028541,84.6927207 L251.350515,85.4550991 C251.795809,85.4550991 252.236448,85.4566486 252.675536,85.4581982 C252.439701,85.2102703 252.222485,84.953045 252.028541,84.6927207 M248.059686,84.0698018 L234.449521,84.9561441 L234.716387,85.6797838 L237.878438,85.6797838 C240.993943,85.5496216 244.306495,85.4860901 247.570948,85.4643964 L248.059686,84.0698018 M270.896897,84.0667027 L270.308861,85.7774054 L269.894598,85.7774054 C274.40184,86.5211892 274.570959,91.2147748 274.570959,91.2147748 C274.570959,91.2147748 274.657845,103.102919 274.727665,113.647604 L283.07033,113.549982 L283.07033,88.8424144 C283.07033,84.278991 279.360582,84.0976937 278.791165,84.0976937 C278.750825,84.0976937 278.729103,84.0992432 278.729103,84.0992432 C278.729103,84.0992432 278.726,84.0992432 278.718242,84.0976937 L278.718242,84.0992432 C278.718242,84.0992432 275.576361,84.0837477 270.896897,84.0667027" id="Fill-35" fill="#98847D" sketch:type="MSShapeGroup"></path>
                <path d="M274.738526,115.156865 C273.585727,115.294775 272.409655,115.424937 271.24134,115.538054 L274.740077,115.538054 C274.740077,115.410991 274.738526,115.283928 274.738526,115.156865 M251.350515,85.4550991 L251.061928,85.7774054 L247.460789,85.7774054 L247.570948,85.4643964 C244.306495,85.4860901 240.993943,85.5496216 237.878438,85.6797838 C236.834247,85.7231712 235.811778,85.7743063 234.823443,85.8347387 L234.716387,85.6797838 L234.700871,85.6797838 L251.159675,130.75773 L251.446711,131.540252 L251.460675,131.540252 L251.873387,132.668324 L269.469474,132.668324 L269.469474,131.568144 L273.200943,131.568144 L269.469474,131.568144 L269.469474,131.262883 C269.469474,131.008757 269.677381,130.804216 269.92718,130.804216 L271.176175,130.804216 C271.16066,130.75773 271.151351,130.705045 271.151351,130.65236 L271.151351,127.903459 L274.814552,127.903459 L271.151351,127.903459 L271.151351,127.598198 C271.151351,127.545514 271.159108,127.494378 271.176175,127.446342 L270.844144,127.446342 C270.591242,127.446342 270.386438,127.241802 270.386438,126.989225 L270.386438,124.238775 L274.795933,124.238775 L270.386438,124.238775 L270.386438,123.935063 C270.386438,123.682486 270.591242,123.476396 270.844144,123.476396 L271.574923,123.476396 C271.337536,123.457802 271.151351,123.259459 271.151351,123.019279 L271.151351,120.270378 L274.771108,120.270378 L271.151351,120.270378 L271.151351,119.965117 C271.151351,119.710991 271.356155,119.50645 271.610608,119.50645 L274.766454,119.50645 L269.162268,119.50645 C268.909366,119.50645 268.704562,119.30191 268.704562,119.049333 L268.704562,116.301982 L274.746284,116.301982 L268.704562,116.301982 L268.704562,115.995171 C268.704562,115.905297 268.73249,115.820072 268.777485,115.748793 C268.400459,115.773586 268.043603,115.784432 267.710021,115.784432 C261.449531,115.784432 262.495273,111.775748 262.495273,111.775748 C263.683758,113.754523 265.466485,113.754523 265.466485,113.754523 L274.727665,113.647604 C274.657845,103.102919 274.570959,91.2147748 274.570959,91.2147748 C274.570959,91.2147748 274.40184,86.5211892 269.894598,85.7774054 L267.876036,85.7774054 C267.886897,85.7433153 267.896206,85.7092252 267.903964,85.6751351 C267.896206,85.7092252 267.886897,85.7433153 267.876036,85.7774054 L252.993603,85.7774054 C252.883443,85.6735856 252.777938,85.5666667 252.675536,85.4581982 C252.236448,85.4566486 251.795809,85.4550991 251.350515,85.4550991" id="Fill-36" fill="#98847D" sketch:type="MSShapeGroup"></path>
                <path d="M274.570959,91.2147748 C274.570959,91.2147748 274.176866,88.0505946 269.820124,88.0505946 L224.092948,88.0505946 C224.092948,88.0505946 223.697304,87.0635315 226.862459,87.0635315 L269.820124,87.0635315 C269.820124,87.0635315 274.176866,87.2603243 274.570959,91.2147748" id="Fill-37" fill="#795548" sketch:type="MSShapeGroup"></path>
                <path d="M285.855356,103.905586 C285.486088,103.755279 285.088892,103.670054 284.666871,103.670054 L265.466485,103.670054 C263.717892,103.670054 262.296675,105.086342 262.296675,106.834234 L262.296675,110.590342 C262.296675,112.338234 263.717892,113.754523 265.466485,113.754523 L284.666871,113.754523 C285.088892,113.754523 285.486088,113.667748 285.855356,113.517441 L285.855356,103.905586" id="Fill-38" fill="#AB948C" sketch:type="MSShapeGroup"></path>
                <path d="M262.495273,111.775748 C262.495273,111.775748 261.30834,116.323676 269.028835,115.731748 C276.750881,115.136721 285.855356,113.517441 285.855356,113.517441 L265.466485,113.754523 C265.466485,113.754523 263.683758,113.754523 262.495273,111.775748" id="Fill-39" fill="#795548" sketch:type="MSShapeGroup"></path>
                <path d="M270.215768,109.006703 C270.215768,107.426162 268.931088,106.141586 267.346959,106.141586 C266.723237,106.141586 266.150716,106.346126 265.680598,106.682378 L269.045902,111.306234 C269.750304,110.784036 270.215768,109.953477 270.215768,109.006703" id="Fill-40" fill="#808080" sketch:type="MSShapeGroup"></path>
                <path d="M264.476598,109.006703 C264.476598,110.593441 265.761278,111.876468 267.346959,111.876468 C267.984644,111.876468 268.568026,111.661081 269.045902,111.306234 L265.680598,106.682378 C264.954474,107.204577 264.476598,108.045982 264.476598,109.006703" id="Fill-41" fill="#434A4D" sketch:type="MSShapeGroup"></path>
                <path d="M231.923603,89.8062342 C231.923603,89.9766847 231.79017,90.113045 231.630361,90.113045 L226.234082,90.113045 C226.077376,90.113045 225.945495,89.9766847 225.945495,89.8062342 C225.945495,89.6373333 226.077376,89.4994234 226.234082,89.4994234 L231.630361,89.4994234 C231.79017,89.4994234 231.923603,89.6373333 231.923603,89.8062342" id="Fill-42" fill="#795548" sketch:type="MSShapeGroup"></path>
                <path d="M239.250005,89.8062342 C239.250005,89.9766847 239.118124,90.113045 238.958314,90.113045 L233.566691,90.113045 C233.40533,90.113045 233.276552,89.9766847 233.276552,89.8062342 C233.276552,89.6373333 233.40533,89.4994234 233.566691,89.4994234 L238.958314,89.4994234 C239.118124,89.4994234 239.250005,89.6373333 239.250005,89.8062342" id="Fill-43" fill="#795548" sketch:type="MSShapeGroup"></path>
                <path d="M246.581062,89.8062342 C246.581062,89.9766847 246.44918,90.113045 246.28782,90.113045 L240.896196,90.113045 C240.736387,90.113045 240.60916,89.9766847 240.60916,89.8062342 C240.60916,89.6373333 240.736387,89.4994234 240.896196,89.4994234 L246.28782,89.4994234 C246.44918,89.4994234 246.581062,89.6373333 246.581062,89.8062342" id="Fill-44" fill="#795548" sketch:type="MSShapeGroup"></path>
                <path d="M253.909015,89.8062342 C253.909015,89.9766847 253.778686,90.113045 253.617325,90.113045 L248.227253,90.113045 C248.06434,90.113045 247.935562,89.9766847 247.935562,89.8062342 C247.935562,89.6373333 248.06434,89.4994234 248.227253,89.4994234 L253.617325,89.4994234 C253.778686,89.4994234 253.909015,89.6373333 253.909015,89.8062342" id="Fill-45" fill="#795548" sketch:type="MSShapeGroup"></path>
                <path d="M261.241624,89.8062342 C261.241624,89.9766847 261.106639,90.113045 260.949933,90.113045 L255.555206,90.113045 C255.392294,90.113045 255.265067,89.9766847 255.265067,89.8062342 C255.265067,89.6373333 255.392294,89.4994234 255.555206,89.4994234 L260.949933,89.4994234 C261.106639,89.4994234 261.241624,89.6373333 261.241624,89.8062342" id="Fill-46" fill="#795548" sketch:type="MSShapeGroup"></path>
                <path d="M268.568026,89.8062342 C268.568026,89.9766847 268.437696,90.113045 268.277887,90.113045 L262.886263,90.113045 C262.724902,90.113045 262.593021,89.9766847 262.593021,89.8062342 C262.593021,89.6373333 262.724902,89.4994234 262.886263,89.4994234 L268.277887,89.4994234 C268.437696,89.4994234 268.568026,89.6373333 268.568026,89.8062342" id="Fill-47" fill="#795548" sketch:type="MSShapeGroup"></path>
                <path d="M226.102201,96.4460541 C225.928428,96.4460541 225.791892,96.3329369 225.791892,96.1981261 L225.791892,91.6145586 C225.791892,91.4766486 225.928428,91.3650811 226.102201,91.3650811 C226.27132,91.3650811 226.409407,91.4766486 226.409407,91.6145586 L226.409407,96.1981261 C226.409407,96.3329369 226.27132,96.4460541 226.102201,96.4460541" id="Fill-48" fill="#795548" sketch:type="MSShapeGroup"></path>
                <path d="M226.102201,102.678342 C225.928428,102.678342 225.791892,102.566775 225.791892,102.428865 L225.791892,97.8468468 C225.791892,97.7089369 225.928428,97.5973694 226.102201,97.5973694 C226.27132,97.5973694 226.409407,97.7089369 226.409407,97.8468468 L226.409407,102.428865 C226.409407,102.566775 226.27132,102.678342 226.102201,102.678342" id="Fill-49" fill="#795548" sketch:type="MSShapeGroup"></path>
                <path d="M226.102201,108.91218 C225.928428,108.91218 225.791892,108.800613 225.791892,108.662703 L225.791892,104.079135 C225.791892,103.942775 225.928428,103.831207 226.102201,103.831207 C226.27132,103.831207 226.409407,103.942775 226.409407,104.079135 L226.409407,108.662703 C226.409407,108.800613 226.27132,108.91218 226.102201,108.91218" id="Fill-50" fill="#795548" sketch:type="MSShapeGroup"></path>
                <path d="M226.102201,115.144468 C225.928428,115.144468 225.791892,115.031351 225.791892,114.894991 L225.791892,110.311423 C225.791892,110.173514 225.928428,110.061946 226.102201,110.061946 C226.27132,110.061946 226.409407,110.173514 226.409407,110.311423 L226.409407,114.894991 C226.409407,115.031351 226.27132,115.144468 226.102201,115.144468" id="Fill-51" fill="#795548" sketch:type="MSShapeGroup"></path>
                <path d="M226.102201,121.376757 C225.928428,121.376757 225.791892,121.266739 225.791892,121.128829 L225.791892,116.543712 C225.791892,116.407351 225.928428,116.297333 226.102201,116.297333 C226.27132,116.297333 226.409407,116.407351 226.409407,116.543712 L226.409407,121.128829 C226.409407,121.266739 226.27132,121.376757 226.102201,121.376757" id="Fill-52" fill="#795548" sketch:type="MSShapeGroup"></path>
                <path d="M226.102201,127.610595 C225.928428,127.610595 225.791892,127.499027 225.791892,127.362667 L225.791892,122.77755 C225.791892,122.63964 225.928428,122.529622 226.102201,122.529622 C226.27132,122.529622 226.409407,122.63964 226.409407,122.77755 L226.409407,127.362667 C226.409407,127.499027 226.27132,127.610595 226.102201,127.610595" id="Fill-53" fill="#795548" sketch:type="MSShapeGroup"></path>
                <path d="M283.214624,104.866306 L283.343402,104.657117 L285.746747,104.657117 L285.875526,104.866306 L285.746747,105.078595 L283.343402,105.078595 L283.214624,104.866306" id="Fill-54" fill="#795548" sketch:type="MSShapeGroup"></path>
                <path d="M279.95017,104.866306 L280.082052,104.657117 L282.477639,104.657117 L282.611072,104.866306 L282.477639,105.078595 L280.082052,105.078595 L279.95017,104.866306" id="Fill-55" fill="#795548" sketch:type="MSShapeGroup"></path>
                <path d="M276.684165,104.866306 L276.816046,104.657117 L279.21784,104.657117 L279.346619,104.866306 L279.21784,105.078595 L276.816046,105.078595 L276.684165,104.866306" id="Fill-56" fill="#795548" sketch:type="MSShapeGroup"></path>
                <path d="M273.422814,104.866306 L273.551593,104.657117 L275.951835,104.657117 L276.080613,104.866306 L275.951835,105.078595 L273.551593,105.078595 L273.422814,104.866306" id="Fill-57" fill="#795548" sketch:type="MSShapeGroup"></path>
                <path d="M270.155258,104.866306 L270.285588,104.657117 L272.687381,104.657117 L272.817711,104.866306 L272.687381,105.078595 L270.285588,105.078595 L270.155258,104.866306" id="Fill-58" fill="#795548" sketch:type="MSShapeGroup"></path>
                <path d="M283.214624,112.550523 L283.343402,112.339784 L285.746747,112.339784 L285.875526,112.550523 L285.746747,112.762811 L283.343402,112.762811 L283.214624,112.550523" id="Fill-59" fill="#795548" sketch:type="MSShapeGroup"></path>
                <path d="M279.95017,112.550523 L280.082052,112.339784 L282.477639,112.339784 L282.611072,112.550523 L282.477639,112.762811 L280.082052,112.762811 L279.95017,112.550523" id="Fill-60" fill="#795548" sketch:type="MSShapeGroup"></path>
                <path d="M276.684165,112.550523 L276.816046,112.339784 L279.21784,112.339784 L279.346619,112.550523 L279.21784,112.762811 L276.816046,112.762811 L276.684165,112.550523" id="Fill-61" fill="#795548" sketch:type="MSShapeGroup"></path>
                <path d="M273.422814,112.550523 L273.551593,112.339784 L275.951835,112.339784 L276.080613,112.550523 L275.951835,112.762811 L273.551593,112.762811 L273.422814,112.550523" id="Fill-62" fill="#795548" sketch:type="MSShapeGroup"></path>
                <path d="M270.155258,112.550523 L270.285588,112.339784 L272.687381,112.339784 L272.817711,112.550523 L272.687381,112.762811 L270.285588,112.762811 L270.155258,112.550523" id="Fill-63" fill="#795548" sketch:type="MSShapeGroup"></path>
                <path d="M231.923603,129.146198 C231.923603,129.316649 231.79017,129.453009 231.630361,129.453009 L226.234082,129.453009 C226.077376,129.453009 225.945495,129.316649 225.945495,129.146198 C225.945495,128.977297 226.077376,128.839387 226.234082,128.839387 L231.630361,128.839387 C231.79017,128.839387 231.923603,128.977297 231.923603,129.146198" id="Fill-64" fill="#795548" sketch:type="MSShapeGroup"></path>
                <path d="M239.250005,129.146198 C239.250005,129.316649 239.118124,129.453009 238.958314,129.453009 L233.566691,129.453009 C233.40533,129.453009 233.276552,129.316649 233.276552,129.146198 C233.276552,128.977297 233.40533,128.839387 233.566691,128.839387 L238.958314,128.839387 C239.118124,128.839387 239.250005,128.977297 239.250005,129.146198" id="Fill-65" fill="#795548" sketch:type="MSShapeGroup"></path>
                <path d="M246.581062,129.146198 C246.581062,129.316649 246.44918,129.453009 246.28782,129.453009 L240.896196,129.453009 C240.736387,129.453009 240.60916,129.316649 240.60916,129.146198 C240.60916,128.977297 240.736387,128.839387 240.896196,128.839387 L246.28782,128.839387 C246.44918,128.839387 246.581062,128.977297 246.581062,129.146198" id="Fill-66" fill="#795548" sketch:type="MSShapeGroup"></path>
                <path d="M253.909015,129.146198 C253.909015,129.316649 253.778686,129.453009 253.617325,129.453009 L248.227253,129.453009 C248.06434,129.453009 247.935562,129.316649 247.935562,129.146198 C247.935562,128.977297 248.06434,128.839387 248.227253,128.839387 L253.617325,128.839387 C253.778686,128.839387 253.909015,128.977297 253.909015,129.146198" id="Fill-67" fill="#795548" sketch:type="MSShapeGroup"></path>
                <path d="M261.241624,129.146198 C261.241624,129.316649 261.106639,129.453009 260.949933,129.453009 L255.555206,129.453009 C255.392294,129.453009 255.265067,129.316649 255.265067,129.146198 C255.265067,128.977297 255.392294,128.839387 255.555206,128.839387 L260.949933,128.839387 C261.106639,128.839387 261.241624,128.977297 261.241624,129.146198" id="Fill-68" fill="#795548" sketch:type="MSShapeGroup"></path>
                <path d="M268.568026,129.146198 C268.568026,129.316649 268.437696,129.453009 268.277887,129.453009 L262.886263,129.453009 C262.724902,129.453009 262.593021,129.316649 262.593021,129.146198 C262.593021,128.977297 262.724902,128.839387 262.886263,128.839387 L268.277887,128.839387 C268.437696,128.839387 268.568026,128.977297 268.568026,129.146198" id="Fill-69" fill="#795548" sketch:type="MSShapeGroup"></path>
                <path d="M269.469474,134.317045 C269.469474,134.568072 269.677381,134.772613 269.92718,134.772613 L285.366619,134.772613 C285.621072,134.772613 285.827428,134.568072 285.827428,134.317045 L285.827428,131.568144 L269.469474,131.568144 L269.469474,134.317045" id="Fill-70" fill="#FFE168" sketch:type="MSShapeGroup"></path>
                <path d="M285.366619,130.804216 L269.92718,130.804216 C269.677381,130.804216 269.469474,131.008757 269.469474,131.262883 L269.469474,131.568144 L285.827428,131.568144 L285.827428,131.262883 C285.827428,131.008757 285.621072,130.804216 285.366619,130.804216" id="Fill-71" fill="#FBCB43" sketch:type="MSShapeGroup"></path>
                <path d="M271.151351,123.019279 C271.151351,123.271856 271.356155,123.477946 271.610608,123.477946 L287.048495,123.477946 C287.301397,123.477946 287.506201,123.271856 287.506201,123.019279 L287.506201,120.270378 L271.151351,120.270378 L271.151351,123.019279" id="Fill-72" fill="#FFE168" sketch:type="MSShapeGroup"></path>
                <path d="M287.048495,119.50645 L271.610608,119.50645 C271.356155,119.50645 271.151351,119.710991 271.151351,119.965117 L271.151351,120.270378 L287.506201,120.270378 L287.506201,119.965117 C287.506201,119.710991 287.301397,119.50645 287.048495,119.50645" id="Fill-73" fill="#FBCB43" sketch:type="MSShapeGroup"></path>
                <path d="M268.704562,119.049333 C268.704562,119.30191 268.909366,119.50645 269.162268,119.50645 L284.604809,119.50645 C284.857711,119.50645 285.060964,119.30191 285.060964,119.049333 L285.060964,116.301982 L268.704562,116.301982 L268.704562,119.049333" id="Fill-74" fill="#FFE168" sketch:type="MSShapeGroup"></path>
                <path d="M284.604809,115.538054 L269.162268,115.538054 C268.909366,115.538054 268.704562,115.744144 268.704562,115.995171 L268.704562,116.301982 L285.060964,116.301982 L285.060964,115.995171 C285.060964,115.744144 284.857711,115.538054 284.604809,115.538054" id="Fill-75" fill="#FBCB43" sketch:type="MSShapeGroup"></path>
                <path d="M271.151351,130.65236 C271.151351,130.904937 271.356155,131.109477 271.610608,131.109477 L287.048495,131.109477 C287.301397,131.109477 287.506201,130.904937 287.506201,130.65236 L287.506201,127.903459 L271.151351,127.903459 L271.151351,130.65236" id="Fill-76" fill="#FFE168" sketch:type="MSShapeGroup"></path>
                <path d="M287.048495,127.141081 L271.610608,127.141081 C271.356155,127.141081 271.151351,127.345622 271.151351,127.598198 L271.151351,127.903459 L287.506201,127.903459 L287.506201,127.598198 C287.506201,127.345622 287.301397,127.141081 287.048495,127.141081" id="Fill-77" fill="#FBCB43" sketch:type="MSShapeGroup"></path>
                <path d="M270.386438,126.989225 C270.386438,127.241802 270.591242,127.446342 270.844144,127.446342 L286.285134,127.446342 C286.538036,127.446342 286.741289,127.241802 286.741289,126.989225 L286.741289,124.238775 L270.386438,124.238775 L270.386438,126.989225" id="Fill-78" fill="#FFE168" sketch:type="MSShapeGroup"></path>
                <path d="M286.285134,123.476396 L270.844144,123.476396 C270.591242,123.476396 270.386438,123.682486 270.386438,123.935063 L270.386438,124.238775 L286.741289,124.238775 L286.741289,123.935063 C286.741289,123.682486 286.538036,123.476396 286.285134,123.476396" id="Fill-79" fill="#FBCB43" sketch:type="MSShapeGroup"></path>
                <path d="M286.57217,123.477946 L286.32082,123.477946 C286.417015,123.485694 286.503902,123.522883 286.575273,123.580216 L286.57217,123.477946 M285.060964,117.06436 L285.060964,119.049333 C285.060964,119.30191 284.857711,119.50645 284.604809,119.50645 L283.084294,119.50645 L287.048495,119.50645 C287.301397,119.50645 287.506201,119.710991 287.506201,119.965117 L287.506201,120.270378 L283.084294,120.270378 L287.506201,120.270378 L287.506201,123.019279 C287.506201,123.211423 287.386732,123.377225 287.219165,123.443856 L287.506201,123.477946 L287.506201,119.50645 L285.060964,119.50645 L285.060964,117.06436" id="Fill-80" fill="#E3E3E3" sketch:type="MSShapeGroup"></path>
                <path d="M287.506201,120.270378 L279.113887,120.270378 L277.984361,123.476396 L286.285134,123.476396 C286.295995,123.476396 286.308407,123.476396 286.32082,123.477946 L286.57217,123.477946 L286.569067,123.369477 L287.219165,123.443856 C287.386732,123.377225 287.506201,123.211423 287.506201,123.019279 L287.506201,120.270378" id="Fill-81" fill="#E3C85D" sketch:type="MSShapeGroup"></path>
                <path d="M287.048495,119.50645 L279.382304,119.50645 L279.113887,120.270378 L287.506201,120.270378 L287.506201,119.965117 C287.506201,119.710991 287.301397,119.50645 287.048495,119.50645" id="Fill-82" fill="#DFB53C" sketch:type="MSShapeGroup"></path>
                <path d="M284.972526,116.301982 L280.51183,116.301982 L279.382304,119.50645 L284.604809,119.50645 C284.857711,119.50645 285.060964,119.30191 285.060964,119.049333 L285.060964,117.06436 C285.060964,116.763748 285.025278,116.509622 284.972526,116.301982" id="Fill-83" fill="#E3C85D" sketch:type="MSShapeGroup"></path>
                <path d="M284.604809,115.538054 L280.781799,115.538054 L280.51183,116.301982 L284.972526,116.301982 C284.839093,115.773586 284.604809,115.538054 284.604809,115.538054" id="Fill-84" fill="#DFB53C" sketch:type="MSShapeGroup"></path>
                <path d="M287.506201,127.598198 L287.506201,127.903459 L283.929887,127.903459 L287.506201,127.903459 L287.506201,128.326486 C287.551196,128.332685 287.597742,128.338883 287.642737,128.345081 C287.627222,127.965441 287.586881,127.678775 287.506201,127.598198 M286.741289,126.989225 L286.741289,126.989225 C286.741289,127.04191 286.733531,127.093045 286.716464,127.141081 L286.958505,127.141081 C286.831278,127.048108 286.741289,126.989225 286.741289,126.989225" id="Fill-85" fill="#E3E3E3" sketch:type="MSShapeGroup"></path>
                <path d="M287.506201,128.326486 L287.506201,130.65236 C287.506201,130.904937 287.301397,131.109477 287.048495,131.109477 L285.801052,131.109477 C285.818119,131.157514 285.827428,131.208649 285.827428,131.262883 L285.827428,131.568144 L275.131067,131.568144 L285.827428,131.568144 L285.827428,134.317045 C285.827428,134.568072 285.621072,134.772613 285.366619,134.772613 L285.375928,134.772613 C286.736634,134.772613 285.827428,134.317045 285.827428,134.317045 L285.827428,131.262883 L287.537232,131.211748 C287.537232,131.211748 287.687732,129.411171 287.642737,128.345081 C287.597742,128.338883 287.551196,128.332685 287.506201,128.326486" id="Fill-86" fill="#CCCCCC" sketch:type="MSShapeGroup"></path>
                <path d="M285.827428,131.568144 L275.131067,131.568144 L274.055845,134.620757 L275.126412,134.772613 L285.366619,134.772613 C285.621072,134.772613 285.827428,134.568072 285.827428,134.317045 L285.827428,131.568144" id="Fill-87" fill="#E3C85D" sketch:type="MSShapeGroup"></path>
                <path d="M285.801052,131.109477 L275.292428,131.109477 L275.131067,131.568144 L285.827428,131.568144 L285.827428,131.262883 C285.827428,131.208649 285.818119,131.157514 285.801052,131.109477" id="Fill-88" fill="#DFB53C" sketch:type="MSShapeGroup"></path>
                <path d="M287.506201,127.903459 L276.421954,127.903459 L275.292428,131.109477 L287.048495,131.109477 C287.301397,131.109477 287.506201,130.904937 287.506201,130.65236 L287.506201,127.903459" id="Fill-89" fill="#E3C85D" sketch:type="MSShapeGroup"></path>
                <path d="M286.958505,127.141081 L286.716464,127.141081 C286.652851,127.319279 286.483732,127.446342 286.285134,127.446342 L276.583314,127.446342 L276.421954,127.903459 L287.506201,127.903459 L287.506201,127.598198 C287.335531,127.427748 287.118314,127.257297 286.958505,127.141081" id="Fill-90" fill="#DFB53C" sketch:type="MSShapeGroup"></path>
                <path d="M286.590789,124.238775 L277.714392,124.238775 L276.583314,127.446342 L286.285134,127.446342 C286.483732,127.446342 286.652851,127.319279 286.716464,127.141081 C286.733531,127.093045 286.741289,127.04191 286.741289,126.989225 L286.657505,126.806378 L286.590789,124.238775" id="Fill-91" fill="#E3C85D" sketch:type="MSShapeGroup"></path>
                <path d="M286.285134,123.476396 L277.984361,123.476396 L277.714392,124.238775 L286.590789,124.238775 L286.575273,123.580216 C286.503902,123.522883 286.417015,123.485694 286.32082,123.477946 C286.308407,123.476396 286.295995,123.476396 286.285134,123.476396" id="Fill-92" fill="#DFB53C" sketch:type="MSShapeGroup"></path>
                <path d="M274.010851,122.422703 C274.010851,122.422703 279.711232,127.141081 275.126412,134.774162 L271.301851,134.774162 L274.010851,122.422703" id="Fill-93" fill="#FBCB43" sketch:type="MSShapeGroup"></path>
                <path d="M268.417526,120.079784 C264.080954,120.079784 260.565149,123.591063 260.565149,127.923604 C260.565149,129.947315 261.33782,131.785081 262.599227,133.176577 L274.010851,122.422703 C272.588082,120.975423 270.608309,120.079784 268.417526,120.079784" id="Fill-94" fill="#F7EC3B" sketch:type="MSShapeGroup"></path>
                <path d="M268.417526,135.765874 C272.755649,135.765874 276.269902,132.254595 276.269902,127.923604 C276.269902,125.779027 275.408794,123.838991 274.010851,122.422703 L262.599227,133.176577 C264.03751,134.763315 266.105722,135.765874 268.417526,135.765874" id="Fill-95" fill="#FDD11C" sketch:type="MSShapeGroup"></path>
                <path d="M268.417526,133.973045 C265.078598,133.973045 262.36184,131.259784 262.36184,127.923604 C262.36184,124.587423 265.078598,121.874162 268.417526,121.874162 C271.758005,121.874162 274.474763,124.587423 274.474763,127.923604 C274.474763,131.259784 271.758005,133.973045 268.417526,133.973045 L268.417526,133.973045 Z M268.417526,123.104505 C265.759727,123.104505 263.593768,125.266126 263.593768,127.923604 C263.593768,130.577982 265.759727,132.741153 268.417526,132.741153 C271.078428,132.741153 273.241284,130.577982 273.241284,127.923604 C273.241284,125.266126 271.078428,123.104505 268.417526,123.104505 L268.417526,123.104505 Z" id="Fill-96" fill="#FBF7A7" sketch:type="MSShapeGroup"></path>
                <path d="M266.828742,125.605477 L268.206515,130.055784 C268.206515,130.055784 268.293402,130.255676 268.507515,130.255676 L268.976082,130.255676 L267.685196,125.929333 C267.685196,125.929333 267.550211,125.580685 267.289552,125.580685 C267.02734,125.580685 266.828742,125.605477 266.828742,125.605477" id="Fill-97" fill="#DBB71D" sketch:type="MSShapeGroup"></path>
                <path d="M267.784495,125.605477 L269.16382,130.055784 C269.16382,130.055784 269.250706,130.255676 269.461716,130.255676 L269.933387,130.255676 L268.640948,125.929333 C268.640948,125.929333 268.507515,125.580685 268.243753,125.580685 C267.983093,125.580685 267.784495,125.605477 267.784495,125.605477" id="Fill-98" fill="#DBB71D" sketch:type="MSShapeGroup"></path>
                <path d="M266.717031,125.730991 L267.092505,126.969081 L265.947464,130.701946 C265.947464,130.701946 265.489758,130.266523 265.390459,130.06973 L266.717031,125.730991" id="Fill-99" fill="#DBB71D" sketch:type="MSShapeGroup"></path>
                <path d="M267.17784,127.277441 L267.573485,128.532577 L266.717031,131.224144 L266.108825,130.82591 L267.17784,127.277441" id="Fill-100" fill="#DBB71D" sketch:type="MSShapeGroup"></path>
                <path d="M269.275531,127.516072 L269.647902,128.768108 L270.786737,125.084829 C270.786737,125.084829 270.467119,124.799712 270.142845,124.650955 L269.275531,127.516072" id="Fill-101" fill="#DBB71D" sketch:type="MSShapeGroup"></path>
                <path d="M270.937237,125.208793 L269.747201,129.088865 L270.094747,130.255676 L271.495794,125.854955 C271.495794,125.854955 271.112562,125.35755 270.937237,125.208793" id="Fill-102" fill="#DBB71D" sketch:type="MSShapeGroup"></path>
                <path d="M268.417526,131.247387 C266.583598,131.247387 265.092562,129.755171 265.092562,127.925153 C265.092562,126.092036 266.583598,124.601369 268.417526,124.601369 C270.251454,124.601369 271.744041,126.092036 271.744041,127.925153 C271.744041,129.755171 270.251454,131.247387 268.417526,131.247387 L268.417526,131.247387 Z M268.417526,124.750126 C266.66583,124.750126 265.239959,126.174162 265.239959,127.925153 C265.239959,129.674595 266.66583,131.098631 268.417526,131.098631 C270.170773,131.098631 271.596644,129.674595 271.596644,127.925153 C271.596644,126.174162 270.170773,124.750126 268.417526,124.750126 L268.417526,124.750126 Z" id="Fill-103" fill="#DBB71D" sketch:type="MSShapeGroup"></path>
                <path d="M268.417526,131.661117 C266.355521,131.661117 264.678299,129.984505 264.678299,127.925153 C264.678299,125.864252 266.355521,124.18609 268.417526,124.18609 C270.481082,124.18609 272.159856,125.864252 272.159856,127.925153 C272.159856,129.984505 270.481082,131.661117 268.417526,131.661117 L268.417526,131.661117 Z M268.417526,124.224829 C266.374139,124.224829 264.710881,125.884396 264.710881,127.925153 C264.710881,129.96436 266.374139,131.622378 268.417526,131.622378 C270.459361,131.622378 272.125722,129.96436 272.125722,127.925153 C272.125722,125.884396 270.459361,124.224829 268.417526,124.224829 L268.417526,124.224829 Z" id="Fill-104" fill="#DBB71D" sketch:type="MSShapeGroup"></path>
                <path d="M240.775175,102.741874 L244.477165,114.698198 C244.477165,114.698198 244.713,115.232793 245.280866,115.232793 L246.546928,115.232793 L243.079222,103.606523 C243.079222,103.606523 242.713057,102.672144 242.010206,102.672144 C241.310459,102.672144 240.775175,102.741874 240.775175,102.741874" id="Fill-105" fill="#795548" sketch:type="MSShapeGroup"></path>
                <path d="M243.344536,102.741874 L247.048077,114.698198 C247.048077,114.698198 247.280809,115.232793 247.845572,115.232793 L249.116289,115.232793 L245.645479,103.606523 C245.645479,103.606523 245.280866,102.672144 244.581119,102.672144 C243.87982,102.672144 243.344536,102.741874 243.344536,102.741874" id="Fill-106" fill="#795548" sketch:type="MSShapeGroup"></path>
                <path d="M240.475727,103.073477 L241.478026,106.403459 L238.407515,116.432144 C238.407515,116.432144 237.172485,115.266883 236.90717,114.733838 L240.475727,103.073477" id="Fill-107" fill="#795548" sketch:type="MSShapeGroup"></path>
                <path d="M241.710758,107.237117 L242.77667,110.605838 L240.475727,117.834486 C240.475727,117.834486 239.040546,117.06436 238.840397,116.766847 L241.710758,107.237117" id="Fill-108" fill="#795548" sketch:type="MSShapeGroup"></path>
                <path d="M247.345974,107.873982 L248.346722,111.236505 L251.417232,101.342631 C251.417232,101.342631 250.546814,100.578703 249.682603,100.17582 L247.345974,107.873982" id="Fill-109" fill="#795548" sketch:type="MSShapeGroup"></path>
                <path d="M251.817531,101.674234 L248.618242,112.101153 L249.547619,115.232793 L253.319428,103.40973 C253.319428,103.40973 252.284546,102.075568 251.817531,101.674234" id="Fill-110" fill="#795548" sketch:type="MSShapeGroup"></path>
                <path d="M245.043479,117.896468 C240.120423,117.896468 236.105021,113.893982 236.105021,108.972613 C236.105021,104.046595 240.120423,100.044108 245.043479,100.044108 C249.977397,100.044108 253.988144,104.046595 253.988144,108.972613 C253.988144,113.893982 249.977397,117.896468 245.043479,117.896468 L245.043479,117.896468 Z M245.043479,100.442342 C240.337639,100.442342 236.506871,104.271279 236.506871,108.972613 C236.506871,113.669297 240.337639,117.499784 245.043479,117.499784 C249.758629,117.499784 253.583191,113.669297 253.583191,108.972613 C253.583191,104.271279 249.758629,100.442342 245.043479,100.442342 L245.043479,100.442342 Z" id="Fill-111" fill="#795548" sketch:type="MSShapeGroup"></path>
                <path d="M245.043479,119.015243 C239.499804,119.015243 234.99101,114.509153 234.99101,108.972613 C234.99101,103.432973 239.499804,98.9253333 245.043479,98.9253333 C250.590258,98.9253333 255.100603,103.432973 255.100603,108.972613 C255.100603,114.509153 250.590258,119.015243 245.043479,119.015243 L245.043479,119.015243 Z M245.043479,99.0307027 C239.55566,99.0307027 235.088758,103.490306 235.088758,108.972613 C235.088758,114.45182 239.55566,118.911423 245.043479,118.911423 C250.532851,118.911423 255.005959,114.45182 255.005959,108.972613 C255.005959,103.490306 250.532851,99.0307027 245.043479,99.0307027 L245.043479,99.0307027 Z" id="Fill-112" fill="#795548" sketch:type="MSShapeGroup"></path>
                <path d="M215.806139,155.220468 C215.806139,164.195459 167.540634,171.45045 107.987629,171.45045 C48.4066959,171.45045 0.142742268,164.195459 0.142742268,155.220468 C0.142742268,146.268721 48.4066959,139.005982 107.987629,139.005982 C167.540634,139.005982 215.806139,146.268721 215.806139,155.220468" id="Fill-113" fill="#E5E5E5" sketch:type="MSShapeGroup"></path>
                <path d="M132.019531,110.630631 L113.422696,98.2497297 L111.143474,96.7296216 L100.008026,98.8153153 L81.2234536,73.7931892 L65.9112423,84.9112072 L55.4708866,76.5746306 L54.7773454,75.6743423 L43.6434485,61.2883243 L29.029433,66.1508108 L29.029433,162.06173 L150.808758,162.06173 L150.808758,104.37355 L132.019531,110.630631" id="Fill-114" fill="#F9B256" sketch:type="MSShapeGroup"></path>
                <path d="M169.427314,51.7446486 L160.855021,28.2023423 L130.649515,3.52111712 L107.753345,24.9994234 L100.10267,21.5253333 L85.4560722,35.4542342 L69.3882577,25.6874234 L29.2606134,49.177045 L28.7935979,48.3759279 L69.3960155,24.6058378 L85.3350515,34.2982703 L99.9133814,20.4251532 L107.573366,23.9023423 L130.607624,2.29077477 L161.640103,27.6476036 L161.685098,27.7669189 L169.768655,49.9766126 L194.301706,22.7525766 L194.996799,23.3692973 L169.427314,51.7446486" id="Fill-115" fill="#5B5B61" sketch:type="MSShapeGroup"></path>
                <path d="M32.4040464,48.1171532 C32.4040464,49.5566847 31.2372835,50.7265946 29.7943454,50.7265946 C28.3514072,50.7265946 27.1846443,49.5566847 27.1846443,48.1171532 C27.1846443,46.6807207 28.3514072,45.5108108 29.7943454,45.5108108 C31.2372835,45.5108108 32.4040464,46.6807207 32.4040464,48.1171532" id="Fill-116" fill="#7A7B84" sketch:type="MSShapeGroup"></path>
                <path d="M71.7171289,25.1884685 C71.7171289,26.6249009 70.550366,27.7932613 69.1058763,27.7932613 C67.6629381,27.7932613 66.4946237,26.6249009 66.4946237,25.1884685 C66.4946237,23.7473874 67.6629381,22.5805766 69.1058763,22.5805766 C70.550366,22.5805766 71.7171289,23.7473874 71.7171289,25.1884685" id="Fill-117" fill="#7A7B84" sketch:type="MSShapeGroup"></path>
                <path d="M88.0673247,34.5694414 C88.0673247,36.0074234 86.8990103,37.1726847 85.4560722,37.1726847 C84.0162371,37.1726847 82.8479227,36.0074234 82.8479227,34.5694414 C82.8479227,33.1283604 84.0162371,31.9615495 85.4560722,31.9615495 C86.8990103,31.9615495 88.0673247,33.1283604 88.0673247,34.5694414" id="Fill-118" fill="#7A7B84" sketch:type="MSShapeGroup"></path>
                <path d="M102.68134,21.3641802 C102.68134,22.8021622 101.511474,23.9720721 100.065433,23.9720721 C98.6255979,23.9720721 97.4572835,22.8021622 97.4572835,21.3641802 C97.4572835,19.9261982 98.6255979,18.7562883 100.065433,18.7562883 C101.511474,18.7562883 102.68134,19.9261982 102.68134,21.3641802" id="Fill-119" fill="#7A7B84" sketch:type="MSShapeGroup"></path>
                <path d="M133.296454,2.95088288 C133.296454,4.38576577 132.123485,5.55722523 130.682098,5.55722523 C129.242263,5.55722523 128.073948,4.38576577 128.073948,2.95088288 C128.073948,1.5098018 129.242263,0.344540541 130.682098,0.344540541 C132.123485,0.344540541 133.296454,1.5098018 133.296454,2.95088288" id="Fill-120" fill="#7A7B84" sketch:type="MSShapeGroup"></path>
                <path d="M163.560918,27.6166126 C163.560918,29.0576937 162.3895,30.2245045 160.949665,30.2245045 C159.512933,30.2245045 158.338412,29.0576937 158.338412,27.6166126 C158.338412,26.1786306 159.512933,25.0133694 160.949665,25.0133694 C162.3895,25.0133694 163.560918,26.1786306 163.560918,27.6166126" id="Fill-121" fill="#7A7B84" sketch:type="MSShapeGroup"></path>
                <path d="M195.564665,24.4911712 C195.564665,25.9322523 194.396351,27.0990631 192.958067,27.0990631 C191.515129,27.0990631 190.348366,25.9322523 190.348366,24.4911712 C190.348366,23.0531892 191.515129,21.8848288 192.958067,21.8848288 C194.396351,21.8848288 195.564665,23.0531892 195.564665,24.4911712" id="Fill-122" fill="#7A7B84" sketch:type="MSShapeGroup"></path>
                <path d="M193.260619,150.031027 L193.260619,52.944 L187.69367,52.944 L168.902892,80.0487207 L162.637747,73.1020901 L166.812959,62.6751712 L152.897139,51.5556036 L152.897139,41.825982 L142.959485,35.0714955 L142.976552,35.0312072 L128.539412,25.1481802 L108.361552,44.6058739 L100.008026,38.3487928 L86.0922062,50.8614054 L72.1748351,43.9116757 L54.7773454,53.6412973 L54.7773454,75.6743423 L55.4708866,76.5746306 L65.9112423,84.9112072 L81.2234536,73.7931892 L100.008026,98.8153153 L111.143474,96.7296216 L113.422696,98.2497297 L132.019531,110.630631 L150.808758,104.37355 L150.808758,150.246414 L193.290098,150.246414 L193.260619,150.031027" id="Fill-123" fill="#94D8E8" sketch:type="MSShapeGroup"></path>
                <path d="M95.5535361,92.8805405 L74.2104639,162.06173 L150.808758,162.06173 L150.808758,104.37355 L132.019531,110.630631 L113.422696,98.2497297 L111.143474,96.7296216 L100.008026,98.8153153 L100.006474,98.8153153 L95.5535361,92.8820901" id="Fill-124" fill="#DD9E4D" sketch:type="MSShapeGroup"></path>
                <path d="M111.143474,96.7296216 L100.008026,98.8153153 L111.143474,96.7296216 L113.422696,98.2497297 L132.019531,110.630631 L150.808758,104.37355 L150.808758,150.246414 L150.808758,104.37355 L132.019531,110.630631 L113.422696,98.2497297 L111.143474,96.7296216 M95.5535361,92.8805405 L95.5535361,92.8805405 L96.2160464,93.7653333 L95.5535361,92.8805405" id="Fill-125" fill="#84C0CF" sketch:type="MSShapeGroup"></path>
                <path d="M142.959485,35.0714955 L142.959485,35.0714955 L152.897139,41.825982 L152.897139,51.5556036 L166.812959,62.6751712 L152.897139,51.5556036 L152.897139,41.825982 L142.959485,35.0714955" id="Fill-126" fill="#E3E3E3" sketch:type="MSShapeGroup"></path>
                <path d="M135.384835,29.9223423 L113.422696,98.2497297 L132.019531,110.630631 L150.808758,104.37355 L150.808758,150.246414 L193.290098,150.246414 L193.260619,150.031027 L193.260619,52.944 L187.69367,52.944 L168.902892,80.0487207 L162.637747,73.1020901 L166.812959,62.6751712 L152.897139,51.5556036 L152.897139,41.825982 L135.384835,29.9223423" id="Fill-127" fill="#84C0CF" sketch:type="MSShapeGroup"></path>
                <path d="M160.895361,99.9960721 L151.5535,98.0777297 L151.078727,100.372613 L157.734861,101.740865 L155.167052,108.575928 L157.367144,109.398739 L160.895361,99.9960721" id="Fill-128" fill="#F9B256" sketch:type="MSShapeGroup"></path>
                <path d="M176.237052,110.687964 L168.898237,109.181802 L168.525866,110.983928 L173.754577,112.059315 L171.736015,117.428505 L173.46599,118.074667 L176.237052,110.687964" id="Fill-129" fill="#F9B256" sketch:type="MSShapeGroup"></path>
                <path d="M180.652753,88.578991 L173.452026,86.5134414 L172.941567,88.283027 L178.072531,89.7550991 L175.645912,94.9538378 L177.320031,95.7301622 L180.652753,88.578991" id="Fill-130" fill="#F9B256" sketch:type="MSShapeGroup"></path>
                <path d="M195.102304,74.4083604 L187.720046,70.9497658 L186.868247,72.7627387 L192.126438,75.2265225 L188.624598,80.3973694 L190.287856,81.5192432 L195.102304,74.4083604" id="Fill-131" fill="#94D8E8" sketch:type="MSShapeGroup"></path>
                <path d="M205.612479,64.5020901 L200.630464,60.0610811 L199.536624,61.2852252 L203.086562,64.4478559 L199.125464,67.687964 L200.168103,68.9585946 L205.612479,64.5020901" id="Fill-132" fill="#F9B256" sketch:type="MSShapeGroup"></path>
                <path d="M205.156325,79.5358198 L199.764701,78.4914234 L199.508696,79.8162883 L203.348773,80.5585225 L201.916696,84.5145225 L203.187412,84.9731892 L205.156325,79.5358198" id="Fill-133" fill="#F9B256" sketch:type="MSShapeGroup"></path>
                <path d="M217.357686,73.7467027 L210.709309,70.0556757 L209.800103,71.6889009 L214.536974,74.3184865 L210.943593,78.9067027 L212.420665,80.0595676 L217.357686,73.7467027" id="Fill-134" fill="#94D8E8" sketch:type="MSShapeGroup"></path>
                <path d="M231.531062,56.9805766 L232.323902,51.0334054 L230.860794,50.8381622 L230.294479,55.0746306 L225.878778,53.7652613 L225.458309,55.1815495 L231.531062,56.9805766" id="Fill-135" fill="#94D8E8" sketch:type="MSShapeGroup"></path>
                <path d="M217.781258,61.5997838 L214.026515,56.9154955 L212.873716,57.8374775 L215.548582,61.1736577 L211.548696,63.4545946 L212.282577,64.7376216 L217.781258,61.5997838" id="Fill-136" fill="#94D8E8" sketch:type="MSShapeGroup"></path>
                <path d="M229.959345,68.0923964 L226.964861,63.0005766 L225.70966,63.7350631 L227.843036,67.3641081 L223.62283,69.0205766 L224.158113,70.3733333 L229.959345,68.0923964" id="Fill-137" fill="#F9B256" sketch:type="MSShapeGroup"></path>
                <path d="M277.487866,68.4813333 L262.579057,62.558955 L262.620948,62.8378739 L262.99332,60.7955676 L279.570041,67.5221622 L273.162155,85.7774054 L271.267716,85.7774054 L277.487866,68.4813333" id="Fill-138" fill="#95C066" sketch:type="MSShapeGroup"></path>
                <path d="M261.392124,77.4950631 C260.582216,77.1975495 259.770758,76.9899099 258.977918,76.8566486 L264.982402,70.0851171 L265.627845,69.9224144 L263.027454,63.797045 L272.518263,67.6786667 L271.236686,71.5230991 L274.679567,73.0447568 L270.308861,85.7774054 L267.876036,85.7774054 C268.716974,82.8022703 265.896263,79.1515315 261.392124,77.4950631" id="Fill-139" fill="#95C066" sketch:type="MSShapeGroup"></path>
                <path d="M252.028541,84.6927207 L258.977918,76.8566486 C259.770758,76.9899099 260.582216,77.1975495 261.392124,77.4950631 C265.896263,79.1515315 268.716974,82.8022703 267.876036,85.7774054 L252.993603,85.7774054 C252.630541,85.4303063 252.306268,85.0661622 252.028541,84.6927207" id="Fill-140" fill="#13955C" sketch:type="MSShapeGroup"></path>
                <path d="M271.235134,71.5230991 L272.518263,67.6786667 L263.027454,63.797045 L262.620948,62.8378739 L262.579057,62.558955 L277.487866,68.4813333 L271.267716,85.7774054 L270.308861,85.7774054 L274.679567,73.0447568 L271.235134,71.5230991" id="Fill-141" fill="#13955C" sketch:type="MSShapeGroup"></path>
                <path d="M250.951768,79.8720721 C251.873387,77.3772973 255.216969,76.2213333 258.977918,76.8566486 C259.770758,76.9899099 260.582216,77.1975495 261.392124,77.4950631 C265.896263,79.1515315 268.716974,82.8022703 267.876036,85.7774054 L252.993603,85.7774054 C252.630541,85.4303063 252.306268,85.0661622 252.028541,84.6927207 C250.844711,83.1323243 250.388557,81.3983784 250.951768,79.8720721" id="Fill-142" fill="#13955C" sketch:type="MSShapeGroup"></path>
                <path d="M264.982402,70.0851171 L251.784948,73.4414414 L248.081407,84.0093694 C248.379304,84.0093694 248.680304,84.0109189 248.981304,84.0109189 C249.833103,84.0109189 250.697314,84.0124685 251.564629,84.014018 C250.734552,82.6395676 250.469237,81.1798919 250.951768,79.8720721 C251.70582,77.8297658 254.08434,76.6846486 256.985732,76.6846486 C257.628072,76.6846486 258.295237,76.7404324 258.977918,76.8566486 L264.982402,70.0851171" id="Fill-143" fill="#8BAC65" sketch:type="MSShapeGroup"></path>
                <path d="M248.081407,84.0093694 L248.059686,84.0698018 L248.96734,84.0109189 L248.979753,84.0109189 L248.981304,84.0109189 C248.680304,84.0109189 248.379304,84.0093694 248.081407,84.0093694" id="Fill-144" fill="#6A853D" sketch:type="MSShapeGroup"></path>
                <path d="M248.981304,84.0109189 L248.981304,84.0109189 C249.834655,84.0109189 250.695763,84.0124685 251.564629,84.014018 C250.697314,84.0124685 249.833103,84.0109189 248.981304,84.0109189" id="Fill-145" fill="#7A964E" sketch:type="MSShapeGroup"></path>
                <path d="M248.96734,84.0109189 L248.059686,84.0698018 L248.981304,84.0109189 L248.96734,84.0109189" id="Fill-146" fill="#68833B" sketch:type="MSShapeGroup"></path>
                <path d="M248.981304,84.0109189 L248.059686,84.0698018 L247.570948,85.4643964 C248.549974,85.4566486 249.525897,85.4535495 250.487856,85.4535495 C250.776443,85.4535495 251.065031,85.4535495 251.350515,85.4550991 L252.028541,84.6927207 C251.857871,84.4695856 251.704268,84.2433514 251.564629,84.014018 C250.695763,84.0124685 249.834655,84.0109189 248.979753,84.0109189" id="Fill-147" fill="#76934B" sketch:type="MSShapeGroup"></path>
                <path d="M250.487856,85.4535495 C249.525897,85.4535495 248.549974,85.4566486 247.570948,85.4643964 L247.460789,85.7774054 L251.061928,85.7774054 L251.350515,85.4550991 C251.065031,85.4535495 250.776443,85.4535495 250.487856,85.4535495" id="Fill-148" fill="#76934B" sketch:type="MSShapeGroup"></path>
                <path d="M256.985732,76.6846486 C254.08434,76.6846486 251.70582,77.8297658 250.951768,79.8720721 C250.469237,81.1798919 250.734552,82.6395676 251.564629,84.014018 C251.704268,84.2433514 251.857871,84.4695856 252.028541,84.6927207 L258.977918,76.8566486 C258.295237,76.7404324 257.628072,76.6846486 256.985732,76.6846486" id="Fill-149" fill="#5C9745" sketch:type="MSShapeGroup"></path>
                <path d="M264.153876,63.78 L264.442464,63.8977658 L267.041304,70.0231351 L266.395861,70.1858378 L266.397412,70.1827387 L253.25116,73.3856577 L252.431943,73.7343063 L249.404876,74.5044324 L263.030557,60.5770811 L264.035959,62.9385946 L264.153876,63.78" id="Fill-150" fill="#CCE1BA" sketch:type="MSShapeGroup"></path>
                <path d="M264.153876,63.78 L264.035959,62.9385946 L264.442464,63.8977658 L264.153876,63.78" id="Fill-151" fill="#CCE1BA" sketch:type="MSShapeGroup"></path>
                <path d="M253.25116,73.3856577 L266.397412,70.1827387 L266.395861,70.1858378 L253.199959,73.5421622 L253.25116,73.3856577" id="Fill-152" fill="#CCE1BA" sketch:type="MSShapeGroup"></path>
                <path d="M258.380572,84.5687568 L258.380572,74.8282883 L239.451706,74.8282883 L239.451706,85.919964 L258.307649,85.919964 L258.380572,84.5687568" id="Fill-153" fill="#F2F2F2" sketch:type="MSShapeGroup"></path>
                <path d="M253.448206,74.9522523 L256.686284,74.9522523 L256.686284,85.9013694 L253.448206,85.9013694 L253.448206,74.9522523 Z" id="Fill-154" fill="#7A7B84" sketch:type="MSShapeGroup"></path>
                <path d="M234.75983,85.8316396 L235.087206,85.8688288 C235.282701,85.8021982 235.498366,85.7588108 235.751268,85.7665586 L235.844361,85.7712072 L250.670938,71.4192793 C248.670995,69.3335856 245.892175,68.0381622 242.818562,68.0381622 C236.733397,68.0381622 231.797928,73.1036396 231.797928,79.3498739 C231.797928,81.7842162 232.561289,84.0248649 233.838211,85.8672793 C234.111284,85.7913514 234.413835,85.7603604 234.75983,85.8316396" id="Fill-155" fill="#F7EC3B" sketch:type="MSShapeGroup"></path>
                <path d="M237.180242,85.8378378 C242.160706,85.985045 246.953433,86.0795676 251.848562,85.8192432 C252.993603,84.0372613 253.842299,81.6432072 253.842299,79.3498739 C253.842299,76.2585225 252.630541,73.4584865 250.670938,71.4192793 L235.844361,85.7712072 C236.291206,85.7867027 236.733397,85.813045 237.180242,85.8378378" id="Fill-156" fill="#FDD11C" sketch:type="MSShapeGroup"></path>
                <path d="M237.153866,85.8347387 L237.180242,85.8378378 C238.15151,85.8021982 239.125881,85.7572613 240.103356,85.7107748 C237.72018,84.6338378 236.047613,82.1870991 236.047613,79.3498739 C236.047613,75.5193874 239.087093,72.4001441 242.818562,72.4001441 C246.553134,72.4001441 249.58951,75.5193874 249.58951,79.3498739 C249.58951,81.9841081 248.15433,84.2820901 246.042675,85.4612973 C246.996876,85.4365045 247.947974,85.4318559 248.892866,85.4427027 C250.390108,83.8668108 251.319485,81.7191351 251.319485,79.3498739 C251.319485,74.5400721 247.50268,70.6274595 242.818562,70.6274595 C238.132892,70.6274595 234.319191,74.5400721 234.319191,79.3498739 C234.319191,81.9252252 235.417686,84.2387027 237.153866,85.8347387" id="Fill-157" fill="#FBF7A7" sketch:type="MSShapeGroup"></path>
                <path d="M240.499,76.1035676 L242.557902,82.7557838 C242.557902,82.7557838 242.689784,83.0532973 243.004747,83.0532973 L243.710701,83.0532973 L241.782129,76.5854775 C241.782129,76.5854775 241.575773,76.0663784 241.187887,76.0663784 C240.798448,76.0663784 240.499,76.1035676 240.499,76.1035676" id="Fill-158" fill="#DBB71D" sketch:type="MSShapeGroup"></path>
                <path d="M241.927974,76.1035676 L243.988428,82.7557838 C243.988428,82.7557838 244.117206,83.0532973 244.433722,83.0532973 L245.139675,83.0532973 L243.208,76.5854775 C243.208,76.5854775 243.004747,76.0663784 242.615309,76.0663784 C242.222768,76.0663784 241.927974,76.1035676 241.927974,76.1035676" id="Fill-159" fill="#DBB71D" sketch:type="MSShapeGroup"></path>
                <path d="M240.331433,76.2895135 L240.891541,78.1412252 L239.183289,83.7196036 C239.183289,83.7196036 238.495954,83.0718919 238.347005,82.7759279 L240.331433,76.2895135" id="Fill-160" fill="#DBB71D" sketch:type="MSShapeGroup"></path>
                <path d="M241.02032,78.6045405 L241.611459,80.4779459 L240.331433,84.5005766 C240.331433,84.5005766 239.53549,84.0713514 239.422227,83.9055495 L241.02032,78.6045405" id="Fill-161" fill="#DBB71D" sketch:type="MSShapeGroup"></path>
                <path d="M244.152892,78.9578378 L244.711448,80.8296937 L246.416598,75.3256937 C246.416598,75.3256937 245.93717,74.8995676 245.454639,74.6764324 L244.152892,78.9578378" id="Fill-162" fill="#DBB71D" sketch:type="MSShapeGroup"></path>
                <path d="M246.641572,75.5100901 L244.860397,81.3100541 L245.378613,83.0532973 L247.474753,76.4739099 C247.474753,76.4739099 246.90068,75.7332252 246.641572,75.5100901" id="Fill-163" fill="#DBB71D" sketch:type="MSShapeGroup"></path>
                <path d="M242.874418,84.5346667 C240.132835,84.5346667 237.901711,82.307964 237.901711,79.5699099 C237.901711,76.8287568 240.132835,74.6020541 242.874418,74.6020541 C245.616,74.6020541 247.847124,76.8287568 247.847124,79.5699099 C247.847124,82.307964 245.616,84.5346667 242.874418,84.5346667 L242.874418,84.5346667 Z M242.874418,74.8267387 C240.255407,74.8267387 238.125134,76.9558198 238.125134,79.5699099 C238.125134,82.184 240.255407,84.3130811 242.874418,84.3130811 C245.496531,84.3130811 247.623701,82.184 247.623701,79.5699099 C247.623701,76.9558198 245.496531,74.8267387 242.874418,74.8267387 L242.874418,74.8267387 Z" id="Fill-164" fill="#DBB71D" sketch:type="MSShapeGroup"></path>
                <path d="M242.874418,85.156036 C239.789943,85.156036 237.282644,82.6504144 237.282644,79.5699099 C237.282644,76.4894054 239.789943,73.9806847 242.874418,73.9806847 C245.95734,73.9806847 248.469294,76.4894054 248.469294,79.5699099 C248.469294,82.6504144 245.95734,85.156036 242.874418,85.156036 L242.874418,85.156036 Z M242.874418,74.0395676 C239.820974,74.0395676 237.335397,76.5219459 237.335397,79.5699099 C237.335397,82.6178739 239.820974,85.0987027 242.874418,85.0987027 C245.926309,85.0987027 248.411887,82.6178739 248.411887,79.5699099 C248.411887,76.5219459 245.926309,74.0395676 242.874418,74.0395676 L242.874418,74.0395676 Z" id="Fill-165" fill="#DBB71D" sketch:type="MSShapeGroup"></path>
            </g>
        </g>
    </g>
</svg>