<?xml version="1.0" encoding="utf-8"?>
<!-- Generator: Adobe Illustrator 17.1.0, SVG Export Plug-In . SVG Version: 6.00 Build 0)  -->
<!DOCTYPE svg PUBLIC "-//W3C//DTD SVG 1.1//EN" "http://www.w3.org/Graphics/SVG/1.1/DTD/svg11.dtd">
<svg version="1.1" id="Layer_1" xmlns:sketch="http://www.bohemiancoding.com/sketch/ns"
	 xmlns="http://www.w3.org/2000/svg" xmlns:xlink="http://www.w3.org/1999/xlink" x="0px" y="0px" viewBox="0 0 360 240"
	 enable-background="new 0 0 360 240" xml:space="preserve">
<title>Portrait</title>
<desc>Created with Sketch.</desc>
<g id="Page-1" sketch:type="MSPage">
	<g id="Portrait" transform="translate(-45.000000, -33.000000)" sketch:type="MSArtboardGroup">
		<g id="buy" transform="translate(154.000000, 84.000000)" sketch:type="MSLayerGroup">
			<path id="Fill-1" sketch:type="MSShapeGroup" fill="#E5E5E5" d="M123.5,140.4c0,4.7-21,8.6-46.9,8.6c-25.9,0-46.9-3.8-46.9-8.6
				c0-4.7,21-8.6,46.9-8.6C102.5,131.8,123.5,135.6,123.5,140.4"/>
			<path id="Fill-2" sketch:type="MSShapeGroup" fill="#E57368" d="M121.7,11.8h-8.6v-12H36.9v12h-9.3v14.3h5.1l9.7,115.7h64.2
				l11.8-113.4l-40.2-2.3h43.6V11.8"/>
			<path id="Fill-3" sketch:type="MSShapeGroup" fill="#94D8E8" d="M89.5,55.1H30.3l5.1,52.7l44-0.4l0,0.1l33.8-0.3l5.4-52.2H89.5"
				/>
			<path id="Fill-4" sketch:type="MSShapeGroup" fill="#B75955" d="M118.6,26.1H78.1l39.9,5L118.6,26.1"/>
			<path id="Fill-5" sketch:type="MSShapeGroup" fill="#E5E5E5" d="M122,37.4c-0.9-0.7-1.8-1.5-2.6-2.5c-0.6-0.7-1.2-1.5-1.6-2.3
				l-0.4,3.2c0.1,0.2,0.2,0.3,0.4,0.5c1.2,1.4,2.5,2.6,4,3.5L122,37.4"/>
			<path id="Fill-6" sketch:type="MSShapeGroup" fill="#E5E5E5" d="M120.6,36.1c1.4,1.4,2.9,1.8,2.9,1.8l-0.3,2.4c0,0-1.8,0-4.9-3.4
				L120.6,36.1"/>
			<path id="Fill-7" sketch:type="MSShapeGroup" fill="#E8E8E8" d="M118.6,26.1L118.6,26.1l-0.4,3.2L118.6,26.1 M113.1-0.2h-12.8
				H113.1l0,12h8.6v14.3h0V11.8h-8.6V-0.2"/>
			<path id="Fill-8" sketch:type="MSShapeGroup" fill="#D0695F" d="M113.1-0.2h-12.8l-5.1,26.3h26.5V11.8h-8.6V-0.2"/>
			<path id="Fill-9" sketch:type="MSShapeGroup" fill="#E8E8E8" d="M110.1,107.3L110.1,107.3l-2.8,26.9h0l2-19.5L110.1,107.3
				 M117.2,68.3l-4.1,39l-1.6,0l1.6,0L117.2,68.3 M94.8,28.2L94.8,28.2l23,2.9l-2.4,24l2.1-19.2c0,0,0,0,0-0.1l0.4-3.2
				c0,0,0,0,0,0.1l0.2-1.6L94.8,28.2"/>
			<path id="Fill-10" sketch:type="MSShapeGroup" fill="#D0D0D0" d="M107.3,134.2l-0.8,7.6h0L107.3,134.2
				C107.3,134.2,107.3,134.2,107.3,134.2"/>
			<path id="Fill-11" sketch:type="MSShapeGroup" fill="#D0695F" d="M110.1,107.3l-30.7,0.2l-6.7,34.3h33.8L110.1,107.3 M94.8,28
				l-5.3,27.1h25.8l0.2,0l2.7-25.4L95,27.2"/>
			<path id="Fill-12" sketch:type="MSShapeGroup" fill="#87C5D3" d="M115.4,55.1H89.5l-10.2,52.4l30.7-0.2h0.1l0,0l1.5,0l1.6,0
				l4.1-39l1.4-13.1H115.4"/>
			<path id="Fill-13" sketch:type="MSShapeGroup" fill="#A6514D" d="M118.6,26.1H95.2l-0.4,2.1l23.2,2.9L118.6,26.1"/>
			<path id="Fill-14" sketch:type="MSShapeGroup" fill="#D0D0D0" d="M117.8,32.7l-0.4,3.2c0,0,0,0,0,0.1L117.8,32.7
				C117.8,32.7,117.8,32.7,117.8,32.7"/>
			<path id="Fill-15" sketch:type="MSShapeGroup" fill="#75635E" d="M117,17.2c0,0-1.8-0.1-1.4,2.5c0.3,1.8,3.8,1.9,3-0.2
				C117.5,16.8,117,17.2,117,17.2"/>
			<path id="Fill-16" sketch:type="MSShapeGroup" fill="#F9B256" d="M150.5,32.9l-11.4-5.6l-15.4,8.4l-1.2,12.5l22.7,39l14.2,22.9
				l27.2-16.1L150.5,32.9"/>
			<path id="Fill-17" sketch:type="MSShapeGroup" fill="#FFFFFF" d="M142.9,46.8l-1.2-2.1l1.4-0.8l0.1,0.2c0.4,0.7,0.9,1.2,1.4,1.4
				c0.5,0.3,1.1,0.3,1.7,0l0.9,1.6l-10.4,6l-1.2-2.1L142.9,46.8"/>
			<path id="Fill-18" sketch:type="MSShapeGroup" fill="#FFFFFF" d="M139.6,58.1l-1.1-1.9l2.3-1.3l1.1,1.9L139.6,58.1"/>
			<path id="Fill-19" sketch:type="MSShapeGroup" fill="#FFFFFF" d="M152.6,60.7c-0.9-0.1-1.7-0.1-2.6,0c-0.9,0.1-1.8,0.2-2.7,0.3
				c-0.9,0.2-1.8,0.4-2.6,0.7c-0.9,0.3-1.7,0.6-2.5,0.9l-1.3-2.2c0.7-0.3,1.4-0.5,2.2-0.8c0.8-0.2,1.6-0.4,2.5-0.6
				c0.9-0.2,1.8-0.2,2.7-0.3c0.9,0,1.9,0,2.9,0.1l-2.5-4.4l1.8-1l3.7,6.4L152.6,60.7"/>
			<path id="Fill-20" sketch:type="MSShapeGroup" fill="#FFFFFF" d="M147.2,67.7c-0.1,0.3-0.1,0.6,0.1,0.9c0.2,0.3,0.4,0.5,0.6,0.6
				c0.2,0.1,0.5,0.1,0.8,0.1c0.3,0,0.6-0.1,0.9-0.3c0.3-0.2,0.7-0.3,1.1-0.6l0.5-0.3l0,0c-0.4,0-0.7-0.2-1.1-0.4
				c-0.4-0.2-0.7-0.6-0.9-1.1c-0.3-0.5-0.4-0.9-0.4-1.3c0-0.4,0-0.8,0.2-1.2c0.2-0.4,0.4-0.7,0.8-1c0.3-0.3,0.8-0.6,1.2-0.9
				c1.2-0.7,2.3-1,3.2-0.8c0.9,0.2,1.8,0.8,2.4,2c0.4,0.7,0.6,1.4,0.6,2c0,0.6-0.2,1.1-0.5,1.6c-0.3,0.5-0.7,0.9-1.3,1.3
				c-0.5,0.4-1.1,0.8-1.8,1.2c-0.7,0.4-1.5,0.8-2.2,1.2c-0.7,0.4-1.4,0.6-2.1,0.7c-0.7,0.1-1.3,0-1.9-0.3c-0.6-0.3-1.1-0.9-1.6-1.7
				c-0.2-0.4-0.4-0.8-0.5-1.1c-0.1-0.4-0.2-0.8-0.1-1.2c0-0.4,0.2-0.7,0.4-1.1c0.2-0.4,0.6-0.7,1.1-1l1.2,2
				C147.6,67.2,147.4,67.5,147.2,67.7L147.2,67.7z M151.1,65.4c-0.2,0.4-0.2,0.7,0.1,1.1c0.2,0.4,0.6,0.6,1,0.6c0.4,0,1-0.2,1.7-0.6
				c0.3-0.2,0.6-0.3,0.8-0.5c0.2-0.2,0.4-0.4,0.6-0.5c0.1-0.2,0.2-0.4,0.2-0.6c0-0.2,0-0.4-0.2-0.7c-0.1-0.3-0.3-0.4-0.5-0.5
				c-0.2-0.1-0.4-0.1-0.6-0.1c-0.2,0-0.5,0.1-0.7,0.2c-0.3,0.1-0.5,0.3-0.8,0.4C151.8,64.6,151.3,65,151.1,65.4L151.1,65.4z"/>
			<path id="Fill-21" sketch:type="MSShapeGroup" fill="#FFFFFF" d="M156.5,79.7L156.5,79.7l7.2-4.1l1.1,1.9l-10.5,6l-1.4-2.4
				l5.9-6.8l0,0l-7.4,4.2l-1.1-1.9l10.5-6l1.4,2.4L156.5,79.7"/>
			<path id="Fill-22" sketch:type="MSShapeGroup" fill="#FFFFFF" d="M167.7,82.6c0.2,0.4,0.4,0.9,0.6,1.3c0.1,0.4,0.2,0.8,0.1,1.2
				c-0.1,0.4-0.2,0.7-0.5,1.1c-0.3,0.3-0.6,0.7-1.1,0.9c-0.6,0.3-1.1,0.5-1.7,0.4c-0.6,0-1.1-0.3-1.5-0.7l0,0
				c0.3,0.6,0.3,1.2,0.1,1.8c-0.2,0.6-0.7,1.1-1.4,1.5c-0.4,0.2-0.8,0.4-1.3,0.5c-0.4,0.1-0.9,0.1-1.3,0c-0.4-0.1-0.8-0.3-1.3-0.6
				c-0.4-0.3-0.8-0.8-1.1-1.4l-2.1-3.6l10.5-6L167.7,82.6L167.7,82.6z M158.4,87.1c0.3,0.5,0.6,0.9,1.1,1c0.4,0.2,0.9,0.1,1.5-0.2
				c0.3-0.2,0.5-0.4,0.7-0.6c0.2-0.2,0.3-0.4,0.3-0.6c0-0.2,0-0.4,0-0.7c-0.1-0.2-0.2-0.5-0.3-0.7l-0.5-0.9l-3.2,1.8L158.4,87.1
				L158.4,87.1z M162.9,84.2c0.3,0.6,0.7,0.9,1.1,1.1c0.4,0.1,0.8,0.1,1.3-0.2c0.5-0.3,0.8-0.6,0.8-1c0.1-0.4-0.1-0.8-0.4-1.3
				l-0.4-0.8l-2.8,1.6L162.9,84.2L162.9,84.2z"/>
			<path id="Fill-23" sketch:type="MSShapeGroup" fill="#FFFFFF" d="M172.1,94.3l-1.3-2.3l-8.8,5l-1.2-2.1l8.8-5l-1.3-2.3l1.7-1
				l3.9,6.7L172.1,94.3"/>
			<path id="Fill-24" sketch:type="MSShapeGroup" fill="#FFFFFF" d="M139.3,39.5c0,1.9-1.5,3.4-3.4,3.4c-1.9,0-3.4-1.5-3.4-3.4
				s1.5-3.4,3.4-3.4C137.8,36,139.3,37.6,139.3,39.5"/>
			<path id="Fill-25" sketch:type="MSShapeGroup" fill="#999999" d="M140.8,28.1c0,0,1.2,7.5-1.4,10.6c0,0-0.5-1.4-1.6-2.1
				c-1.1-0.6,0.8-2.4,1-4.3c0.1-1.9-0.4-2.7-0.4-2.7l0.7-2.3L140.8,28.1"/>
			<path id="Fill-26" sketch:type="MSShapeGroup" fill="#E5E5E5" d="M135.9,21.2c-3.3-3.9-7.8-6.2-12.1-6.2c-2.5,0-4.8,0.8-6.6,2.3
				c-0.3,0.2-0.5,0.5-0.8,0.7c-0.1,0.4-0.6,1.8,1,1.8l0.1-0.1c0.3-0.4,0.6-0.5,1-0.9c1.4-1.2,3.2-1.8,5.2-1.8c3.7,0,7.6,2,10.5,5.4
				c4.6,5.4,5,12.6,0.9,16c-0.8,0.6-1.7,1.1-2.7,1.4c0.1,0.7,0.3,1.4,1,2c1.1-0.4,2.1-1,3-1.7C141.5,36.1,141.2,27.5,135.9,21.2"/>
		</g>
	</g>
</g>
</svg>
