<?xml version="1.0" encoding="UTF-8" standalone="no"?>
<svg width="360px" height="240px" viewBox="0 0 360 240" version="1.1" xmlns="http://www.w3.org/2000/svg" xmlns:xlink="http://www.w3.org/1999/xlink" xmlns:sketch="http://www.bohemiancoding.com/sketch/ns">
    <!-- Generator: Sketch 3.0.4 (8054) - http://www.bohemiancoding.com/sketch -->
    <title>Portrait</title>
    <desc>Created with Sketch.</desc>
    <defs>
        <path id="path-1" d="M0.502320121,0.224277043 C0.505301249,0.25546789 0.511263506,0.286658737 0.515735198,0.317849584 C1.2476022,0.574802752 2.06890305,0.802050352 2.97963775,0.950578195 C2.97367549,0.861461489 2.96622267,0.760462556 2.95727929,0.646096117 C2.04952572,0.549553019 1.23418712,0.403995733 0.502320121,0.224277043 L0.502320121,0.224277043 Z"></path>
    </defs>
    <g id="Page-1" stroke="none" stroke-width="1" fill="none" fill-rule="evenodd" sketch:type="MSPage">
        <g id="Portrait" sketch:type="MSArtboardGroup" transform="translate(-45.000000, -33.000000)">
            <g id="create" sketch:type="MSLayerGroup" transform="translate(115.000000, 33.000000)">
                <path d="M55.3045558,206.134092 L81.3268248,185.808057 L137.604565,185.808057 L161.519176,206.134092 L137.954848,208.939783 L64.7964683,210.690927 L55.3045558,206.134092" id="Fill-1" fill="#E5E5E5" sketch:type="MSShapeGroup"></path>
                <path d="M60.9299449,213.847143 L156.943145,213.847143 L161.519176,206.134092 L55.3045558,206.134092 L60.9299449,213.847143" id="Fill-2" fill="#808080" sketch:type="MSShapeGroup"></path>
                <path d="M107.216434,104.682149 C107.216434,103.066166 108.52664,101.760607 110.146883,101.760607 L111.318466,101.760607 C112.941691,101.760607 114.250406,103.066166 114.250406,104.682149 L114.250406,192.692323 C114.250406,194.30385 112.941691,195.613865 111.318466,195.613865 L110.146883,195.613865 C108.52664,195.613865 107.216434,194.30385 107.216434,192.692323 L107.216434,104.682149" id="Fill-3" fill="#686868" sketch:type="MSShapeGroup"></path>
                <path d="M101.278026,146.656118 C101.278026,146.656118 103.685287,152.334337 111.412372,151.942224 C111.412372,151.942224 118.729551,150.479224 118.526835,146.500163 L108.8173,142.644381 L101.278026,146.656118" id="Fill-4" fill="#9B9A9A" sketch:type="MSShapeGroup"></path>
                <path d="M124.335563,126.996972 L120.816341,123.956607 L109.911374,124.405162 L99.0064063,123.956607 L95.4901655,126.996972 L95.4901655,143.121155 C95.4901655,143.12264 100.243575,147.84434 109.325582,148.230513 L109.325582,148.258733 C109.522336,148.258733 109.71611,148.255763 109.911374,148.249821 C110.108128,148.255763 110.300411,148.258733 110.500147,148.258733 L110.500147,148.230513 C119.585135,147.84434 124.335563,143.121155 124.335563,143.121155 L124.335563,126.996972" id="Fill-5" fill="#686868" sketch:type="MSShapeGroup"></path>
                <path d="M149.078928,36.1855639 L182.938583,12.8845159 C183.265017,12.6572683 183.349979,12.2012878 183.121923,11.871556 C182.984791,11.6769845 182.761206,11.5581623 182.524207,11.5581623 C182.376641,11.5581623 182.230565,11.6056912 182.108339,11.6873815 L148.253155,34.9958559 C148.090684,35.1042812 147.981873,35.2706324 147.946099,35.4637186 C147.913307,35.6508637 147.952062,35.8424646 148.062363,35.9999041 C148.202476,36.1974461 148.42457,36.3147831 148.667532,36.3147831 C148.813608,36.3147831 148.956702,36.27171 149.078928,36.1855639" id="Fill-6" fill="#E5E5E5" sketch:type="MSShapeGroup"></path>
                <path d="M37.095824,13.5870526 L70.9539889,36.8881006 C71.4771769,37.247538 71.7723086,36.9831584 71.9690631,36.7024408 C72.1911571,36.3756795 72.1091761,35.9196991 71.7827425,35.6909662 L37.9245777,12.3869476 C37.7710496,12.287434 37.6175215,12.260699 37.513182,12.260699 C37.27022,12.260699 37.0451449,12.378036 36.908013,12.5770633 C36.6829378,12.9023392 36.7649188,13.3553492 37.095824,13.5870526" id="Fill-7" fill="#E5E5E5" sketch:type="MSShapeGroup"></path>
                <path d="M110.446787,15.0799605 C110.692787,15.0799605 110.892787,15.0100332 110.892787,14.9244504 L110.892787,0.154466444 C110.892787,0.0699273766 110.692787,0 110.446787,0 C110.201787,0 109.999787,0.0699273766 109.999787,0.154466444 L109.999787,14.9244504 C109.999787,15.0100332 110.201787,15.0799605 110.446787,15.0799605" id="Fill-8" fill="#E5E5E5" sketch:type="MSShapeGroup"></path>
                <path d="M64.8963361,78.339251 C65.0617888,78.2783546 65.1959395,78.158047 65.2704677,77.9946664 C65.3435054,77.8342563 65.3509582,77.6545377 65.2883545,77.4881865 C65.1959395,77.2327186 64.9455248,77.0559705 64.6652987,77.0559705 L64.4357518,77.0975582 L29.1988151,90.0194806 C28.8559854,90.144244 28.6756271,90.5259605 28.8023251,90.8705451 C28.9215702,91.1987917 29.3106074,91.3889073 29.6593995,91.2596881 L64.8963361,78.339251" id="Fill-9" fill="#E5E5E5" sketch:type="MSShapeGroup"></path>
                <path d="M154.619355,77.4896718 C154.497129,77.8342563 154.671525,78.2130023 155.015845,78.3377657 L190.251291,91.2626586 L190.479347,91.2983053 C190.756592,91.2983053 191.009988,91.126013 191.103894,90.8675746 C191.167988,90.7056792 191.162026,90.52299 191.087498,90.3640652 C191.009988,90.2006846 190.877328,90.0759212 190.708894,90.0179953 L155.471958,77.0990435 L155.242411,77.0559705 C154.968147,77.0559705 154.716242,77.2327186 154.619355,77.4896718" id="Fill-10" fill="#E5E5E5" sketch:type="MSShapeGroup"></path>
                <path d="M85.6341836,1.12275675 C85.5483587,0.956211581 85.3662706,0.852911411 85.1656258,0.852911411 L84.9487439,0.896128829 C84.6901093,1.0057535 84.577609,1.28613967 84.6982279,1.52120026 L97.0489005,25.5827612 C97.1706791,25.807281 97.4861438,25.9232302 97.7378196,25.807281 C97.9964542,25.6987104 98.1066349,25.4172701 97.9871759,25.1822095 L85.6341836,1.12275675" id="Fill-11" fill="#E5E5E5" sketch:type="MSShapeGroup"></path>
                <path d="M123.513531,25.5741545 L135.531904,0.689985501 C135.650372,0.448000064 135.538673,0.158053551 135.287068,0.044691004 L135.076081,0 C134.88089,0 134.702622,0.107912424 134.620258,0.279046269 L122.601886,25.1610352 C122.484546,25.4019307 122.595116,25.6929672 122.84785,25.8052397 C123.094942,25.9207823 123.398447,25.8085098 123.513531,25.5741545" id="Fill-12" fill="#E5E5E5" sketch:type="MSShapeGroup"></path>
                <path d="M0.204361154,62.127437 L63.5816585,62.127437 C63.9498279,62.127437 64.2479407,61.8274107 64.2479407,61.4620322 C64.2479407,61.0996243 63.9498279,60.8010833 63.5816585,60.8010833 L0.204361154,60.8010833 C-0.165298757,60.8010833 -0.46043046,61.0996243 -0.46043046,61.4620322 C-0.46043046,61.8274107 -0.165298757,62.127437 0.204361154,62.127437" id="Fill-13" fill="#E5E5E5" sketch:type="MSShapeGroup"></path>
                <path d="M155.522637,62.127437 L218.905897,62.127437 C219.274066,62.127437 219.572179,61.8274107 219.572179,61.4620322 C219.572179,61.0996243 219.274066,60.8010833 218.905897,60.8010833 L155.522637,60.8010833 C155.158939,60.8010833 154.859336,61.0996243 154.859336,61.4620322 C154.859336,61.8274107 155.158939,62.127437 155.522637,62.127437" id="Fill-14" fill="#E5E5E5" sketch:type="MSShapeGroup"></path>
                <path d="M69.667632,48.1420553 C69.9895939,48.3217739 70.4009896,48.1955253 70.5724044,47.8851021 C70.7468005,47.5687378 70.6290459,47.1632568 70.3100652,46.9820528 L14.8804558,16.3645233 L14.5629657,16.2783771 C14.3185132,16.2783771 14.0979097,16.4090816 13.9786645,16.6229617 C13.8922118,16.7774307 13.8728345,16.9526935 13.919042,17.1249858 C13.9682306,17.2943076 14.0800229,17.4339237 14.2350416,17.5170993 L69.667632,48.1420553" id="Fill-15" fill="#E5E5E5" sketch:type="MSShapeGroup"></path>
                <path d="M62.4043712,0 C62.321039,0 62.2458588,0.0232496564 62.1770191,0.0664275897 C61.9949563,0.181015182 61.9433266,0.413511746 62.0692307,0.582902099 L83.8751027,29.6848291 C83.9511887,29.7853009 84.0779986,29.843425 84.211149,29.843425 C84.2075259,29.8259878 84.3479226,29.8351216 84.4366895,29.7794885 C84.5263622,29.7238553 84.5861441,29.6399905 84.6078829,29.5403491 C84.6278102,29.4423684 84.6015424,29.3468788 84.5426664,29.2663353 L62.7386059,0.16025656 C62.66252,0.0606151756 62.5366158,0 62.4043712,0" id="Fill-16" fill="#E5E5E5" sketch:type="MSShapeGroup"></path>
                <path d="M157.867928,0.99834557 L136.058454,29.2826448 C135.933446,29.4448273 135.980551,29.6683325 136.16444,29.7812954 C136.249591,29.8345493 136.333836,29.843425 136.391811,29.843425 C136.524066,29.843425 136.650887,29.7869435 136.725167,29.6893113 L158.533735,1.40823956 C158.657838,1.24525022 158.610733,1.01771064 158.428656,0.90797524 L158.200379,0.843425005 C158.063594,0.843425005 157.944021,0.901520217 157.867928,0.99834557" id="Fill-17" fill="#E5E5E5" sketch:type="MSShapeGroup"></path>
                <path d="M205.505725,123.193174 L205.827687,123.274865 C206.070649,123.274865 206.295724,123.14119 206.414969,122.933251 C206.49844,122.777296 206.519308,122.599063 206.47012,122.434197 C206.420931,122.261905 206.31212,122.119318 206.15263,122.036142 L150.727492,91.4097012 L150.402549,91.3265256 C150.159587,91.3265256 149.934512,91.4587154 149.816757,91.6651691 C149.645342,91.9830187 149.760116,92.389985 150.082078,92.5682184 L205.505725,123.193174" id="Fill-18" fill="#E5E5E5" sketch:type="MSShapeGroup"></path>
                <path d="M206.148158,16.2783771 L205.832158,16.3645233 L150.401058,46.9835381 C150.079097,47.1632568 149.962833,47.5687378 150.138719,47.8851021 C150.308643,48.1955253 150.727492,48.3202887 151.047963,48.1420553 L206.473101,17.5170993 C206.62961,17.4339237 206.741402,17.2943076 206.789101,17.1235005 C206.838289,16.9526935 206.818912,16.7759454 206.73544,16.6229617 C206.617686,16.4090816 206.39261,16.2783771 206.148158,16.2783771" id="Fill-19" fill="#E5E5E5" sketch:type="MSShapeGroup"></path>
                <path d="M70.3100652,91.3265256 L69.992575,91.4097012 L14.558494,122.036142 C14.2365321,122.211405 14.1217587,122.615401 14.2961547,122.937706 C14.4675696,123.240703 14.8804558,123.368437 15.2024177,123.193174 L70.6350081,92.5682184 C70.9539889,92.389985 71.0702529,91.9830187 70.8913852,91.6651691 C70.7736306,91.4587154 70.550046,91.3265256 70.3100652,91.3265256" id="Fill-20" fill="#E5E5E5" sketch:type="MSShapeGroup"></path>
                <path d="M120.816341,123.956607 C117.651873,120.803361 110.653675,121.232607 110.653675,121.232607 C101.431554,121.232607 99.0064063,123.956607 99.0064063,123.956607 L95.4901655,126.996972 C95.4901655,126.996972 100.531253,132.71975 110.61492,132.71975 C110.61492,132.71975 122.339698,132.488047 124.335563,126.996972 L120.816341,123.956607" id="Fill-21" fill="#9B9A9A" sketch:type="MSShapeGroup"></path>
                <path d="M149.891286,68.817131 C149.891286,46.8795686 132.046251,29.0978152 110.032109,29.0978152 C88.0134956,29.0978152 70.1684616,46.8795686 70.1684616,68.817131 C70.1684616,82.9183644 77.5422824,95.302616 88.6589099,102.353233 C92.5105277,105.561434 99.0064063,112.802166 99.0064063,125.125522 C99.0064063,125.125522 101.117045,129.333315 110.032109,129.333315 C118.942702,129.333315 121.05036,125.125522 121.05036,125.125522 C121.05036,112.802166 127.546238,105.561434 131.399347,102.353233 C142.517465,95.302616 149.891286,82.9183644 149.891286,68.817131" id="Fill-22" fill="#F7EC3B" sketch:type="MSShapeGroup"></path>
                <path d="M102.516685,58.4810784 L108.967847,79.2660648 C108.967847,79.2660648 109.376261,80.1943638 110.361524,80.1943638 L112.57054,80.1943638 L106.529284,59.9841802 C106.529284,59.9841802 105.889832,58.3622561 104.667569,58.3622561 C103.449778,58.3622561 102.516685,58.4810784 102.516685,58.4810784" id="Fill-23" fill="#C9BE32" sketch:type="MSShapeGroup"></path>
                <path d="M106.99434,58.4810784 L113.439539,79.2660648 C113.439539,79.2660648 113.849444,80.1943638 114.833217,80.1943638 L117.045214,80.1943638 L110.999486,59.9841802 C110.999486,59.9841802 110.361524,58.3622561 109.146714,58.3622561 C107.922961,58.3622561 106.99434,58.4810784 106.99434,58.4810784" id="Fill-24" fill="#C9BE32" sketch:type="MSShapeGroup"></path>
                <path d="M101.994987,59.060337 L103.741929,64.8454965 L98.3937844,82.2782094 C98.3937844,82.2782094 96.2414098,80.2493191 95.7763538,79.3239906 L101.994987,59.060337" id="Fill-25" fill="#C9BE32" sketch:type="MSShapeGroup"></path>
                <path d="M104.145872,66.2951282 L106.003114,72.1486105 L101.994987,84.7125808 C101.994987,84.7125808 99.4953113,83.380286 99.1480099,82.8559827 L104.145872,66.2951282" id="Fill-26" fill="#C9BE32" sketch:type="MSShapeGroup"></path>
                <path d="M113.964218,67.3972048 L115.709668,73.2477166 L121.056322,56.0481923 C121.056322,56.0481923 119.54638,54.7188681 118.033458,54.0237578 L113.964218,67.3972048" id="Fill-27" fill="#C9BE32" sketch:type="MSShapeGroup"></path>
                <path d="M121.750925,56.6289362 L116.180687,74.7478478 L117.80242,80.1943638 L124.366865,59.6410809 C124.366865,59.6410809 122.566263,57.3225612 121.750925,56.6289362" id="Fill-28" fill="#C9BE32" sketch:type="MSShapeGroup"></path>
                <path d="M109.9546,84.8239766 C101.370441,84.8239766 94.3856574,77.8639619 94.3856574,69.3102434 C94.3856574,60.7520691 101.370441,53.7905691 109.9546,53.7905691 C118.543231,53.7905691 125.533977,60.7520691 125.533977,69.3102434 C125.533977,77.8639619 118.543231,84.8239766 109.9546,84.8239766 M109.9546,54.4856794 C101.753516,54.4856794 95.0787698,61.1367562 95.0787698,69.3102434 C95.0787698,77.4792748 101.753516,84.1333222 109.9546,84.1333222 C118.163137,84.1333222 124.83043,77.4792748 124.83043,69.3102434 C124.83043,61.1367562 118.163137,54.4856794 109.9546,54.4856794" id="Fill-29" fill="#C9BE32" sketch:type="MSShapeGroup"></path>
                <path d="M109.9546,86.7667208 C100.292763,86.7667208 92.4374901,78.9393035 92.4374901,69.3102434 C92.4374901,59.6796981 100.292763,51.8478249 109.9546,51.8478249 C119.614946,51.8478249 127.474691,59.6796981 127.474691,69.3102434 C127.474691,78.9393035 119.614946,86.7667208 109.9546,86.7667208 M109.9546,52.0275436 C100.39114,52.0275436 92.6103955,59.7777265 92.6103955,69.3102434 C92.6103955,78.8368193 100.39114,86.5870021 109.9546,86.5870021 C119.521041,86.5870021 127.306257,78.8368193 127.306257,69.3102434 C127.306257,59.7777265 119.521041,52.0275436 109.9546,52.0275436" id="Fill-30" fill="#C9BE32" sketch:type="MSShapeGroup"></path>
                <path d="M51.7659565,191.882846 C51.7659565,193.518137 40.0888769,194.844491 25.6825743,194.844491 C11.2762717,194.844491 -0.403789023,193.518137 -0.403789023,191.882846 C-0.403789023,190.246069 11.2762717,188.921201 25.6825743,188.921201 C40.0888769,188.921201 51.7659565,190.246069 51.7659565,191.882846" id="Fill-31" fill="#E5E5E5" sketch:type="MSShapeGroup"></path>
                <path d="M218.212784,189.530165 C218.212784,191.501129 205.423744,193.093348 189.646122,193.093348 C173.864029,193.093348 161.074988,191.501129 161.074988,189.530165 C161.074988,187.5592 173.864029,185.966982 189.646122,185.966982 C205.423744,185.966982 218.212784,187.5592 218.212784,189.530165" id="Fill-32" fill="#E5E5E5" sketch:type="MSShapeGroup"></path>
                <path d="M208.841607,186.145215 C208.841607,186.145215 211.43668,185.889747 212.244565,182.733531 C212.244565,182.733531 212.572489,179.614446 210.934359,179.197083 L208.158929,182.610253 L208.841607,186.145215" id="Fill-33" fill="#4D4D4D" sketch:type="MSShapeGroup"></path>
                <path d="M203.773689,174.424883 L202.101276,175.455666 L200.919259,179.890708 L199.373544,184.214353 L200.165033,186.005599 L206.68327,188.025578 C206.68327,188.025578 209.19189,186.708136 210.484209,183.109306 L210.493152,183.110791 L210.5647,182.876117 L210.643699,182.641443 L210.630284,182.639958 C211.612566,178.944585 210.297889,176.440406 210.297889,176.440406 L203.773689,174.424883" id="Fill-34" fill="#686868" sketch:type="MSShapeGroup"></path>
                <path d="M202.101276,175.455666 C200.433335,176.333466 199.731279,179.194112 199.731279,179.194112 C198.574601,182.898397 199.373544,184.214353 199.373544,184.214353 L200.165033,186.005599 C200.165033,186.005599 203.107407,184.698554 204.374387,180.652656 C204.374387,180.652656 205.745706,175.908676 203.773689,174.424883 L202.101276,175.455666" id="Fill-35" fill="#4D4D4D" sketch:type="MSShapeGroup"></path>
                <path d="M183.439413,156.868892 C174.566085,154.125583 165.139757,159.062648 162.377741,167.905996 C159.62616,176.749344 164.580795,186.145215 173.460086,188.89001 C179.160003,190.654521 185.090958,189.244991 189.337575,185.663985 C191.117309,184.518835 194.857134,182.815221 199.849034,184.359911 C199.849034,184.359911 201.810616,184.040576 202.93152,180.458084 C204.0405,176.881534 202.606577,175.504681 202.606577,175.504681 C197.617659,173.962962 195.50702,170.447308 194.688701,168.497137 C193.229438,163.147164 189.145293,158.637859 183.439413,156.868892" id="Fill-36" fill="#CCCCCC" sketch:type="MSShapeGroup"></path>
                <path d="M4.70288378,185.095123 C4.70288378,185.095123 2.930603,187.002221 4.42265772,189.894058 C4.42265772,189.894058 6.25903276,192.445766 7.76152143,191.679363 L7.56178583,187.287394 L4.70288378,185.095123" id="Fill-37" fill="#4D4D4D" sketch:type="MSShapeGroup"></path>
                <path d="M16.2979824,190.513419 L16.8584345,188.638998 L14.7895314,184.536659 L13.0694204,180.282821 L11.2852151,179.457007 L5.06061918,182.264183 C5.06061918,182.264183 4.06194119,184.905008 5.49437335,188.450367 L5.47946771,188.459279 L5.58976945,188.6791 L5.68516556,188.903377 L5.69709007,188.901892 C7.42316337,192.318032 10.0733864,193.31614 10.0733864,193.31614 L16.2979824,190.513419" id="Fill-38" fill="#686868" sketch:type="MSShapeGroup"></path>
                <path d="M16.8584345,188.638998 C17.5247167,186.875972 16.1459448,184.269309 16.1459448,184.269309 C14.5450789,180.735831 13.0694204,180.282821 13.0694204,180.282821 L11.2852151,179.457007 C11.2852151,179.457007 9.95116018,182.38449 11.7055542,186.25067 C11.7055542,186.25067 13.8296081,190.703535 16.2979824,190.513419 L16.8584345,188.638998" id="Fill-39" fill="#4D4D4D" sketch:type="MSShapeGroup"></path>
                <path d="M43.1981937,190.19854 C51.6660887,186.387316 55.4282726,176.456744 51.603485,168.017392 C47.7772068,159.579525 37.8112948,155.830683 29.3419093,159.640422 C23.8998596,162.091131 20.4000149,167.072755 19.6115065,172.554918 C19.0436015,174.591234 17.3756602,178.340077 12.6177795,180.484819 C12.6177795,180.484819 11.3612339,182.022082 12.90993,185.439708 C14.4556451,188.854363 16.4485293,188.930112 16.4485293,188.930112 C21.2064101,186.788341 25.1310656,188.024092 27.0360065,188.936053 C31.6955101,191.973448 37.7516723,192.650735 43.1981937,190.19854" id="Fill-40" fill="#CCCCCC" sketch:type="MSShapeGroup"></path>
                <g id="Group-43" transform="translate(104.433550, 128.552059)">
                    <mask id="mask-2" sketch:name="Clip 42" fill="white">
                        <use xlink:href="#path-1"></use>
                    </mask>
                    <g id="Clip-42"></g>
                    <path d="M0.502320121,0.224277043 L2.97963775,0.224277043 L2.97963775,0.952063473 L0.502320121,0.952063473 L0.502320121,0.224277043 Z" id="Fill-41" fill="#C0B747" sketch:type="MSShapeGroup" mask="url(#mask-2)"></path>
                </g>
                <path d="M90.0466252,77.4555103 C89.8826631,77.4555103 89.7097577,77.4852159 89.5264183,77.5579946 C88.439797,77.9842695 88.8675889,79.0655522 88.8675889,79.0655522 L102.804364,101.604652 C102.804364,101.604652 104.840474,127.40988 104.894135,128.388678 C104.901588,128.50453 104.916493,128.63672 104.935871,128.776336 C105.667738,128.956055 106.483076,129.101612 107.39083,129.198155 C107.116566,125.456739 105.91219,109.062235 105.600662,105.381715 C105.248889,101.227392 104.812154,100.021346 104.812154,100.021346 L91.4104914,78.1922084 C91.4104914,78.1922084 90.8574921,77.4555103 90.0466252,77.4555103" id="Fill-44" fill="#D2C734" sketch:type="MSShapeGroup"></path>
                <path d="M114.852594,128.840203 C114.119236,129.006554 113.306879,129.140229 112.403597,129.22489 C112.397635,129.32886 112.390182,129.420947 112.38422,129.502637 C113.294954,129.354109 114.116255,129.126862 114.848122,128.869908 C114.849613,128.859512 114.851103,128.8506 114.852594,128.840203" id="Fill-45" fill="#C0B747" sketch:type="MSShapeGroup"></path>
                <path d="M121.345491,89.6630138 L114.985254,100.021346 C114.985254,100.021346 114.548519,101.227392 114.196746,105.381715 C113.885218,109.071147 112.67488,125.536944 112.403597,129.22489 C113.306879,129.140229 114.119236,129.006554 114.852594,128.840203 C114.876443,128.676822 114.89433,128.522353 114.901782,128.388678 C114.956933,127.40988 116.993044,101.604652 116.993044,101.604652 L120.278247,96.2918114 L121.345491,89.6630138" id="Fill-46" fill="#D2C734" sketch:type="MSShapeGroup"></path>
                <path d="M118.690797,146.517987 C118.637136,146.538781 118.583476,146.559575 118.529816,146.580368 C118.586457,148.817198 116.258196,150.247521 114.250406,151.062939 L114.250406,185.808057 L137.604565,185.808057 L161.519176,206.134092 L137.604565,185.808057 L114.356236,185.808057 L114.356236,151.386729 C114.356236,151.386729 118.175061,149.384574 118.576023,147.180421 C118.626702,146.904159 118.663966,146.687309 118.690797,146.517987 M133.969079,100.57981 C133.135854,101.203627 132.28027,101.794768 131.399347,102.353233 C128.035143,105.152983 122.660169,111.025773 121.346982,120.669686 C122.354603,115.803914 125.12109,106.745201 132.245987,101.916561 C132.245987,101.916561 132.904816,101.462066 133.969079,100.57981 M130.233725,34.4269942 L130.212857,34.5562135 C130.560159,34.7596966 130.902989,34.9691209 131.244328,35.183001 L130.233725,34.4269942" id="Fill-47" fill="#E3E3E3" sketch:type="MSShapeGroup"></path>
                <path d="M137.604565,185.808057 L114.250406,185.808057 L114.250406,192.692323 C114.250406,194.30385 112.941691,195.613865 111.318466,195.613865 L110.146883,195.613865 C108.52664,195.613865 107.216434,194.30385 107.216434,192.692323 L107.216434,185.891233 L98.6799728,185.989261 L79.2325822,206.134092 L161.519176,206.134092 L137.604565,185.808057" id="Fill-48" fill="#CCCCCC" sketch:type="MSShapeGroup"></path>
                <path d="M161.519176,206.134092 L79.2325822,206.134092 L78.183225,207.222801 L78.7809413,213.624352 L156.943145,213.624352 L161.519176,206.134092" id="Fill-49" fill="#727272" sketch:type="MSShapeGroup"></path>
                <path d="M114.250406,151.062939 C112.740464,151.676359 111.412372,151.942224 111.412372,151.942224 C111.153014,151.955591 110.902599,151.961532 110.656656,151.961532 C109.353903,151.961532 108.213621,151.784784 107.220905,151.495155 L107.220905,185.891233 L107.216434,185.891233 L107.216434,192.692323 C107.216434,194.30385 108.52664,195.613865 110.146883,195.613865 L111.318466,195.613865 C112.941691,195.613865 114.250406,194.30385 114.250406,192.692323 L114.250406,151.062939" id="Fill-50" fill="#5C5D5D" sketch:type="MSShapeGroup"></path>
                <path d="M118.529816,146.580368 C116.581648,147.342316 114.152029,147.983957 111.255863,148.18744 L111.412372,151.942224 L107.220905,150.543091 L107.220905,151.495155 C108.213621,151.784784 109.353903,151.961532 110.656656,151.961532 C110.902599,151.961532 111.153014,151.955591 111.412372,151.942224 C111.412372,151.942224 112.740464,151.676359 114.250406,151.062939 C116.258196,150.247521 118.586457,148.817198 118.529816,146.580368" id="Fill-51" fill="#8A8989" sketch:type="MSShapeGroup"></path>
                <path d="M124.335563,126.996972 C122.339698,132.488047 110.61492,132.71975 110.61492,132.71975 L111.255863,148.18744 C114.152029,147.983957 116.581648,147.342316 118.529816,146.580368 C118.583476,146.559575 118.637136,146.538781 118.690797,146.517987 C118.696759,146.473428 118.702721,146.431841 118.708683,146.394709 L124.335563,143.121155 L124.335563,126.996972" id="Fill-52" fill="#5C5D5D" sketch:type="MSShapeGroup"></path>
                <path d="M121.063775,124.170488 C121.054831,124.485367 121.05036,124.804701 121.05036,125.125522 C121.05036,125.125522 119.780399,127.659407 115.047858,128.795645 L114.958424,129.355595 L110.61492,132.71975 C110.61492,132.71975 122.339698,132.488047 124.335563,126.996972 L121.063775,124.170488" id="Fill-53" fill="#8A8989" sketch:type="MSShapeGroup"></path>
                <path d="M124.791676,68.2423282 L123.712507,74.9468751 C124.43245,73.207614 124.83043,71.3049724 124.83043,69.3102434 C124.83043,68.9508061 124.817015,68.5943392 124.791676,68.2423282 M125.765014,62.1927892 L125.162826,65.9342056 C125.405788,67.0214294 125.533977,68.1517263 125.533977,69.3102434 C125.533977,72.2035658 124.735034,74.9127137 123.344338,77.2327186 L122.74215,80.9756202 C125.574222,77.8996086 127.306257,73.8017254 127.306257,69.3102434 C127.306257,66.7733879 126.754749,64.3642663 125.765014,62.1927892 M130.212857,34.5562135 L125.814203,61.8912777 C126.878465,64.1429598 127.474691,66.6590214 127.474691,69.3102434 C127.474691,73.9428269 125.656203,78.158047 122.692961,81.2845581 L121.345491,89.6630138 L128.386916,78.1922084 C128.386916,78.1922084 128.939916,77.4555103 129.750783,77.4555103 C129.914745,77.4555103 130.08765,77.4852159 130.27099,77.5579946 C131.35612,77.9842695 130.928328,79.0655522 130.928328,79.0655522 L120.278247,96.2918114 L115.047858,128.795645 C119.780399,127.659407 121.05036,125.125522 121.05036,125.125522 C121.05036,124.804701 121.054831,124.485367 121.063775,124.170488 L120.816341,123.956607 C120.816341,123.956607 120.934096,122.667386 121.346982,120.669686 C122.660169,111.025773 128.035143,105.152983 131.399347,102.353233 C132.28027,101.794768 133.135854,101.203627 133.969079,100.57981 C138.804469,96.5665879 152.003415,83.7129884 149.53206,64.6672631 C149.53206,64.6672631 149.324871,48.2460247 131.842044,35.6300698 L131.244328,35.183001 C130.902989,34.9691209 130.560159,34.7596966 130.212857,34.5562135" id="Fill-54" fill="#DBD135" sketch:type="MSShapeGroup"></path>
                <path d="M125.162826,65.9342056 L124.791676,68.2423282 C124.817015,68.5943392 124.83043,68.9508061 124.83043,69.3102434 C124.83043,71.3049724 124.43245,73.207614 123.712507,74.9468751 L123.344338,77.2327186 C124.735034,74.9127137 125.533977,72.2035658 125.533977,69.3102434 C125.533977,68.1517263 125.405788,67.0214294 125.162826,65.9342056" id="Fill-55" fill="#B3A92D" sketch:type="MSShapeGroup"></path>
                <path d="M125.814203,61.8912777 L125.765014,62.1927892 C126.754749,64.3642663 127.306257,66.7733879 127.306257,69.3102434 C127.306257,73.8017254 125.574222,77.8996086 122.74215,80.9756202 L122.692961,81.2845581 C125.656203,78.158047 127.474691,73.9428269 127.474691,69.3102434 C127.474691,66.6590214 126.878465,64.1429598 125.814203,61.8912777" id="Fill-56" fill="#B3A92D" sketch:type="MSShapeGroup"></path>
                <path d="M129.750783,77.4555103 C128.939916,77.4555103 128.386916,78.1922084 128.386916,78.1922084 L121.345491,89.6630138 L120.278247,96.2918114 L130.928328,79.0655522 C130.928328,79.0655522 131.35612,77.9842695 130.27099,77.5579946 C130.08765,77.4852159 129.914745,77.4555103 129.750783,77.4555103" id="Fill-57" fill="#BBB12E" sketch:type="MSShapeGroup"></path>
            </g>
        </g>
    </g>
</svg>