<?xml version="1.0" encoding="utf-8"?>
<!-- Generator: Adobe Illustrator 17.1.0, SVG Export Plug-In . SVG Version: 6.00 Build 0)  -->
<!DOCTYPE svg PUBLIC "-//W3C//DTD SVG 1.1//EN" "http://www.w3.org/Graphics/SVG/1.1/DTD/svg11.dtd">
<svg version="1.1" id="Layer_1" xmlns:sketch="http://www.bohemiancoding.com/sketch/ns"
	 xmlns="http://www.w3.org/2000/svg" xmlns:xlink="http://www.w3.org/1999/xlink" x="0px" y="0px" viewBox="0 0 360 240"
	 enable-background="new 0 0 360 240" xml:space="preserve">
<title>Portrait</title>
<desc>Created with Sketch.</desc>
<g id="Page-1" sketch:type="MSPage">
	<g id="Portrait" transform="translate(-45.000000, -33.000000)" sketch:type="MSArtboardGroup">
		<g id="sell" transform="translate(127.000000, 53.000000)" sketch:type="MSLayerGroup">
			<path id="Fill-1" sketch:type="MSShapeGroup" fill="#D0CFD0" d="M7.4,189.1l-2.5,4.3h187.9l-2.1-4l-113.8-0.3h-0.7H7.8"/>
			<path id="Fill-2" sketch:type="MSShapeGroup" fill="#67656E" d="M-0.5,149l1.9,40.7h192.5l1.1-39.9L-0.5,149"/>
			<path id="Fill-3" sketch:type="MSShapeGroup" fill="#BCB9C9" d="M10.6,153l173,1.2l-1.5,31.5l-169.4-0.3L10.6,153"/>
			<path id="Fill-4" sketch:type="MSShapeGroup" fill="#282221" d="M31.8,168.3h92.8v2.7H31.8V168.3z"/>
			<path id="Fill-5" sketch:type="MSShapeGroup" fill="#282221" d="M153.3,176.4c0,2.7-2.1,4.8-4.8,4.8c-2.6,0-4.8-2.1-4.8-4.8
				c0-2.6,2.1-4.8,4.8-4.8C151.2,171.6,153.3,173.7,153.3,176.4"/>
			<path id="Fill-6" sketch:type="MSShapeGroup" fill="#7D7B84" d="M-0.5,149.1l38.6-42h125.1l32.3,42.9L-0.5,149.1"/>
			<path id="Fill-7" sketch:type="MSShapeGroup" fill="#E3E3E3" d="M190.6,191.3L190.6,191.3l3.5,0L190.6,191.3"/>
			<path id="Fill-8_4_" sketch:type="MSShapeGroup" fill="#B9B8B9" d="M76.3,190.4"/>
			<path id="Fill-8_3_" sketch:type="MSShapeGroup" fill="#B9B8B9" d="M190.6,191.3L190.6,191.3"/>
			<path id="Fill-8_1_" sketch:type="MSShapeGroup" fill="#B9B8B9" d="M76.3,190.4L76.3,190.4"/>
			<path id="Fill-9" sketch:type="MSShapeGroup" fill="#5C5A62" d="M58.7,149.3L58.7,149.3l1.4,4l123.5,0.9l-1.5,31.5l-108-0.2
				l1.4,4.2h114.9h3.5l1.6-39.7L58.7,149.3"/>
			<path id="Fill-10" sketch:type="MSShapeGroup" fill="#A7A5B3" d="M148.5,181.1c-2.6,0-4.8-2.1-4.8-4.8c0-2.6,2.1-4.8,4.8-4.8
				c2.6,0,4.8,2.2,4.8,4.8C153.3,179,151.2,181.1,148.5,181.1 M60,153.3l6.5,14.9h58v2.7H67.8l6.3,14.5l108,0.2l1.5-31.5L60,153.3"
				/>
			<path id="Fill-11" sketch:type="MSShapeGroup" fill="#241E1D" d="M124.6,168.3h-58l1.2,2.7h56.8V168.3"/>
			<path id="Fill-12" sketch:type="MSShapeGroup" fill="#241E1D" d="M148.5,171.6c-2.6,0-4.8,2.2-4.8,4.8c0,2.7,2.1,4.8,4.8,4.8
				c2.6,0,4.8-2.1,4.8-4.8C153.3,173.7,151.2,171.6,148.5,171.6"/>
			<path id="Fill-13" sketch:type="MSShapeGroup" fill="#6F6D76" d="M89.8,107.8l-7.7,10.3v2.6H90l2.9,19.7v2.9H63.3l-4.6,6.1
				L195,150l0-0.2L166,111.1c-1.9,0-3.9,0-6,0l1.3,2.6h3.8l19.8,27.9v4h-62.1v-0.1H98.9v-3.9l2.1-27.9h40.2l-1.3-2.5
				c-5.3,0-10.5,0-15.5,0c-12.3,0-22.7-0.1-26.1-0.3c-3.9-0.2-6.2-1.6-7.4-3.2L89.8,107.8"/>
			<path id="Fill-14" sketch:type="MSShapeGroup" fill="#4A4746" d="M13,140.4v2.9h79.9v-2.9l-8.1-2.1c0,0-23.5-2.7-24.8-2.5
				c-1.3,0.2-17.4,0.2-19.3,0.7c-1.9,0.6-13.2,0.5-14.1,0.9C25.7,137.8,13,140.4,13,140.4"/>
			<path id="Fill-15" sketch:type="MSShapeGroup" fill="#9B9A9A" d="M27.9,120.9l-15,19.5h79.9L90,120.7L27.9,120.9"/>
			<path id="Fill-16" sketch:type="MSShapeGroup" fill="#3A3A3A" d="M30.6,135h46.8c0,0,4.6-0.5,4.6-5.4V97.5l-34.9-3.7l-21.7,4.5
				l0.1,33.9C26,133.4,27.1,135,30.6,135"/>
			<path id="Fill-17" sketch:type="MSShapeGroup" fill="#4A4746" d="M98.9,141.6v3.9h85.9v-3.9l-24.8-6.9L98.9,141.6"/>
			<path id="Fill-18" sketch:type="MSShapeGroup" fill="#9B9A9A" d="M101,113.7h64l19.5,27.9H98.9L101,113.7"/>
			<path id="Fill-19" sketch:type="MSShapeGroup" fill="#4A4746" d="M139.6,110.7l7.5,14.1c0,0,8.1,5.1,20.4,1.5l-7.8-15.9
				L139.6,110.7"/>
			<path id="Fill-20" sketch:type="MSShapeGroup" fill="#77736E" d="M89.3,102.3c0,0-1.2,8.1,9,8.7c10.2,0.6,83.2,0,83.2,0
				s9,0,6.9-9.9c-2.1-9.9-8.1,1.5-8.1,1.5l-14.7,0.9l-68.8-0.3L89.3,102.3"/>
			<path id="Fill-21" sketch:type="MSShapeGroup" fill="#F3EBDE" d="M92.3,38.1l-3,64.2c0,0,0.6,4.8,8.4,4.8h84.4c0,0,7.8-0.9,6.3-6
				c-1.5-5.1-18.9-58.2-18.9-58.2s-1.8-4.8-7.5-4.8H92.3"/>
			<path id="Fill-22" sketch:type="MSShapeGroup" fill="#EFEFEF" d="M160.8,43.8H101l-0.3,56.4h76.6L160.8,43.8"/>
			<path id="Fill-23" sketch:type="MSShapeGroup" fill="#77736E" d="M25.5,96.9c0,0-0.6,9,5.7,9.3c6.3,0.3,45.5,0,45.5,0
				c3.3-0.8,5.7-1.1,5.4-10.5C81.8,87.6,68,94.2,68,94.2L25.5,96.9"/>
			<path id="Fill-24" sketch:type="MSShapeGroup" fill="#F3EBDE" d="M30.9,59.7h44.6c0,0,6.6,0.6,6.6,9.3v26.7c0,0,0.9,6.6-10.2,6.6
				H35.1c0,0-9.6,0.6-9.6-6.9C25.5,87.9,30.9,59.7,30.9,59.7"/>
			<path id="Fill-25" sketch:type="MSShapeGroup" fill="#3A3A3A" d="M28.2,72.9H83l-8.7,0.9L73.7,75H34.2l0.6-1.5L28.2,72.9"/>
			<path id="Fill-26" sketch:type="MSShapeGroup" fill="#3A3A3A" d="M39.9,63.2c0,0.4-1.1,0.8-2.5,0.8c-1.4,0-2.5-0.3-2.5-0.8
				c0-0.4,1.1-0.7,2.5-0.7C38.8,62.4,39.9,62.7,39.9,63.2"/>
			<path id="Fill-27" sketch:type="MSShapeGroup" fill="#727373" d="M167.6,80.7l-1.5-5.4h-26l0.9,5.4H167.6"/>
			<path id="Fill-28" sketch:type="MSShapeGroup" fill="#727373" d="M164.1,68.2h-25.3l1,5.7h25.9L164.1,68.2"/>
			<path id="Fill-29" sketch:type="MSShapeGroup" fill="#727373" d="M137.4,59.9h24.4l-1.6-5.7h-23.8L137.4,59.9"/>
			<path id="Fill-30" sketch:type="MSShapeGroup" fill="#727373" d="M163.7,66.7l-1.5-5.4h-24.6l0.9,5.4H163.7"/>
			<path id="Fill-31" sketch:type="MSShapeGroup" fill="#727373" d="M168,82.2h-26.7l1,5.7h27.3L168,82.2"/>
			<path id="Fill-32" sketch:type="MSShapeGroup" fill="#727373" d="M170,89.3h-27.5l1.3,7.4H172L170,89.3"/>
			<path id="Fill-33" sketch:type="MSShapeGroup" fill="#727373" d="M159.9,52.7l-1.5-5.5h-23.1l0.9,5.5H159.9"/>
			<path id="Fill-34" sketch:type="MSShapeGroup" fill="#727373" d="M103.6,47.6v0.2h29.1l3,19.5l-31.8,0l-0.2-19.7L103.6,47.6v0.2
				V47.6l-0.2,0l0.2,20l32.6,0L133,47.4h-29.6l0,0.2L103.6,47.6"/>
			<path id="Fill-35" sketch:type="MSShapeGroup" fill="#727373" d="M114.3,77.6h-5.9v6h6.1L114.3,77.6"/>
			<path id="Fill-36" sketch:type="MSShapeGroup" fill="#727373" d="M133.1,77.1l-0.9-6.6h-5.6l0.4,6.6H133.1"/>
			<path id="Fill-37" sketch:type="MSShapeGroup" fill="#727373" d="M120.2,77.1l-0.3-6.6h-5.5l0.3,6.6H120.2"/>
			<path id="Fill-38" sketch:type="MSShapeGroup" fill="#727373" d="M114,70.5h-5.6v6.6h5.9L114,70.5"/>
			<path id="Fill-39" sketch:type="MSShapeGroup" fill="#727373" d="M126.4,77.1l-0.4-6.6h-5.6l0.3,6.6H126.4"/>
			<path id="Fill-40" sketch:type="MSShapeGroup" fill="#727373" d="M135.3,90.5h4.9l-1.1-6.3h-4.6L135.3,90.5"/>
			<path id="Fill-41" sketch:type="MSShapeGroup" fill="#727373" d="M134.4,83.6h4.6l-1-6h-4.4L134.4,83.6"/>
			<path id="Fill-42" sketch:type="MSShapeGroup" fill="#727373" d="M133.9,83.6l-0.8-6H127l0.4,6H133.9"/>
			<path id="Fill-43" sketch:type="MSShapeGroup" fill="#727373" d="M121,83.6h5.8l-0.4-6h-5.7L121,83.6"/>
			<path id="Fill-44" sketch:type="MSShapeGroup" fill="#727373" d="M115,83.6h5.5l-0.2-6h-5.5L115,83.6"/>
			<path id="Fill-45" sketch:type="MSShapeGroup" fill="#727373" d="M107.9,70.5h-4.3l-0.1,6.6h4.4V70.5"/>
			<path id="Fill-46" sketch:type="MSShapeGroup" fill="#727373" d="M134.8,90.5l-0.9-6.3h-6.6l0.4,6.3H134.8"/>
			<path id="Fill-47" sketch:type="MSShapeGroup" fill="#727373" d="M137.9,77.1l-1.1-6.6h-4.1l0.9,6.6H137.9"/>
			<path id="Fill-48" sketch:type="MSShapeGroup" fill="#727373" d="M140.3,91h-36.9l-0.1,5.9h38L140.3,91"/>
			<path id="Fill-49" sketch:type="MSShapeGroup" fill="#727373" d="M107.9,77.6h-4.4l-0.1,6h4.5V77.6"/>
			<path id="Fill-50" sketch:type="MSShapeGroup" fill="#727373" d="M107.9,84.1h-4.5l-0.1,6.3h4.6V84.1"/>
			<path id="Fill-51" sketch:type="MSShapeGroup" fill="#727373" d="M121,84.1l0.3,6.3h5.9l-0.4-6.3H121"/>
			<path id="Fill-52" sketch:type="MSShapeGroup" fill="#727373" d="M114.6,84.1h-6.1v6.3h6.4L114.6,84.1"/>
			<path id="Fill-53" sketch:type="MSShapeGroup" fill="#727373" d="M115,84.1l0.3,6.3h5.5l-0.3-6.3H115"/>
			<g id="Group-56" transform="translate(155.779412, 37.924812)">
				<g id="Clip-55">
				</g>
				<defs>
					<filter id="Adobe_OpacityMaskFilter" filterUnits="userSpaceOnUse" x="0" y="0.1" width="33.2" height="68.7">
						<feColorMatrix  type="matrix" values="1 0 0 0 0  0 1 0 0 0  0 0 1 0 0  0 0 0 1 0"/>
					</filter>
				</defs>
				<mask maskUnits="userSpaceOnUse" x="0" y="0.1" width="33.2" height="68.7" id="mask-2">
					<g filter="url(#Adobe_OpacityMaskFilter)">
						<path id="path-1" fill="#FFFFFF" d="M32.7,63.7c0,0.2,0,0.3,0.1,0.5c0.3,1.9,0.1,3.4-0.3,4.5C33,67.5,33.1,65.8,32.7,63.7
							L32.7,63.7z M11.5,2c1.6,1.4,2.2,3,2.2,3S13.6,3.4,11.5,2L11.5,2z M2.8,0.1C2,0.1,1,0.1,0,0.2h5.4C4.6,0.1,3.8,0.1,2.8,0.1
							L2.8,0.1z"/>
					</g>
				</mask>
				<path id="Fill-54" sketch:type="MSShapeGroup" mask="url(#mask-2)" fill="#E3E3E3" d="M0,0.1h33.2v68.7H0V0.1z"/>
			</g>
			<path id="Fill-57" sketch:type="MSShapeGroup" fill="#636169" d="M165,113.7h-3.8H165l19.4,27.8l0.4,0.1v3.9h-62.1v0.1h62.1v-4
				L165,113.7"/>
			<path id="Fill-58" sketch:type="MSShapeGroup" fill="#423F3E" d="M184.4,141.5l0.1,0.1h-61.6l-0.2,0.1v3.8h62.1v-3.9L184.4,141.5
				"/>
			<path id="Fill-59" sketch:type="MSShapeGroup" fill="#8A8989" d="M165,113.7h-3.8l6.2,12.6c-3.2,0.9-6.1,1.3-8.7,1.3
				c-1.5,0-3-0.1-4.2-0.3l0.1,0.3l-31.7,14.1h61.6l-0.1-0.1L165,113.7"/>
			<path id="Fill-60" sketch:type="MSShapeGroup" fill="#423F3E" d="M159.9,111.1c-2.9,0-5.9,0-9,0l3.6,16.1
				c1.3,0.2,2.7,0.3,4.2,0.3c2.6,0,5.5-0.3,8.7-1.3l-6.2-12.6h-0.3L159.9,111.1"/>
			<path id="Fill-61" sketch:type="MSShapeGroup" fill="#6A6662" d="M188.5,102.1c0.2,4.2-6.5,5-6.5,5h-67.2v4.1h36.1l0,0
				c3.1,0,6.1,0,9,0l-0.3-0.7l21.8,0.6c0,0,5.1-0.4,6.7-4.3C188.6,105.5,188.8,104,188.5,102.1"/>
			<path id="Fill-62" sketch:type="MSShapeGroup" fill="#D8D0C6" d="M161.2,38.1h-5.4l-3.4,5.7h8.4l16.5,56.4h-58.4l-4,6.8v0.1h67.2
				c0,0,6.7-0.8,6.5-5c0-0.2,0-0.3-0.1-0.5c0-0.2-0.1-0.4-0.1-0.6l-18.9-58.2c0,0-0.6-1.6-2.2-3C166,39.1,164.1,38.4,161.2,38.1"/>
			<path id="Fill-63" sketch:type="MSShapeGroup" fill="#D5D5D5" d="M143.7,96.7l-1.3-7.4H170l2,7.4H143.7 M135.3,90.5l-0.9-6.3h4.6
				l1.1,6.3H135.3 M142.2,87.9l-1-5.7H168l1.6,5.7H142.2 M134.4,83.6l-0.8-6h4.4l1,6H134.4 M141,80.7l-0.9-5.4h26l1.5,5.4H141
				 M139.8,73.9l-1-5.7h25.3l1.6,5.7H139.8 M160.8,43.8h-8.4l-2,3.4h8l1.5,5.5h-12.8l-0.9,1.5h14l1.6,5.7h-19l-0.9,1.5h20.3l1.5,5.4
				h-25l-2.3,3.8h0.3l1.1,6.6h-4.4l-0.2-1.3l-0.4,0.7l0.1,0.6h-0.5l-0.3,0.5h0.8l0.8,6h-5.2l-0.3,0.5h5.6l0.9,6.3h-7.1l-0.3-4.7
				l-0.4,0.7l0.2,3.9h-2.6l-0.3,0.5h15.9l1,5.9h-20.5l-2,3.3h58.4L160.8,43.8"/>
			<path id="Fill-64" sketch:type="MSShapeGroup" fill="#656666" d="M166.1,75.3h-26l0.9,5.4h26.6L166.1,75.3"/>
			<path id="Fill-65" sketch:type="MSShapeGroup" fill="#656666" d="M164.1,68.2h-25.3l1,5.7h25.9L164.1,68.2"/>
			<path id="Fill-66" sketch:type="MSShapeGroup" fill="#656666" d="M160.3,54.2h-14l-3.4,5.7h19L160.3,54.2"/>
			<path id="Fill-67" sketch:type="MSShapeGroup" fill="#656666" d="M162.3,61.3H142l-3.2,5.4h25L162.3,61.3"/>
			<path id="Fill-68" sketch:type="MSShapeGroup" fill="#656666" d="M168,82.2h-26.7l1,5.7h27.3L168,82.2"/>
			<path id="Fill-69" sketch:type="MSShapeGroup" fill="#656666" d="M170,89.3h-27.5l1.3,7.4H172L170,89.3"/>
			<path id="Fill-70" sketch:type="MSShapeGroup" fill="#656666" d="M158.4,47.2h-8l-3.2,5.5h12.8L158.4,47.2"/>
			<path id="Fill-71" sketch:type="MSShapeGroup" fill="#656666" d="M133,76.5l-0.4,0.6h0.5L133,76.5"/>
			<path id="Fill-72" sketch:type="MSShapeGroup" fill="#656666" d="M139.1,84.1h-4.6l0.9,6.3h4.9L139.1,84.1"/>
			<path id="Fill-73" sketch:type="MSShapeGroup" fill="#656666" d="M138,77.6h-4.4l0.8,6h4.6L138,77.6"/>
			<path id="Fill-74" sketch:type="MSShapeGroup" fill="#656666" d="M133.1,77.6h-0.8l-3.6,6h5.2L133.1,77.6"/>
			<path id="Fill-75" sketch:type="MSShapeGroup" fill="#656666" d="M134,84.1h-5.6l-1,1.7l0.3,4.7h7.1L134,84.1"/>
			<path id="Fill-76" sketch:type="MSShapeGroup" fill="#656666" d="M136.8,70.5h-0.3l-3.1,5.3l0.2,1.3h4.4L136.8,70.5"/>
			<path id="Fill-77" sketch:type="MSShapeGroup" fill="#656666" d="M140.3,91h-15.9l-3.5,5.9h20.5L140.3,91"/>
			<path id="Fill-78" sketch:type="MSShapeGroup" fill="#656666" d="M127,86.5l-2.3,3.9h2.6L127,86.5"/>
			<path id="Fill-79" sketch:type="MSShapeGroup" fill="#E3E3E3" d="M59.5,59.6L59.5,59.6l16,0.1c0,0,2.3,0.2,4.2,2.2
				c-0.9-1.2-2.3-2.1-4.2-2.2L59.5,59.6"/>
			<path id="Fill-80" sketch:type="MSShapeGroup" fill="#636169" d="M90,120.7h-7.9v0L90,120.7l2.9,19.7v2.8v-2.8L90,120.7"/>
			<path id="Fill-81" sketch:type="MSShapeGroup" fill="#423F3E" d="M92.9,140.4H38.1h-0.8v2.8h55.6V140.4"/>
			<path id="Fill-82" sketch:type="MSShapeGroup" fill="#8A8989" d="M90,120.7l-7.9,0v8.9c0,4.9-4.6,5.4-4.6,5.4H51v0.1l-12.9,5.3
				h54.8L90,120.7"/>
			<path id="Fill-83" sketch:type="MSShapeGroup" fill="#343434" d="M81.7,102.2c-0.8,3.2-2.7,3.5-5,4c0,0-13.4,0.1-25.8,0.1V135
				h26.5c0,0,4.6-0.5,4.6-5.4v-8.9h-0.4V102.2"/>
			<path id="Fill-84" sketch:type="MSShapeGroup" fill="#6A6662" d="M81.7,98.1c-0.8,1.9-3.2,4.2-9.7,4.2H51v4
				c12.4,0,25.8-0.1,25.8-0.1c2.3-0.5,4.1-0.8,5-4V98.1"/>
			<path id="Fill-85" sketch:type="MSShapeGroup" fill="#D8D0C6" d="M81.7,73l-7.4,0.8L73.7,75H56.4L51,102.1v0.2h21
				c6.5,0,8.9-2.3,9.7-4.2V73 M75.5,59.7h-16l-2.6,13.2h24.9v-6c0,0-0.3-2.9-1.9-5C77.8,59.9,75.5,59.7,75.5,59.7"/>
			<path id="Fill-86" sketch:type="MSShapeGroup" fill="#343434" d="M81.7,72.9H56.8L56.4,75h17.3l0.6-1.2l7.4-0.8V72.9"/>
			<path id="Fill-87" sketch:type="MSShapeGroup" fill="#282221" d="M27.9,15.5l0.2,0.3L54.4,1.4l22.1,13.7H27.9V15.5l0.2,0.3
				L27.9,15.5v0.4H79L54.4,0.6L26.5,15.9h1.4V15.5"/>
			<path id="Fill-88" sketch:type="MSShapeGroup" fill="#76A7FA" d="M24.4,12.1h57.5v25.1H24.4V12.1z"/>
			<path id="Fill-89" sketch:type="MSShapeGroup" fill="#282221" d="M29.3,15.5c0,0.8-0.7,1.5-1.5,1.5c-0.8,0-1.5-0.7-1.5-1.5
				c0-0.8,0.7-1.5,1.5-1.5C28.7,14,29.3,14.7,29.3,15.5"/>
			<path id="Fill-90" sketch:type="MSShapeGroup" fill="#282221" d="M79.2,15.5c0,0.8-0.7,1.5-1.5,1.5s-1.5-0.7-1.5-1.5
				c0-0.8,0.7-1.5,1.5-1.5S79.2,14.7,79.2,15.5"/>
			<path id="Fill-91" sketch:type="MSShapeGroup" fill="#FFFFFF" d="M39.6,27.1c0,0.3,0,0.5,0.1,0.7c0,0.2,0.1,0.4,0.2,0.5
				c0.1,0.1,0.3,0.3,0.5,0.3c0.2,0.1,0.4,0.1,0.7,0.1c0.3,0,0.6-0.1,0.9-0.3c0.3-0.2,0.4-0.6,0.4-1c0-0.2,0-0.5-0.1-0.6
				c-0.1-0.2-0.2-0.3-0.3-0.5c-0.2-0.1-0.4-0.3-0.6-0.4c-0.3-0.1-0.6-0.2-0.9-0.4c-0.5-0.2-0.9-0.3-1.3-0.5
				c-0.4-0.2-0.7-0.4-0.9-0.7c-0.2-0.3-0.4-0.6-0.5-0.9c-0.1-0.3-0.2-0.7-0.2-1.2c0-1.1,0.3-1.9,0.9-2.4c0.6-0.5,1.4-0.8,2.5-0.8
				c0.5,0,0.9,0.1,1.4,0.2c0.4,0.1,0.8,0.3,1.1,0.5c0.3,0.2,0.5,0.6,0.7,0.9c0.2,0.4,0.3,0.8,0.3,1.4v0.3h-2.1
				c0-0.5-0.1-0.9-0.3-1.2c-0.2-0.3-0.5-0.4-0.9-0.4c-0.2,0-0.5,0-0.6,0.1c-0.2,0.1-0.3,0.2-0.4,0.3c-0.1,0.1-0.2,0.3-0.2,0.4
				c0,0.2-0.1,0.3-0.1,0.5c0,0.3,0.1,0.6,0.2,0.9c0.1,0.2,0.5,0.4,0.9,0.6l1.7,0.7c0.4,0.2,0.8,0.4,1,0.6c0.3,0.2,0.5,0.4,0.6,0.7
				c0.2,0.2,0.3,0.5,0.3,0.8c0.1,0.3,0.1,0.6,0.1,0.9c0,1.2-0.3,2-1,2.5c-0.7,0.5-1.6,0.8-2.8,0.8c-1.3,0-2.2-0.3-2.7-0.8
				c-0.5-0.5-0.8-1.3-0.8-2.3v-0.4h2.2V27.1"/>
			<path id="Fill-92" sketch:type="MSShapeGroup" fill="#FFFFFF" d="M45.7,22.4c0.1-0.7,0.2-1.3,0.5-1.8c0.3-0.5,0.6-0.9,1.1-1.2
				c0.5-0.3,1.2-0.4,2-0.4s1.5,0.1,2,0.4c0.5,0.3,0.9,0.7,1.1,1.2c0.3,0.5,0.4,1.1,0.5,1.8c0.1,0.7,0.1,1.5,0.1,2.3
				c0,0.8,0,1.6-0.1,2.3c-0.1,0.7-0.2,1.3-0.5,1.8c-0.3,0.5-0.6,0.9-1.1,1.2c-0.5,0.3-1.2,0.4-2,0.4s-1.5-0.1-2-0.4
				c-0.5-0.3-0.9-0.7-1.1-1.2c-0.3-0.5-0.4-1.1-0.5-1.8c-0.1-0.7-0.1-1.5-0.1-2.3C45.6,23.9,45.6,23.1,45.7,22.4L45.7,22.4z
				 M47.8,26.6c0,0.5,0.1,0.9,0.2,1.3c0.1,0.3,0.3,0.6,0.5,0.7c0.2,0.1,0.5,0.2,0.8,0.2s0.6-0.1,0.8-0.2c0.2-0.2,0.4-0.4,0.5-0.7
				c0.1-0.3,0.2-0.7,0.2-1.3c0-0.5,0.1-1.2,0.1-1.9c0-0.7,0-1.4-0.1-1.9c0-0.5-0.1-0.9-0.2-1.3c-0.1-0.3-0.3-0.6-0.5-0.7
				c-0.2-0.1-0.5-0.2-0.8-0.2s-0.6,0.1-0.8,0.2c-0.2,0.2-0.4,0.4-0.5,0.7c-0.1,0.3-0.2,0.8-0.2,1.3c0,0.5-0.1,1.1-0.1,1.9
				C47.8,25.4,47.8,26.1,47.8,26.6L47.8,26.6z"/>
			<path id="Fill-93" sketch:type="MSShapeGroup" fill="#FFFFFF" d="M54.4,19.2h2.2v9.2h3.9v1.8h-6.2V19.2"/>
			<path id="Fill-94" sketch:type="MSShapeGroup" fill="#FFFFFF" d="M65.3,19.2c0.8,0,1.4,0.1,1.9,0.4c0.5,0.3,0.8,0.6,1.1,1.1
				c0.3,0.5,0.4,1,0.5,1.7c0.1,0.7,0.1,1.4,0.1,2.2c0,1-0.1,1.8-0.2,2.5c-0.1,0.7-0.3,1.3-0.6,1.8c-0.3,0.5-0.7,0.8-1.2,1
				c-0.5,0.2-1.1,0.3-1.8,0.3h-3.5v-11H65.3L65.3,19.2z M64.8,28.6c0.4,0,0.7-0.1,0.9-0.2c0.2-0.1,0.4-0.4,0.6-0.7s0.2-0.7,0.3-1.2
				c0-0.5,0.1-1.1,0.1-1.9c0-0.6,0-1.2-0.1-1.7c0-0.5-0.1-0.9-0.3-1.2c-0.1-0.3-0.3-0.6-0.6-0.7c-0.3-0.2-0.6-0.2-1-0.2h-0.9v7.8
				H64.8L64.8,28.6z"/>
			<path id="Fill-95" sketch:type="MSShapeGroup" fill="#727373" d="M106.6,49.4H106l-1.1,0.8l-0.1,0.2l0,0.3l0.2,0.2l0.5-0.1l0,3
				c0,0.1,0.1,0.2,0.3,0.2h0.6c0.1,0,0.3-0.1,0.3-0.3l0-4.2C106.8,49.5,106.7,49.4,106.6,49.4"/>
			<path id="Fill-96" sketch:type="MSShapeGroup" fill="#727373" d="M108.3,52.9c-0.2,0-0.4,0.1-0.5,0.2c-0.1,0.1-0.2,0.3-0.2,0.5
				c0,0.4,0.3,0.7,0.7,0.7c0.2,0,0.4-0.1,0.5-0.2c0.1-0.1,0.2-0.3,0.2-0.4C109,53.2,108.7,52.9,108.3,52.9"/>
			<path id="Fill-97" sketch:type="MSShapeGroup" fill="#727373" d="M112.4,49.4h-3l-0.2,0.1l-0.1,0.2l0,0.5c0,0.1,0.1,0.2,0.3,0.2
				h1.7l-1.7,3.4l0,0l0,0.1c0,0.1,0,0.2,0.3,0.2h0.5c0.2,0,0.3-0.1,0.4-0.2l2-4.1l0,0l0-0.1C112.7,49.5,112.6,49.4,112.4,49.4"/>
			<path id="Fill-98" sketch:type="MSShapeGroup" fill="#727373" d="M114.4,49.3c-0.5,0-0.9,0.2-1.3,0.5c-0.3,0.3-0.4,0.7-0.4,1.1
				c0,1,0.9,1.5,1.7,1.5c0.2,0,0.4,0,0.6-0.1c-0.3,0.5-1.1,0.8-1.4,0.9l-0.2,0.2l0,0.2l0.2,0.4l0.3,0.2l0.1,0c0.4-0.1,2.5-0.9,2.4-3
				C116.3,50.3,115.7,49.3,114.4,49.3L114.4,49.3z M114.5,51.6c-0.4,0-0.7-0.3-0.8-0.7c0-0.2,0-0.3,0.2-0.4c0.1-0.1,0.3-0.2,0.5-0.2
				c0.5,0,0.7,0.4,0.8,0.8C115.2,51.3,115,51.6,114.5,51.6L114.5,51.6z"/>
			<path id="Fill-99" sketch:type="MSShapeGroup" fill="#727373" d="M122.8,49.3h-0.7l-0.2,0.1l-0.1,0.2l0.3,2.4l-3.1-2.7h-0.2
				l-0.2,0.1l-0.1,0.2l0.4,4.4c0,0.1,0.1,0.2,0.3,0.2h0.7l0.2-0.1l0.1-0.2l-0.2-2.5l3.1,2.8l0,0h0.2l0.2-0.1l0.1-0.2l-0.5-4.4
				C123,49.4,122.9,49.3,122.8,49.3"/>
			<path id="Fill-100" sketch:type="MSShapeGroup" fill="#727373" d="M127.3,51.6c0.3-0.2,0.6-0.6,0.5-1c-0.1-0.8-0.9-1.3-1.8-1.3
				h-1.6l-0.2,0.1l-0.1,0.2l0.5,4.4c0,0.1,0.1,0.2,0.3,0.2h1.8c0.5,0,1-0.2,1.3-0.5c0.2-0.3,0.3-0.6,0.3-0.9
				C128.2,52.2,127.7,51.8,127.3,51.6L127.3,51.6z M126.3,52.2c0.3,0,0.7,0.2,0.7,0.5l-0.1,0.3c-0.1,0.1-0.2,0.2-0.4,0.2h-0.8
				l-0.1-0.9H126.3L126.3,52.2z M126.2,51.2h-0.7l-0.1-0.9h0.6c0.3,0,0.5,0.2,0.6,0.5l-0.1,0.3C126.4,51.2,126.3,51.2,126.2,51.2
				L126.2,51.2z"/>
			<path id="Fill-101" sketch:type="MSShapeGroup" fill="#727373" d="M131.6,49.5c0-0.1-0.1-0.2-0.3-0.2h-3.1l-0.2,0.1l-0.1,0.2
				l0.1,0.5c0,0.1,0.1,0.2,0.3,0.2h1l0.5,3.6c0,0.1,0.1,0.2,0.3,0.2h0.7L131,54l0.1-0.2l-0.6-3.6h1l0.2-0.1l0.1-0.2l0,0L131.6,49.5"
				/>
			<path id="Fill-102" sketch:type="MSShapeGroup" fill="#727373" d="M131.7,50L131.7,50L131.7,50L131.7,50"/>
		</g>
	</g>
</g>
</svg>
