<?xml version="1.0" encoding="UTF-8" standalone="no"?>
<svg width="360px" height="240px" viewBox="0 0 360 240" version="1.1" xmlns="http://www.w3.org/2000/svg" xmlns:xlink="http://www.w3.org/1999/xlink" xmlns:sketch="http://www.bohemiancoding.com/sketch/ns">
    <!-- Generator: Sketch 3.0.4 (8054) - http://www.bohemiancoding.com/sketch -->
    <title>illustration-get 2</title>
    <desc>Created with Sketch.</desc>
    <defs></defs>
    <g id="Page-1" stroke="none" stroke-width="1" fill="none" fill-rule="evenodd" sketch:type="MSPage">
        <g id="Imported-Layers" sketch:type="MSLayerGroup" transform="translate(46.000000, 6.000000)">
            <path d="M179.8,20.5 L135.1,14.4 L135.4,15.1 L131.1,9.3 L184.9,16.4 L179.7,70.6 L174.5,71.9 L179.8,20.5" id="Fill-1" fill="#95C066" sketch:type="MSShapeGroup"></path>
            <path d="M142,56 C139.6,55.7 137.2,55.7 135,55.9 L146.8,33.4 L148.4,32.5 L137.2,17.5 L165.7,21.7 L164.8,33 L175.2,34.8 L171.9,72.5 L165.3,74.1 C165.6,65.5 155.4,57.5 142,56" id="Fill-2" fill="#95C066" sketch:type="MSShapeGroup"></path>
            <path d="M110.3,53 L106.6,88.7 L100.5,90.2 L103.3,56.6 L111,52.5 L110.3,53" id="Fill-3" fill="#95C066" sketch:type="MSShapeGroup"></path>
            <path d="M113,51.4 L109.6,88 L109.5,88 L113,51.4" id="Fill-4" fill="#95C066" sketch:type="MSShapeGroup"></path>
            <path d="M121.3,81.9 L135,55.9 C137.3,55.7 139.6,55.8 142,56 C155.4,57.5 165.6,65.5 165.3,74.2 L124.7,84.2 C123.4,83.5 122.3,82.8 121.3,81.9" id="Fill-5" fill="#13955C" sketch:type="MSShapeGroup"></path>
            <path d="M164.8,33 L165.7,21.6 L137.2,17.4 L135.4,15.1 L135.1,14.4 L179.8,20.5 L174.5,71.9 L171.9,72.5 L175.2,34.8 L164.8,33" id="Fill-6" fill="#13955C" sketch:type="MSShapeGroup"></path>
            <path d="M110.3,53 L111,52.4 L113,51.4 L109.5,88 L106.6,88.7 L110.3,53" id="Fill-7" fill="#13955C" sketch:type="MSShapeGroup"></path>
            <path d="M113,51.4 L146.8,33.4 L119.4,85.6 L109.6,88 L113,51.4" id="Fill-8" fill="#95C066" sketch:type="MSShapeGroup"></path>
            <path d="M113,51.4 L113,50.9 L113,51.4" id="Fill-9" fill="#CCE1BA" sketch:type="MSShapeGroup"></path>
            <path d="M136.3,17.3 L137.2,17.4 L148.4,32.4 L146.8,33.3 L113.1,50.9 L111.1,52.4 L103.4,56.5 L131.2,9.3 L135.5,15.1 L136.3,17.3" id="Fill-10" fill="#95C066" sketch:type="MSShapeGroup"></path>
            <path d="M136.3,17.3 L135.4,15.1 L137.2,17.4 L136.3,17.3" id="Fill-11" fill="#13955C" sketch:type="MSShapeGroup"></path>
            <path d="M111.1,52.4 L113.1,50.9 L113.1,51.4 L111.1,52.4" id="Fill-12" fill="#CCE1BA" sketch:type="MSShapeGroup"></path>
            <path d="M115.1,69.5 C115.9,62.1 124.3,56.7 135,55.8 C137.3,55.6 139.6,55.7 142,55.9 C155.4,57.4 165.6,65.4 165.3,74.1 L124.7,84.1 C123.5,83.4 122.3,82.6 121.3,81.8 C117,78.5 114.6,74 115.1,69.5" id="Fill-13" fill="#13955C" sketch:type="MSShapeGroup"></path>
            <path d="M268.7,214 C268.7,222.7 208.5,229.7 134.2,229.7 C59.9,229.7 -0.3,222.7 -0.3,214 C-0.3,205.3 59.9,198.3 134.2,198.3 C208.5,198.3 268.7,205.4 268.7,214" id="Fill-14" fill="#E5E5E5" sketch:type="MSShapeGroup"></path>
            <path d="M70.6,202.3 C70.6,202.9 70.1,203.3 69.6,203.3 L35.1,203.3 C34.5,203.3 34.1,202.8 34.1,202.3 L34.1,196.2 L70.6,196.2 L70.6,202.3" id="Fill-15" fill="#FFE168" sketch:type="MSShapeGroup"></path>
            <path d="M35.1,194.4 L69.6,194.4 C70.2,194.4 70.6,194.9 70.6,195.4 L70.6,196.1 L34,196.1 L34,195.4 C34,194.9 34.5,194.4 35.1,194.4" id="Fill-16" fill="#FBCB43" sketch:type="MSShapeGroup"></path>
            <path d="M66.8,177 C66.8,177.6 66.3,178 65.8,178 L31.3,178 C30.7,178 30.3,177.5 30.3,177 L30.3,170.9 L66.8,170.9 L66.8,177" id="Fill-17" fill="#FFE168" sketch:type="MSShapeGroup"></path>
            <path d="M31.3,169.2 L65.8,169.2 C66.4,169.2 66.8,169.7 66.8,170.2 L66.8,170.9 L30.3,170.9 L30.3,170.2 C30.3,169.7 30.7,169.2 31.3,169.2" id="Fill-18" fill="#FBCB43" sketch:type="MSShapeGroup"></path>
            <path d="M72.3,168.2 C72.3,168.8 71.8,169.2 71.3,169.2 L36.8,169.2 C36.2,169.2 35.8,168.7 35.8,168.2 L35.8,162 L72.3,162 L72.3,168.2" id="Fill-19" fill="#FFE168" sketch:type="MSShapeGroup"></path>
            <path d="M36.8,160.3 L71.3,160.3 C71.9,160.3 72.3,160.8 72.3,161.3 L72.3,162 L35.7,162 L35.7,161.3 C35.7,160.8 36.2,160.3 36.8,160.3" id="Fill-20" fill="#FBCB43" sketch:type="MSShapeGroup"></path>
            <path d="M66.8,194.1 C66.8,194.7 66.3,195.1 65.8,195.1 L31.3,195.1 C30.7,195.1 30.3,194.6 30.3,194.1 L30.3,188 L66.8,188 L66.8,194.1" id="Fill-21" fill="#FFE168" sketch:type="MSShapeGroup"></path>
            <path d="M31.3,186.2 L65.8,186.2 C66.4,186.2 66.8,186.7 66.8,187.2 L66.8,187.9 L30.3,187.9 L30.3,187.2 C30.3,186.7 30.7,186.2 31.3,186.2" id="Fill-22" fill="#FBCB43" sketch:type="MSShapeGroup"></path>
            <path d="M68.5,185.9 C68.5,186.5 68,186.9 67.5,186.9 L33,186.9 C32.4,186.9 32,186.4 32,185.9 L32,179.8 L68.5,179.8 L68.5,185.9" id="Fill-23" fill="#FFE168" sketch:type="MSShapeGroup"></path>
            <path d="M33,178.1 L67.5,178.1 C68.1,178.1 68.5,178.6 68.5,179.1 L68.5,179.8 L32,179.8 L32,179.1 C32,178.5 32.4,178.1 33,178.1" id="Fill-24" fill="#FBCB43" sketch:type="MSShapeGroup"></path>
            <path d="M34,202.3 C34,202.3 32,203.3 35,203.3 L35,203.3 C34.5,203.3 34,202.8 34,202.3 M34.1,195.1 L33.1,195.1 L34,195.4 C34,195.3 34.1,195.2 34.1,195.1 M30.3,187.3 L30.3,187.3 C29.6,188 30.3,194.1 30.3,194.1 L30.3,188 L55,188 L30.3,188 L30.3,187.3 M32,185.9 C32,185.9 31.8,186 31.5,186.2 L32,186.2 L32,185.9 M30.3,177 L30.3,178 L31.3,178 C30.7,178.1 30.3,177.6 30.3,177 M35.7,168.2 L35.7,169.2 L30.2,169.2 L30.2,170.2 C30.2,169.6 30.7,169.2 31.2,169.2 L48.3,169.2 L36.8,169.2 C36.2,169.2 35.8,168.8 35.7,168.2" id="Fill-25" fill="#E3E3E3" sketch:type="MSShapeGroup"></path>
            <path d="M57.9,196.1 L34,196.1 L34,202.2 C34,202.8 34.5,203.2 35,203.2 L57.9,203.2 L60.3,202.9 L57.9,196.1" id="Fill-26" fill="#E3C85D" sketch:type="MSShapeGroup"></path>
            <path d="M57.6,195.1 L34.1,195.1 C34.1,195.2 34,195.3 34,195.4 L34,196.1 L57.9,196.1 L57.6,195.1" id="Fill-27" fill="#DFB53C" sketch:type="MSShapeGroup"></path>
            <path d="M49,170.9 L30.3,170.9 L30.3,177 C30.3,177.6 30.8,178 31.3,178 L32.9,178 L33,178 L51.5,178 L49,170.9" id="Fill-28" fill="#E3C85D" sketch:type="MSShapeGroup"></path>
            <path d="M48.4,169.2 L31.3,169.2 C30.7,169.2 30.3,169.7 30.3,170.2 L30.3,170.9 L49,170.9 L48.4,169.2" id="Fill-29" fill="#DFB53C" sketch:type="MSShapeGroup"></path>
            <path d="M45.9,162 L35.9,162 C35.8,162.5 35.7,163 35.7,163.7 L35.7,168.2 C35.7,168.7 36.2,169.2 36.7,169.2 L48.4,169.2 L45.9,162" id="Fill-30" fill="#E3C85D" sketch:type="MSShapeGroup"></path>
            <path d="M45.3,160.3 L36.8,160.3 C36.8,160.3 36.3,160.8 36,162 L46,162 L45.3,160.3" id="Fill-31" fill="#DFB53C" sketch:type="MSShapeGroup"></path>
            <path d="M55,187.9 L30.3,187.9 L30.3,194 L33.1,195 L57.6,195 L55,187.9" id="Fill-32" fill="#E3C85D" sketch:type="MSShapeGroup"></path>
            <path d="M32,186.2 L31.5,186.2 C31.1,186.5 30.7,186.8 30.3,187.2 L30.3,187.9 L55,187.9 L54.6,186.9 L33,186.9 C32.6,186.9 32.2,186.6 32,186.2" id="Fill-33" fill="#DFB53C" sketch:type="MSShapeGroup"></path>
            <path d="M52.2,179.8 L33,179.8 L33,185.9 L32,185.9 C32,186 32,186.1 32.1,186.2 C32.2,186.6 32.6,186.9 33.1,186.9 L54.8,186.9 L52.2,179.8" id="Fill-34" fill="#E3C85D" sketch:type="MSShapeGroup"></path>
            <path d="M51.6,178.1 L33,178.1 C33,178.1 33,178.1 32.9,178.1 L33,178.1 L33,179.8 L52.1,179.8 L51.6,178.1" id="Fill-35" fill="#DFB53C" sketch:type="MSShapeGroup"></path>
            <path d="M61.2,91 C61.5,89.2 61.8,87.4 62.3,86.7 C62.3,86.6 61.7,86.4 61.2,91" id="Fill-36" fill="#936A5D" sketch:type="MSShapeGroup"></path>
            <path d="M136.9,215.5 L135,210.3 L60.7,210.3 L60.7,215.7 L185.6,215.7 C185.6,215.7 187.5,215.9 189.9,215.5 L136.9,215.5" id="Fill-37" fill="#AB948C" sketch:type="MSShapeGroup"></path>
            <path d="M60.7,95.3 L60.7,104.5 C60.7,97.8 60.9,93.6 61.2,90.9 C60.9,93.1 60.7,95.3 60.7,95.3" id="Fill-38" fill="#825646" sketch:type="MSShapeGroup"></path>
            <path d="M142,86.1 L148.5,86.1 L145.2,82.4 C144.3,83.7 143.2,84.9 142,86.1" id="Fill-39" fill="#95C066" sketch:type="MSShapeGroup"></path>
            <path d="M89.1,84.6 L129,82 C106,82 85.5,82 79.7,82.2 C64.5,82.7 62.3,86.5 62.3,86.5 L89.8,86.5 L89.1,84.6" id="Fill-40" fill="#5C3C33" sketch:type="MSShapeGroup"></path>
            <path d="M89.8,86.6 L182.8,86.6 C198.5,86.6 199.1,101.8 199.1,101.8 C199.1,101.8 197.5,194.5 197.5,205.9 C197.5,207.6 197.2,209.1 196.7,210.2 L198,210.2 L211,210.2 C224,210.2 222.4,199.4 222.4,199.4 L222.4,95.3 C222.4,81.7 210.5,82.3 210.5,82.3 C210.5,82.3 166.3,82.1 129,82 L89.2,84.6 L89.8,86.6" id="Fill-41" fill="#AB948C" sketch:type="MSShapeGroup"></path>
            <path d="M60.7,104.5 C60.7,97.8 60.9,93.6 61.2,90.9 C61.5,89.1 61.8,87.3 62.3,86.6 L89.8,86.6 L90.1,87 C124.4,84.9 172.6,86.6 182.8,86.6 C198.5,86.6 199.1,101.8 199.1,101.8 C199.1,101.8 199.8,194.6 199.8,205.9 C199.8,207.6 197.2,209 196.7,210.2 C195.3,213.6 192.3,215 189.8,215.4 L136.9,215.4 L135.8,212.3 L132.8,212.4 L132,212.1 L60.7,212.1 L60.7,104.5" id="Fill-42" fill="#AB948C" sketch:type="MSShapeGroup"></path>
            <path d="M210.7,82.3 L210.5,82.3 L210.7,82.3" id="Fill-43" fill="#E3E3E3" sketch:type="MSShapeGroup"></path>
            <path d="M166.4,82.1 L167.8,86.1 L155.5,86.1 L152.2,82.4 C151.3,83.6 150.2,84.9 149,86 C165,86.2 178.1,86.5 182.8,86.5 C198.5,86.5 199.1,101.7 199.1,101.7 C199.1,101.7 199.4,138.4 199.6,168.4 L222.4,168.4 L222.4,95.3 C222.4,82.8 212.2,82.3 210.7,82.3 L210.5,82.3 C210.5,82.3 192.6,82.2 169.9,82.1 L171.3,86.1 L167.8,86.1 L166.4,82.1" id="Fill-44" fill="#98847D" sketch:type="MSShapeGroup"></path>
            <path d="M98.5,86.6 L89.8,86.6 L90.1,87 C92.8,86.9 95.7,86.7 98.5,86.6" id="Fill-45" fill="#E3E3E3" sketch:type="MSShapeGroup"></path>
            <path d="M89.8,84.6 L89.1,84.6 L89.8,86.6 L89.1,84.6 L89.8,84.6" id="Fill-46" fill="#52352D" sketch:type="MSShapeGroup"></path>
            <path d="M98.1,84 L98.1,84 C98.2,84.7 98.3,85.4 98.5,86.1 L90.3,86.1 L89.8,84.6 L89.1,84.6 L89.8,86.6 L98.5,86.6 C104,86.4 109.8,86.2 115.6,86.1 L98.6,86.1 C98.4,85.4 98.2,84.7 98.1,84" id="Fill-47" fill="#98847D" sketch:type="MSShapeGroup"></path>
            <path d="M135.8,212.4 L135.8,212.4 L136.9,215.5 L135.8,212.4" id="Fill-48" fill="#CCCCCC" sketch:type="MSShapeGroup"></path>
            <path d="M135.8,212.4 L135.8,212.4 L136.9,215.5 L135.8,212.4" id="Fill-49" fill="#98847D" sketch:type="MSShapeGroup"></path>
            <path d="M149,86.1 L149,86.1 L115.6,86.1 C109.8,86.2 104.1,86.2 98.5,86.4 C95.6,86.5 92.9,86.2 90.1,86.4 L89.8,86.5 L135.7,212.3 L136.8,215.4 L185.1,215.4 L185.1,212.4 L195.3,212.4 L185.1,212.4 L185.1,211.6 C185.1,210.9 185.7,210.3 186.4,210.3 L189.8,210.3 C189.8,210.2 189.7,210 189.7,209.9 L189.7,202.4 L199.7,202.4 L189.7,202.4 L189.7,201.6 C189.7,201.5 189.7,201.3 189.8,201.2 L188.9,201.2 C188.2,201.2 187.6,200.6 187.6,199.9 L187.6,192.4 L199.7,192.4 L187.6,192.4 L187.6,191.6 C187.6,190.9 188.2,190.3 188.9,190.3 L190.9,190.3 C190.2,190.3 189.7,189.7 189.7,189 L189.7,181.5 L199.6,181.5 L189.7,181.5 L189.7,180.7 C189.7,180 190.3,179.4 191,179.4 L199.7,179.4 L184.3,179.4 C183.6,179.4 183,178.8 183,178.1 L183,170.6 L199.6,170.6 L183,170.6 L183,169.8 C183,169.1 183.6,168.5 184.3,168.5 L199.6,168.5 C199.4,138.4 199.1,101.8 199.1,101.8 C199.1,101.8 198.6,86.6 182.8,86.6 C178.1,86.6 165,86.3 149,86.1" id="Fill-50" fill="#98847D" sketch:type="MSShapeGroup"></path>
            <path d="M199.1,101.8 C199.1,101.8 198,93.1 186.1,93.1 L60.7,93.1 C60.7,93.1 59.6,90.4 68.3,90.4 L186.1,90.4 C186.1,90.4 198.1,90.9 199.1,101.8" id="Fill-51" fill="#795548" sketch:type="MSShapeGroup"></path>
            <path d="M230.1,136.6 C229.1,136.2 228,136 226.8,136 L174.1,136 C169.3,136 165.4,139.9 165.4,144.7 L165.4,155 C165.4,159.8 169.3,163.7 174.1,163.7 L226.8,163.7 C228,163.7 229,163.5 230.1,163.1 L230.1,136.6" id="Fill-52" fill="#AB948C" sketch:type="MSShapeGroup"></path>
            <path d="M166,158.2 C166,158.2 162.7,170.7 183.9,169 C205.1,167.4 230,162.9 230,162.9 L174.1,163.5 C174.2,163.6 169.3,163.6 166,158.2" id="Fill-53" fill="#795548" sketch:type="MSShapeGroup"></path>
            <path d="M187.2,150.6 C187.2,146.3 183.7,142.7 179.3,142.7 C177.6,142.7 176,143.3 174.7,144.2 L183.9,156.9 C185.9,155.5 187.2,153.2 187.2,150.6" id="Fill-54" fill="#808080" sketch:type="MSShapeGroup"></path>
            <path d="M171.5,150.6 C171.5,154.9 175,158.5 179.4,158.5 C181.2,158.5 182.8,157.9 184.1,156.9 L174.9,144.2 C172.8,145.6 171.5,148 171.5,150.6" id="Fill-55" fill="#434A4D" sketch:type="MSShapeGroup"></path>
            <path d="M82.2,97.9 C82.2,98.4 81.8,98.7 81.4,98.7 L66.6,98.7 C66.2,98.7 65.8,98.3 65.8,97.9 C65.8,97.4 66.2,97.1 66.6,97.1 L81.4,97.1 C81.8,97.1 82.2,97.5 82.2,97.9" id="Fill-56" fill="#795548" sketch:type="MSShapeGroup"></path>
            <path d="M102.3,97.9 C102.3,98.4 101.9,98.7 101.5,98.7 L86.7,98.7 C86.3,98.7 85.9,98.3 85.9,97.9 C85.9,97.4 86.3,97.1 86.7,97.1 L101.5,97.1 C101.9,97.1 102.3,97.5 102.3,97.9" id="Fill-57" fill="#795548" sketch:type="MSShapeGroup"></path>
            <path d="M122.4,97.9 C122.4,98.4 122,98.7 121.6,98.7 L106.8,98.7 C106.4,98.7 106,98.3 106,97.9 C106,97.4 106.4,97.1 106.8,97.1 L121.6,97.1 C122,97.1 122.4,97.5 122.4,97.9" id="Fill-58" fill="#795548" sketch:type="MSShapeGroup"></path>
            <path d="M142.5,97.9 C142.5,98.4 142.1,98.7 141.7,98.7 L126.9,98.7 C126.4,98.7 126.1,98.3 126.1,97.9 C126.1,97.4 126.5,97.1 126.9,97.1 L141.7,97.1 C142.1,97.1 142.5,97.5 142.5,97.9" id="Fill-59" fill="#795548" sketch:type="MSShapeGroup"></path>
            <path d="M162.6,97.9 C162.6,98.4 162.2,98.7 161.8,98.7 L147,98.7 C146.6,98.7 146.2,98.3 146.2,97.9 C146.2,97.4 146.6,97.1 147,97.1 L161.8,97.1 C162.2,97.1 162.6,97.5 162.6,97.9" id="Fill-60" fill="#795548" sketch:type="MSShapeGroup"></path>
            <path d="M182.7,97.9 C182.7,98.4 182.3,98.7 181.9,98.7 L167.1,98.7 C166.7,98.7 166.3,98.3 166.3,97.9 C166.3,97.4 166.7,97.1 167.1,97.1 L181.9,97.1 C182.3,97.1 182.7,97.5 182.7,97.9" id="Fill-61" fill="#795548" sketch:type="MSShapeGroup"></path>
            <path d="M66.2,116.1 C65.7,116.1 65.4,115.8 65.4,115.4 L65.4,102.8 C65.4,102.4 65.8,102.1 66.2,102.1 C66.7,102.1 67,102.4 67,102.8 L67,115.4 C67.1,115.8 66.7,116.1 66.2,116.1" id="Fill-62" fill="#795548" sketch:type="MSShapeGroup"></path>
            <path d="M66.2,133.2 C65.7,133.2 65.4,132.9 65.4,132.5 L65.4,120 C65.4,119.6 65.8,119.3 66.2,119.3 C66.7,119.3 67,119.6 67,120 L67,132.6 C67.1,132.9 66.7,133.2 66.2,133.2" id="Fill-63" fill="#795548" sketch:type="MSShapeGroup"></path>
            <path d="M66.2,150.3 C65.7,150.3 65.4,150 65.4,149.6 L65.4,137 C65.4,136.6 65.8,136.3 66.2,136.3 C66.7,136.3 67,136.6 67,137 L67,149.6 C67.1,150 66.7,150.3 66.2,150.3" id="Fill-64" fill="#795548" sketch:type="MSShapeGroup"></path>
            <path d="M66.2,167.4 C65.7,167.4 65.4,167.1 65.4,166.7 L65.4,154.1 C65.4,153.7 65.8,153.4 66.2,153.4 C66.7,153.4 67,153.7 67,154.1 L67,166.7 C67.1,167.1 66.7,167.4 66.2,167.4" id="Fill-65" fill="#795548" sketch:type="MSShapeGroup"></path>
            <path d="M66.2,184.5 C65.7,184.5 65.4,184.2 65.4,183.8 L65.4,171.2 C65.4,170.8 65.8,170.5 66.2,170.5 C66.7,170.5 67,170.8 67,171.2 L67,183.8 C67.1,184.2 66.7,184.5 66.2,184.5" id="Fill-66" fill="#795548" sketch:type="MSShapeGroup"></path>
            <path d="M66.2,201.6 C65.7,201.6 65.4,201.3 65.4,200.9 L65.4,188.3 C65.4,187.9 65.8,187.6 66.2,187.6 C66.7,187.6 67,187.9 67,188.3 L67,200.9 C67.1,201.3 66.7,201.6 66.2,201.6" id="Fill-67" fill="#795548" sketch:type="MSShapeGroup"></path>
            <path d="M222.8,139.2 C222.8,138.9 223,138.6 223.2,138.6 L229.8,138.6 C230,138.6 230.2,138.9 230.2,139.2 C230.2,139.5 230,139.8 229.8,139.8 L223.2,139.8 C223,139.8 222.8,139.6 222.8,139.2" id="Fill-68" fill="#795548" sketch:type="MSShapeGroup"></path>
            <path d="M213.9,139.2 C213.9,138.9 214.1,138.6 214.3,138.6 L220.9,138.6 C221.1,138.6 221.3,138.9 221.3,139.2 C221.3,139.5 221.1,139.8 220.9,139.8 L214.3,139.8 C214,139.8 213.9,139.6 213.9,139.2" id="Fill-69" fill="#795548" sketch:type="MSShapeGroup"></path>
            <path d="M204.9,139.2 C204.9,138.9 205.1,138.6 205.3,138.6 L211.9,138.6 C212.1,138.6 212.3,138.9 212.3,139.2 C212.3,139.5 212.1,139.8 211.9,139.8 L205.3,139.8 C205.1,139.8 204.9,139.6 204.9,139.2" id="Fill-70" fill="#795548" sketch:type="MSShapeGroup"></path>
            <path d="M196,139.2 C196,138.9 196.2,138.6 196.4,138.6 L203,138.6 C203.2,138.6 203.4,138.9 203.4,139.2 C203.4,139.5 203.2,139.8 203,139.8 L196.4,139.8 C196.1,139.8 196,139.6 196,139.2" id="Fill-71" fill="#795548" sketch:type="MSShapeGroup"></path>
            <path d="M187,139.2 C187,138.9 187.2,138.6 187.4,138.6 L194,138.6 C194.2,138.6 194.4,138.9 194.4,139.2 C194.4,139.5 194.2,139.8 194,139.8 L187.4,139.8 C187.2,139.8 187,139.6 187,139.2" id="Fill-72" fill="#795548" sketch:type="MSShapeGroup"></path>
            <path d="M222.8,160.3 C222.8,160 223,159.7 223.2,159.7 L229.8,159.7 C230,159.7 230.2,160 230.2,160.3 C230.2,160.6 230,160.9 229.8,160.9 L223.2,160.9 C223,160.9 222.8,160.6 222.8,160.3" id="Fill-73" fill="#795548" sketch:type="MSShapeGroup"></path>
            <path d="M213.9,160.3 C213.9,160 214.1,159.7 214.3,159.7 L220.9,159.7 C221.1,159.7 221.3,160 221.3,160.3 C221.3,160.6 221.1,160.9 220.9,160.9 L214.3,160.9 C214,160.9 213.9,160.6 213.9,160.3" id="Fill-74" fill="#795548" sketch:type="MSShapeGroup"></path>
            <path d="M204.9,160.3 C204.9,160 205.1,159.7 205.3,159.7 L211.9,159.7 C212.1,159.7 212.3,160 212.3,160.3 C212.3,160.6 212.1,160.9 211.9,160.9 L205.3,160.9 C205.1,160.9 204.9,160.6 204.9,160.3" id="Fill-75" fill="#795548" sketch:type="MSShapeGroup"></path>
            <path d="M196,160.3 C196,160 196.2,159.7 196.4,159.7 L203,159.7 C203.2,159.7 203.4,160 203.4,160.3 C203.4,160.6 203.2,160.9 203,160.9 L196.4,160.9 C196.1,160.9 196,160.6 196,160.3" id="Fill-76" fill="#795548" sketch:type="MSShapeGroup"></path>
            <path d="M187,160.3 C187,160 187.2,159.7 187.4,159.7 L194,159.7 C194.2,159.7 194.4,160 194.4,160.3 C194.4,160.6 194.2,160.9 194,160.9 L187.4,160.9 C187.2,160.9 187,160.6 187,160.3" id="Fill-77" fill="#795548" sketch:type="MSShapeGroup"></path>
            <path d="M82.2,205.8 C82.2,206.3 81.8,206.6 81.4,206.6 L66.6,206.6 C66.2,206.6 65.8,206.2 65.8,205.8 C65.8,205.3 66.2,205 66.6,205 L81.4,205 C81.8,205 82.2,205.4 82.2,205.8" id="Fill-78" fill="#795548" sketch:type="MSShapeGroup"></path>
            <path d="M102.3,205.8 C102.3,206.3 101.9,206.6 101.5,206.6 L86.7,206.6 C86.3,206.6 85.9,206.2 85.9,205.8 C85.9,205.3 86.3,205 86.7,205 L101.5,205 C101.9,205 102.3,205.4 102.3,205.8" id="Fill-79" fill="#795548" sketch:type="MSShapeGroup"></path>
            <path d="M122.4,205.8 C122.4,206.3 122,206.6 121.6,206.6 L106.8,206.6 C106.4,206.6 106,206.2 106,205.8 C106,205.3 106.4,205 106.8,205 L121.6,205 C122,205 122.4,205.4 122.4,205.8" id="Fill-80" fill="#795548" sketch:type="MSShapeGroup"></path>
            <path d="M142.5,205.8 C142.5,206.3 142.1,206.6 141.7,206.6 L126.9,206.6 C126.4,206.6 126.1,206.2 126.1,205.8 C126.1,205.3 126.5,205 126.9,205 L141.7,205 C142.1,205 142.5,205.4 142.5,205.8" id="Fill-81" fill="#795548" sketch:type="MSShapeGroup"></path>
            <path d="M162.6,205.8 C162.6,206.3 162.2,206.6 161.8,206.6 L147,206.6 C146.6,206.6 146.2,206.2 146.2,205.8 C146.2,205.3 146.6,205 147,205 L161.8,205 C162.2,205 162.6,205.4 162.6,205.8" id="Fill-82" fill="#795548" sketch:type="MSShapeGroup"></path>
            <path d="M182.7,205.8 C182.7,206.3 182.3,206.6 181.9,206.6 L167.1,206.6 C166.7,206.6 166.3,206.2 166.3,205.8 C166.3,205.3 166.7,205 167.1,205 L181.9,205 C182.3,205 182.7,205.4 182.7,205.8" id="Fill-83" fill="#795548" sketch:type="MSShapeGroup"></path>
            <path d="M66,27.5 L116.5,7.4 L116.4,8.3 L119.8,0.3 L58.9,24.3 L80.6,86.1 L87,86.1 L66,27.5" id="Fill-84" fill="#95C066" sketch:type="MSShapeGroup"></path>
            <path d="M120.5,58.1 C123.2,57.1 126,56.4 128.7,55.9 L108.4,33 L106.2,32.4 L115,11.6 L82.8,24.8 L87.1,37.8 L75.5,43 L90.3,86.1 L98.5,86.1 C95.7,76.1 105.3,63.7 120.5,58.1" id="Fill-85" fill="#95C066" sketch:type="MSShapeGroup"></path>
            <path d="M156.7,45.4 L171.4,86.1 L178.9,86.1 L165.9,47.6 L155.6,45 L156.7,45.4" id="Fill-86" fill="#95C066" sketch:type="MSShapeGroup"></path>
            <path d="M153.1,44.3 L167.7,86.1 L167.8,86.1 L153.1,44.3" id="Fill-87" fill="#95C066" sketch:type="MSShapeGroup"></path>
            <path d="M152.2,82.5 L128.7,56 C126,56.5 123.3,57.2 120.5,58.2 C105.2,63.8 95.7,76.2 98.5,86.3 L149,86.3 C150.2,84.9 151.3,83.7 152.2,82.5" id="Fill-88" fill="#13955C" sketch:type="MSShapeGroup"></path>
            <path d="M87.2,37.8 L82.9,24.8 L115,11.7 L116.4,8.5 L116.5,7.6 L66,27.5 L87.1,86.1 L90.3,86.1 L75.5,43 L87.2,37.8" id="Fill-89" fill="#13955C" sketch:type="MSShapeGroup"></path>
            <path d="M156.7,45.4 L155.7,45 L153.1,44.3 L167.8,86.1 L171.3,86.1 L156.7,45.4" id="Fill-90" fill="#13955C" sketch:type="MSShapeGroup"></path>
            <path d="M155.9,66.1 C152.8,57.6 141.4,53.7 128.7,55.9 C126,56.4 123.3,57.1 120.5,58.1 C105.2,63.7 95.7,76.1 98.5,86.2 L149,86.2 C150.2,85 151.3,83.8 152.3,82.5 C156.2,77.2 157.8,71.3 155.9,66.1" id="Fill-91" fill="#13955C" sketch:type="MSShapeGroup"></path>
            <path d="M108.4,32.966667 L116.126562,35.0347655 L113.814062,39.0792969 L108.4,32.966667 L108.4,32.966667 Z" id="Fill-92" fill="#8BAC65" sketch:type="MSShapeGroup"></path>
            <path d="M142.4,41.6 L135.2,55.3 L135.4,55.3 C137.8,55.3 140.1,55.5 142.2,56 C149.3,56.8 155.4,59.5 159.6,63.1 L153,44.4 L142.4,41.6" id="Fill-95" fill="#769F47" sketch:type="MSShapeGroup"></path>
            <path d="M130.8,38.7 L119.2,45.2 L128.7,55.9 C130.9,55.5 133.1,55.3 135.3,55.3 L142.5,41.6 L134.9,39.7" id="Fill-96" fill="#769F47" sketch:type="MSShapeGroup"></path>
            <path d="M116.1,34.9 L113.7,38.9 L120.7,46.8 L134.6,39.5 L116.1,34.9" id="Fill-97" fill="#769F47" sketch:type="MSShapeGroup"></path>
            <path d="M142.2,56 C148.8,57.4 153.9,60.9 155.9,66.1 C157.1,69.4 156.9,73 155.6,76.6 L163.7,74.6 L159.7,63.1 C155.4,59.5 149.3,56.8 142.2,56" id="Fill-98" fill="#5C9745" sketch:type="MSShapeGroup"></path>
            <path d="M152.5,82.1 L152.5,82.1 L166.3,82.1 L152.5,82.1" id="Fill-99" fill="#7A964E" sketch:type="MSShapeGroup"></path>
            <path d="M152.5,82.1 C152.4,82.2 152.3,82.4 152.2,82.5 L155.5,86.2 L167.7,86.2 L166.3,82.2 C161.8,82.1 157.2,82.1 152.5,82.1" id="Fill-100" fill="#76934B" sketch:type="MSShapeGroup"></path>
            <path d="M153.1,44.3 L167.7,86.1 L153.1,44.3" id="Fill-101" fill="#769F47" sketch:type="MSShapeGroup"></path>
            <path d="M135.4,55.3 L135.2,55.3 C133.1,55.3 130.9,55.5 128.6,55.9 L152.1,82.4 C152.2,82.3 152.3,82.1 152.4,82 C153.7,80.2 154.7,78.4 155.4,76.5 C156.8,72.9 157,69.3 155.7,66 C153.8,60.8 148.7,57.3 142,55.9 C140.1,55.6 137.8,55.3 135.4,55.3" id="Fill-102" fill="#5C9745" sketch:type="MSShapeGroup"></path>
            <path d="M153.1,44.3 L152.9,43.8 L153.1,44.3" id="Fill-103" fill="#CCE1BA" sketch:type="MSShapeGroup"></path>
            <path d="M115.9,11.3 L114.9,11.7 L106.1,32.5 L108.3,33.1 L152.8,43.9 L155.6,45.1 L165.9,47.7 L119.7,0.4 L116.3,8.4 L115.9,11.3" id="Fill-104" fill="#CCE1BA" sketch:type="MSShapeGroup"></path>
            <path d="M115.9,11.3 L116.3,8.5 L114.9,11.7 L115.9,11.3" id="Fill-105" fill="#CCE1BA" sketch:type="MSShapeGroup"></path>
            <path d="M155.6,45 L152.8,43.8 L153,44.3 L155.6,45" id="Fill-106" fill="#CCE1BA" sketch:type="MSShapeGroup"></path>
            <path d="M152.9,43.8 L108.3,33 L153,44.4 L152.9,43.8" id="Fill-107" fill="#CCE1BA" sketch:type="MSShapeGroup"></path>
            <path d="M119.7,82.1 L119.7,49.1 L183.8,49.1 L183.8,86.2 L119.7,86.2 L119.7,82.1" id="Fill-108" fill="#F2F2F2" sketch:type="MSShapeGroup"></path>
            <path d="M125.4,49.5 L136.4,49.5 L136.4,86.2 L125.4,86.2 L125.4,49.5 L125.4,49.5 Z" id="Fill-109" fill="#7A7B84" sketch:type="MSShapeGroup"></path>
            <path d="M185.1,220 C185.1,220.7 185.7,221.3 186.4,221.3 L228.7,221.3 C229.4,221.3 230,220.7 230,220 L230,212.5 L185.1,212.5 L185.1,220" id="Fill-110" fill="#FFE168" sketch:type="MSShapeGroup"></path>
            <path d="M228.7,210.4 L186.4,210.4 C185.7,210.4 185.1,211 185.1,211.7 L185.1,212.5 L230,212.5 L230,211.7 C230,210.9 229.4,210.4 228.7,210.4" id="Fill-111" fill="#FBCB43" sketch:type="MSShapeGroup"></path>
            <path d="M189.8,189 C189.8,189.7 190.4,190.3 191.1,190.3 L233.4,190.3 C234.1,190.3 234.7,189.7 234.7,189 L234.7,181.5 L189.8,181.5 L189.8,189" id="Fill-112" fill="#FFE168" sketch:type="MSShapeGroup"></path>
            <path d="M233.4,179.4 L191,179.4 C190.3,179.4 189.7,180 189.7,180.7 L189.7,181.5 L234.6,181.5 L234.6,180.7 C234.6,179.9 234.1,179.4 233.4,179.4" id="Fill-113" fill="#FBCB43" sketch:type="MSShapeGroup"></path>
            <path d="M183.1,178.1 C183.1,178.8 183.7,179.4 184.4,179.4 L226.7,179.4 C227.4,179.4 228,178.8 228,178.1 L228,170.6 L183.1,170.6 L183.1,178.1" id="Fill-114" fill="#FFE168" sketch:type="MSShapeGroup"></path>
            <path d="M226.7,168.5 L184.4,168.5 C183.7,168.5 183.1,169.1 183.1,169.8 L183.1,170.6 L228,170.6 L228,169.8 C227.9,169.1 227.3,168.5 226.7,168.5" id="Fill-115" fill="#FBCB43" sketch:type="MSShapeGroup"></path>
            <path d="M189.8,210 C189.8,210.7 190.4,211.3 191.1,211.3 L233.4,211.3 C234.1,211.3 234.7,210.7 234.7,210 L234.7,202.5 L189.8,202.5 L189.8,210" id="Fill-116" fill="#FFE168" sketch:type="MSShapeGroup"></path>
            <path d="M233.4,200.3 L191,200.3 C190.3,200.3 189.7,200.9 189.7,201.6 L189.7,202.4 L234.6,202.4 L234.6,201.6 C234.6,200.9 234.1,200.3 233.4,200.3" id="Fill-117" fill="#FBCB43" sketch:type="MSShapeGroup"></path>
            <path d="M187.7,199.9 C187.7,200.6 188.3,201.2 189,201.2 L231.3,201.2 C232,201.2 232.6,200.6 232.6,199.9 L232.6,192.4 L187.7,192.4 L187.7,199.9" id="Fill-118" fill="#FFE168" sketch:type="MSShapeGroup"></path>
            <path d="M231.3,190.3 L189,190.3 C188.3,190.3 187.7,190.9 187.7,191.6 L187.7,192.4 L232.6,192.4 L232.6,191.6 C232.5,190.8 232,190.3 231.3,190.3" id="Fill-119" fill="#FBCB43" sketch:type="MSShapeGroup"></path>
            <path d="M232.1,190.3 L231.4,190.3 C231.7,190.3 231.9,190.4 232.1,190.6 L232.1,190.3 M227.9,172.7 L227.9,178.1 C227.9,178.8 227.3,179.4 226.6,179.4 L222.4,179.4 L233.3,179.4 C234,179.4 234.6,180 234.6,180.7 L234.6,181.5 L222.5,181.5 L234.6,181.5 L234.6,189 C234.6,189.5 234.3,190 233.8,190.2 L234.6,190.3 L234.6,179.4 L227.9,179.4 L227.9,172.7" id="Fill-120" fill="#E3E3E3" sketch:type="MSShapeGroup"></path>
            <path d="M234.6,181.5 L211.6,181.5 L208.5,190.3 L231.3,190.3 L231.4,190.3 L232.1,190.3 L232.1,190 L233.9,190.2 C234.4,190 234.7,189.6 234.7,189 L234.7,181.5" id="Fill-121" fill="#E3C85D" sketch:type="MSShapeGroup"></path>
            <path d="M233.4,179.4 L212.4,179.4 L211.7,181.5 L234.7,181.5 L234.7,180.7 C234.6,179.9 234.1,179.4 233.4,179.4" id="Fill-122" fill="#DFB53C" sketch:type="MSShapeGroup"></path>
            <path d="M227.7,170.6 L215.5,170.6 L212.4,179.4 L226.7,179.4 C227.4,179.4 228,178.8 228,178.1 L228,172.7 C227.9,171.9 227.8,171.2 227.7,170.6" id="Fill-123" fill="#E3C85D" sketch:type="MSShapeGroup"></path>
            <path d="M226.7,168.5 L216.2,168.5 L215.5,170.6 L227.7,170.6 C227.3,169.1 226.7,168.5 226.7,168.5" id="Fill-124" fill="#DFB53C" sketch:type="MSShapeGroup"></path>
            <path d="M234.6,201.6 L234.6,202.4 L224.8,202.4 L234.6,202.4 L234.6,203.6 C234.7,203.6 234.9,203.6 235,203.7 C234.9,202.6 234.8,201.8 234.6,201.6 M232.5,199.9 L232.5,199.9 C232.5,200 232.5,200.2 232.4,200.3 L233.1,200.3 C232.8,200.1 232.5,199.9 232.5,199.9" id="Fill-125" fill="#E3E3E3" sketch:type="MSShapeGroup"></path>
            <path d="M234.6,203.6 L234.6,210 C234.6,210.7 234,211.3 233.3,211.3 L229.9,211.3 C229.9,211.4 230,211.6 230,211.7 L230,212.5 L200.7,212.5 L230,212.5 L230,220 C230,220.7 229.4,221.3 228.7,221.3 L228.7,221.3 C232.4,221.3 229.9,220 229.9,220 L229.9,211.6 L234.6,211.5 C234.6,211.5 235,206.6 234.9,203.6 L234.6,203.6" id="Fill-126" fill="#CCCCCC" sketch:type="MSShapeGroup"></path>
            <path d="M230,212.5 L200.7,212.5 L197.7,220.9 L200.6,221.3 L228.7,221.3 C229.4,221.3 230,220.7 230,220 L230,212.5" id="Fill-127" fill="#E3C85D" sketch:type="MSShapeGroup"></path>
            <path d="M229.9,211.2 L201.1,211.2 L200.7,212.5 L230,212.5 L230,211.7 C230,211.5 230,211.3 229.9,211.2" id="Fill-128" fill="#DFB53C" sketch:type="MSShapeGroup"></path>
            <path d="M234.6,202.4 L204.2,202.4 L201.1,211.2 L233.3,211.2 C234,211.2 234.6,210.6 234.6,209.9 L234.6,202.4" id="Fill-129" fill="#E3C85D" sketch:type="MSShapeGroup"></path>
            <path d="M233.1,200.3 L232.4,200.3 C232.2,200.8 231.8,201.1 231.2,201.1 L204.6,201.1 L204.2,202.4 L234.6,202.4 L234.6,201.6 C234.1,201.1 233.5,200.6 233.1,200.3" id="Fill-130" fill="#DFB53C" sketch:type="MSShapeGroup"></path>
            <path d="M232.1,192.4 L207.8,192.4 L204.7,201.2 L231.3,201.2 C231.8,201.2 232.3,200.9 232.5,200.4 C232.5,200.3 232.6,200.1 232.6,200 L232.4,199.5 L232.1,192.4" id="Fill-131" fill="#E3C85D" sketch:type="MSShapeGroup"></path>
            <path d="M231.3,190.3 L208.5,190.3 L207.8,192.4 L232.1,192.4 L232.1,190.6 C231.9,190.4 231.6,190.3 231.3,190.3 L231.3,190.3" id="Fill-132" fill="#DFB53C" sketch:type="MSShapeGroup"></path>
            <path d="M197.6,187.4 C197.6,187.4 213.2,200.3 200.7,221.3 L190.2,221.3 L197.6,187.4" id="Fill-133" fill="#FBCB43" sketch:type="MSShapeGroup"></path>
            <path d="M182.3,181 C170.4,181 160.8,190.6 160.8,202.5 C160.8,208 162.9,213.1 166.4,216.9 L197.7,187.4 C193.7,183.4 188.3,181 182.3,181" id="Fill-134" fill="#F7EC3B" sketch:type="MSShapeGroup"></path>
            <path d="M182.3,224 C194.2,224 203.8,214.4 203.8,202.5 C203.8,196.6 201.4,191.3 197.6,187.4 L166.3,216.9 C170.2,221.2 175.9,224 182.3,224" id="Fill-135" fill="#FDD11C" sketch:type="MSShapeGroup"></path>
            <path d="M182.3,219.1 C173.1,219.1 165.7,211.7 165.7,202.5 C165.7,193.4 173.2,185.9 182.3,185.9 C191.5,185.9 198.9,193.3 198.9,202.5 C198.9,211.6 191.4,219.1 182.3,219.1 L182.3,219.1 L182.3,219.1 Z M182.3,189.3 C175,189.3 169.1,195.2 169.1,202.5 C169.1,209.8 175,215.7 182.3,215.7 C189.6,215.7 195.5,209.8 195.5,202.5 C195.5,195.2 189.6,189.3 182.3,189.3 L182.3,189.3 L182.3,189.3 Z" id="Fill-136" fill="#FBF7A7" sketch:type="MSShapeGroup"></path>
            <path d="M177.9,196.1 L181.7,208.3 C181.7,208.3 181.9,208.8 182.5,208.8 L183.8,208.8 L180.3,196.9 C180.3,196.9 179.9,195.9 179.2,195.9 C178.5,196 177.9,196.1 177.9,196.1" id="Fill-137" fill="#DBB71D" sketch:type="MSShapeGroup"></path>
            <path d="M180.5,196.1 L184.3,208.3 C184.3,208.3 184.5,208.8 185.1,208.8 L186.4,208.8 L182.9,196.9 C182.9,196.9 182.5,195.9 181.8,195.9 C181.1,196 180.5,196.1 180.5,196.1" id="Fill-138" fill="#DBB71D" sketch:type="MSShapeGroup"></path>
            <path d="M177.6,196.5 L178.6,199.9 L175.5,210.1 C175.5,210.1 174.2,208.9 174,208.4 L177.6,196.5" id="Fill-139" fill="#DBB71D" sketch:type="MSShapeGroup"></path>
            <path d="M178.9,200.7 L180,204.1 L177.7,211.5 C177.7,211.5 176.2,210.7 176,210.4 L178.9,200.7" id="Fill-140" fill="#DBB71D" sketch:type="MSShapeGroup"></path>
            <path d="M184.6,201.4 L185.6,204.8 L188.7,194.7 C188.7,194.7 187.8,193.9 186.9,193.5 L184.6,201.4" id="Fill-141" fill="#DBB71D" sketch:type="MSShapeGroup"></path>
            <path d="M189.2,195 L185.9,205.6 L186.9,208.8 L190.7,196.7 C190.7,196.8 189.7,195.4 189.2,195" id="Fill-142" fill="#DBB71D" sketch:type="MSShapeGroup"></path>
            <path d="M182.3,211.6 C177.3,211.6 173.2,207.5 173.2,202.5 C173.2,197.5 177.3,193.4 182.3,193.4 C187.3,193.4 191.4,197.5 191.4,202.5 C191.4,207.5 187.3,211.6 182.3,211.6 L182.3,211.6 L182.3,211.6 Z M182.3,193.8 C177.5,193.8 173.6,197.7 173.6,202.5 C173.6,207.3 177.5,211.2 182.3,211.2 C187.1,211.2 191,207.3 191,202.5 C191,197.7 187.1,193.8 182.3,193.8 L182.3,193.8 L182.3,193.8 Z" id="Fill-143" fill="#DBB71D" sketch:type="MSShapeGroup"></path>
            <path d="M182.3,212.7 C176.6,212.7 172,208.1 172,202.4 C172,196.7 176.6,192.1 182.3,192.1 C188,192.1 192.6,196.7 192.6,202.4 C192.5,208.1 187.9,212.7 182.3,212.7 L182.3,212.7 L182.3,212.7 Z M182.3,192.3 C176.7,192.3 172.1,196.9 172.1,202.4 C172.1,208 176.7,212.5 182.3,212.5 C187.9,212.5 192.5,207.9 192.5,202.4 C192.4,196.9 187.9,192.3 182.3,192.3 L182.3,192.3 L182.3,192.3 Z" id="Fill-144" fill="#DBB71D" sketch:type="MSShapeGroup"></path>
            <path d="M106.4,133.4 L116.6,166.2 C116.6,166.2 117.2,167.7 118.8,167.7 L122.3,167.7 L112.8,135.8 C112.8,135.8 111.8,133.2 109.9,133.2 C107.9,133.2 106.4,133.4 106.4,133.4" id="Fill-145" fill="#795548" sketch:type="MSShapeGroup"></path>
            <path d="M113.5,133.4 L123.7,166.2 C123.7,166.2 124.3,167.7 125.9,167.7 L129.4,167.7 L119.9,135.8 C119.9,135.8 118.9,133.2 117,133.2 C115,133.2 113.5,133.4 113.5,133.4" id="Fill-146" fill="#795548" sketch:type="MSShapeGroup"></path>
            <path d="M105.6,134.3 L108.3,143.4 L100,171 C100,171 96.6,167.8 95.9,166.3 L105.6,134.3" id="Fill-147" fill="#795548" sketch:type="MSShapeGroup"></path>
            <path d="M109,145.7 L111.9,154.9 L105.6,174.7 C105.6,174.7 101.7,172.6 101.1,171.8 L109,145.7" id="Fill-148" fill="#795548" sketch:type="MSShapeGroup"></path>
            <path d="M124.5,147.5 L127.2,156.7 L135.6,129.6 C135.6,129.6 133.2,127.5 130.8,126.4 L124.5,147.5" id="Fill-149" fill="#795548" sketch:type="MSShapeGroup"></path>
            <path d="M136.7,130.5 L127.9,159.1 L130.4,167.7 L140.7,135.3 C140.8,135.2 138,131.6 136.7,130.5" id="Fill-150" fill="#795548" sketch:type="MSShapeGroup"></path>
            <path d="M118.2,175 C104.7,175 93.7,164 93.7,150.5 C93.7,137 104.7,126 118.2,126 C131.7,126 142.7,137 142.7,150.5 C142.7,164 131.7,175 118.2,175 L118.2,175 L118.2,175 Z M118.2,127.1 C105.3,127.1 94.8,137.6 94.8,150.5 C94.8,163.4 105.3,173.9 118.2,173.9 C131.1,173.9 141.6,163.4 141.6,150.5 C141.6,137.6 131.1,127.1 118.2,127.1 L118.2,127.1 L118.2,127.1 Z" id="Fill-151" fill="#795548" sketch:type="MSShapeGroup"></path>
            <path d="M118.2,178 C103,178 90.6,165.6 90.6,150.5 C90.6,135.3 103,122.9 118.2,122.9 C133.4,122.9 145.8,135.3 145.8,150.5 C145.7,165.7 133.4,178 118.2,178 L118.2,178 L118.2,178 Z M118.2,123.2 C103.1,123.2 90.9,135.4 90.9,150.5 C90.9,165.5 103.2,177.8 118.2,177.8 C133.3,177.8 145.5,165.6 145.5,150.5 C145.5,135.5 133.2,123.2 118.2,123.2 L118.2,123.2 L118.2,123.2 Z" id="Fill-152" fill="#795548" sketch:type="MSShapeGroup"></path>
        </g>
    </g>
</svg>