<?xml version="1.0" encoding="UTF-8" standalone="no"?>
<svg width="360px" height="240px" viewBox="0 0 360 240" version="1.1" xmlns="http://www.w3.org/2000/svg" xmlns:xlink="http://www.w3.org/1999/xlink" xmlns:sketch="http://www.bohemiancoding.com/sketch/ns">
    <!-- Generator: Sketch 3.0.4 (8054) - http://www.bohemiancoding.com/sketch -->
    <title>use</title>
    <desc>Created with Sketch.</desc>
    <defs>
        <path d="M13.0978462,25.8737143 C13.1104,25.9433571 13.1173744,26.0088214 13.121559,26.0742857 C13.2331487,26.8473214 13.1648,27.4573929 12.990441,27.9379286 C13.2094359,27.4156071 13.2833641,26.7428571 13.0978462,25.8737143 L13.0978462,25.8737143 Z M4.33944615,0.512571429 C5.01874872,1.0725 5.27122051,1.74664286 5.27122051,1.74664286 C5.27122051,1.74664286 5.20566154,1.07946429 4.33944615,0.512571429 L4.33944615,0.512571429 Z M0.797866667,-0.271607143 C0.433805128,-0.271607143 0.0404512821,-0.257678571 -0.383589744,-0.225642857 L1.85657436,-0.225642857 C1.53575385,-0.256285714 1.18285128,-0.271607143 0.797866667,-0.271607143 L0.797866667,-0.271607143 Z" id="path-1"></path>
    </defs>
    <g id="Page-1" stroke="none" stroke-width="1" fill="none" fill-rule="evenodd" sketch:type="MSPage">
        <g id="Portrait" sketch:type="MSArtboardGroup" transform="translate(-36.000000, -793.000000)">
            <g id="use" sketch:type="MSLayerGroup" transform="translate(36.000000, 793.000000)">
                <rect id="Rectangle-5" fill="#F2F2F2" sketch:type="MSShapeGroup" x="0" y="0" width="360" height="240"></rect>
                <g id="Imported-Layers" transform="translate(44.000000, 3.000000)">
                    <path d="M244.278318,121.308107 L245.187774,124.247036 C245.187774,124.247036 245.242174,124.38075 245.385846,124.38075 L245.698297,124.38075 L244.843241,121.522607 C244.843241,121.522607 244.753969,121.292786 244.57961,121.292786 C244.409436,121.292786 244.278318,121.308107 244.278318,121.308107" id="Fill-1" fill="#DBB71D" sketch:type="MSShapeGroup"></path>
                    <path d="M244.907405,121.308107 L245.819651,124.247036 C245.819651,124.247036 245.875446,124.38075 246.013538,124.38075 L246.32599,124.38075 L245.472328,121.522607 C245.472328,121.522607 245.385846,121.292786 245.210092,121.292786 C245.037128,121.292786 244.907405,121.308107 244.907405,121.308107" id="Fill-2" fill="#DBB71D" sketch:type="MSShapeGroup"></path>
                    <path d="M244.2016,121.393071 L244.449887,122.207893 L243.696656,124.674643 C243.696656,124.674643 243.391179,124.387714 243.32841,124.258179 L244.2016,121.393071" id="Fill-3" fill="#DBB71D" sketch:type="MSShapeGroup"></path>
                    <path d="M244.505682,122.412643 L244.767918,123.242786 L244.2016,125.018679 L243.799877,124.758214 L244.505682,122.412643" id="Fill-4" fill="#DBB71D" sketch:type="MSShapeGroup"></path>
                    <path d="M245.89079,122.568643 L246.137682,123.398786 L246.890913,120.966857 C246.890913,120.966857 246.678892,120.776036 246.466872,120.679929 L245.89079,122.568643" id="Fill-5" fill="#DBB71D" sketch:type="MSShapeGroup"></path>
                    <path d="M246.989949,121.047643 L246.204636,123.6105 L246.43479,124.38075 L247.35959,121.47525 L246.989949,121.047643" id="Fill-6" fill="#DBB71D" sketch:type="MSShapeGroup"></path>
                    <path d="M245.327262,125.036786 C244.115118,125.036786 243.130338,124.04925 243.130338,122.84025 C243.130338,121.63125 244.115118,120.6465 245.327262,120.6465 C246.536615,120.6465 247.524185,121.63125 247.524185,122.84025 C247.524185,124.04925 246.536615,125.036786 245.327262,125.036786 M245.327262,120.744 C244.169518,120.744 243.227979,121.685571 243.227979,122.84025 C243.227979,123.994929 244.169518,124.935107 245.327262,124.935107 C246.48361,124.935107 247.423754,123.994929 247.423754,122.84025 C247.423754,121.685571 246.48361,120.744 245.327262,120.744" id="Fill-7" fill="#DBB71D" sketch:type="MSShapeGroup"></path>
                    <path d="M245.327262,125.309786 C243.961682,125.309786 242.855549,124.203857 242.855549,122.84025 C242.855549,121.478036 243.961682,120.372107 245.327262,120.372107 C246.687262,120.372107 247.797579,121.478036 247.797579,122.84025 C247.797579,124.203857 246.687262,125.309786 245.327262,125.309786 M245.327262,120.397179 C243.977026,120.397179 242.877867,121.49475 242.877867,122.84025 C242.877867,124.187143 243.977026,125.286107 245.327262,125.286107 C246.673313,125.286107 247.772472,124.187143 247.772472,122.84025 C247.772472,121.49475 246.673313,120.397179 245.327262,120.397179" id="Fill-8" fill="#DBB71D" sketch:type="MSShapeGroup"></path>
                    <path d="M197.029826,129.076071 L214.831179,122.688429 L253.319877,122.688429 L269.678933,129.076071 L253.56119,129.956357 L203.524349,130.507929 L197.029826,129.076071" id="Fill-9" fill="#E5E5E5" sketch:type="MSShapeGroup"></path>
                    <path d="M200.876882,131.499643 L266.548841,131.499643 L269.678933,129.076071 L197.029826,129.076071 L200.876882,131.499643" id="Fill-10" fill="#808080" sketch:type="MSShapeGroup"></path>
                    <path d="M266.39959,131.499643 L224.172636,131.499643 L224.175426,131.53725 L266.39959,131.499643" id="Fill-11" fill="#E3E3E3" sketch:type="MSShapeGroup"></path>
                    <path d="M247.879877,122.688429 L234.935467,122.688429 L223.984328,128.981357 L223.991303,129.076071 L269.678933,129.076071 L257.941087,124.699714 C257.890872,124.776321 257.805785,124.826464 257.710933,124.826464 L257.217149,124.826464 L256.957703,124.928143 L256.957703,126.960321 C256.957703,126.960321 257.522626,127.26675 256.671754,127.26675 L247.123856,127.26675 C246.969026,127.26675 246.840697,127.128857 246.840697,126.960321 L246.840697,125.379429 C246.828144,125.369679 246.816985,125.359929 246.804431,125.350179 C246.574277,125.159357 246.480821,124.950429 246.480821,124.73175 C246.480821,124.099393 247.273108,123.387643 247.879877,122.813786 L247.879877,122.694 L248.00681,122.694 L247.879877,122.694 L247.879877,122.688429" id="Fill-12" fill="#CCCCCC" sketch:type="MSShapeGroup"></path>
                    <path d="M269.678933,129.076071 L223.991303,129.076071 L224.172636,131.499643 L266.39959,131.499643 L269.678933,129.076071" id="Fill-13" fill="#727272" sketch:type="MSShapeGroup"></path>
                    <path d="M216.050297,94.2281786 C216.050297,94.2281786 215.168738,94.0721786 214.217436,93.2824286 C213.267528,92.4954643 211.433272,91.4717143 209.532062,92.3394643 C209.532062,92.3394643 212.791877,94.0721786 212.454318,96.9860357 C212.112574,99.9012857 215.778297,98.7201429 215.778297,98.7201429 L217.816205,96.59325 L216.050297,94.2281786" id="Fill-14" fill="#E57368" sketch:type="MSShapeGroup"></path>
                    <path d="M204.168779,107.701286 C204.431015,109.528714 204.81879,108.126107 204.845292,108.028607 C204.843897,108.067607 204.926195,108.276536 206.343385,108.963214 C207.9712,109.750179 205.25399,109.276607 205.25399,109.276607 C205.25399,109.276607 206.61399,110.698714 209.735713,111.326893 C212.860226,111.95925 217.205251,113.219786 218.561067,115.738071 C219.918277,118.260536 221.141579,122.042143 219.378462,123.618857 C219.378462,123.618857 217.883159,124.404429 217.883159,125.664964 C217.883159,125.664964 217.611159,126.766714 220.465067,126.766714 C220.465067,126.766714 221.95479,126.766714 222.635487,125.82375 C223.316185,124.875214 223.994092,124.091036 223.723487,123.145286 C223.451487,122.199536 223.451487,121.255179 223.451487,120.308036 C223.451487,119.363679 225.080697,118.419321 225.488,115.580679 C225.488,115.580679 236.079262,118.260536 242.869497,114.16275 C242.869497,114.16275 244.63401,118.732714 247.757128,118.8915 C247.757128,118.8915 248.840944,121.886143 248.026338,122.6745 C247.213128,123.458679 245.854523,124.561821 246.804431,125.350179 C247.757128,126.139929 250.202338,126.297321 251.421456,125.664964 C252.644759,125.036786 251.286154,124.089643 252.103549,123.458679 C252.915364,122.8305 252.372759,119.519679 252.372759,118.419321 C252.372759,117.313393 255.087179,117.629571 254.681272,111.799071 C254.681272,111.799071 257.802995,107.860071 257.26039,100.45425 C257.208779,99.762 257.09719,99.1198929 256.957703,98.5056429 C257.745805,98.36775 258.405579,98.2953214 258.950974,98.2716429 C259.740472,100.266214 262.881723,100.057286 262.146626,98.7201429 C261.723979,97.9401429 260.503467,97.5793929 259.285744,97.41225 C259.077908,96.6461786 259.026297,95.8828929 259.026297,95.8828929 C258.83799,96.4400357 258.762667,96.9261429 258.769641,97.35375 C257.85879,97.266 257.027446,97.2771429 256.6048,97.2910714 C254.797046,92.2196786 249.550933,90.1108929 242.4608,89.5802143 C234.042749,88.9506429 222.500185,88.3210714 212.454318,96.9860357 C212.454318,96.9860357 209.329805,95.2533214 204.984779,96.67125 C204.984779,96.67125 210.550318,101.242607 209.32841,102.817929 C208.106503,104.39325 205.25399,103.919679 204.848082,103.446107 C204.440779,102.975321 203.898174,105.811179 204.168779,107.701286 M259.610749,98.2591071 C261.390605,98.3050714 261.419897,98.9555357 260.5216,98.9555357 C260.121272,98.9555357 259.829744,98.6644286 259.610749,98.2591071" id="Fill-15" fill="#ED9D97" sketch:type="MSShapeGroup"></path>
                    <path d="M259.610749,98.2591071 C259.829744,98.6644286 260.121272,98.9555357 260.5216,98.9555357 C260.885662,98.9555357 261.097682,98.8482857 261.101867,98.7173571 C261.107446,98.5265357 260.666667,98.2869643 259.610749,98.2591071" id="Fill-16" fill="#D4D5D5" sketch:type="MSShapeGroup"></path>
                    <path d="M223.517046,122.003143 L223.510072,122.008714 C223.53239,122.23575 223.565867,122.461393 223.611897,122.688429 L223.614687,122.688429 C223.570051,122.46 223.539364,122.230179 223.517046,122.003143" id="Fill-17" fill="#F8D5D1" sketch:type="MSShapeGroup"></path>
                    <path d="M222.618749,125.846036 C222.16681,126.450536 221.378708,126.658071 220.891897,126.729107 L220.908636,126.729107 C221.394051,126.655286 222.17239,126.446357 222.618749,125.846036 M223.614687,122.688429 L223.611897,122.688429 C223.642585,122.841643 223.680246,122.993464 223.723487,123.145286 C223.766728,123.292929 223.784862,123.436393 223.784862,123.578464 C223.784862,123.436393 223.766728,123.292929 223.723487,123.145286 C223.680246,122.993464 223.643979,122.841643 223.614687,122.688429" id="Fill-18" fill="#DEBFBC" sketch:type="MSShapeGroup"></path>
                    <path d="M223.510072,122.008714 L221.604677,123.656464 L220.031262,126.729107 L220.891897,126.729107 C221.378708,126.658071 222.16681,126.450536 222.618749,125.846036 C222.624328,125.839071 222.629908,125.830714 222.635487,125.82375 C223.210174,125.02425 223.782072,124.340357 223.784862,123.578464 C223.784862,123.436393 223.766728,123.292929 223.723487,123.145286 C223.680246,122.993464 223.642585,122.841643 223.611897,122.688429 C223.565867,122.461393 223.53239,122.23575 223.510072,122.008714" id="Fill-19" fill="#E6837C" sketch:type="MSShapeGroup"></path>
                    <path d="M242.869497,114.16275 C239.927713,115.938643 236.271754,116.441464 233.073313,116.441464 C232.017395,116.441464 231.013087,116.387143 230.099446,116.304964 C231.013087,116.387143 232.01879,116.441464 233.073313,116.441464 C236.271754,116.441464 239.927713,115.938643 242.869497,114.16275 M256.585272,97.23675 C256.592246,97.2548571 256.597826,97.2729643 256.6048,97.2910714 C256.752656,97.2855 256.952123,97.2813214 257.187856,97.2813214 C257.621662,97.2813214 258.17961,97.2966429 258.769641,97.35375 C258.17961,97.2966429 257.621662,97.2813214 257.187856,97.2813214 C256.952123,97.2813214 256.752656,97.2855 256.6048,97.2910714 C256.597826,97.2729643 256.592246,97.2548571 256.585272,97.23675 M256.565744,97.1852143 C256.569928,97.1949643 256.572718,97.2033214 256.576903,97.2130714 C256.572718,97.2033214 256.569928,97.1949643 256.565744,97.1852143 M256.54761,97.1336786 C256.5504,97.1420357 256.551795,97.1476071 256.554585,97.1559643 C256.551795,97.1476071 256.5504,97.1420357 256.54761,97.1336786 M256.529477,97.0891071 C256.530872,97.0918929 256.532267,97.0960714 256.533662,97.10025 C256.532267,97.0960714 256.530872,97.0918929 256.529477,97.0891071" id="Fill-20" fill="#F8D5D1" sketch:type="MSShapeGroup"></path>
                    <path d="M260.5216,98.9555357 C260.121272,98.9555357 259.829744,98.6644286 259.610749,98.2591071 C260.666667,98.2869643 261.107446,98.5265357 261.101867,98.7173571 C261.097682,98.8482857 260.885662,98.9555357 260.5216,98.9555357 M246.059569,90.0245357 C246.471056,95.48175 246.613333,112.463464 232.603241,114.134893 L230.099446,116.304964 C231.013087,116.387143 232.017395,116.441464 233.073313,116.441464 C236.271754,116.441464 239.927713,115.938643 242.869497,114.16275 C242.869497,114.16275 244.63401,118.732714 247.757128,118.8915 C247.757128,118.8915 247.808738,119.032179 247.879877,119.262 L247.879877,117.615643 L252.805169,117.615643 L247.879877,117.615643 L247.879877,117.410893 C247.879877,117.24375 248.008205,117.105857 248.165826,117.105857 L252.971159,117.105857 L246.653785,117.105857 C246.494769,117.105857 246.370626,116.969357 246.370626,116.799429 L246.370626,114.970607 L253.671385,114.970607 L246.370626,114.970607 L246.370626,114.76725 C246.370626,114.597321 246.494769,114.465 246.653785,114.465 L254.621292,114.465 C254.685456,114.023464 254.721723,113.51925 254.721723,112.939821 C254.723118,112.587429 254.709169,112.208571 254.681272,111.799071 C254.681272,111.799071 257.334318,108.452036 257.324554,102.125679 C257.323159,101.590821 257.303631,101.033679 257.26039,100.45425 C257.208779,99.762 257.09719,99.1198929 256.957703,98.5056429 C257.745805,98.36775 258.405579,98.2953214 258.950974,98.2716429 C259.359672,99.3051429 260.400246,99.7466786 261.206482,99.7466786 C261.796513,99.7466786 262.2624,99.5085 262.258215,99.0920357 C262.256821,98.9806071 262.221949,98.8566429 262.146626,98.7201429 C261.723979,97.9401429 260.503467,97.5793929 259.285744,97.41225 C259.077908,96.6461786 259.026297,95.8828929 259.026297,95.8828929 C258.843569,96.4219286 258.766851,96.8955 258.768246,97.3133571 C258.768246,97.3258929 258.768246,97.3398214 258.769641,97.35375 C258.17961,97.2966429 257.621662,97.2813214 257.187856,97.2813214 C256.952123,97.2813214 256.752656,97.2855 256.6048,97.2910714 C256.597826,97.2729643 256.592246,97.2548571 256.585272,97.23675 C256.582482,97.2297857 256.579692,97.2214286 256.576903,97.2130714 C256.572718,97.2033214 256.569928,97.1949643 256.565744,97.1852143 C256.561559,97.1754643 256.558769,97.1657143 256.554585,97.1559643 C256.551795,97.1476071 256.5504,97.1420357 256.54761,97.1336786 C256.543426,97.1225357 256.539241,97.1113929 256.533662,97.10025 C256.532267,97.0960714 256.530872,97.0918929 256.529477,97.0891071 C254.993723,93.0526071 251.2192,90.9424286 246.059569,90.0245357" id="Fill-21" fill="#E6837C" sketch:type="MSShapeGroup"></path>
                    <path d="M248.008205,119.696571 C248.01239,119.713286 248.017969,119.73 248.022154,119.748107 L248.165826,119.748107 C248.107241,119.748107 248.052841,119.728607 248.008205,119.696571" id="Fill-22" fill="#E6837C" sketch:type="MSShapeGroup"></path>
                    <path d="M247.879877,122.813786 C247.273108,123.387643 246.480821,124.099393 246.480821,124.73175 C246.480821,124.950429 246.574277,125.159357 246.804431,125.350179 C246.816985,125.359929 246.828144,125.369679 246.840697,125.379429 L246.840697,125.1315 L250.343221,125.1315 L246.840697,125.1315 L246.840697,124.928143 C246.840697,124.759607 246.969026,124.623107 247.123856,124.623107 L247.896615,124.623107 C247.885456,124.592464 247.879877,124.557643 247.879877,124.521429 L247.879877,122.813786" id="Fill-23" fill="#E6837C" sketch:type="MSShapeGroup"></path>
                    <path d="M246.840697,126.960321 C246.840697,127.128857 246.969026,127.26675 247.123856,127.26675 L256.671754,127.26675 C256.827979,127.26675 256.957703,127.128857 256.957703,126.960321 L256.957703,125.1315 L246.840697,125.1315 L246.840697,126.960321" id="Fill-24" fill="#FFE168" sketch:type="MSShapeGroup"></path>
                    <path d="M256.671754,124.623107 L247.123856,124.623107 C246.969026,124.623107 246.840697,124.759607 246.840697,124.928143 L246.840697,125.1315 L256.957703,125.1315 L256.957703,124.928143 C256.957703,124.759607 256.827979,124.623107 256.671754,124.623107" id="Fill-25" fill="#FBCB43" sketch:type="MSShapeGroup"></path>
                    <path d="M247.879877,119.443071 C247.879877,119.611607 248.008205,119.748107 248.165826,119.748107 L257.710933,119.748107 C257.867159,119.748107 257.994092,119.611607 257.994092,119.443071 L257.994092,117.615643 L247.879877,117.615643 L247.879877,119.443071" id="Fill-26" fill="#FFE168" sketch:type="MSShapeGroup"></path>
                    <path d="M257.710933,117.105857 L248.165826,117.105857 C248.008205,117.105857 247.879877,117.24375 247.879877,117.410893 L247.879877,117.615643 L257.994092,117.615643 L257.994092,117.410893 C257.994092,117.24375 257.867159,117.105857 257.710933,117.105857" id="Fill-27" fill="#FBCB43" sketch:type="MSShapeGroup"></path>
                    <path d="M246.370626,116.799429 C246.370626,116.969357 246.494769,117.105857 246.653785,117.105857 L256.198892,117.105857 C256.355118,117.105857 256.483446,116.969357 256.483446,116.799429 L256.483446,114.970607 L246.370626,114.970607 L246.370626,116.799429" id="Fill-28" fill="#FFE168" sketch:type="MSShapeGroup"></path>
                    <path d="M256.198892,114.465 L246.653785,114.465 C246.494769,114.465 246.370626,114.597321 246.370626,114.76725 L246.370626,114.970607 L256.483446,114.970607 L256.483446,114.76725 C256.483446,114.597321 256.355118,114.465 256.198892,114.465" id="Fill-29" fill="#FBCB43" sketch:type="MSShapeGroup"></path>
                    <path d="M247.879877,124.521429 C247.879877,124.689964 248.008205,124.826464 248.164431,124.826464 L257.710933,124.826464 C257.867159,124.826464 257.994092,124.689964 257.994092,124.521429 L257.994092,122.694 L247.879877,122.694 L247.879877,124.521429" id="Fill-30" fill="#FFE168" sketch:type="MSShapeGroup"></path>
                    <path d="M257.710933,122.184214 L248.164431,122.184214 C248.008205,122.184214 247.879877,122.320714 247.879877,122.490643 L247.879877,122.694 L257.994092,122.694 L257.994092,122.490643 C257.994092,122.320714 257.867159,122.184214 257.710933,122.184214" id="Fill-31" fill="#FBCB43" sketch:type="MSShapeGroup"></path>
                    <path d="M247.40841,122.083929 C247.40841,122.25525 247.536738,122.388964 247.691569,122.388964 L257.239467,122.388964 C257.395692,122.388964 257.522626,122.25525 257.522626,122.083929 L257.522626,120.255107 L247.40841,120.255107 L247.40841,122.083929" id="Fill-32" fill="#FFE168" sketch:type="MSShapeGroup"></path>
                    <path d="M257.239467,119.748107 L247.691569,119.748107 C247.536738,119.748107 247.40841,119.883214 247.40841,120.05175 L247.40841,120.255107 L257.522626,120.255107 L257.522626,120.05175 C257.522626,119.883214 257.395692,119.748107 257.239467,119.748107" id="Fill-33" fill="#FBCB43" sketch:type="MSShapeGroup"></path>
                    <path d="M256.482051,116.831464 C256.466708,116.986071 256.345354,117.105857 256.198892,117.105857 L253.484472,117.105857 L257.710933,117.105857 C257.867159,117.105857 257.994092,117.24375 257.994092,117.410893 L257.994092,117.615643 L252.934892,117.615643 L257.994092,117.615643 L257.994092,119.443071 C257.994092,119.611607 257.867159,119.748107 257.710933,119.748107 L257.994092,119.748107 L257.994092,117.105857 L256.482051,117.105857 L256.482051,116.831464" id="Fill-34" fill="#E3E3E3" sketch:type="MSShapeGroup"></path>
                    <path d="M257.994092,117.615643 L252.805169,117.615643 L252.106338,119.748107 L257.710933,119.748107 C257.867159,119.748107 257.994092,119.611607 257.994092,119.443071 L257.994092,117.615643" id="Fill-35" fill="#E3C85D" sketch:type="MSShapeGroup"></path>
                    <path d="M257.710933,117.105857 L252.971159,117.105857 L252.805169,117.615643 L257.994092,117.615643 L257.994092,117.410893 C257.994092,117.24375 257.867159,117.105857 257.710933,117.105857" id="Fill-36" fill="#DFB53C" sketch:type="MSShapeGroup"></path>
                    <path d="M256.426256,114.970607 L253.671385,114.970607 L252.971159,117.105857 L256.198892,117.105857 C256.345354,117.105857 256.466708,116.986071 256.482051,116.831464 L256.482051,115.480393 C256.482051,115.278429 256.459733,115.1085 256.426256,114.970607" id="Fill-37" fill="#E3C85D" sketch:type="MSShapeGroup"></path>
                    <path d="M256.198892,114.465 L253.837374,114.465 L253.671385,114.970607 L256.426256,114.970607 C256.343959,114.619607 256.198892,114.465 256.198892,114.465" id="Fill-38" fill="#DFB53C" sketch:type="MSShapeGroup"></path>
                    <path d="M257.994092,122.490643 L257.994092,122.694 L253.333826,122.694 L257.994092,122.694 L257.994092,124.513071 L257.995487,124.513071 C258.008041,124.382143 258.176821,122.685643 257.994092,122.490643 M257.522626,122.083929 L257.522626,122.083929 C257.522626,122.120143 257.517046,122.153571 257.507282,122.184214 L257.655138,122.184214 C257.577026,122.124321 257.522626,122.083929 257.522626,122.083929" id="Fill-39" fill="#E3E3E3" sketch:type="MSShapeGroup"></path>
                    <path d="M257.994092,124.513071 L257.994092,124.521429 C257.994092,124.521429 257.994092,124.518643 257.995487,124.513071 L257.994092,124.513071" id="Fill-40" fill="#CCCCCC" sketch:type="MSShapeGroup"></path>
                    <path d="M257.217149,124.826464 L256.940964,124.826464 C256.950728,124.8585 256.957703,124.893321 256.957703,124.928143 L256.957703,125.1315 L251.933374,125.1315 L256.957703,125.1315 L256.957703,126.960321 C256.957703,127.128857 256.827979,127.26675 256.671754,127.26675 C257.522626,127.26675 256.957703,126.960321 256.957703,126.960321 L256.957703,124.928143 L257.217149,124.826464" id="Fill-41" fill="#B5B6B6" sketch:type="MSShapeGroup"></path>
                    <path d="M256.957703,125.1315 L250.343221,125.1315 L249.676472,127.163679 L250.339036,127.26675 L256.671754,127.26675 C256.827979,127.26675 256.957703,127.128857 256.957703,126.960321 L256.957703,125.1315" id="Fill-42" fill="#E3C85D" sketch:type="MSShapeGroup"></path>
                    <path d="M256.940964,124.826464 L250.442256,124.826464 L250.343221,125.1315 L256.957703,125.1315 L256.957703,124.928143 C256.957703,124.893321 256.950728,124.8585 256.940964,124.826464" id="Fill-43" fill="#DFB53C" sketch:type="MSShapeGroup"></path>
                    <path d="M257.994092,122.694 L251.141087,122.694 L250.442256,124.826464 L257.217149,124.826464 L257.994092,124.521429 L257.994092,122.694" id="Fill-44" fill="#E3C85D" sketch:type="MSShapeGroup"></path>
                    <path d="M257.655138,122.184214 L257.507282,122.184214 C257.468226,122.304 257.36361,122.388964 257.239467,122.388964 L251.240123,122.388964 L251.141087,122.694 L257.994092,122.694 L257.994092,122.490643 C257.888082,122.377821 257.752779,122.263607 257.655138,122.184214" id="Fill-45" fill="#DFB53C" sketch:type="MSShapeGroup"></path>
                    <path d="M257.239467,120.255107 L251.940349,120.255107 L251.240123,122.388964 L257.239467,122.388964 C257.36361,122.388964 257.468226,122.304 257.507282,122.184214 C257.517046,122.153571 257.522626,122.120143 257.522626,122.083929 L257.239467,122.083929 L257.239467,120.255107" id="Fill-46" fill="#E3C85D" sketch:type="MSShapeGroup"></path>
                    <path d="M257.239467,119.748107 L252.106338,119.748107 L251.940349,120.255107 L257.239467,120.255107 L257.239467,119.748107" id="Fill-47" fill="#DFB53C" sketch:type="MSShapeGroup"></path>
                    <path d="M249.649969,119.046107 C249.649969,119.046107 253.176205,122.185607 250.339036,127.26675 L247.974728,127.26675 L249.649969,119.046107" id="Fill-48" fill="#FBCB43" sketch:type="MSShapeGroup"></path>
                    <path d="M229.498256,89.59275 C229.375508,89.6011071 229.251364,89.6094643 229.128615,89.6192143 L229.097928,89.6442857 C229.231836,89.6261786 229.364349,89.6094643 229.498256,89.59275" id="Fill-49" fill="#D4D5D5" sketch:type="MSShapeGroup"></path>
                    <path d="M239.482749,89.4729643 C239.664082,89.5175357 239.835651,89.544 240.005826,89.544 C240.113231,89.544 240.220636,89.5328571 240.330831,89.5077857 C240.082544,89.4966429 239.799385,89.4855 239.482749,89.4729643 M235.49481,89.4005357 C233.668923,89.4005357 231.587774,89.4478929 229.498256,89.59275 C229.364349,89.6094643 229.231836,89.6261786 229.097928,89.6442857 L227.888574,90.6429643 L242.174851,90.6429643 L241.459282,89.5676786 C241.459282,89.5676786 241.164964,89.5481786 240.641887,89.5217143 C240.77161,89.544 240.906913,89.5690714 241.017108,89.5690714 C241.022687,89.5690714 241.028267,89.5690714 241.033846,89.5676786 C240.957128,89.9771786 240.919467,90.1540714 240.7744,90.5983929 C239.789621,90.48 238.785313,90.4340357 237.774031,90.4340357 C237.665231,90.4340357 237.556431,90.4340357 237.446236,90.4354286 L237.652677,89.4214286 C236.991508,89.4088929 236.266174,89.4005357 235.49481,89.4005357" id="Fill-50" fill="#C5837E" sketch:type="MSShapeGroup"></path>
                    <path d="M238.836923,83.6118214 L237.679179,89.2960714 C238.147856,89.3127857 238.612349,89.3336786 239.069867,89.3573571 C238.955487,89.3225357 238.835528,89.2863214 238.708595,89.2487143 C237.644308,88.9381071 237.906544,87.2931429 238.962462,87.2416071 C239.061497,87.2360357 239.159138,87.2346429 239.258174,87.2346429 C239.541333,87.2346429 239.821703,87.2513571 240.103467,87.2708571 L240.1216,87.15525 C240.107651,86.5061786 240.0128,85.839 239.782646,85.2331071 C239.552492,84.6216429 239.223303,84.09375 238.836923,83.6118214" id="Fill-51" fill="#D4D5D5" sketch:type="MSShapeGroup"></path>
                    <path d="M240.39081,89.4924643 C240.369887,89.4980357 240.350359,89.5036071 240.330831,89.5077857 C240.441026,89.5133571 240.545641,89.5175357 240.641887,89.5217143 C240.551221,89.5077857 240.463344,89.49525 240.39081,89.4924643 M237.679179,89.2960714 L237.652677,89.4214286 C238.338954,89.4353571 238.955487,89.4534643 239.482749,89.4729643 C239.351631,89.4409286 239.214933,89.4019286 239.069867,89.3573571 C238.612349,89.3336786 238.147856,89.3127857 237.679179,89.2960714" id="Fill-52" fill="#C5837E" sketch:type="MSShapeGroup"></path>
                    <path d="M237.652677,89.4214286 L237.446236,90.4354286 C237.556431,90.4340357 237.665231,90.4340357 237.774031,90.4340357 C238.785313,90.4340357 239.789621,90.48 240.7744,90.5983929 C240.919467,90.1540714 240.957128,89.9771786 241.033846,89.5676786 C241.028267,89.5690714 241.022687,89.5690714 241.017108,89.5690714 C240.906913,89.5690714 240.77161,89.544 240.641887,89.5217143 C240.545641,89.5175357 240.441026,89.5133571 240.330831,89.5077857 C240.220636,89.5328571 240.113231,89.544 240.005826,89.544 C239.835651,89.544 239.664082,89.5175357 239.482749,89.4729643 C238.955487,89.4534643 238.338954,89.4353571 237.652677,89.4214286" id="Fill-53" fill="#A46D69" sketch:type="MSShapeGroup"></path>
                    <path d="M230.499774,90.6582857 L230.672738,90.6763929 C230.778749,90.6387857 230.897313,90.6178929 231.03401,90.6220714 L231.082831,90.6220714 L239.057313,82.9056429 C237.979077,81.7871786 236.487959,81.0879643 234.832246,81.0879643 C231.559877,81.0879643 228.906831,83.811 228.906831,87.1705714 C228.906831,88.48125 229.315528,89.6860714 230.0032,90.6763929 C230.148267,90.6346071 230.311467,90.6178929 230.499774,90.6582857" id="Fill-54" fill="#F7EC3B" sketch:type="MSShapeGroup"></path>
                    <path d="M231.80119,90.6582857 C234.452841,90.5649643 237.168656,90.3323571 239.784041,90.5078571 C240.400574,89.5523571 240.763241,88.4046429 240.763241,87.1705714 C240.763241,85.5088929 240.110441,84.0032143 239.057313,82.9056429 L231.082831,90.6220714 C231.321354,90.6318214 231.559877,90.64575 231.80119,90.6582857" id="Fill-55" fill="#FDD11C" sketch:type="MSShapeGroup"></path>
                    <path d="M231.785846,90.6582857 L231.80119,90.6582857 C232.324267,90.6387857 232.847344,90.6178929 233.37321,90.5900357 C232.091323,90.0106071 231.191631,88.6971429 231.191631,87.1705714 C231.191631,85.1105357 232.826421,83.4321429 234.832246,83.4321429 C236.842256,83.4321429 238.475651,85.1105357 238.475651,87.1705714 C238.475651,88.5871071 237.702892,89.8225714 236.568862,90.4563214 C237.079385,90.4451786 237.589908,90.441 238.099036,90.4465714 C238.903877,89.5997143 239.406031,88.4464286 239.406031,87.1705714 C239.406031,84.5868214 237.352779,82.4808214 234.832246,82.4808214 C232.313108,82.4808214 230.261251,84.5868214 230.261251,87.1705714 C230.261251,88.5536786 230.852677,89.7988929 231.785846,90.6582857" id="Fill-56" fill="#FBF7A7" sketch:type="MSShapeGroup"></path>
                    <path d="M227.888574,90.6429643 C227.888574,90.6429643 240.463344,90.2613214 242.174851,90.6429643 C243.890544,91.0273929 242.032574,92.1792857 242.032574,92.1792857 C242.032574,92.1792857 236.175508,93.2531786 235.745887,93.3297857 C235.317662,93.405 227.888574,94.4036786 227.888574,94.4036786 L227.246933,93.1013571 L227.888574,90.6429643" id="Fill-57" fill="#ED9D97" sketch:type="MSShapeGroup"></path>
                    <path d="M245.260308,117.174107 C242.110687,117.174107 239.559467,119.703536 239.559467,122.8305 C239.559467,124.287429 240.1216,125.613429 241.033846,126.616286 L249.323569,118.863643 C248.287179,117.820393 246.850462,117.174107 245.260308,117.174107" id="Fill-58" fill="#F7EC3B" sketch:type="MSShapeGroup"></path>
                    <path d="M245.260308,128.482714 C248.408533,128.482714 250.961149,125.953286 250.961149,122.8305 C250.961149,121.283036 250.336246,119.883214 249.323569,118.863643 L241.033846,126.616286 C242.07721,127.759821 243.579487,128.482714 245.260308,128.482714" id="Fill-59" fill="#FDD11C" sketch:type="MSShapeGroup"></path>
                    <path d="M245.260308,127.190143 C242.836021,127.190143 240.860882,125.235964 240.860882,122.8305 C240.860882,120.425036 242.836021,118.468071 245.260308,118.468071 C247.684595,118.468071 249.656944,120.425036 249.656944,122.8305 C249.656944,125.235964 247.684595,127.190143 245.260308,127.190143 L245.260308,127.190143 Z M245.260308,119.353929 C243.32841,119.353929 241.75639,120.912536 241.75639,122.8305 C241.75639,124.742893 243.32841,126.302893 245.260308,126.302893 C247.192205,126.302893 248.762831,124.742893 248.762831,122.8305 C248.762831,120.912536 247.192205,119.353929 245.260308,119.353929 L245.260308,119.353929 Z" id="Fill-60" fill="#FBF7A7" sketch:type="MSShapeGroup"></path>
                    <path d="M233.585231,85.4253214 L234.694154,89.0007857 C234.694154,89.0007857 234.765292,89.1623571 234.935467,89.1623571 L235.312082,89.1623571 L234.275692,85.6843929 C234.275692,85.6843929 234.165497,85.4058214 233.956267,85.4058214 C233.745641,85.4058214 233.585231,85.4253214 233.585231,85.4253214" id="Fill-61" fill="#DBB71D" sketch:type="MSShapeGroup"></path>
                    <path d="M234.3552,85.4253214 L235.462728,89.0007857 C235.462728,89.0007857 235.532472,89.1623571 235.701251,89.1623571 L236.080656,89.1623571 L235.042872,85.6843929 C235.042872,85.6843929 234.935467,85.4058214 234.722051,85.4058214 C234.512821,85.4058214 234.3552,85.4253214 234.3552,85.4253214" id="Fill-62" fill="#DBB71D" sketch:type="MSShapeGroup"></path>
                    <path d="M233.497354,85.527 L233.795856,86.5201071 L232.878031,89.5189286 C232.878031,89.5189286 232.50839,89.1721071 232.427487,89.0133214 L233.497354,85.527" id="Fill-63" fill="#DBB71D" sketch:type="MSShapeGroup"></path>
                    <path d="M233.864205,86.7708214 L234.185026,87.7778571 L233.497354,89.9395714 L233.006359,89.622 L233.864205,86.7708214" id="Fill-64" fill="#DBB71D" sketch:type="MSShapeGroup"></path>
                    <path d="M235.550605,86.9616429 L235.850503,87.9658929 L236.769723,85.0074643 C236.769723,85.0074643 236.510277,84.7776429 236.249436,84.6578571 L235.550605,86.9616429" id="Fill-65" fill="#DBB71D" sketch:type="MSShapeGroup"></path>
                    <path d="M236.888287,85.1035714 L235.9328,88.2235714 L236.211774,89.1623571 L237.337436,85.6231071 C237.337436,85.6231071 237.030564,85.22475 236.888287,85.1035714" id="Fill-66" fill="#DBB71D" sketch:type="MSShapeGroup"></path>
                    <path d="M234.864328,89.9590714 C233.388554,89.9590714 232.188964,88.7598214 232.188964,87.2903571 C232.188964,85.8125357 233.388554,84.6160714 234.864328,84.6160714 C236.340103,84.6160714 237.538297,85.8125357 237.538297,87.2903571 C237.538297,88.7598214 236.340103,89.9590714 234.864328,89.9590714 L234.864328,89.9590714 Z M234.864328,84.7386429 C233.454113,84.7386429 232.308923,85.8835714 232.308923,87.2903571 C232.308923,88.69575 233.454113,89.8392857 234.864328,89.8392857 C236.271754,89.8392857 237.418338,88.69575 237.418338,87.2903571 C237.418338,85.8835714 236.271754,84.7386429 234.864328,84.7386429 L234.864328,84.7386429 Z" id="Fill-67" fill="#DBB71D" sketch:type="MSShapeGroup"></path>
                    <path d="M234.864328,90.2933571 C233.204431,90.2933571 231.856985,88.9436786 231.856985,87.2903571 C231.856985,85.6328571 233.204431,84.2845714 234.864328,84.2845714 C236.521436,84.2845714 237.871672,85.6328571 237.871672,87.2903571 C237.871672,88.9436786 236.521436,90.2933571 234.864328,90.2933571 L234.864328,90.2933571 Z M234.864328,84.3166071 C233.221169,84.3166071 231.884882,85.6481786 231.884882,87.2903571 C231.884882,88.9283571 233.221169,90.2627143 234.864328,90.2627143 C236.504697,90.2627143 237.843774,88.9283571 237.843774,87.2903571 C237.843774,85.6481786 236.504697,84.3166071 234.864328,84.3166071 L234.864328,84.3166071 Z" id="Fill-68" fill="#DBB71D" sketch:type="MSShapeGroup"></path>
                    <path d="M244.208574,121.298357 L245.119426,124.238679 C245.119426,124.238679 245.17801,124.369607 245.317497,124.369607 L245.629949,124.369607 L244.776287,121.510071 C244.776287,121.510071 244.687015,121.283036 244.514051,121.283036 C244.342482,121.283036 244.208574,121.298357 244.208574,121.298357" id="Fill-69" fill="#DBB71D" sketch:type="MSShapeGroup"></path>
                    <path d="M244.840451,121.298357 L245.749908,124.238679 C245.749908,124.238679 245.808492,124.369607 245.946585,124.369607 L246.259036,124.369607 L245.408164,121.510071 C245.408164,121.510071 245.317497,121.283036 245.144533,121.283036 C244.972964,121.283036 244.840451,121.298357 244.840451,121.298357" id="Fill-70" fill="#DBB71D" sketch:type="MSShapeGroup"></path>
                    <path d="M244.134646,121.381929 L244.384328,122.198143 L243.628308,124.6635 C243.628308,124.6635 243.322831,124.377964 243.260062,124.245643 L244.134646,121.381929" id="Fill-71" fill="#DBB71D" sketch:type="MSShapeGroup"></path>
                    <path d="M244.440123,122.402893 L244.700964,123.233036 L244.134646,125.006143 L243.734318,124.747071 L244.440123,122.402893" id="Fill-72" fill="#DBB71D" sketch:type="MSShapeGroup"></path>
                    <path d="M245.823836,122.558893 L246.072123,123.387643 L246.825354,120.957107 C246.825354,120.957107 246.613333,120.766286 246.398523,120.668786 L245.823836,122.558893" id="Fill-73" fill="#DBB71D" sketch:type="MSShapeGroup"></path>
                    <path d="M246.92439,121.0365 L246.137682,123.599357 L246.365046,124.369607 L247.289846,121.462714 L246.92439,121.0365" id="Fill-74" fill="#DBB71D" sketch:type="MSShapeGroup"></path>
                    <path d="M245.260308,125.022857 C244.048164,125.022857 243.06199,124.0395 243.06199,122.8305 C243.06199,121.618714 244.048164,120.632571 245.260308,120.632571 C246.469662,120.632571 247.457231,121.618714 247.457231,122.8305 C247.457231,124.0395 246.469662,125.022857 245.260308,125.022857 L245.260308,125.022857 Z M245.260308,120.73425 C244.102564,120.73425 243.161026,121.673036 243.161026,122.8305 C243.161026,123.985179 244.102564,124.925357 245.260308,124.925357 C246.418051,124.925357 247.35959,123.985179 247.35959,122.8305 C247.35959,121.673036 246.418051,120.73425 245.260308,120.73425 L245.260308,120.73425 Z" id="Fill-75" fill="#DBB71D" sketch:type="MSShapeGroup"></path>
                    <path d="M245.260308,125.29725 C243.896123,125.29725 242.788595,124.189929 242.788595,122.8305 C242.788595,121.469679 243.896123,120.360964 245.260308,120.360964 C246.623097,120.360964 247.730626,121.469679 247.730626,122.8305 C247.730626,124.189929 246.623097,125.29725 245.260308,125.29725 L245.260308,125.29725 Z M245.260308,120.386036 C243.911467,120.386036 242.810913,121.483607 242.810913,122.8305 C242.810913,124.176 243.911467,125.272179 245.260308,125.272179 C246.607754,125.272179 247.706913,124.176 247.706913,122.8305 C247.706913,121.483607 246.607754,120.386036 245.260308,120.386036 L245.260308,120.386036 Z" id="Fill-76" fill="#DBB71D" sketch:type="MSShapeGroup"></path>
                    <path d="M225.952492,222.3 C225.952492,227.410393 179.306585,231.537429 121.74999,231.537429 C64.1668923,231.537429 17.5223795,227.410393 17.5223795,222.3 C17.5223795,217.203536 64.1668923,213.06675 121.74999,213.06675 C179.306585,213.06675 225.952492,217.203536 225.952492,222.3" id="Fill-77" fill="#E5E5E5" sketch:type="MSShapeGroup"></path>
                    <path d="M176.286687,205.330821 C163.226503,180.553286 131.123528,177.923571 123.0528,177.658929 L123.0528,177.629679 C123.0528,177.629679 122.716636,177.622714 122.116841,177.633857 C121.512862,177.622714 121.178092,177.629679 121.178092,177.629679 L121.178092,177.658929 C113.107364,177.923571 81.0043897,180.553286 67.9456,205.330821 C67.9456,205.330821 63.4471385,212.068071 63.4471385,224.046643 L180.785149,224.046643 C180.785149,212.068071 176.286687,205.330821 176.286687,205.330821" id="Fill-78" fill="#8E8E8E" sketch:type="MSShapeGroup"></path>
                    <path d="M88.7668513,152.976107 C88.7668513,163.755429 81.044841,172.494214 71.5164718,172.494214 C61.9922872,172.494214 54.2716718,163.755429 54.2716718,152.976107 C54.2716718,142.196786 61.9922872,133.458 71.5164718,133.458 C81.044841,133.458 88.7668513,142.196786 88.7668513,152.976107" id="Fill-79" fill="#EDECE1" sketch:type="MSShapeGroup"></path>
                    <path d="M88.9956103,179.248179 C81.6390564,176.1435 74.2838974,175.5975 71.5164718,175.505571 L71.5164718,175.49025 C71.5164718,175.49025 71.3128205,175.483286 70.9445744,175.491643 C70.5763282,175.483286 70.3684923,175.49025 70.3684923,175.49025 L70.3684923,175.505571 C65.4194872,175.668536 45.7252923,177.281464 37.7145436,192.478929 C37.7145436,192.478929 34.9568821,196.612929 34.9568821,203.961643 L60.2249846,203.961643 C63.2699897,196.392857 70.7953231,184.944964 88.9956103,179.248179" id="Fill-80" fill="#DCDDDE" sketch:type="MSShapeGroup"></path>
                    <path d="M155.897846,152.976107 C155.897846,163.755429 163.619856,172.494214 173.145436,172.494214 C182.669621,172.494214 190.391631,163.755429 190.391631,152.976107 C190.391631,142.196786 182.669621,133.458 173.145436,133.458 C163.619856,133.458 155.897846,142.196786 155.897846,152.976107" id="Fill-81" fill="#EDECE1" sketch:type="MSShapeGroup"></path>
                    <path d="M155.669087,179.248179 C163.022851,176.1435 170.3808,175.5975 173.145436,175.505571 L173.145436,175.49025 C173.145436,175.49025 173.350482,175.483286 173.721518,175.491643 C174.089764,175.483286 174.29481,175.49025 174.29481,175.49025 L174.29481,175.505571 C179.246605,175.668536 198.939405,177.281464 206.950154,192.478929 C206.950154,192.478929 209.70921,196.612929 209.70921,203.961643 L184.439713,203.961643 C181.393313,196.392857 173.867979,184.944964 155.669087,179.248179" id="Fill-82" fill="#DCDDDE" sketch:type="MSShapeGroup"></path>
                    <path d="M123.0528,110.996786 C122.638523,110.996786 122.23401,111.046929 121.823918,111.066429 C106.869497,111.800464 94.9377641,125.710929 94.9377641,142.815214 C94.9377641,159.918107 106.869497,173.831357 121.823918,174.564 C122.23401,174.584893 122.638523,174.635036 123.0528,174.635036 C138.581908,174.635036 151.169231,160.388893 151.169231,142.815214 C151.169231,125.242929 138.581908,110.996786 123.0528,110.996786" id="Fill-83" fill="#EDECE1" sketch:type="MSShapeGroup"></path>
                    <path d="M151.66441,142.815214 C151.66441,125.242929 139.075692,110.996786 123.546585,110.996786 C123.132308,110.996786 122.727795,111.046929 122.317703,111.066429 L122.317703,174.564 C122.727795,174.584893 123.132308,174.635036 123.546585,174.635036 C139.075692,174.635036 151.66441,160.388893 151.66441,142.815214" id="Fill-84" fill="#DBDAD2" sketch:type="MSShapeGroup"></path>
                    <path d="M88.4571897,152.783893 C88.4571897,141.877821 80.6445128,133.037357 71.0059487,133.037357 C70.7492923,133.037357 70.4982154,133.068 70.2429538,133.080536 L70.2429538,172.490036 C70.4982154,172.503964 70.7492923,172.534607 71.0059487,172.534607 C80.6445128,172.534607 88.4571897,163.69275 88.4571897,152.783893" id="Fill-85" fill="#DBDAD2" sketch:type="MSShapeGroup"></path>
                    <path d="M190.872862,152.783893 C190.872862,141.877821 183.05879,133.037357 173.420226,133.037357 C173.163569,133.037357 172.913887,133.068 173.121723,133.080536 L173.121723,172.490036 C172.913887,172.503964 173.163569,172.534607 173.420226,172.534607 C183.05879,172.534607 190.872862,163.69275 190.872862,152.783893" id="Fill-86" fill="#DBDAD2" sketch:type="MSShapeGroup"></path>
                    <path d="M95.6491487,144.23175 C95.6491487,144.23175 84.0493949,126.499286 90.4267487,115.857857 L97.9660308,109.356 C97.9660308,109.356 100.865969,99.8998929 113.623467,98.1253929 C126.383754,96.3522857 129.286482,98.7173571 139.144041,104.625857 C149.000205,110.537143 149.580472,107.584286 152.481805,113.495571 C155.383138,119.406857 156.543672,127.087071 150.743795,140.686929 L149.000205,130.044107 C149.000205,130.044107 142.042585,127.679036 139.722913,122.950286 C137.403241,118.222929 132.185026,127.679036 114.203733,126.499286 C96.2266256,125.31675 108.403856,124.724786 115.944533,118.8135 C115.944533,118.8135 96.8054974,122.951679 96.2266256,134.77425 C95.6491487,146.595429 95.6491487,144.23175 95.6491487,144.23175" id="Fill-87" fill="#68696B" sketch:type="MSShapeGroup"></path>
                    <path d="M104.61399,155.802214 C104.61399,155.802214 116.898626,165.709607 123.511713,152.971929 C123.511713,152.971929 118.787282,148.254321 115.007179,152.971929 C115.007179,152.971929 109.812677,158.470929 104.61399,155.802214" id="Fill-88" fill="#8E8E8E" sketch:type="MSShapeGroup"></path>
                    <path d="M140.51799,155.802214 C140.51799,155.802214 128.234749,165.709607 121.620267,152.971929 C121.620267,152.971929 126.346092,148.254321 130.1248,152.971929 C130.1248,152.971929 135.322092,158.470929 140.51799,155.802214" id="Fill-89" fill="#8E8E8E" sketch:type="MSShapeGroup"></path>
                    <path d="M122.612021,164.55075 C119.004882,164.55075 116.191426,161.780357 116.071467,161.660571 L117.409149,160.326214 L116.73961,160.994786 L117.406359,160.326214 C117.431467,160.349893 119.799959,162.663429 122.613415,162.663429 L122.701292,162.663429 C124.167303,162.636964 125.532882,161.965607 126.758974,160.661893 L128.135713,161.95725 C126.541374,163.646786 124.719672,164.520107 122.716636,164.549357 L122.612021,164.55075" id="Fill-90" fill="#8E8E8E" sketch:type="MSShapeGroup"></path>
                    <path d="M156.210297,155.945679 C159.489641,172.250464 172.293169,172.490036 173.040821,172.490036 L173.074297,172.490036 L173.074297,160.887536 C171.198195,161.415429 169.481108,161.636893 167.924431,161.636893 C160.016903,161.636893 156.210297,155.945679 156.210297,155.945679" id="Fill-91" fill="#D0CFC8" sketch:type="MSShapeGroup"></path>
                    <path d="M190.751508,155.945679 C190.751508,155.945679 190.709662,156.008357 190.624574,156.121179 C190.521354,156.810643 190.386051,157.487571 190.221456,158.151964 C190.419528,157.449964 190.596677,156.715929 190.751508,155.945679" id="Fill-92" fill="#D7D6D4" sketch:type="MSShapeGroup"></path>
                    <path d="M190.624574,156.121179 C189.902031,157.079464 186.067528,161.636893 178.606359,161.636893 C176.9632,161.636893 175.145682,161.415429 173.146831,160.887536 L173.146831,172.490036 L173.183097,172.490036 C173.932144,172.490036 186.223754,172.27275 190.221456,158.151964 C190.386051,157.487571 190.521354,156.810643 190.624574,156.121179" id="Fill-93" fill="#C8C7C2" sketch:type="MSShapeGroup"></path>
                    <path d="M177.869867,164.187214 C176.606113,165.497893 174.847179,165.786214 173.812185,165.834964 L173.812185,165.825214 C173.812185,165.825214 173.648985,165.839143 173.385354,165.841929 C173.118933,165.839143 172.957128,165.825214 172.957128,165.825214 L172.957128,165.834964 C171.922133,165.786214 170.161805,165.497893 168.900841,164.187214 C168.900841,164.187214 167.514338,164.515929 168.270359,165.660857 C168.932923,166.663714 170.945723,167.291893 172.957128,167.431179 L172.957128,167.460429 C173.099405,167.460429 173.240287,167.457643 173.385354,167.452071 C173.527631,167.457643 173.669908,167.460429 173.812185,167.460429 L173.812185,167.431179 C175.824985,167.291893 177.834995,166.663714 178.498954,165.660857 C179.254974,164.515929 177.869867,164.187214 177.869867,164.187214" id="Fill-94" fill="#8E8E8E" sketch:type="MSShapeGroup"></path>
                    <path d="M29.256041,90.9633214 L26.5890462,90.9633214 L26.5890462,87.2081786 L2.80787692,87.2081786 L2.80787692,90.9633214 L-0.103220513,90.9633214 L-0.103220513,95.4483214 L1.47437949,95.4483214 L4.5054359,131.67375 L24.5260308,131.67375 L28.0466872,97.0236429 L15.6699897,95.4483214 L29.256041,95.4483214 L29.256041,90.9633214" id="Fill-95" fill="#E57368" sketch:type="MSShapeGroup"></path>
                    <path d="M19.2324923,104.535321 L0.744861538,104.535321 L2.32246154,121.033714 L16.0563692,120.908357 L16.0493949,120.950143 L26.5988103,120.863786 L28.2893949,104.535321 L19.2324923,104.535321" id="Fill-96" fill="#4DBFD9" sketch:type="MSShapeGroup"></path>
                    <path d="M28.2893949,95.4483214 L15.6699897,95.4483214 L28.1150359,97.0166786 L28.2893949,95.4483214" id="Fill-97" fill="#B75955" sketch:type="MSShapeGroup"></path>
                    <path d="M29.3676308,98.9959286 C29.0802872,98.7744643 28.8082872,98.5181786 28.5655795,98.2284643 C28.3675077,97.9944643 28.2001231,97.7479286 28.0508718,97.5 L27.9350974,98.4972857 L28.0508718,98.6574643 C28.4205128,99.0976071 28.8403692,99.4681071 29.2950974,99.7675714 L29.3676308,98.9959286" id="Fill-98" fill="#E5E5E5" sketch:type="MSShapeGroup"></path>
                    <path d="M28.9073231,98.6087143 C29.3383385,99.0377143 29.822359,99.1797857 29.822359,99.1797857 L29.7330872,99.9347143 C29.7330872,99.9347143 29.1779282,99.9347143 28.2084923,98.8580357 L28.9073231,98.6087143" id="Fill-99" fill="#E5E5E5" sketch:type="MSShapeGroup"></path>
                    <path d="M26.5932308,87.2081786 L22.5857641,87.2081786 L26.5890462,87.2081786 L26.5890462,90.9633214 L29.256041,90.9633214 L29.256041,95.4483214 L29.2616205,95.4483214 L29.2616205,90.9633214 L26.5932308,90.9633214 L26.5932308,87.2081786" id="Fill-100" fill="#E8E8E8" sketch:type="MSShapeGroup"></path>
                    <path d="M26.5890462,87.2081786 L22.5857641,87.2081786 L20.9900308,95.4483214 L29.256041,95.4483214 L29.256041,90.9633214 L26.5890462,90.9633214 L26.5890462,87.2081786" id="Fill-101" fill="#D0695F" sketch:type="MSShapeGroup"></path>
                    <path d="M25.6419282,120.87075 L25.6237949,120.87075 L24.5260308,131.67375 L24.5274256,131.67375 L25.3908513,123.189857 L25.6419282,120.87075 M27.9309128,107.996571 L26.5988103,120.863786 L26.0562051,120.867964 L26.6113641,120.898607 L27.9309128,107.996571 M28.2893949,95.4483214 L28.1150359,97.0166786 L20.8630974,96.1029643 L20.8617026,96.1099286 L28.0466872,97.0236429 L27.2892718,104.476821 L27.950441,98.5167857 L27.9350974,98.4972857 L28.0508718,97.5 C28.0550564,97.5041786 28.0578462,97.50975 28.0606359,97.5153214 L28.2893949,95.4483214" id="Fill-102" fill="#E8E8E8" sketch:type="MSShapeGroup"></path>
                    <path d="M25.6237949,120.87075 L16.0493949,120.950143 L13.9724308,131.67375 L24.5260308,131.67375 L25.6237949,120.87075 M20.8617026,96.1099286 L19.2297026,104.535321 L27.2822974,104.535321 L27.2892718,104.476821 L28.0466872,97.0236429 L20.8617026,96.1099286" id="Fill-103" fill="#D0695F" sketch:type="MSShapeGroup"></path>
                    <path d="M27.2822974,104.535321 L19.2297026,104.535321 L16.0493949,120.950143 L25.6237949,120.87075 L25.6419282,120.87075 L25.6447179,120.845679 L26.0562051,120.867964 L26.5988103,120.863786 L27.9309128,107.996571 L28.2810256,104.571536 L27.2822974,104.535321" id="Fill-104" fill="#46AEC5" sketch:type="MSShapeGroup"></path>
                    <path d="M28.2893949,95.4483214 L20.9900308,95.4483214 L20.8630974,96.1029643 L28.1150359,97.0166786 L28.2893949,95.4483214" id="Fill-105" fill="#A6514D" sketch:type="MSShapeGroup"></path>
                    <path d="M28.0508718,97.5 L27.9350974,98.4972857 L27.950441,98.5167857 L28.0606359,97.5153214 C28.0578462,97.50975 28.0550564,97.5041786 28.0508718,97.5" id="Fill-106" fill="#D0D0D0" sketch:type="MSShapeGroup"></path>
                    <path d="M27.7886359,92.6514643 C27.7886359,92.6514643 27.2292923,92.6305714 27.3506462,93.4258929 C27.4427077,93.99975 28.5223385,94.029 28.2726564,93.3604286 C27.9657846,92.5414286 27.7886359,92.6514643 27.7886359,92.6514643" id="Fill-107" fill="#75635E" sketch:type="MSShapeGroup"></path>
                    <path d="M38.2487795,97.5863571 L34.7030154,95.8480714 L29.8879179,98.4722143 L29.528041,102.397286 L36.6139897,114.616821 L41.0385231,121.781679 L49.5374769,116.750679 L38.2487795,97.5863571" id="Fill-108" fill="#F9B256" sketch:type="MSShapeGroup"></path>
                    <path d="M35.8774974,101.912571 L35.5022769,101.2635 L35.9374769,101.016964 L35.9709538,101.076857 C36.0964923,101.296929 36.2373744,101.44875 36.3963897,101.525357 C36.5512205,101.606143 36.7325538,101.608929 36.9320205,101.5365 L37.2151795,102.025393 L33.9609436,103.891821 L33.5801436,103.234393 L35.8774974,101.912571" id="Fill-109" fill="#FFFFFF" sketch:type="MSShapeGroup"></path>
                    <path d="M34.8578462,105.454607 L34.5091282,104.847321 L35.2233026,104.433643 L35.5748103,105.040929 L34.8578462,105.454607" id="Fill-110" fill="#FFFFFF" sketch:type="MSShapeGroup"></path>
                    <path d="M38.8973949,106.262464 C38.6281846,106.236 38.3533949,106.233214 38.0758154,106.252714 C37.8010256,106.270821 37.5192615,106.307036 37.2444718,106.359964 C36.9682872,106.415679 36.6976821,106.481143 36.4298667,106.564714 C36.1634462,106.646893 35.9081846,106.745786 35.6571077,106.846071 L35.2637538,106.155214 C35.4743795,106.063286 35.7003487,105.983893 35.9430564,105.912857 C36.1857641,105.833464 36.4452103,105.773571 36.7172103,105.724821 C36.9864205,105.678857 37.2681846,105.649607 37.5611077,105.635679 C37.8554256,105.618964 38.1595077,105.630107 38.4649846,105.666321 L37.6810667,104.297143 L38.2487795,103.969821 L39.3995487,105.97275 L38.8973949,106.262464" id="Fill-111" fill="#FFFFFF" sketch:type="MSShapeGroup"></path>
                    <path d="M37.2249436,108.472929 L37.2542359,108.764036 L37.4397538,108.945107 L37.6824615,108.963214 L37.9767795,108.872679 L38.3129436,108.694393 L38.4705641,108.606643 L38.4635897,108.598286 L38.1316103,108.472929 C38.0214154,108.404679 37.9237744,108.290464 37.8372923,108.142821 C37.7549949,108.00075 37.710359,107.862857 37.7047795,107.733321 C37.6978051,107.602393 37.7173333,107.479821 37.7717333,107.367 L38.0158359,107.046643 C38.123241,106.943571 38.2501744,106.851643 38.3966359,106.766679 C38.7732513,106.549393 39.1094154,106.468607 39.4065231,106.522929 C39.6994462,106.574464 39.9533128,106.784786 40.1639385,107.153893 C40.2950564,107.379536 40.3564308,107.582893 40.3522462,107.763964 C40.3438769,107.947821 40.2908718,108.114964 40.1918359,108.269571 C40.0941949,108.421393 39.9602872,108.559286 39.7887179,108.686036 C39.6185436,108.812786 39.4316308,108.935357 39.2321641,109.046786 C38.9992205,109.181893 38.7718564,109.303071 38.5472821,109.4145 C38.3241026,109.525929 38.1078974,109.594179 37.905641,109.617857 C37.6978051,109.644321 37.5081026,109.612286 37.3239795,109.520357 C37.1412513,109.422857 36.9766564,109.244571 36.8204308,108.979929 L36.6614154,108.623357 L36.6251487,108.262607 L36.7604513,107.918571 C36.8385641,107.80575 36.9529436,107.704071 37.1105641,107.612143 L37.4718359,108.2445 L37.2249436,108.472929 L37.2249436,108.472929 Z M38.4398769,107.733321 C38.3729231,107.843357 38.3812923,107.96175 38.4566154,108.089893 C38.5291487,108.222214 38.6309744,108.287679 38.7593026,108.287679 C38.8834462,108.287679 39.0619897,108.225 39.2809846,108.099643 L39.5292718,107.936679 L39.7036308,107.76675 L39.7719795,107.582893 L39.7161846,107.367 L39.5571692,107.204036 L39.3604923,107.174786 L39.124759,107.243036 L38.8653128,107.379536 C38.6449231,107.504893 38.504041,107.624679 38.4398769,107.733321 L38.4398769,107.733321 Z" id="Fill-112" fill="#FFFFFF" sketch:type="MSShapeGroup"></path>
                    <path d="M40.1053538,112.235036 L40.1095385,112.243393 L42.3580718,110.952214 L42.7067897,111.5595 L39.4232615,113.444036 L38.9880615,112.6905 L40.8209231,110.563607 L40.8167385,110.553857 L38.5221744,111.872893 L38.1720615,111.268393 L41.4514051,109.383857 L41.8907897,110.147143 L40.1053538,112.235036" id="Fill-113" fill="#FFFFFF" sketch:type="MSShapeGroup"></path>
                    <path d="M43.6050872,113.125071 C43.6818051,113.260179 43.7389949,113.3925 43.7794462,113.523429 C43.8198974,113.652964 43.8282667,113.779714 43.8129231,113.895321 L43.6692513,114.239357 C43.585559,114.348 43.4656,114.444107 43.3107692,114.536036 C43.1336205,114.637714 42.9550769,114.683679 42.7821128,114.66975 C42.606359,114.661393 42.4529231,114.588964 42.3092513,114.452464 L42.2980923,114.452464 C42.3817846,114.653036 42.3859692,114.843857 42.3162256,115.026321 C42.2464821,115.208786 42.1014154,115.363393 41.8796308,115.491536 C41.7485128,115.56675 41.6201846,115.616893 41.4834872,115.650321 C41.3453949,115.685143 41.2114872,115.685143 41.0761846,115.653107 C40.9436718,115.622464 40.8153436,115.557 40.6856205,115.455321 C40.5600821,115.356429 40.4415179,115.210179 40.3285333,115.017964 L39.6882872,113.903679 L42.9676308,112.019143 L43.6050872,113.125071 L43.6050872,113.125071 Z M40.7037538,114.540214 C40.7958154,114.697607 40.9060103,114.807643 41.0315487,114.866143 C41.1584821,114.92325 41.3161026,114.898179 41.5085949,114.785357 L41.7178256,114.61125 L41.8112821,114.421821 L41.8001231,114.217071 L41.7066667,114.002571 L41.5434667,113.715643 L40.5545026,114.281143 L40.7037538,114.540214 L40.7037538,114.540214 Z M42.1111795,113.643214 C42.2171897,113.824286 42.3259897,113.939893 42.4403692,113.984464 C42.5561436,114.030429 42.6914462,114.009536 42.8476718,113.923179 C43.0038974,113.83125 43.0931692,113.730964 43.1154872,113.613964 C43.1336205,113.502536 43.095959,113.364643 42.9983179,113.198893 L42.8644103,112.959321 L42.0037744,113.453786 L42.1111795,113.643214 L42.1111795,113.643214 Z" id="Fill-114" fill="#FFFFFF" sketch:type="MSShapeGroup"></path>
                    <path d="M45.0027487,116.798036 L44.5870769,116.0835 L41.8503385,117.657429 L41.4681436,116.993036 L44.2076718,115.4205 L43.7961846,114.705964 L44.3373949,114.398143 L45.5411692,116.493 L45.0027487,116.798036" id="Fill-115" fill="#FFFFFF" sketch:type="MSShapeGroup"></path>
                    <path d="M34.7518359,99.6268929 C34.7518359,100.221643 34.2706051,100.703571 33.6777846,100.703571 C33.0821744,100.703571 32.6023385,100.221643 32.6023385,99.6268929 C32.6023385,99.0391071 33.0821744,98.5516071 33.6777846,98.5516071 C34.2706051,98.5516071 34.7518359,99.0391071 34.7518359,99.6268929" id="Fill-116" fill="#FFFFFF" sketch:type="MSShapeGroup"></path>
                    <path d="M35.2191179,96.0806786 C35.2191179,96.0806786 35.6096821,98.4346071 34.7713641,99.3970714 C34.7713641,99.3970714 34.6109538,98.9485714 34.2887385,98.7507857 C33.9581538,98.5488214 34.5523692,98.0014286 34.5942154,97.4150357 C34.6346667,96.8300357 34.4672821,96.5807143 34.4672821,96.5807143 L34.6988308,95.8675714 L35.2191179,96.0806786" id="Fill-117" fill="#999999" sketch:type="MSShapeGroup"></path>
                    <path d="M33.6833641,93.9189643 C32.6651077,92.7099643 31.2521026,91.9926429 29.9032615,91.9926429 C29.115159,91.9926429 28.4023795,92.2405714 27.8472205,92.7085714 L27.6114872,92.9328214 C27.5682462,93.0428571 27.4120205,93.5066786 27.9350974,93.5066786 L27.9783385,93.4871786 L28.2782359,93.21975 C28.712041,92.8548214 29.2727795,92.6612143 29.9032615,92.6612143 C31.0582154,92.6612143 32.2801231,93.2893929 33.1742359,94.3479643 C34.6011897,96.0402857 34.7281231,98.2883571 33.456,99.3580714 C33.2160821,99.55725 32.9329231,99.6993214 32.6232615,99.7856786 C32.6455795,99.996 32.7306667,100.213286 32.9426872,100.401321 C33.2928,100.284321 33.6108308,100.10325 33.8884103,99.8650714 C35.4450872,98.5613571 35.3516308,95.8926429 33.6833641,93.9189643" id="Fill-118" fill="#E5E5E5" sketch:type="MSShapeGroup"></path>
                    <path d="M83.0464821,60.6617143 L83.8987487,77.44425 L163.248821,78.0626786 L163.647754,60.9611786 L83.0464821,60.6617143" id="Fill-119" fill="#67656E" sketch:type="MSShapeGroup"></path>
                    <path d="M87.6021333,62.2885714 L158.928903,62.78025 L158.309579,75.7226786 L88.465559,75.5959286 L87.6021333,62.2885714" id="Fill-120" fill="#BCB9C9" sketch:type="MSShapeGroup"></path>
                    <path d="M96.3633231,68.5731429 L134.617682,68.5731429 L134.617682,69.6804643 L96.3633231,69.6804643 L96.3633231,68.5731429 Z" id="Fill-121" fill="#282221" sketch:type="MSShapeGroup"></path>
                    <path d="M146.461538,71.9020714 C146.461538,72.9912857 145.579979,73.8729643 144.4864,73.8729643 C143.399795,73.8729643 142.515446,72.9912857 142.515446,71.9020714 C142.515446,70.8114643 143.399795,69.9283929 144.4864,69.9283929 C145.579979,69.9283929 146.461538,70.8114643 146.461538,71.9020714" id="Fill-122" fill="#282221" sketch:type="MSShapeGroup"></path>
                    <path d="M83.0353231,60.6881786 L98.9536,43.4320714 L150.533169,43.4320714 L163.861169,61.0572857 L83.0353231,60.6881786" id="Fill-123" fill="#7D7B84" sketch:type="MSShapeGroup"></path>
                    <path d="M114.690544,77.6838214 L114.707282,77.7242143 L163.248821,78.0626786 L114.690544,77.6838214" id="Fill-124" fill="#E3E3E3" sketch:type="MSShapeGroup"></path>
                    <path d="M107.430236,60.7996071 L107.33399,60.9263571 L107.993764,62.42925 L158.928903,62.78025 L158.309579,75.7226786 L113.793641,75.6418929 L114.690544,77.6838214 L163.248821,78.0626786 L163.646359,61.0558929 L107.430236,60.7996071" id="Fill-125" fill="#5C5A62" sketch:type="MSShapeGroup"></path>
                    <path d="M144.4864,73.8729643 C143.399795,73.8729643 142.515446,72.9912857 142.515446,71.9020714 C142.515446,70.8114643 143.399795,69.9283929 144.4864,69.9283929 C145.579979,69.9283929 146.461538,70.8114643 146.461538,71.9020714 C146.461538,72.9912857 145.579979,73.8729643 144.4864,73.8729643 M107.993764,62.42925 L110.691446,68.5731429 L134.619077,68.5731429 L134.619077,69.6804643 L111.176862,69.6804643 L113.793641,75.6418929 L158.309579,75.7226786 L158.928903,62.78025 L107.993764,62.42925" id="Fill-126" fill="#A7A5B3" sketch:type="MSShapeGroup"></path>
                    <path d="M134.619077,68.5731429 L110.691446,68.5731429 L111.176862,69.6804643 L134.619077,69.6804643 L134.619077,68.5731429" id="Fill-127" fill="#241E1D" sketch:type="MSShapeGroup"></path>
                    <path d="M144.4864,69.9283929 C143.399795,69.9283929 142.515446,70.8114643 142.515446,71.9020714 C142.515446,72.9912857 143.399795,73.8729643 144.4864,73.8729643 C145.579979,73.8729643 146.461538,72.9912857 146.461538,71.9020714 C146.461538,70.8114643 145.579979,69.9283929 144.4864,69.9283929" id="Fill-128" fill="#241E1D" sketch:type="MSShapeGroup"></path>
                    <path d="M120.267241,43.7343214 L117.095303,47.9505 L117.095303,49.0160357 L120.33559,49.0160357 L121.540759,57.1127143 L121.540759,58.2855 L109.321682,58.2855 L107.430236,60.7996071 L163.646359,61.0558929 L163.647754,60.9611786 L151.66999,45.084 C150.893046,45.0881786 150.065887,45.09375 149.201067,45.0979286 L149.718564,46.1481429 L151.275241,46.1481429 L159.417108,57.6099643 L159.417108,59.2535357 L133.801682,59.2535357 L133.801682,59.2103571 L124.006892,59.2103571 L124.006892,57.6099643 L124.867528,46.1481429 L141.445579,46.1481429 L140.907159,45.1355357 C138.736738,45.1425 136.562133,45.1466786 134.517251,45.1466786 C129.435733,45.1466786 125.157662,45.1202143 123.758605,45.0394286 C122.137764,44.9447143 121.215754,44.3903571 120.695467,43.7440714 L120.267241,43.7343214" id="Fill-129" fill="#6F6D76" sketch:type="MSShapeGroup"></path>
                    <path d="M88.5910974,57.1127143 L88.5910974,58.2855 L121.540759,58.2855 L121.540759,57.1127143 L118.205621,56.2547143 C118.205621,56.2547143 108.519631,55.146 107.957497,55.2058929 C107.407918,55.2713571 100.801805,55.2713571 100.002544,55.5109286 C99.2018872,55.7588571 94.5750974,55.6975714 94.2054564,55.8814286 C93.8316308,56.0680714 88.5910974,57.1127143 88.5910974,57.1127143" id="Fill-130" fill="#4A4746" sketch:type="MSShapeGroup"></path>
                    <path d="M94.7592205,49.1065714 L88.5910974,57.1127143 L121.540759,57.1127143 L120.33559,49.0160357 L94.7592205,49.1065714" id="Fill-131" fill="#9B9A9A" sketch:type="MSShapeGroup"></path>
                    <path d="M95.8667487,54.8952857 L115.180144,54.8952857 C115.180144,54.8952857 117.095303,54.7128214 117.095303,52.6806429 L117.095303,39.4944643 L102.718359,37.9539643 L93.7716513,39.8050714 L93.8316308,53.7573214 C93.9725128,54.2531786 94.4384,54.8952857 95.8667487,54.8952857" id="Fill-132" fill="#3A3A3A" sketch:type="MSShapeGroup"></path>
                    <path d="M124.006892,57.6099643 L124.006892,59.2103571 L159.417108,59.2103571 L159.417108,57.6099643 L149.178749,54.7755 L124.006892,57.6099643" id="Fill-133" fill="#4A4746" sketch:type="MSShapeGroup"></path>
                    <path d="M124.867528,46.1481429 L151.275241,46.1481429 L159.295754,57.6099643 L124.006892,57.6099643 L124.867528,46.1481429" id="Fill-134" fill="#9B9A9A" sketch:type="MSShapeGroup"></path>
                    <path d="M140.78999,44.9154643 L143.871262,50.7083571 C143.871262,50.7083571 147.205005,52.8018214 152.264205,51.3198214 L149.05321,44.7956786 L140.78999,44.9154643" id="Fill-135" fill="#4A4746" sketch:type="MSShapeGroup"></path>
                    <path d="M120.055221,41.46675 C120.055221,41.46675 119.565621,44.7956786 123.758605,45.0394286 C127.957169,45.2817857 158.059897,45.0394286 158.059897,45.0394286 C158.059897,45.0394286 161.764677,45.0394286 160.901251,40.9722857 C160.037826,36.9065357 157.570297,41.5893214 157.570297,41.5893214 L151.526318,41.9584286 L123.140677,41.8344643 L120.055221,41.46675" id="Fill-136" fill="#77736E" sketch:type="MSShapeGroup"></path>
                    <path d="M121.291077,15.0957857 L120.055221,41.46675 C120.055221,41.46675 120.304903,43.4320714 123.510318,43.4320714 L158.309579,43.4320714 C158.309579,43.4320714 161.51639,43.0699286 160.901251,40.9722857 C160.284718,38.8760357 153.127631,17.0680714 153.127631,17.0680714 C153.127631,17.0680714 152.386954,15.0957857 150.039385,15.0957857 L121.291077,15.0957857" id="Fill-137" fill="#F3EBDE" sketch:type="MSShapeGroup"></path>
                    <path d="M149.54839,17.4371786 L124.867528,17.4371786 L124.743385,40.6031786 L156.337231,40.6031786 L149.54839,17.4371786" id="Fill-138" fill="#EFEFEF" sketch:type="MSShapeGroup"></path>
                    <path d="M93.7716513,39.2507143 C93.7716513,39.2507143 93.5261538,42.9431786 96.1164308,43.0699286 C98.7081026,43.1897143 114.874667,43.0699286 114.874667,43.0699286 C116.231877,42.7621071 117.238974,42.6353571 117.095303,38.7548571 C116.969764,35.4287143 111.294031,38.1392143 111.294031,38.1392143 L93.7716513,39.2507143" id="Fill-139" fill="#77736E" sketch:type="MSShapeGroup"></path>
                    <path d="M95.9922872,23.9710714 L114.378092,23.9710714 C114.378092,23.9710714 117.095303,24.2148214 117.095303,27.7875 L117.095303,38.7548571 C117.095303,38.7548571 117.463549,41.46675 112.900923,41.46675 L97.7205333,41.46675 C97.7205333,41.46675 93.7716513,41.7091071 93.7716513,38.6295 C93.7716513,35.5498929 95.9922872,23.9710714 95.9922872,23.9710714" id="Fill-140" fill="#F3EBDE" sketch:type="MSShapeGroup"></path>
                    <path d="M94.8805744,29.3920714 L117.463549,29.3920714 L113.885703,29.7639643 L113.63881,30.2486786 L97.3494974,30.2486786 L97.5991795,29.6344286 L94.8805744,29.3920714" id="Fill-141" fill="#3A3A3A" sketch:type="MSShapeGroup"></path>
                    <path d="M99.6928821,25.3862143 C99.6928821,25.5533571 99.2256,25.69125 98.6467282,25.69125 C98.0706462,25.69125 97.5991795,25.5533571 97.5991795,25.3862143 C97.5991795,25.2190714 98.0706462,25.0797857 98.6467282,25.0797857 C99.2256,25.0797857 99.6928821,25.2190714 99.6928821,25.3862143" id="Fill-142" fill="#3A3A3A" sketch:type="MSShapeGroup"></path>
                    <path d="M152.346503,32.5914643 L151.734154,30.3865714 L141.0048,30.3865714 L141.3856,32.5914643 L152.346503,32.5914643" id="Fill-143" fill="#727373" sketch:type="MSShapeGroup"></path>
                    <path d="M150.923733,27.4420714 L140.502646,27.4420714 L140.902974,29.7820714 L151.568164,29.7820714 L150.923733,27.4420714" id="Fill-144" fill="#727373" sketch:type="MSShapeGroup"></path>
                    <path d="M139.915405,24.0267857 L149.973826,24.0267857 L149.33079,21.6881786 L139.515077,21.6881786 L139.915405,24.0267857" id="Fill-145" fill="#727373" sketch:type="MSShapeGroup"></path>
                    <path d="M150.756349,26.8361786 L150.145395,24.6298929 L140.02281,24.6298929 L140.399426,26.8361786 L150.756349,26.8361786" id="Fill-146" fill="#727373" sketch:type="MSShapeGroup"></path>
                    <path d="M152.516677,33.1959643 L141.486031,33.1959643 L141.890544,35.5373571 L153.162503,35.5373571 L152.516677,33.1959643" id="Fill-147" fill="#727373" sketch:type="MSShapeGroup"></path>
                    <path d="M153.328492,36.1404643 L141.990974,36.1404643 L142.509867,39.1838571 L154.170995,39.1838571 L153.328492,36.1404643" id="Fill-148" fill="#727373" sketch:type="MSShapeGroup"></path>
                    <path d="M149.160615,21.0808929 L148.542687,18.8425714 L139.031056,18.8425714 L139.411856,21.0808929 L149.160615,21.0808929" id="Fill-149" fill="#727373" sketch:type="MSShapeGroup"></path>
                    <path d="M125.961108,18.9721071 L125.961108,19.1462143 L137.874708,19.1462143 L139.088246,26.9629286 L126.202421,26.9657143 L126.134072,18.9707143 L125.961108,18.9721071 L125.961108,19.1462143 L125.961108,18.9721071 L125.786749,18.9735 L125.855097,27.3139286 L139.494154,27.3111429 L138.17321,18.798 L125.785354,18.798 L125.786749,18.9735 L125.961108,18.9721071" id="Fill-150" fill="#727373" sketch:type="MSShapeGroup"></path>
                    <path d="M130.364718,31.3239643 L127.940431,31.3239643 L127.940431,33.7976786 L130.466544,33.7976786 L130.364718,31.3239643" id="Fill-151" fill="#727373" sketch:type="MSShapeGroup"></path>
                    <path d="M138.103467,31.1192143 L137.739405,28.4115 L135.415549,28.4115 L135.573169,31.1192143 L138.103467,31.1192143" id="Fill-152" fill="#727373" sketch:type="MSShapeGroup"></path>
                    <path d="M132.821087,31.1192143 L132.709497,28.4115 L130.447015,28.4115 L130.558605,31.1192143 L132.821087,31.1192143" id="Fill-153" fill="#727373" sketch:type="MSShapeGroup"></path>
                    <path d="M130.243364,28.4115 L127.940431,28.4115 L127.940431,31.1192143 L130.357744,31.1192143 L130.243364,28.4115" id="Fill-154" fill="#727373" sketch:type="MSShapeGroup"></path>
                    <path d="M135.376492,31.1192143 L135.211897,28.4115 L132.907569,28.4115 L133.019159,31.1192143 L135.376492,31.1192143" id="Fill-155" fill="#727373" sketch:type="MSShapeGroup"></path>
                    <path d="M139.04361,36.6056786 L141.050831,36.6056786 L140.597497,34.0010357 L138.692103,34.0010357 L139.04361,36.6056786" id="Fill-156" fill="#727373" sketch:type="MSShapeGroup"></path>
                    <path d="M138.666995,33.7962857 L140.562626,33.7962857 L140.13719,31.3239643 L138.337805,31.3239643 L138.666995,33.7962857" id="Fill-157" fill="#727373" sketch:type="MSShapeGroup"></path>
                    <path d="M138.464738,33.7962857 L138.129969,31.3239643 L135.588513,31.3239643 L135.734974,33.7962857 L138.464738,33.7962857" id="Fill-158" fill="#727373" sketch:type="MSShapeGroup"></path>
                    <path d="M133.132144,33.7962857 L135.535508,33.7962857 L135.386256,31.3239643 L133.030318,31.3239643 L133.132144,33.7962857" id="Fill-159" fill="#727373" sketch:type="MSShapeGroup"></path>
                    <path d="M130.670195,33.7976786 L132.932677,33.7976786 L132.828062,31.3239643 L130.568369,31.3239643 L130.670195,33.7976786" id="Fill-160" fill="#727373" sketch:type="MSShapeGroup"></path>
                    <path d="M127.738174,28.4115 L125.961108,28.4115 L125.924841,31.1192143 L127.738174,31.1192143 L127.738174,28.4115" id="Fill-161" fill="#727373" sketch:type="MSShapeGroup"></path>
                    <path d="M138.838564,36.6056786 L138.487056,34.0010357 L135.747528,34.0010357 L135.903754,36.6056786 L138.838564,36.6056786" id="Fill-162" fill="#727373" sketch:type="MSShapeGroup"></path>
                    <path d="M140.098133,31.1192143 L139.628062,28.4115 L137.941662,28.4115 L138.302933,31.1192143 L140.098133,31.1192143" id="Fill-163" fill="#727373" sketch:type="MSShapeGroup"></path>
                    <path d="M141.082913,36.8048571 L125.856492,36.8048571 L125.825805,39.2507143 L141.506954,39.2507143 L141.082913,36.8048571" id="Fill-164" fill="#727373" sketch:type="MSShapeGroup"></path>
                    <path d="M127.738174,31.3239643 L125.924841,31.3239643 L125.898338,33.7976786 L127.738174,33.7976786 L127.738174,31.3239643" id="Fill-165" fill="#727373" sketch:type="MSShapeGroup"></path>
                    <path d="M127.738174,34.0010357 L125.891364,34.0010357 L125.857887,36.6056786 L127.738174,36.6056786 L127.738174,34.0010357" id="Fill-166" fill="#727373" sketch:type="MSShapeGroup"></path>
                    <path d="M133.139118,34.0010357 L133.247918,36.6056786 L135.701497,36.6056786 L135.545272,34.0010357 L133.139118,34.0010357" id="Fill-167" fill="#727373" sketch:type="MSShapeGroup"></path>
                    <path d="M130.473518,34.0010357 L127.940431,34.0010357 L127.940431,36.6056786 L130.582318,36.6056786 L130.473518,34.0010357" id="Fill-168" fill="#727373" sketch:type="MSShapeGroup"></path>
                    <path d="M130.677169,34.0010357 L130.785969,36.6056786 L133.047056,36.6056786 L132.939651,34.0010357 L130.677169,34.0010357" id="Fill-169" fill="#727373" sketch:type="MSShapeGroup"></path>
                    <g id="Group-172" transform="translate(147.856410, 15.321429)">
                        <mask id="mask-2" sketch:name="Clip 171" fill="white">
                            <use xlink:href="#path-1"></use>
                        </mask>
                        <g id="Clip-171"></g>
                        <path d="M-0.383589744,-0.271607143 L13.2833641,-0.271607143 L13.2833641,27.9379286 L-0.383589744,27.9379286 L-0.383589744,-0.271607143 Z" id="Fill-170" fill="#E3E3E3" sketch:type="MSShapeGroup" mask="url(#mask-2)"></path>
                    </g>
                    <path d="M151.275241,46.1481429 L149.718564,46.1481429 L151.275241,46.1481429 L159.266462,57.5681786 L159.417108,57.6099643 L159.417108,59.2103571 L133.801682,59.2103571 L133.801682,59.2535357 L159.417108,59.2535357 L159.417108,57.6099643 L151.275241,46.1481429" id="Fill-173" fill="#636169" sketch:type="MSShapeGroup"></path>
                    <path d="M159.266462,57.5681786 L159.295754,57.6099643 L133.888164,57.6099643 L133.801682,57.6489643 L133.801682,59.2103571 L159.417108,59.2103571 L159.417108,57.6099643 L159.266462,57.5681786" id="Fill-174" fill="#423F3E" sketch:type="MSShapeGroup"></path>
                    <path d="M151.275241,46.1481429 L149.718564,46.1481429 L152.264205,51.3198214 C150.941867,51.7084286 149.738092,51.8505 148.680779,51.8505 C148.047508,51.8505 147.467241,51.8003571 146.945559,51.7195714 L146.969272,51.8268214 L133.888164,57.6099643 L159.295754,57.6099643 L159.266462,57.5681786 L151.275241,46.1481429" id="Fill-175" fill="#8A8989" sketch:type="MSShapeGroup"></path>
                    <path d="M149.170379,45.0979286 C147.993108,45.1048929 146.747487,45.1118571 145.46281,45.1174286 L146.945559,51.7195714 C147.467241,51.8003571 148.047508,51.8505 148.680779,51.8505 C149.738092,51.8505 150.941867,51.7084286 152.264205,51.3198214 L149.718564,46.1481429 L149.581867,46.1481429 L149.170379,45.0979286" id="Fill-176" fill="#423F3E" sketch:type="MSShapeGroup"></path>
                    <path d="M160.977969,41.3957143 C161.074215,43.1200714 158.309579,43.4320714 158.309579,43.4320714 L130.585108,43.4320714 L130.585108,45.1048929 L145.460021,45.1048929 L145.46281,45.1174286 C146.747487,45.1118571 147.993108,45.1048929 149.170379,45.0979286 L149.05321,44.7956786 L158.059897,45.0394286 C158.059897,45.0394286 160.160574,44.889 160.846851,43.2593571 C161.02121,42.7788214 161.089559,42.16875 160.977969,41.3957143" id="Fill-177" fill="#6A6662" sketch:type="MSShapeGroup"></path>
                    <path d="M149.712985,15.0957857 L147.472821,15.0957857 L146.075159,17.4371786 L149.54839,17.4371786 L156.337231,40.6031786 L132.251979,40.6031786 L130.585108,43.3958571 L130.585108,43.4320714 L158.309579,43.4320714 C158.309579,43.4320714 161.074215,43.1200714 160.977969,41.3957143 C160.973785,41.33025 160.96681,41.2647857 160.954256,41.1951429 C160.938913,41.1227143 160.920779,41.0475 160.901251,40.9722857 L153.127631,17.0680714 C153.127631,17.0680714 152.875159,16.3939286 152.195856,15.834 C151.690913,15.5038929 150.911179,15.2058214 149.712985,15.0957857" id="Fill-178" fill="#D8D0C6" sketch:type="MSShapeGroup"></path>
                    <path d="M142.509867,39.1838571 L141.990974,36.1404643 L153.328492,36.1404643 L154.170995,39.1838571 L142.509867,39.1838571 M139.04361,36.6056786 L138.692103,34.0010357 L140.597497,34.0010357 L141.050831,36.6056786 L139.04361,36.6056786 M141.890544,35.5373571 L141.486031,33.1959643 L152.516677,33.1959643 L153.162503,35.5373571 L141.890544,35.5373571 M138.666995,33.7962857 L138.337805,31.3239643 L140.13719,31.3239643 L140.562626,33.7962857 L138.666995,33.7962857 M141.3856,32.5914643 L141.0048,30.3865714 L151.734154,30.3865714 L152.346503,32.5914643 L141.3856,32.5914643 M140.902974,29.7820714 L140.502646,27.4420714 L150.923733,27.4420714 L151.568164,29.7820714 L140.902974,29.7820714 M149.54839,17.4371786 L146.075159,17.4371786 L145.236841,18.8425714 L148.542687,18.8425714 L149.160615,21.0808929 L143.900554,21.0808929 L143.537887,21.6881786 L149.33079,21.6881786 L149.973826,24.0267857 L142.143015,24.0267857 L141.783138,24.6298929 L150.145395,24.6298929 L150.756349,26.8361786 L140.466379,26.8361786 L139.526236,28.4115 L139.628062,28.4115 L140.098133,31.1192143 L138.302933,31.1192143 L138.231795,30.5815714 L138.0672,30.8559643 L138.103467,31.1192143 L137.910974,31.1192143 L137.788226,31.3239643 L138.129969,31.3239643 L138.464738,33.7962857 L136.313846,33.7962857 L136.191097,34.0010357 L138.487056,34.0010357 L138.838564,36.6056786 L135.903754,36.6056786 L135.787979,34.6765714 L135.603856,34.9857857 L135.701497,36.6056786 L134.63721,36.6056786 L134.518646,36.8048571 L141.082913,36.8048571 L141.506954,39.2507143 L133.05961,39.2507143 L132.251979,40.6031786 L156.337231,40.6031786 L149.54839,17.4371786" id="Fill-179" fill="#D5D5D5" sketch:type="MSShapeGroup"></path>
                    <path d="M151.734154,30.3865714 L141.0048,30.3865714 L141.3856,32.5914643 L152.346503,32.5914643 L151.734154,30.3865714" id="Fill-180" fill="#656666" sketch:type="MSShapeGroup"></path>
                    <path d="M150.923733,27.4420714 L140.502646,27.4420714 L140.902974,29.7820714 L151.568164,29.7820714 L150.923733,27.4420714" id="Fill-181" fill="#656666" sketch:type="MSShapeGroup"></path>
                    <path d="M149.33079,21.6881786 L143.537887,21.6881786 L142.143015,24.0267857 L149.973826,24.0267857 L149.33079,21.6881786" id="Fill-182" fill="#656666" sketch:type="MSShapeGroup"></path>
                    <path d="M150.145395,24.6298929 L141.783138,24.6298929 L140.466379,26.8361786 L150.756349,26.8361786 L150.145395,24.6298929" id="Fill-183" fill="#656666" sketch:type="MSShapeGroup"></path>
                    <path d="M152.516677,33.1959643 L141.486031,33.1959643 L141.890544,35.5373571 L153.162503,35.5373571 L152.516677,33.1959643" id="Fill-184" fill="#656666" sketch:type="MSShapeGroup"></path>
                    <path d="M153.328492,36.1404643 L141.990974,36.1404643 L142.509867,39.1838571 L154.170995,39.1838571 L153.328492,36.1404643" id="Fill-185" fill="#656666" sketch:type="MSShapeGroup"></path>
                    <path d="M148.542687,18.8425714 L145.236841,18.8425714 L143.900554,21.0808929 L149.160615,21.0808929 L148.542687,18.8425714" id="Fill-186" fill="#656666" sketch:type="MSShapeGroup"></path>
                    <path d="M138.0672,30.8559643 L137.910974,31.1192143 L138.103467,31.1192143 L138.0672,30.8559643" id="Fill-187" fill="#656666" sketch:type="MSShapeGroup"></path>
                    <path d="M140.597497,34.0010357 L138.692103,34.0010357 L139.04361,36.6056786 L141.050831,36.6056786 L140.597497,34.0010357" id="Fill-188" fill="#656666" sketch:type="MSShapeGroup"></path>
                    <path d="M140.13719,31.3239643 L138.337805,31.3239643 L138.666995,33.7962857 L140.562626,33.7962857 L140.13719,31.3239643" id="Fill-189" fill="#656666" sketch:type="MSShapeGroup"></path>
                    <path d="M138.129969,31.3239643 L137.788226,31.3239643 L136.313846,33.7962857 L138.464738,33.7962857 L138.129969,31.3239643" id="Fill-190" fill="#656666" sketch:type="MSShapeGroup"></path>
                    <path d="M138.487056,34.0010357 L136.191097,34.0010357 L135.787979,34.6765714 L135.903754,36.6056786 L138.838564,36.6056786 L138.487056,34.0010357" id="Fill-191" fill="#656666" sketch:type="MSShapeGroup"></path>
                    <path d="M139.628062,28.4115 L139.526236,28.4115 L138.231795,30.5815714 L138.302933,31.1192143 L140.098133,31.1192143 L139.628062,28.4115" id="Fill-192" fill="#656666" sketch:type="MSShapeGroup"></path>
                    <path d="M141.082913,36.8048571 L134.518646,36.8048571 L133.05961,39.2507143 L141.506954,39.2507143 L141.082913,36.8048571" id="Fill-193" fill="#656666" sketch:type="MSShapeGroup"></path>
                    <path d="M135.603856,34.9857857 L134.63721,36.6056786 L135.701497,36.6056786 L135.603856,34.9857857" id="Fill-194" fill="#656666" sketch:type="MSShapeGroup"></path>
                    <path d="M107.773374,23.9292857 L107.765005,23.9710714 L114.378092,23.9710714 C114.378092,23.9710714 115.339159,24.0574286 116.117497,24.8778214 C115.739487,24.4014643 115.185723,24.0184286 114.378092,23.9710714 L107.773374,23.9292857" id="Fill-195" fill="#E3E3E3" sketch:type="MSShapeGroup"></path>
                    <path d="M120.33559,49.0160357 L117.095303,49.0160357 L117.095303,49.0271786 L120.33559,49.0160357 L121.540759,57.1127143 L121.540759,58.2534643 L121.540759,57.1127143 L120.33559,49.0160357" id="Fill-196" fill="#636169" sketch:type="MSShapeGroup"></path>
                    <path d="M121.540759,57.1127143 L98.9480205,57.1127143 L98.6230154,57.2450357 L98.6230154,58.2534643 L121.540759,58.2534643 L121.540759,57.1127143" id="Fill-197" fill="#423F3E" sketch:type="MSShapeGroup"></path>
                    <path d="M120.33559,49.0160357 L117.095303,49.0271786 L117.095303,52.6806429 C117.095303,54.7128214 115.180144,54.8952857 115.180144,54.8952857 L104.252718,54.8952857 L104.252718,54.9398571 L98.9480205,57.1127143 L121.540759,57.1127143 L120.33559,49.0160357" id="Fill-198" fill="#8A8989" sketch:type="MSShapeGroup"></path>
                    <path d="M116.915364,41.4193929 C116.572226,42.7328571 115.806441,42.8582143 114.874667,43.0699286 C114.874667,43.0699286 109.357949,43.1103214 104.252718,43.1214643 L104.252718,54.8952857 L115.180144,54.8952857 C115.180144,54.8952857 117.095303,54.7128214 117.095303,52.6806429 L117.095303,49.0160357 L116.915364,49.0160357 L116.915364,41.4193929" id="Fill-199" fill="#343434" sketch:type="MSShapeGroup"></path>
                    <path d="M116.915364,39.7493571 C116.568041,40.5237857 115.591631,41.46675 112.900923,41.46675 L104.252718,41.46675 L104.252718,43.1214643 C109.357949,43.1103214 114.874667,43.0699286 114.874667,43.0699286 C115.806441,42.8582143 116.572226,42.7328571 116.915364,41.4193929 L116.915364,39.7493571" id="Fill-200" fill="#6A6662" sketch:type="MSShapeGroup"></path>
                    <path d="M116.915364,29.4477857 L113.885703,29.7639643 L113.63881,30.2486786 L106.499856,30.2486786 L104.252718,41.3943214 L104.252718,41.46675 L112.900923,41.46675 C115.591631,41.46675 116.568041,40.5237857 116.915364,39.7493571 L116.915364,29.4477857 M114.378092,23.9710714 L107.765005,23.9710714 L106.671426,29.3920714 L116.915364,29.3920714 L116.915364,26.9378571 C116.915364,26.9378571 116.812144,25.7511429 116.117497,24.8778214 C115.339159,24.0574286 114.378092,23.9710714 114.378092,23.9710714" id="Fill-201" fill="#D8D0C6" sketch:type="MSShapeGroup"></path>
                    <path d="M116.915364,29.3920714 L106.671426,29.3920714 L106.499856,30.2486786 L113.63881,30.2486786 L113.885703,29.7639643 L116.915364,29.4477857 L116.915364,29.3920714" id="Fill-202" fill="#343434" sketch:type="MSShapeGroup"></path>
                    <path d="M94.7396923,5.79707143 L94.9070769,6.10210714 L105.648985,0.245142857 L114.082379,5.44885714 L94.7396923,5.44885714 L94.7396923,5.79707143 L94.9070769,6.10210714 L94.7396923,5.79707143 L94.7396923,6.14528571 L116.538749,6.14528571 L105.671303,-0.561321429 L93.3727179,6.14528571 L94.7396923,6.14528571 L94.7396923,5.79707143" id="Fill-203" fill="#282221" sketch:type="MSShapeGroup"></path>
                    <path d="M93.296,4.42510714 L117.01719,4.42510714 L117.01719,14.7280714 L93.296,14.7280714 L93.296,4.42510714 Z" id="Fill-204" fill="#76A7FA" sketch:type="MSShapeGroup"></path>
                    <path d="M95.3436718,5.79707143 C95.3436718,6.12578571 95.0716718,6.40157143 94.7396923,6.40157143 C94.4049231,6.40157143 94.1343179,6.12578571 94.1343179,5.79707143 C94.1343179,5.46278571 94.4049231,5.19257143 94.7396923,5.19257143 C95.0716718,5.19257143 95.3436718,5.46278571 95.3436718,5.79707143" id="Fill-205" fill="#282221" sketch:type="MSShapeGroup"></path>
                    <path d="M115.911056,5.79707143 C115.911056,6.12578571 115.640451,6.40157143 115.309867,6.40157143 C114.976492,6.40157143 114.707282,6.12578571 114.707282,5.79707143 C114.707282,5.46278571 114.976492,5.19257143 115.309867,5.19257143 C115.640451,5.19257143 115.911056,5.46278571 115.911056,5.79707143" id="Fill-206" fill="#282221" sketch:type="MSShapeGroup"></path>
                    <path d="M99.5617641,10.569 L99.5854769,10.8573214 L99.6845128,11.0787857 L99.8728205,11.2194643 L100.169928,11.271 C100.305231,11.271 100.430769,11.22225 100.549333,11.1289286 C100.656738,11.0425714 100.715323,10.9005 100.715323,10.7096786 L100.676267,10.4450357 L100.536779,10.24725 L100.284308,10.0828929 C100.182482,10.0355357 100.052759,9.984 99.9007179,9.93385714 C99.6928821,9.867 99.5199179,9.79178571 99.3706667,9.711 C99.2242051,9.62882143 99.1000615,9.53271429 98.9982359,9.42685714 C98.8992,9.31821429 98.8280615,9.19425 98.7778462,9.05078571 C98.7346051,8.90871429 98.7108923,8.74435714 98.7108923,8.55771429 C98.7108923,8.112 98.8378256,7.77632143 99.0833231,7.55485714 C99.3371897,7.33757143 99.6775385,7.22475 100.115528,7.22475 C100.317785,7.22475 100.507487,7.24842857 100.680451,7.29578571 C100.853415,7.33757143 101.002667,7.40721429 101.124021,7.51028571 C101.250954,7.60639286 101.348595,7.73592857 101.419733,7.89053571 C101.489477,8.04235714 101.521559,8.23178571 101.521559,8.44628571 L101.521559,8.57582143 L100.641395,8.57582143 C100.641395,8.35853571 100.609313,8.19139286 100.5312,8.073 C100.457272,7.95878571 100.327549,7.90167857 100.1504,7.90167857 L99.8951385,7.94346429 L99.7333333,8.06325 L99.6510359,8.23178571 L99.6273231,8.42678571 C99.6273231,8.56885714 99.6538256,8.68307143 99.7152,8.78196429 C99.7751795,8.87667857 99.9007179,8.96582143 100.096,9.04521429 L100.801805,9.34746429 C100.977559,9.42685714 101.121231,9.50485714 101.231426,9.58703571 L101.492267,9.85585714 L101.631754,10.16925 C101.654072,10.2834643 101.672205,10.4116071 101.672205,10.5522857 C101.672205,11.0286429 101.529928,11.3768571 101.253744,11.5955357 C100.977559,11.8142143 100.58839,11.92425 100.091815,11.92425 C99.5701333,11.92425 99.2032821,11.8086429 98.9814974,11.5857857 C98.7597128,11.3643214 98.6467282,11.0397857 98.6467282,10.6191429 L98.6467282,10.4352857 L99.5617641,10.4352857 L99.5617641,10.569" id="Fill-207" fill="#FFFFFF" sketch:type="MSShapeGroup"></path>
                    <path d="M102.080903,8.63292857 C102.11159,8.346 102.182728,8.0925 102.287344,7.88914286 C102.397538,7.683 102.552369,7.51864286 102.756021,7.39885714 C102.961067,7.28742857 103.233067,7.22475 103.578995,7.22475 C103.923528,7.22475 104.198318,7.28742857 104.399179,7.39885714 C104.602831,7.51864286 104.760451,7.683 104.866462,7.88914286 C104.979446,8.0925 105.0464,8.346 105.075692,8.63292857 C105.111959,8.92542857 105.123118,9.24021429 105.123118,9.58146429 C105.123118,9.92967857 105.111959,10.24725 105.075692,10.5355714 C105.0464,10.8225 104.979446,11.0718214 104.866462,11.28075 C104.760451,11.4882857 104.602831,11.6456786 104.399179,11.7571071 C104.198318,11.8629643 103.923528,11.92425 103.578995,11.92425 C103.233067,11.92425 102.961067,11.8629643 102.756021,11.7571071 C102.552369,11.6456786 102.397538,11.4882857 102.287344,11.28075 C102.182728,11.0718214 102.11159,10.8225 102.080903,10.5355714 C102.048821,10.24725 102.033477,9.92967857 102.033477,9.58146429 C102.033477,9.24021429 102.048821,8.92542857 102.080903,8.63292857 L102.080903,8.63292857 Z M102.970831,10.3614643 C102.986174,10.5773571 103.018256,10.7486786 103.058708,10.881 C103.104738,11.0161071 103.171692,11.115 103.252595,11.1776786 C103.334892,11.2347857 103.442297,11.271 103.578995,11.271 C103.714297,11.271 103.824492,11.2347857 103.904,11.1776786 C103.990482,11.115 104.053251,11.0161071 104.097887,10.881 C104.145313,10.7486786 104.171815,10.5773571 104.184369,10.3614643 C104.199713,10.1469643 104.209477,9.8865 104.209477,9.58146429 C104.209477,9.282 104.199713,9.01875 104.184369,8.80703571 C104.171815,8.59810714 104.145313,8.42260714 104.097887,8.28610714 C104.053251,8.151 103.990482,8.05210714 103.904,7.98942857 C103.824492,7.92953571 103.714297,7.90167857 103.578995,7.90167857 C103.442297,7.90167857 103.334892,7.92953571 103.252595,7.98942857 C103.171692,8.05210714 103.104738,8.151 103.058708,8.28610714 C103.018256,8.42260714 102.986174,8.59810714 102.970831,8.80703571 C102.956882,9.01875 102.948513,9.282 102.948513,9.58146429 C102.948513,9.8865 102.956882,10.1469643 102.970831,10.3614643 L102.970831,10.3614643 Z" id="Fill-208" fill="#FFFFFF" sketch:type="MSShapeGroup"></path>
                    <path d="M105.664328,7.31807143 L106.583549,7.31807143 L106.583549,11.10525 L108.202995,11.10525 L108.202995,11.8532143 L105.664328,11.8532143 L105.664328,7.31807143" id="Fill-209" fill="#FFFFFF" sketch:type="MSShapeGroup"></path>
                    <path d="M110.16279,7.31807143 C110.476636,7.31807143 110.734687,7.36542857 110.931364,7.47267857 C111.126646,7.57435714 111.278687,7.722 111.386092,7.91142857 C111.494892,8.10642857 111.567426,8.34042857 111.605087,8.61482143 C111.645538,8.88503571 111.663672,9.1845 111.663672,9.51878571 C111.663672,9.91853571 111.637169,10.2639643 111.591138,10.55925 C111.540923,10.8531429 111.457231,11.0968929 111.337272,11.2863214 C111.217313,11.4743571 111.059692,11.622 110.863015,11.7111429 C110.659364,11.8058571 110.411077,11.8532143 110.10281,11.8532143 L108.659118,11.8532143 L108.659118,7.31807143 L110.16279,7.31807143 L110.16279,7.31807143 Z M109.985641,11.1790714 C110.141867,11.1790714 110.274379,11.1498214 110.370626,11.0968929 C110.466872,11.0425714 110.546379,10.9506429 110.602174,10.8211071 C110.657969,10.6971429 110.697026,10.5286071 110.717949,10.3210714 C110.734687,10.1149286 110.745846,9.85585714 110.745846,9.54525 C110.745846,9.28617857 110.734687,9.06332143 110.720738,8.86553571 C110.70121,8.66914286 110.670523,8.50617857 110.616123,8.37942857 C110.565908,8.2485 110.4864,8.151 110.3776,8.08553571 C110.278564,8.02007143 110.137682,7.98664286 109.963323,7.98664286 L109.576944,7.98664286 L109.576944,11.1790714 L109.985641,11.1790714 L109.985641,11.1790714 Z" id="Fill-210" fill="#FFFFFF" sketch:type="MSShapeGroup"></path>
                    <path d="M127.074215,20.3997857 L126.814769,20.4527143 L126.75479,20.4165 L126.735262,20.2855714 L126.746421,20.2396071 L127.176041,19.9108929 L127.385272,19.9108929 L127.432697,19.9624286 L127.452226,21.6951429 L127.403405,21.7438929 L127.139774,21.7438929 L127.08119,21.6951429 L127.074215,20.3997857" id="Fill-211" fill="#727373" sketch:type="MSShapeGroup"></path>
                    <path d="M128.082708,21.3274286 C128.219405,21.3274286 128.335179,21.4291071 128.337969,21.5502857 C128.340759,21.6686786 128.230564,21.77175 128.092472,21.77175 C127.952985,21.77175 127.838605,21.6686786 127.83721,21.5502857 C127.835815,21.4291071 127.94601,21.3274286 128.082708,21.3274286" id="Fill-212" fill="#727373" sketch:type="MSShapeGroup"></path>
                    <path d="M128.60439,21.6645 L129.335303,20.202 L128.552779,20.202 L128.49559,20.15325 L128.491405,19.9624286 L128.54441,19.9108929 L129.771897,19.9108929 L129.833272,19.9624286 L129.834667,19.97775 L129.008903,21.6686786 L128.908472,21.7438929 L128.685292,21.7438929 L128.605785,21.6951429 L128.60439,21.6645" id="Fill-213" fill="#727373" sketch:type="MSShapeGroup"></path>
                    <path d="M130.296369,21.5154643 C130.434462,21.4722857 130.855713,21.2898214 130.929641,20.9945357 C130.882215,21.0223929 130.734359,21.0683571 130.589292,21.0683571 C130.288,21.0683571 129.967179,20.8719643 129.947651,20.48475 C129.930913,20.1490714 130.222441,19.8663214 130.587897,19.8663214 C131.050995,19.8663214 131.313231,20.2047857 131.341128,20.6128929 C131.395528,21.3984643 130.670195,21.7104643 130.409354,21.7898571 L130.324267,21.7480714 L130.241969,21.5920714 L130.296369,21.5154643 L130.296369,21.5154643 Z M130.978462,20.5683214 C130.967303,20.3900357 130.848738,20.1769286 130.607426,20.1769286 C130.423303,20.1769286 130.272656,20.319 130.282421,20.4889286 C130.29079,20.6574643 130.458174,20.8051071 130.649272,20.8051071 C130.847344,20.8051071 130.953354,20.6672143 130.978462,20.5683214 L130.978462,20.5683214 Z" id="Fill-214" fill="#727373" sketch:type="MSShapeGroup"></path>
                    <path d="M132.334277,19.88025 L132.384492,19.8315 L132.464,19.8315 L133.811446,21.0223929 L133.818421,21.0223929 L133.699856,19.9053214 L133.747282,19.8593571 L134.020677,19.8593571 L134.083446,19.9053214 L134.288492,21.7216071 L134.232697,21.77175 L134.160164,21.77175 L132.782031,20.5321071 L132.772267,20.5321071 L132.878277,21.6951429 L132.828062,21.7438929 L132.549087,21.7438929 L132.489108,21.6951429 L132.334277,19.88025" id="Fill-215" fill="#727373" sketch:type="MSShapeGroup"></path>
                    <path d="M134.617682,19.9053214 L134.667897,19.8593571 L135.340226,19.8593571 C135.694523,19.8593571 135.993026,20.0766429 136.032082,20.3538214 C136.062769,20.5641429 135.899569,20.7243214 135.764267,20.7814286 C135.930256,20.8273929 136.178544,20.9750357 136.213415,21.2215714 C136.256656,21.5210357 136,21.7438929 135.627569,21.7438929 L134.896656,21.7438929 L134.833887,21.6951429 L134.617682,19.9053214 L134.617682,19.9053214 Z M135.409969,20.6491071 C135.563405,20.6491071 135.654072,20.5474286 135.634544,20.4081429 C135.61641,20.27025 135.500636,20.1783214 135.3472,20.1783214 L135.029169,20.1783214 L135.089149,20.6491071 L135.409969,20.6491071 L135.409969,20.6491071 Z M135.552246,21.4263214 C135.705682,21.4263214 135.813087,21.3204643 135.793559,21.1797857 C135.776821,21.0446786 135.612226,20.9471786 135.451815,20.9471786 L135.125415,20.9471786 L135.18679,21.4263214 L135.552246,21.4263214 L135.552246,21.4263214 Z" id="Fill-216" fill="#727373" sketch:type="MSShapeGroup"></path>
                    <path d="M136.754626,20.1797143 L136.299897,20.1797143 L136.235733,20.1309643 L136.203651,19.9053214 L136.253867,19.8593571 L137.542728,19.8593571 L137.606892,19.9053214 L137.644554,20.1309643 L137.595733,20.1797143 L137.143795,20.1797143 L137.383713,21.6951429 L137.334892,21.7438929 L137.050338,21.7438929 L136.984779,21.6951429 L136.754626,20.1797143" id="Fill-217" fill="#727373" sketch:type="MSShapeGroup"></path>
                    <path d="M65.1293538,135.853714 C65.1293538,135.853714 69.3209436,147.291857 76.5868308,151.476 L75.7499077,147.291857 C75.7499077,147.291857 77.7027282,152.034536 80.2176821,153.707357 C82.7326359,155.38575 81.8943179,152.034536 81.8943179,152.034536 L82.7326359,155.38575 L81.6153436,173.239393 C81.6153436,173.239393 85.8069333,172.680857 87.7625436,169.892357 L85.8069333,172.680857 C85.8069333,172.680857 91.3933949,172.122321 92.2331077,168.21675 C93.0728205,164.312571 92.7910564,147.850393 88.3204923,138.086464 C83.8513231,128.31975 77.1461744,124.135607 67.9246769,128.31975 C67.9246769,128.31975 56.7489641,127.761214 52.8363487,141.710679 C48.9237333,155.662929 51.7176615,167.936786 58.1452308,172.680857 C58.1452308,172.680857 56.7489641,167.936786 57.3069128,165.985393 C57.3069128,165.985393 53.9550359,140.595 65.1293538,135.853714" id="Fill-218" fill="#68696B" sketch:type="MSShapeGroup"></path>
                    <path d="M65.5547897,163.212214 C65.5547897,163.212214 70.164841,166.854536 74.7734974,163.401643 C74.7734974,163.401643 73.4316308,166.662321 70.164841,166.854536 C70.164841,166.854536 68.0516103,167.240357 65.5547897,163.212214" id="Fill-219" fill="#8E8E8E" sketch:type="MSShapeGroup"></path>
                    <path d="M188.755446,139.887429 C188.522503,138.728571 188.007795,137.760536 187.320123,136.947107 C186.741251,136.123929 186.085662,135.516643 185.3408,135.197679 L185.032533,135.06675 C180.896738,132.606964 175.1136,132.60975 176.618667,132.109714 C178.844882,131.367321 181.071097,128.403321 179.586954,129.514821 C178.10281,130.626321 171.793805,130.257214 171.793805,130.257214 C162.517908,130.998214 159.919262,135.814714 159.919262,135.814714 L159.984821,135.990214 C157.328985,138.491786 156.062441,145.149643 155.899241,152.976107 C155.899241,152.976107 157.200656,147.056464 160.664123,145.078607 L160.664123,141.620143 C160.664123,141.620143 166.6272,138.426321 173.250051,138.185357 C179.872903,138.426321 185.835979,141.620143 185.835979,141.620143 L185.835979,145.078607 C189.298051,147.056464 190.600862,152.976107 190.600862,152.976107 C190.492062,147.81975 189.903426,143.175964 188.755446,139.887429" id="Fill-220" fill="#68696B" sketch:type="MSShapeGroup"></path>
                </g>
            </g>
        </g>
    </g>
</svg>