<?xml version="1.0" encoding="UTF-8" standalone="no"?>
<svg width="360px" height="240px" viewBox="0 0 360 240" version="1.1" xmlns="http://www.w3.org/2000/svg" xmlns:xlink="http://www.w3.org/1999/xlink" xmlns:sketch="http://www.bohemiancoding.com/sketch/ns">
    <!-- Generator: Sketch 3.0.4 (8054) - http://www.bohemiancoding.com/sketch -->
    <title>download</title>
    <desc>Created with Sketch.</desc>
    <defs></defs>
    <g id="Page-1" stroke="none" stroke-width="1" fill="none" fill-rule="evenodd" sketch:type="MSPage">
        <g id="Portrait" sketch:type="MSArtboardGroup" transform="translate(-8.000000, -448.000000)">
            <g id="download" sketch:type="MSLayerGroup" transform="translate(8.000000, 448.000000)">
                <rect id="Rectangle-6" fill="#F2F2F2" sketch:type="MSShapeGroup" x="0" y="0" width="360" height="240"></rect>
                <g id="Imported-Layers" transform="translate(3.000000, 4.000000)" sketch:type="MSShapeGroup">
                    <path d="M288.125299,210.266517 C288.125299,219.608652 223.740161,227.165056 144.297124,227.165056 C64.815438,227.165056 0.43029927,219.608652 0.43029927,210.266517 C0.43029927,200.945056 64.815438,193.383483 144.297124,193.383483 C223.740161,193.383483 288.125299,200.945056 288.125299,210.266517" id="Fill-1" fill="#E5E5E5"></path>
                    <path d="M48.2811241,58.4975281 C48.6186642,56.2569663 49.0876131,53.9595506 49.6982774,53.0447191 C49.6982774,53.0447191 48.8814818,52.7992135 48.2811241,58.4975281" id="Fill-2" fill="#936A5D"></path>
                    <path d="M142.800095,214.649438 L140.406394,208.072472 L47.6627299,208.072472 L47.6627299,214.871685 L203.585664,214.871685 C203.585664,214.871685 206.018015,215.184382 208.903854,214.649438 L142.800095,214.649438" id="Fill-3" fill="#AB948C"></path>
                    <path d="M47.6627299,63.9219101 L47.6627299,75.4865169 C47.6627299,67.0307865 47.935854,61.7769663 48.2811241,58.4975281 C47.8740146,61.2420225 47.6627299,63.9219101 47.6627299,63.9219101" id="Fill-4" fill="#825646"></path>
                    <path d="M83.1430949,50.5560674 L132.895482,47.312809 C104.12727,47.2869663 78.6313942,47.3464045 71.3910292,47.61 C52.4089051,48.2870787 49.6982774,53.0447191 49.6982774,53.0447191 L84.0449197,53.0447191 L83.1430949,50.5560674" id="Fill-5" fill="#5C3C33"></path>
                    <path d="M217.533029,208.072472 L140.406394,208.072472 L142.800095,214.649438 L208.903854,214.649438 C212.091161,214.052472 215.809255,212.377865 217.533029,208.072472" id="Fill-6" fill="#AB948C"></path>
                    <path d="M84.0449197,53.0447191 L200.199956,53.0447191 C219.852007,53.0447191 220.537394,72.085618 220.537394,72.085618 C220.537394,72.085618 218.49927,188.35191 218.49927,202.63 C218.49927,204.816292 218.12308,206.581348 217.533029,208.072472 L219.17435,208.072472 L235.451,208.072472 C251.717343,208.072472 249.679219,194.474045 249.679219,194.474045 L249.679219,63.9219101 C249.679219,46.9277528 234.773343,47.61 234.773343,47.61 C234.773343,47.61 179.535285,47.3464045 132.895482,47.312809 L83.1430949,50.5560674 L84.0449197,53.0447191" id="Fill-7" fill="#AB948C"></path>
                    <path d="M200.199956,53.0447191 L84.0449197,53.0447191 L49.6982774,53.0447191 C49.0876131,53.9595506 48.6186642,56.2569663 48.2811241,58.4975281 C47.935854,61.7769663 47.6627299,67.0307865 47.6627299,75.4865169 L47.6627299,208.072472 L217.533029,208.072472 C218.12308,206.581348 218.49927,204.816292 218.49927,202.63 C218.49927,188.209775 221.591241,189.620787 220.537394,72.085618 C220.537394,72.085618 219.852007,53.0447191 200.199956,53.0447191" id="Fill-8" fill="#AB948C"></path>
                    <path d="M249.21027,59.081573 C249.511737,60.5106742 249.679219,62.1155056 249.679219,63.9219101 L249.679219,194.474045 C249.679219,194.474045 249.965226,196.373483 249.473088,198.751011 C249.488547,198.753596 249.498854,198.753596 249.514314,198.75618 C249.978109,196.425169 249.702409,194.58 249.702409,194.58 L249.702409,64.0304494 C249.702409,62.1775281 249.527197,60.5365169 249.21027,59.081573 M88.9894964,47.3774157 L82.0222555,47.3774157 L82.040292,47.4291011 C84.1428321,47.408427 86.4695401,47.3929213 88.9894964,47.3774157" id="Fill-9" fill="#E3E3E3"></path>
                    <path d="M217.533029,208.072472 L217.533029,208.072472 C215.809255,212.377865 212.091161,214.052472 208.903854,214.649438 L142.800095,214.649438 L140.406394,208.072472 L217.533029,208.072472 M249.473088,198.751011 C248.645985,202.738539 245.639044,208.072472 235.451,208.072472 L219.17435,208.072472 L217.533029,208.072472 C218.12308,206.581348 218.49927,204.816292 218.49927,202.63 C218.49927,204.816292 218.12308,206.581348 217.533029,208.072472 L140.388358,208.072472 L140.406394,208.072472 L142.800095,214.649438 L208.903854,214.649438 C208.687416,214.688202 208.476131,214.724382 208.264847,214.755393 L208.924467,214.755393 C212.11435,214.158427 215.835022,212.48382 217.556219,208.178427 L219.200117,208.178427 L235.476766,208.178427 C245.744686,208.178427 248.718131,202.754045 249.514314,198.75618 C249.498854,198.753596 249.488547,198.753596 249.473088,198.751011" id="Fill-10" fill="#CCCCCC"></path>
                    <path d="M140.406394,208.072472 L140.388358,208.072472 L140.427007,208.178427 L142.823285,214.755393 L208.264847,214.755393 C208.476131,214.724382 208.687416,214.688202 208.903854,214.649438 L142.800095,214.649438 L140.406394,208.072472" id="Fill-11" fill="#98847D"></path>
                    <path d="M131.885438,47.3774157 L88.9894964,47.3774157 C86.4695401,47.3929213 84.1428321,47.408427 82.040292,47.4291011 L83.905781,53.0447191 L84.0449197,53.0447191 L83.1430949,50.5560674 L131.885438,47.3774157" id="Fill-12" fill="#52352D"></path>
                    <path d="M217.533029,208.072472 L140.406394,208.072472 L142.800095,214.649438 L208.903854,214.649438 C212.091161,214.052472 215.809255,212.377865 217.533029,208.072472" id="Fill-13" fill="#98847D"></path>
                    <path d="M132.69708,47.3774157 L131.885438,47.3774157 L83.1430949,50.5560674 L84.0449197,53.0447191 L200.199956,53.0447191 C219.852007,53.0447191 220.537394,72.085618 220.537394,72.085618 C221.591241,189.563933 218.501847,188.21236 218.49927,202.609326 L218.49927,202.63 C218.49927,204.816292 218.12308,206.581348 217.533029,208.072472 L219.17435,208.072472 L235.451,208.072472 C245.639044,208.072472 248.645985,202.738539 249.473088,198.751011 C249.965226,196.373483 249.679219,194.474045 249.679219,194.474045 L249.679219,63.9219101 C249.679219,62.1155056 249.511737,60.5106742 249.21027,59.081573 C246.847489,48.1682022 236.705825,47.7133708 235.031007,47.7133708 C234.878985,47.7133708 234.796533,47.7159551 234.796533,47.7159551 C234.796533,47.7159551 179.336883,47.4135955 132.69708,47.3774157" id="Fill-14" fill="#98847D"></path>
                    <path d="M200.199956,53.0447191 L84.0449197,53.0447191 L83.905781,53.0447191 L85.4569197,57.7144944 L140.388358,208.072472 L217.533029,208.072472 C218.12308,206.581348 218.49927,204.816292 218.49927,202.63 L218.49927,202.609326 C218.501847,188.21236 221.591241,189.563933 220.537394,72.085618 C220.537394,72.085618 219.852007,53.0447191 200.199956,53.0447191" id="Fill-15" fill="#98847D"></path>
                    <path d="M220.537394,72.085618 C220.537394,72.085618 219.176927,61.2032584 204.265898,61.2032584 L47.6627299,61.2032584 C47.6627299,61.2032584 46.3099927,57.8049438 57.1525036,57.8049438 L204.265898,57.8049438 C204.265898,57.8049438 219.176927,58.487191 220.537394,72.085618" id="Fill-16" fill="#795548"></path>
                    <path d="M154.322839,0.0491011236 L154.085788,-0.617640449 L154.317686,0.0491011236 L154.322839,0.0491011236" id="Fill-17" fill="#CCE1BA"></path>
                    <path d="M157.548796,0.870898876 L154.085788,-0.617640449 L154.322839,0.0491011236 L157.548796,0.870898876" id="Fill-18" fill="#CCE1BA"></path>
                    <path d="M74.4752701,67.2452809 C74.4752701,67.8241573 74.0295109,68.2996629 73.4781095,68.2996629 L55.0164672,68.2996629 C54.4650657,68.2996629 54.0141533,67.8241573 54.0141533,67.2452809 C54.0141533,66.6586517 54.4650657,66.1831461 55.0164672,66.1831461 L73.4781095,66.1831461 C74.0295109,66.1831461 74.4752701,66.6586517 74.4752701,67.2452809" id="Fill-19" fill="#795548"></path>
                    <path d="M99.5743431,67.2452809 C99.5743431,67.8241573 99.1260073,68.2996629 98.5771825,68.2996629 L80.1129635,68.2996629 C79.5589854,68.2996629 79.1158029,67.8241573 79.1158029,67.2452809 C79.1158029,66.6586517 79.5589854,66.1831461 80.1129635,66.1831461 L98.5771825,66.1831461 C99.1260073,66.1831461 99.5743431,66.6586517 99.5743431,67.2452809" id="Fill-20" fill="#795548"></path>
                    <path d="M124.678569,67.2452809 C124.678569,67.8241573 124.227657,68.2996629 123.678832,68.2996629 L105.214613,68.2996629 C104.663212,68.2996629 104.217453,67.8241573 104.217453,67.2452809 C104.217453,66.6586517 104.663212,66.1831461 105.214613,66.1831461 L123.678832,66.1831461 C124.227657,66.1831461 124.678569,66.6586517 124.678569,67.2452809" id="Fill-21" fill="#795548"></path>
                    <path d="M149.772489,67.2452809 C149.772489,67.8241573 149.321577,68.2996629 148.775328,68.2996629 L130.311109,68.2996629 C129.757131,68.2996629 129.313949,67.8241573 129.313949,67.2452809 C129.313949,66.6586517 129.757131,66.1831461 130.311109,66.1831461 L148.775328,66.1831461 C149.321577,66.1831461 149.772489,66.6586517 149.772489,67.2452809" id="Fill-22" fill="#795548"></path>
                    <path d="M174.874139,67.2452809 C174.874139,67.8241573 174.425803,68.2996629 173.876978,68.2996629 L155.415336,68.2996629 C154.861358,68.2996629 154.418175,67.8241573 154.418175,67.2452809 C154.418175,66.6586517 154.861358,66.1831461 155.415336,66.1831461 L173.876978,66.1831461 C174.425803,66.1831461 174.874139,66.6586517 174.874139,67.2452809" id="Fill-23" fill="#795548"></path>
                    <path d="M199.973212,67.2452809 C199.973212,67.8241573 199.524876,68.2996629 198.981204,68.2996629 L180.514409,68.2996629 C179.963007,68.2996629 179.514672,67.8241573 179.514672,67.2452809 C179.514672,66.6586517 179.963007,66.1831461 180.514409,66.1831461 L198.981204,66.1831461 C199.524876,66.1831461 199.973212,66.6586517 199.973212,67.2452809" id="Fill-24" fill="#795548"></path>
                    <path d="M54.542365,90.0747191 C53.9574672,90.0747191 53.4885182,89.6896629 53.4885182,89.2193258 L53.4885182,73.4526966 C53.4885182,72.9823596 53.9574672,72.5998876 54.542365,72.5998876 C55.1324161,72.5998876 55.5987883,72.9823596 55.5987883,73.4526966 L55.5987883,89.2193258 C55.5987883,89.6896629 55.1324161,90.0747191 54.542365,90.0747191" id="Fill-25" fill="#795548"></path>
                    <path d="M54.542365,111.508652 C53.9574672,111.508652 53.4885182,111.12618 53.4885182,110.655843 L53.4885182,94.8892135 C53.4885182,94.4137079 53.9574672,94.0364045 54.542365,94.0364045 C55.1324161,94.0364045 55.5987883,94.4137079 55.5987883,94.8892135 L55.5987883,110.655843 C55.5987883,111.12618 55.1324161,111.508652 54.542365,111.508652" id="Fill-26" fill="#795548"></path>
                    <path d="M54.542365,132.945169 C53.9574672,132.945169 53.4885182,132.562697 53.4885182,132.09236 L53.4885182,116.32573 C53.4885182,115.850225 53.9574672,115.472921 54.542365,115.472921 C55.1324161,115.472921 55.5987883,115.850225 55.5987883,116.32573 L55.5987883,132.09236 C55.5987883,132.562697 55.1324161,132.945169 54.542365,132.945169" id="Fill-27" fill="#795548"></path>
                    <path d="M54.542365,154.376517 C53.9574672,154.376517 53.4885182,153.994045 53.4885182,153.523708 L53.4885182,137.762247 C53.4885182,137.286742 53.9574672,136.909438 54.542365,136.909438 C55.1324161,136.909438 55.5987883,137.286742 55.5987883,137.762247 L55.5987883,153.523708 C55.5987883,153.994045 55.1324161,154.376517 54.542365,154.376517" id="Fill-28" fill="#795548"></path>
                    <path d="M54.542365,175.813034 C53.9574672,175.813034 53.4885182,175.43573 53.4885182,174.960225 L53.4885182,159.198764 C53.4885182,158.723258 53.9574672,158.340787 54.542365,158.340787 C55.1324161,158.340787 55.5987883,158.723258 55.5987883,159.198764 L55.5987883,174.960225 C55.5987883,175.43573 55.1324161,175.813034 54.542365,175.813034" id="Fill-29" fill="#795548"></path>
                    <path d="M54.542365,197.249551 C53.9574672,197.249551 53.4885182,196.867079 53.4885182,196.396742 L53.4885182,180.635281 C53.4885182,180.159775 53.9574672,179.774719 54.542365,179.774719 C55.1324161,179.774719 55.5987883,180.159775 55.5987883,180.635281 L55.5987883,196.396742 C55.5987883,196.867079 55.1324161,197.249551 54.542365,197.249551" id="Fill-30" fill="#795548"></path>
                    <path d="M74.4752701,202.534382 C74.4752701,203.121011 74.0295109,203.588764 73.4781095,203.588764 L55.0164672,203.588764 C54.4650657,203.588764 54.0141533,203.121011 54.0141533,202.534382 C54.0141533,201.950337 54.4650657,201.48 55.0164672,201.48 L73.4781095,201.48 C74.0295109,201.48 74.4752701,201.950337 74.4752701,202.534382" id="Fill-31" fill="#795548"></path>
                    <path d="M99.5743431,202.534382 C99.5743431,203.121011 99.1260073,203.588764 98.5771825,203.588764 L80.1129635,203.588764 C79.5589854,203.588764 79.1158029,203.121011 79.1158029,202.534382 C79.1158029,201.950337 79.5589854,201.48 80.1129635,201.48 L98.5771825,201.48 C99.1260073,201.48 99.5743431,201.950337 99.5743431,202.534382" id="Fill-32" fill="#795548"></path>
                    <path d="M124.678569,202.534382 C124.678569,203.121011 124.227657,203.588764 123.678832,203.588764 L105.214613,203.588764 C104.663212,203.588764 104.217453,203.121011 104.217453,202.534382 C104.217453,201.950337 104.663212,201.48 105.214613,201.48 L123.678832,201.48 C124.227657,201.48 124.678569,201.950337 124.678569,202.534382" id="Fill-33" fill="#795548"></path>
                    <path d="M149.772489,202.534382 C149.772489,203.121011 149.321577,203.588764 148.775328,203.588764 L130.311109,203.588764 C129.757131,203.588764 129.313949,203.121011 129.313949,202.534382 C129.313949,201.950337 129.757131,201.48 130.311109,201.48 L148.775328,201.48 C149.321577,201.48 149.772489,201.950337 149.772489,202.534382" id="Fill-34" fill="#795548"></path>
                    <path d="M174.874139,202.534382 C174.874139,203.121011 174.425803,203.588764 173.876978,203.588764 L155.415336,203.588764 C154.861358,203.588764 154.418175,203.121011 154.418175,202.534382 C154.418175,201.950337 154.861358,201.48 155.415336,201.48 L173.876978,201.48 C174.425803,201.48 174.874139,201.950337 174.874139,202.534382" id="Fill-35" fill="#795548"></path>
                    <path d="M199.973212,202.534382 C199.973212,203.121011 199.524876,203.588764 198.981204,203.588764 L180.514409,203.588764 C179.963007,203.588764 179.514672,203.121011 179.514672,202.534382 C179.514672,201.950337 179.963007,201.48 180.514409,201.48 L198.981204,201.48 C199.524876,201.48 199.973212,201.950337 199.973212,202.534382" id="Fill-36" fill="#795548"></path>
                    <path d="M346.401219,86.8185393 L270.467569,86.8185393 C267.937307,86.8185393 265.899182,88.8678652 265.899182,91.3952809 L265.899182,103.422472 C265.899182,105.949888 267.937307,107.999213 270.467569,107.999213 L346.401219,107.999213 C348.918599,107.999213 350.967029,105.949888 350.967029,103.422472 L350.967029,91.3952809 C350.967029,88.8678652 348.918599,86.8185393 346.401219,86.8185393" id="Fill-37" fill="#F9B256"></path>
                    <path d="M304.718876,76.551236 C307.009511,78.8408989 310.704416,78.8408989 312.984745,76.551236 L350.20692,39.2292135 C352.479518,36.9369663 352.479518,33.2285393 350.20692,30.9388764 L349.946679,30.685618 L323.466526,30.685618 L323.466526,18.9582022 C323.466526,15.7201124 320.856387,13.0919101 317.630431,13.0919101 L299.35173,13.0919101 C296.123197,13.0919101 293.500175,15.7201124 293.500175,18.9582022 L293.500175,30.685618 L267.756942,30.685618 L267.504431,30.9388764 C265.231832,33.2285393 265.231832,36.9369663 267.504431,39.2292135 L304.718876,76.551236" id="Fill-38" fill="#F9B256"></path>
                    <path d="M346.401219,86.8185393 L289.346628,86.8185393 L282.559752,107.999213 L346.401219,107.999213 C348.918599,107.999213 350.967029,105.949888 350.967029,103.422472 L350.967029,91.3952809 C350.967029,88.8678652 348.918599,86.8185393 346.401219,86.8185393" id="Fill-39" fill="#ECA851"></path>
                    <path d="M295.571796,67.3770787 L295.571796,67.3796629 L304.718876,76.551236 L295.571796,67.3770787" id="Fill-40" fill="#F1F1F1"></path>
                    <path d="M317.630431,13.0919101 L312.971861,13.0919101 L295.571796,67.3770787 L304.718876,76.551236 C305.862905,77.6960674 307.359934,78.267191 308.856964,78.267191 C310.351416,78.267191 311.843292,77.6960674 312.984745,76.551236 L350.20692,39.2292135 C351.343219,38.0817978 351.91008,36.5829213 351.91008,35.0840449 C351.91008,33.5825843 351.343219,32.0837079 350.20692,30.9388764 L349.946679,30.685618 L323.466526,30.685618 L323.466526,18.9582022 C323.466526,15.7201124 320.856387,13.0919101 317.630431,13.0919101" id="Fill-41" fill="#ECA851"></path>
                    <path d="M105.629453,113.271124 L117.770591,152.632135 C117.770591,152.632135 118.541007,154.392022 120.401343,154.392022 L124.560044,154.392022 L113.186745,116.121573 C113.186745,116.121573 111.986029,113.043708 109.682511,113.043708 C107.391876,113.043708 105.629453,113.271124 105.629453,113.271124" id="Fill-42" fill="#795548"></path>
                    <path d="M114.052496,113.271124 L126.198788,152.632135 C126.198788,152.632135 126.958898,154.392022 128.816657,154.392022 L132.972781,154.392022 L121.599482,116.121573 C121.599482,116.121573 120.401343,113.043708 118.102978,113.043708 C115.804613,113.043708 114.052496,113.271124 114.052496,113.271124" id="Fill-43" fill="#795548"></path>
                    <path d="M104.652905,114.36427 L107.938124,125.321573 L97.8763358,158.340787 C97.8763358,158.340787 93.8284307,154.503146 92.9549489,152.748427 L104.652905,114.36427" id="Fill-44" fill="#795548"></path>
                    <path d="M108.703387,128.071236 L112.197314,139.160337 L104.652905,162.958876 C104.652905,162.958876 99.9582628,160.426292 99.2934891,159.439101 L108.703387,128.071236" id="Fill-45" fill="#795548"></path>
                    <path d="M127.172759,130.16191 L130.457978,141.235506 L140.51719,108.665955 C140.51719,108.665955 137.675153,106.143708 134.833117,104.82573 L127.172759,130.16191" id="Fill-46" fill="#795548"></path>
                    <path d="M141.831277,109.756517 L131.344343,144.083371 L134.392511,154.392022 L146.747511,115.470337 C146.747511,115.470337 143.359226,111.074494 141.831277,109.756517" id="Fill-47" fill="#795548"></path>
                    <path d="M119.633504,163.163034 C103.480533,163.163034 90.331927,149.980674 90.331927,133.785056 C90.331927,117.563596 103.480533,104.388989 119.633504,104.388989 C135.794204,104.388989 148.947964,117.563596 148.947964,133.785056 C148.947964,149.980674 135.794204,163.163034 119.633504,163.163034 L119.633504,163.163034 Z M119.633504,105.699213 C104.201993,105.699213 91.6408613,118.302697 91.6408613,133.785056 C91.6408613,149.249326 104.201993,161.850225 119.633504,161.850225 C135.077898,161.850225 147.620993,149.249326 147.620993,133.785056 C147.620993,118.302697 135.077898,105.699213 119.633504,105.699213 L119.633504,105.699213 Z" id="Fill-48" fill="#795548"></path>
                    <path d="M119.633504,166.843034 C101.452715,166.843034 86.6705182,152.009326 86.6705182,133.785056 C86.6705182,115.545281 101.452715,100.708989 119.633504,100.708989 C137.806562,100.708989 152.599066,115.545281 152.599066,133.785056 C152.599066,152.009326 137.806562,166.843034 119.633504,166.843034 L119.633504,166.843034 Z M119.633504,101.052697 C101.635657,101.052697 86.9925985,115.733933 86.9925985,133.785056 C86.9925985,151.823258 101.635657,166.504494 119.633504,166.504494 C137.62362,166.504494 152.276985,151.823258 152.276985,133.785056 C152.276985,115.733933 137.62362,101.052697 119.633504,101.052697 L119.633504,101.052697 Z" id="Fill-49" fill="#795548"></path>
                    <path d="M73.7563869,52.9775281 L232.755832,53.4065169 C232.755832,53.4065169 249.504007,53.4091011 249.504007,68.4831461 C249.504007,68.4831461 252.681007,48.7031461 234.773343,47.61 L80.303635,47.61 L73.7563869,52.9775281" id="Fill-50" fill="#5C3C33"></path>
                    <path d="M238.339416,208.033708 L47.6627299,208.033708 L47.6627299,214.871685 L201.622263,214.871685 C201.622263,214.871685 211.284672,217.078652 215.793796,210.617978 L238.339416,208.033708" id="Fill-51" fill="#795548"></path>
                    <path d="M220.537394,72.085618 L220.537394,114.676966 L220.537394,146.184382 L220.537394,196.081461 C220.537394,196.081461 223.523723,217.401685 199.367701,214.817416 C199.367701,214.817416 217.726277,215.140449 218.048358,199.311798 C218.370438,183.483146 220.537394,72.085618 220.537394,72.085618" id="Fill-52" fill="#795548"></path>
                    <path d="M259.174146,115.728764 C257.916745,115.214494 256.551124,114.922472 255.105628,114.922472 L189.349715,114.922472 C183.356445,114.922472 178.504628,119.791236 178.504628,125.799663 L178.504628,138.715843 C178.504628,144.726854 183.356445,149.598202 189.349715,149.598202 L255.105628,149.598202 C256.551124,149.598202 257.916745,149.301011 259.174146,148.789326 L259.174146,115.728764" id="Fill-53" fill="#AB948C"></path>
                    <path d="M179.156518,143.21764 C179.156518,143.21764 175.515723,155.446404 199.192489,153.85191 C222.861526,152.252247 249.720445,149.456067 249.720445,149.456067 L188.262372,148.536067 C188.262372,148.536067 182.799891,148.536067 179.156518,143.21764" id="Fill-54" fill="#795548"></path>
                    <path d="M205.618635,133.273371 C205.618635,127.833483 201.215153,123.422135 195.791321,123.422135 C193.655285,123.422135 191.697036,124.117303 190.081482,125.280225 L201.611956,141.18382 C204.031423,139.387753 205.618635,136.529551 205.618635,133.273371" id="Fill-55" fill="#808080"></path>
                    <path d="M185.956277,133.273371 C185.956277,138.721011 190.362336,143.137528 195.791321,143.137528 C197.976314,143.137528 199.978365,142.395843 201.611956,141.18382 L190.081482,125.280225 C187.595022,127.065955 185.956277,129.973258 185.956277,133.273371" id="Fill-56" fill="#434A4D"></path>
                    <path d="M249.738482,119.036629 C249.738482,118.630899 249.944613,118.307865 250.202277,118.307865 L258.782496,118.307865 C259.035007,118.307865 259.241139,118.630899 259.241139,119.036629 C259.241139,119.434607 259.035007,119.762809 258.782496,119.762809 L250.202277,119.762809 C249.944613,119.762809 249.738482,119.434607 249.738482,119.036629" id="Fill-57" fill="#795548"></path>
                    <path d="M238.071445,119.036629 C238.071445,118.630899 238.287883,118.307865 238.542971,118.307865 L247.120613,118.307865 C247.378277,118.307865 247.584409,118.630899 247.584409,119.036629 C247.584409,119.434607 247.378277,119.762809 247.120613,119.762809 L238.542971,119.762809 C238.287883,119.762809 238.071445,119.434607 238.071445,119.036629" id="Fill-58" fill="#795548"></path>
                    <path d="M226.422445,119.036629 C226.422445,118.630899 226.628577,118.307865 226.883664,118.307865 L235.456153,118.307865 C235.718971,118.307865 235.922526,118.630899 235.922526,119.036629 C235.922526,119.434607 235.718971,119.762809 235.456153,119.762809 L226.883664,119.762809 C226.628577,119.762809 226.422445,119.434607 226.422445,119.036629" id="Fill-59" fill="#795548"></path>
                    <path d="M214.752832,119.036629 C214.752832,118.630899 214.966693,118.307865 215.219204,118.307865 L223.796847,118.307865 C224.054511,118.307865 224.260642,118.630899 224.260642,119.036629 C224.260642,119.434607 224.054511,119.762809 223.796847,119.762809 L215.219204,119.762809 C214.966693,119.762809 214.752832,119.434607 214.752832,119.036629" id="Fill-60" fill="#795548"></path>
                    <path d="M203.096102,119.036629 C203.096102,118.630899 203.307387,118.307865 203.559898,118.307865 L212.140117,118.307865 C212.397781,118.307865 212.606489,118.630899 212.606489,119.036629 C212.606489,119.434607 212.397781,119.762809 212.140117,119.762809 L203.559898,119.762809 C203.307387,119.762809 203.096102,119.434607 203.096102,119.036629" id="Fill-61" fill="#795548"></path>
                    <path d="M249.738482,145.458202 C249.738482,145.055056 249.944613,144.732022 250.202277,144.732022 L258.782496,144.732022 C259.035007,144.732022 259.241139,145.055056 259.241139,145.458202 C259.241139,145.861348 259.035007,146.184382 258.782496,146.184382 L250.202277,146.184382 C249.944613,146.184382 249.738482,145.861348 249.738482,145.458202" id="Fill-62" fill="#795548"></path>
                    <path d="M238.071445,145.458202 C238.071445,145.055056 238.287883,144.732022 238.542971,144.732022 L247.120613,144.732022 C247.378277,144.732022 247.584409,145.055056 247.584409,145.458202 C247.584409,145.861348 247.378277,146.184382 247.120613,146.184382 L238.542971,146.184382 C238.287883,146.184382 238.071445,145.861348 238.071445,145.458202" id="Fill-63" fill="#795548"></path>
                    <path d="M226.422445,145.458202 C226.422445,145.055056 226.628577,144.732022 226.883664,144.732022 L235.456153,144.732022 C235.718971,144.732022 235.922526,145.055056 235.922526,145.458202 C235.922526,145.861348 235.718971,146.184382 235.456153,146.184382 L226.883664,146.184382 C226.628577,146.184382 226.422445,145.861348 226.422445,145.458202" id="Fill-64" fill="#795548"></path>
                    <path d="M214.752832,145.458202 C214.752832,145.055056 214.966693,144.732022 215.219204,144.732022 L223.796847,144.732022 C224.054511,144.732022 224.260642,145.055056 224.260642,145.458202 C224.260642,145.861348 224.054511,146.184382 223.796847,146.184382 L215.219204,146.184382 C214.966693,146.184382 214.752832,145.861348 214.752832,145.458202" id="Fill-65" fill="#795548"></path>
                    <path d="M203.096102,145.458202 C203.096102,145.055056 203.307387,144.732022 203.559898,144.732022 L212.140117,144.732022 C212.397781,144.732022 212.606489,145.055056 212.606489,145.458202 C212.606489,145.861348 212.397781,146.184382 212.140117,146.184382 L203.559898,146.184382 C203.307387,146.184382 203.096102,145.861348 203.096102,145.458202" id="Fill-66" fill="#795548"></path>
                </g>
            </g>
        </g>
    </g>
</svg>